M48
; DRILL file KiCad 10.0.1 date 2026-06-23T20:13:17
; FORMAT={-:-/ absolute / metric / decimal}
; #@! TF.CreationDate,2026-06-23T20:13:17+05:30
; #@! TF.GenerationSoftware,Kicad,Pcbnew,10.0.1
; #@! TF.FileFunction,Plated,1,2,PTH
FMAT,2
METRIC
; #@! TA.AperFunction,Plated,PTH,ComponentDrill
T1C0.800
; #@! TA.AperFunction,Plated,PTH,ComponentDrill
T2C0.900
; #@! TA.AperFunction,Plated,PTH,ComponentDrill
T3C1.000
; #@! TA.AperFunction,Plated,PTH,ComponentDrill
T4C1.100
; #@! TA.AperFunction,Plated,PTH,ComponentDrill
T5C1.200
; #@! TA.AperFunction,Plated,PTH,ComponentDrill
T6C1.300
%
G90
G05
T1
X126.463Y-87.02
X126.463Y-94.64
X141.383Y-71.175
X143.833Y-89.15
X143.833Y-96.77
X146.383Y-71.175
X147.773Y-96.2
X155.1Y-81.915
X155.1Y-89.535
X155.393Y-96.2
X161.823Y-73.65
X165.323Y-73.65
T2
X143.733Y-76.35
X143.733Y-83.97
X149.708Y-82.165
X149.708Y-89.785
X163.147Y-88.16
X165.687Y-88.16
T3
X152.833Y-71.632
X152.833Y-76.632
T4
X131.326Y-71.374
X131.326Y-81.534
X131.363Y-86.512
X131.363Y-96.672
X137.403Y-71.4
X137.403Y-81.56
X137.483Y-86.57
X137.483Y-96.73
X161.798Y-82.448
X164.338Y-82.448
X166.878Y-82.448
T5
X120.503Y-84.5
X120.503Y-99.5
T6
X122.735Y-73.482
X122.735Y-78.562
X163.06Y-95.31
X163.06Y-100.39
M30
