%TF.GenerationSoftware,KiCad,Pcbnew,10.0.1*%
%TF.CreationDate,2026-06-23T20:13:12+05:30*%
%TF.ProjectId,Transfarmerless AC to DC,5472616e-7366-4617-926d-65726c657373,rev?*%
%TF.SameCoordinates,Original*%
%TF.FileFunction,Legend,Top*%
%TF.FilePolarity,Positive*%
%FSLAX46Y46*%
G04 Gerber Fmt 4.6, Leading zero omitted, Abs format (unit mm)*
G04 Created by KiCad (PCBNEW 10.0.1) date 2026-06-23 20:13:12*
%MOMM*%
%LPD*%
G01*
G04 APERTURE LIST*
%ADD10C,0.187500*%
%ADD11C,0.150000*%
%ADD12C,0.120000*%
G04 APERTURE END LIST*
D10*
G36*
X134337762Y-103777983D02*
G01*
X134385319Y-103873096D01*
X134385319Y-103916964D01*
X133858533Y-104022321D01*
X133858533Y-103873095D01*
X133906088Y-103777984D01*
X134001201Y-103730428D01*
X134242652Y-103730428D01*
X134337762Y-103777983D01*
G37*
G36*
X138709247Y-103785155D02*
G01*
X138759162Y-103835069D01*
X138813889Y-103944523D01*
X138813889Y-104328832D01*
X138759160Y-104438289D01*
X138709250Y-104488199D01*
X138599793Y-104542928D01*
X138429771Y-104542928D01*
X138320313Y-104488199D01*
X138270403Y-104438289D01*
X138215675Y-104328832D01*
X138215675Y-103944523D01*
X138270401Y-103835069D01*
X138320316Y-103785155D01*
X138429771Y-103730428D01*
X138599794Y-103730428D01*
X138709247Y-103785155D01*
G37*
G36*
X143739485Y-104897095D02*
G01*
X126290080Y-104897095D01*
X126290080Y-103136678D01*
X126456747Y-103136678D01*
X126456747Y-104636678D01*
X126458548Y-104654968D01*
X126472547Y-104688763D01*
X126498412Y-104714628D01*
X126532207Y-104728627D01*
X126568787Y-104728627D01*
X126602582Y-104714628D01*
X126628447Y-104688763D01*
X126642446Y-104654968D01*
X126644247Y-104636678D01*
X126644247Y-103944714D01*
X127050497Y-103944714D01*
X127068787Y-103942913D01*
X127102582Y-103928914D01*
X127128447Y-103903049D01*
X127142446Y-103869254D01*
X127142446Y-103832674D01*
X127128447Y-103798879D01*
X127102582Y-103773014D01*
X127068787Y-103759015D01*
X127050497Y-103757214D01*
X126644247Y-103757214D01*
X126644247Y-103636678D01*
X127742461Y-103636678D01*
X127742461Y-104422392D01*
X127744262Y-104440682D01*
X127745551Y-104443794D01*
X127745790Y-104447154D01*
X127752358Y-104464318D01*
X127823787Y-104607176D01*
X127825713Y-104610236D01*
X127826194Y-104611678D01*
X127827751Y-104613473D01*
X127833578Y-104622730D01*
X127842458Y-104630431D01*
X127850160Y-104639312D01*
X127859416Y-104645138D01*
X127861212Y-104646696D01*
X127862653Y-104647176D01*
X127865714Y-104649103D01*
X128008571Y-104720531D01*
X128025736Y-104727099D01*
X128029094Y-104727337D01*
X128032207Y-104728627D01*
X128050497Y-104730428D01*
X128264783Y-104730428D01*
X128283073Y-104728627D01*
X128286185Y-104727337D01*
X128289545Y-104727099D01*
X128306709Y-104720531D01*
X128395821Y-104675974D01*
X128401119Y-104688763D01*
X128426984Y-104714628D01*
X128460779Y-104728627D01*
X128497359Y-104728627D01*
X128531154Y-104714628D01*
X128557019Y-104688763D01*
X128571018Y-104654968D01*
X128572819Y-104636678D01*
X128572819Y-103636678D01*
X129099604Y-103636678D01*
X129099604Y-104636678D01*
X129101405Y-104654968D01*
X129115404Y-104688763D01*
X129141269Y-104714628D01*
X129175064Y-104728627D01*
X129211644Y-104728627D01*
X129245439Y-104714628D01*
X129271304Y-104688763D01*
X129285303Y-104654968D01*
X129287104Y-104636678D01*
X129287104Y-103818368D01*
X129320317Y-103785155D01*
X129429772Y-103730428D01*
X129599795Y-103730428D01*
X129694905Y-103777983D01*
X129742462Y-103873096D01*
X129742462Y-104636678D01*
X129744263Y-104654968D01*
X129758262Y-104688763D01*
X129784127Y-104714628D01*
X129817922Y-104728627D01*
X129854502Y-104728627D01*
X129888297Y-104714628D01*
X129914162Y-104688763D01*
X129928161Y-104654968D01*
X129929962Y-104636678D01*
X129929962Y-103850964D01*
X129928161Y-103832674D01*
X129926871Y-103829561D01*
X129926633Y-103826202D01*
X129920064Y-103809037D01*
X129848635Y-103666180D01*
X129846709Y-103663120D01*
X129846229Y-103661680D01*
X129844673Y-103659885D01*
X129838845Y-103650627D01*
X129829963Y-103642924D01*
X129822263Y-103634045D01*
X129813007Y-103628218D01*
X129811210Y-103626660D01*
X129809767Y-103626179D01*
X129806709Y-103624254D01*
X129663853Y-103552826D01*
X129646688Y-103546257D01*
X129643328Y-103546018D01*
X129640216Y-103544729D01*
X129621926Y-103542928D01*
X129407640Y-103542928D01*
X129389350Y-103544729D01*
X129386237Y-103546018D01*
X129382878Y-103546257D01*
X129365713Y-103552826D01*
X129276601Y-103597381D01*
X129271304Y-103584593D01*
X129245439Y-103558728D01*
X129211644Y-103544729D01*
X129175064Y-103544729D01*
X129141269Y-103558728D01*
X129115404Y-103584593D01*
X129101405Y-103618388D01*
X129099604Y-103636678D01*
X128572819Y-103636678D01*
X128571018Y-103618388D01*
X128557019Y-103584593D01*
X128531154Y-103558728D01*
X128497359Y-103544729D01*
X128460779Y-103544729D01*
X128426984Y-103558728D01*
X128401119Y-103584593D01*
X128387120Y-103618388D01*
X128385319Y-103636678D01*
X128385319Y-104454989D01*
X128352108Y-104488199D01*
X128242651Y-104542928D01*
X128072629Y-104542928D01*
X127977517Y-104495372D01*
X127929961Y-104400260D01*
X127929961Y-103636678D01*
X127928160Y-103618388D01*
X127914161Y-103584593D01*
X127888296Y-103558728D01*
X127854501Y-103544729D01*
X127817921Y-103544729D01*
X127784126Y-103558728D01*
X127758261Y-103584593D01*
X127744262Y-103618388D01*
X127742461Y-103636678D01*
X126644247Y-103636678D01*
X126644247Y-103230428D01*
X127264783Y-103230428D01*
X127283073Y-103228627D01*
X127316868Y-103214628D01*
X127342733Y-103188763D01*
X127356732Y-103154968D01*
X127356732Y-103136678D01*
X131599604Y-103136678D01*
X131599604Y-104636678D01*
X131601405Y-104654968D01*
X131615404Y-104688763D01*
X131641269Y-104714628D01*
X131675064Y-104728627D01*
X131693354Y-104730428D01*
X132407640Y-104730428D01*
X132425930Y-104728627D01*
X132459725Y-104714628D01*
X132485590Y-104688763D01*
X132499589Y-104654968D01*
X132499589Y-104618388D01*
X132485590Y-104584593D01*
X132459725Y-104558728D01*
X132425930Y-104544729D01*
X132407640Y-104542928D01*
X131787104Y-104542928D01*
X131787104Y-103944714D01*
X132193354Y-103944714D01*
X132211644Y-103942913D01*
X132245439Y-103928914D01*
X132271304Y-103903049D01*
X132285303Y-103869254D01*
X132285303Y-103832674D01*
X132271304Y-103798879D01*
X132245439Y-103773014D01*
X132211644Y-103759015D01*
X132193354Y-103757214D01*
X131787104Y-103757214D01*
X131787104Y-103230428D01*
X132407640Y-103230428D01*
X132425930Y-103228627D01*
X132459725Y-103214628D01*
X132485590Y-103188763D01*
X132499589Y-103154968D01*
X132499589Y-103136678D01*
X132956747Y-103136678D01*
X132956747Y-104422392D01*
X132958548Y-104440682D01*
X132959837Y-104443794D01*
X132960076Y-104447154D01*
X132966644Y-104464318D01*
X133038073Y-104607176D01*
X133039999Y-104610236D01*
X133040480Y-104611678D01*
X133042037Y-104613473D01*
X133047864Y-104622730D01*
X133056744Y-104630431D01*
X133064446Y-104639312D01*
X133073702Y-104645138D01*
X133075498Y-104646696D01*
X133076939Y-104647176D01*
X133080000Y-104649103D01*
X133222857Y-104720531D01*
X133240022Y-104727099D01*
X133276509Y-104729692D01*
X133311211Y-104718125D01*
X133338846Y-104694158D01*
X133355205Y-104661440D01*
X133357797Y-104624952D01*
X133346230Y-104590250D01*
X133322263Y-104562616D01*
X133306709Y-104552825D01*
X133191803Y-104495372D01*
X133144247Y-104400260D01*
X133144247Y-103850964D01*
X133671033Y-103850964D01*
X133671033Y-104422392D01*
X133672834Y-104440682D01*
X133674123Y-104443794D01*
X133674362Y-104447153D01*
X133680930Y-104464318D01*
X133752358Y-104607176D01*
X133754284Y-104610236D01*
X133754765Y-104611678D01*
X133756322Y-104613473D01*
X133762149Y-104622730D01*
X133771030Y-104630432D01*
X133778731Y-104639312D01*
X133787983Y-104645136D01*
X133789783Y-104646697D01*
X133791227Y-104647178D01*
X133794285Y-104649103D01*
X133937144Y-104720531D01*
X133954308Y-104727100D01*
X133957669Y-104727338D01*
X133960779Y-104728627D01*
X133979069Y-104730428D01*
X134264783Y-104730428D01*
X134283073Y-104728627D01*
X134286185Y-104727337D01*
X134289545Y-104727099D01*
X134306709Y-104720531D01*
X134449566Y-104649103D01*
X134465120Y-104639312D01*
X134489087Y-104611678D01*
X134500654Y-104576976D01*
X134498062Y-104540488D01*
X134481703Y-104507770D01*
X134454068Y-104483803D01*
X134419366Y-104472236D01*
X134382879Y-104474829D01*
X134365714Y-104481397D01*
X134242651Y-104542928D01*
X134001201Y-104542928D01*
X133906087Y-104495372D01*
X133858533Y-104400260D01*
X133858533Y-104213534D01*
X134497355Y-104085770D01*
X134497359Y-104085770D01*
X134497362Y-104085768D01*
X134497455Y-104085750D01*
X134515037Y-104080397D01*
X134522668Y-104075285D01*
X134531154Y-104071771D01*
X134537718Y-104065206D01*
X134545430Y-104060042D01*
X134550524Y-104052401D01*
X134557019Y-104045906D01*
X134560571Y-104037329D01*
X134565720Y-104029607D01*
X134567502Y-104020597D01*
X134571018Y-104012111D01*
X134572819Y-103993821D01*
X134572819Y-103993728D01*
X134572820Y-103993723D01*
X134572819Y-103993718D01*
X134572819Y-103922392D01*
X134956747Y-103922392D01*
X134956747Y-104350964D01*
X134958548Y-104369254D01*
X134959837Y-104372366D01*
X134960076Y-104375726D01*
X134966644Y-104392890D01*
X135038072Y-104535747D01*
X135043025Y-104543616D01*
X135043974Y-104545906D01*
X135046088Y-104548482D01*
X135047863Y-104551301D01*
X135049734Y-104552923D01*
X135055634Y-104560112D01*
X135127063Y-104631541D01*
X135134251Y-104637441D01*
X135135874Y-104639312D01*
X135138692Y-104641086D01*
X135141269Y-104643201D01*
X135143558Y-104644149D01*
X135151428Y-104649103D01*
X135294285Y-104720531D01*
X135311450Y-104727099D01*
X135314808Y-104727337D01*
X135317921Y-104728627D01*
X135336211Y-104730428D01*
X135621925Y-104730428D01*
X135640215Y-104728627D01*
X135643327Y-104727337D01*
X135646686Y-104727099D01*
X135663851Y-104720531D01*
X135806709Y-104649103D01*
X135822263Y-104639312D01*
X135846230Y-104611678D01*
X135857797Y-104576976D01*
X135855205Y-104540489D01*
X135838846Y-104507770D01*
X135811211Y-104483804D01*
X135776510Y-104472236D01*
X135740022Y-104474828D01*
X135722858Y-104481397D01*
X135599793Y-104542928D01*
X135358343Y-104542928D01*
X135248885Y-104488199D01*
X135198975Y-104438289D01*
X135144247Y-104328832D01*
X135144247Y-103944523D01*
X135198973Y-103835069D01*
X135248888Y-103785155D01*
X135358343Y-103730428D01*
X135599793Y-103730428D01*
X135722857Y-103791960D01*
X135740021Y-103798528D01*
X135776509Y-103801121D01*
X135811210Y-103789553D01*
X135838845Y-103765587D01*
X135855204Y-103732869D01*
X135857797Y-103696381D01*
X135846229Y-103661679D01*
X135822263Y-103634045D01*
X135806709Y-103624254D01*
X135794977Y-103618388D01*
X136101405Y-103618388D01*
X136101405Y-103654968D01*
X136115404Y-103688763D01*
X136141269Y-103714628D01*
X136175064Y-103728627D01*
X136193354Y-103730428D01*
X136313889Y-103730428D01*
X136313889Y-104422392D01*
X136315690Y-104440682D01*
X136316979Y-104443794D01*
X136317218Y-104447154D01*
X136323786Y-104464318D01*
X136395215Y-104607176D01*
X136397141Y-104610236D01*
X136397622Y-104611678D01*
X136399179Y-104613473D01*
X136405006Y-104622730D01*
X136413886Y-104630431D01*
X136421588Y-104639312D01*
X136430844Y-104645138D01*
X136432640Y-104646696D01*
X136434081Y-104647176D01*
X136437142Y-104649103D01*
X136579999Y-104720531D01*
X136597164Y-104727099D01*
X136600522Y-104727337D01*
X136603635Y-104728627D01*
X136621925Y-104730428D01*
X136764782Y-104730428D01*
X136783072Y-104728627D01*
X136816867Y-104714628D01*
X136842732Y-104688763D01*
X136856731Y-104654968D01*
X136856731Y-104618388D01*
X136842732Y-104584593D01*
X136816867Y-104558728D01*
X136783072Y-104544729D01*
X136764782Y-104542928D01*
X136644057Y-104542928D01*
X136548945Y-104495372D01*
X136501389Y-104400260D01*
X136501389Y-103730428D01*
X136764782Y-103730428D01*
X136783072Y-103728627D01*
X136816867Y-103714628D01*
X136842732Y-103688763D01*
X136856731Y-103654968D01*
X136856731Y-103636678D01*
X137171032Y-103636678D01*
X137171032Y-104636678D01*
X137172833Y-104654968D01*
X137186832Y-104688763D01*
X137212697Y-104714628D01*
X137246492Y-104728627D01*
X137283072Y-104728627D01*
X137316867Y-104714628D01*
X137342732Y-104688763D01*
X137356731Y-104654968D01*
X137358532Y-104636678D01*
X137358532Y-103944523D01*
X137369597Y-103922392D01*
X138028175Y-103922392D01*
X138028175Y-104350964D01*
X138029976Y-104369254D01*
X138031265Y-104372366D01*
X138031504Y-104375726D01*
X138038072Y-104392890D01*
X138109500Y-104535747D01*
X138114453Y-104543616D01*
X138115402Y-104545906D01*
X138117516Y-104548482D01*
X138119291Y-104551301D01*
X138121162Y-104552923D01*
X138127062Y-104560112D01*
X138198491Y-104631541D01*
X138205679Y-104637441D01*
X138207302Y-104639312D01*
X138210120Y-104641086D01*
X138212697Y-104643201D01*
X138214986Y-104644149D01*
X138222856Y-104649103D01*
X138365713Y-104720531D01*
X138382878Y-104727099D01*
X138386236Y-104727337D01*
X138389349Y-104728627D01*
X138407639Y-104730428D01*
X138621925Y-104730428D01*
X138640215Y-104728627D01*
X138643327Y-104727337D01*
X138646687Y-104727099D01*
X138663851Y-104720531D01*
X138806708Y-104649103D01*
X138814577Y-104644149D01*
X138816867Y-104643201D01*
X138819443Y-104641086D01*
X138822262Y-104639312D01*
X138823884Y-104637440D01*
X138831073Y-104631541D01*
X138902502Y-104560112D01*
X138908402Y-104552923D01*
X138910273Y-104551301D01*
X138912047Y-104548482D01*
X138914162Y-104545906D01*
X138915110Y-104543616D01*
X138920064Y-104535747D01*
X138991492Y-104392890D01*
X138998060Y-104375725D01*
X138998298Y-104372366D01*
X138999588Y-104369254D01*
X139001389Y-104350964D01*
X139001389Y-103922392D01*
X138999588Y-103904102D01*
X138998298Y-103900989D01*
X138998060Y-103897631D01*
X138991492Y-103880466D01*
X138920064Y-103737609D01*
X138915107Y-103729735D01*
X138914161Y-103727450D01*
X138912049Y-103724876D01*
X138910273Y-103722055D01*
X138908401Y-103720432D01*
X138902502Y-103713243D01*
X138831073Y-103641815D01*
X138824814Y-103636678D01*
X139456746Y-103636678D01*
X139456746Y-104636678D01*
X139458547Y-104654968D01*
X139472546Y-104688763D01*
X139498411Y-104714628D01*
X139532206Y-104728627D01*
X139568786Y-104728627D01*
X139602581Y-104714628D01*
X139628446Y-104688763D01*
X139642445Y-104654968D01*
X139644246Y-104636678D01*
X139644246Y-103818368D01*
X139677459Y-103785155D01*
X139786914Y-103730428D01*
X139956937Y-103730428D01*
X140052047Y-103777983D01*
X140099604Y-103873096D01*
X140099604Y-104636678D01*
X140101405Y-104654968D01*
X140115404Y-104688763D01*
X140141269Y-104714628D01*
X140175064Y-104728627D01*
X140211644Y-104728627D01*
X140245439Y-104714628D01*
X140271304Y-104688763D01*
X140285303Y-104654968D01*
X140287104Y-104636678D01*
X140287104Y-103850964D01*
X140285303Y-103832674D01*
X140284013Y-103829561D01*
X140283775Y-103826202D01*
X140277206Y-103809037D01*
X140205777Y-103666180D01*
X140203851Y-103663120D01*
X140203371Y-103661680D01*
X140201815Y-103659885D01*
X140195987Y-103650627D01*
X140187105Y-103642924D01*
X140181688Y-103636678D01*
X140813889Y-103636678D01*
X140813889Y-104636678D01*
X140815690Y-104654968D01*
X140829689Y-104688763D01*
X140855554Y-104714628D01*
X140889349Y-104728627D01*
X140925929Y-104728627D01*
X140959724Y-104714628D01*
X140985589Y-104688763D01*
X140999588Y-104654968D01*
X141001389Y-104636678D01*
X141001389Y-103922392D01*
X141456747Y-103922392D01*
X141456747Y-104350964D01*
X141458548Y-104369254D01*
X141459837Y-104372366D01*
X141460076Y-104375726D01*
X141466644Y-104392890D01*
X141538072Y-104535747D01*
X141543025Y-104543616D01*
X141543974Y-104545906D01*
X141546088Y-104548482D01*
X141547863Y-104551301D01*
X141549734Y-104552923D01*
X141555634Y-104560112D01*
X141627063Y-104631541D01*
X141634251Y-104637441D01*
X141635874Y-104639312D01*
X141638692Y-104641086D01*
X141641269Y-104643201D01*
X141643558Y-104644149D01*
X141651428Y-104649103D01*
X141794285Y-104720531D01*
X141811450Y-104727099D01*
X141814808Y-104727337D01*
X141817921Y-104728627D01*
X141836211Y-104730428D01*
X142121925Y-104730428D01*
X142140215Y-104728627D01*
X142143327Y-104727337D01*
X142146686Y-104727099D01*
X142163851Y-104720531D01*
X142306709Y-104649103D01*
X142322263Y-104639312D01*
X142346230Y-104611678D01*
X142357797Y-104576976D01*
X142355205Y-104540489D01*
X142338846Y-104507770D01*
X142311211Y-104483804D01*
X142276510Y-104472236D01*
X142240022Y-104474828D01*
X142222858Y-104481397D01*
X142099793Y-104542928D01*
X141858343Y-104542928D01*
X141748885Y-104488199D01*
X141698975Y-104438289D01*
X141644247Y-104328832D01*
X141644247Y-103944523D01*
X141691026Y-103850964D01*
X142742461Y-103850964D01*
X142742461Y-103922392D01*
X142744262Y-103940682D01*
X142745551Y-103943794D01*
X142745790Y-103947153D01*
X142752358Y-103964318D01*
X142823786Y-104107176D01*
X142825712Y-104110236D01*
X142826193Y-104111678D01*
X142827750Y-104113473D01*
X142833577Y-104122730D01*
X142842458Y-104130432D01*
X142850159Y-104139312D01*
X142859411Y-104145136D01*
X142861211Y-104146697D01*
X142862655Y-104147178D01*
X142865713Y-104149103D01*
X143008572Y-104220531D01*
X143025736Y-104227100D01*
X143029097Y-104227338D01*
X143032207Y-104228627D01*
X143050497Y-104230428D01*
X143242651Y-104230428D01*
X143337761Y-104277983D01*
X143385318Y-104373096D01*
X143385318Y-104400260D01*
X143337761Y-104495372D01*
X143242650Y-104542928D01*
X143001200Y-104542928D01*
X142878137Y-104481397D01*
X142860973Y-104474829D01*
X142824485Y-104472236D01*
X142789783Y-104483804D01*
X142762149Y-104507770D01*
X142745790Y-104540488D01*
X142743197Y-104576976D01*
X142754765Y-104611678D01*
X142778731Y-104639312D01*
X142794285Y-104649103D01*
X142937142Y-104720531D01*
X142954307Y-104727099D01*
X142957665Y-104727337D01*
X142960778Y-104728627D01*
X142979068Y-104730428D01*
X143264782Y-104730428D01*
X143283072Y-104728627D01*
X143286184Y-104727337D01*
X143289544Y-104727099D01*
X143306708Y-104720531D01*
X143449565Y-104649103D01*
X143452623Y-104647177D01*
X143454066Y-104646697D01*
X143455863Y-104645138D01*
X143465119Y-104639312D01*
X143472821Y-104630430D01*
X143481701Y-104622730D01*
X143487525Y-104613477D01*
X143489086Y-104611678D01*
X143489567Y-104610233D01*
X143491492Y-104607176D01*
X143562921Y-104464318D01*
X143569489Y-104447154D01*
X143569727Y-104443794D01*
X143571017Y-104440682D01*
X143572818Y-104422392D01*
X143572818Y-104350964D01*
X143571017Y-104332674D01*
X143569727Y-104329561D01*
X143569489Y-104326202D01*
X143562920Y-104309037D01*
X143491491Y-104166180D01*
X143489565Y-104163120D01*
X143489085Y-104161680D01*
X143487529Y-104159885D01*
X143481701Y-104150627D01*
X143472819Y-104142924D01*
X143465119Y-104134045D01*
X143455863Y-104128218D01*
X143454066Y-104126660D01*
X143452623Y-104126179D01*
X143449565Y-104124254D01*
X143306709Y-104052826D01*
X143289544Y-104046257D01*
X143286184Y-104046018D01*
X143283072Y-104044729D01*
X143264782Y-104042928D01*
X143072629Y-104042928D01*
X142977515Y-103995372D01*
X142929961Y-103900260D01*
X142929961Y-103873095D01*
X142977516Y-103777984D01*
X143072629Y-103730428D01*
X143242651Y-103730428D01*
X143365712Y-103791959D01*
X143382877Y-103798528D01*
X143419364Y-103801121D01*
X143454066Y-103789554D01*
X143481701Y-103765587D01*
X143498060Y-103732869D01*
X143500653Y-103696381D01*
X143489085Y-103661680D01*
X143465119Y-103634045D01*
X143449565Y-103624254D01*
X143306709Y-103552826D01*
X143289544Y-103546257D01*
X143286184Y-103546018D01*
X143283072Y-103544729D01*
X143264782Y-103542928D01*
X143050497Y-103542928D01*
X143032207Y-103544729D01*
X143029094Y-103546018D01*
X143025735Y-103546257D01*
X143008571Y-103552825D01*
X142865713Y-103624254D01*
X142862655Y-103626178D01*
X142861211Y-103626660D01*
X142859411Y-103628220D01*
X142850159Y-103634045D01*
X142842458Y-103642924D01*
X142833577Y-103650627D01*
X142827750Y-103659882D01*
X142826192Y-103661680D01*
X142825711Y-103663122D01*
X142823786Y-103666181D01*
X142752358Y-103809038D01*
X142745790Y-103826202D01*
X142745551Y-103829561D01*
X142744262Y-103832674D01*
X142742461Y-103850964D01*
X141691026Y-103850964D01*
X141698973Y-103835069D01*
X141748888Y-103785155D01*
X141858343Y-103730428D01*
X142099793Y-103730428D01*
X142222857Y-103791960D01*
X142240021Y-103798528D01*
X142276509Y-103801121D01*
X142311210Y-103789553D01*
X142338845Y-103765587D01*
X142355204Y-103732869D01*
X142357797Y-103696381D01*
X142346229Y-103661679D01*
X142322263Y-103634045D01*
X142306709Y-103624254D01*
X142163851Y-103552825D01*
X142146687Y-103546257D01*
X142143327Y-103546018D01*
X142140215Y-103544729D01*
X142121925Y-103542928D01*
X141836211Y-103542928D01*
X141817921Y-103544729D01*
X141814808Y-103546018D01*
X141811449Y-103546257D01*
X141794284Y-103552826D01*
X141651427Y-103624255D01*
X141643557Y-103629208D01*
X141641270Y-103630156D01*
X141638694Y-103632269D01*
X141635874Y-103634045D01*
X141634251Y-103635915D01*
X141627063Y-103641815D01*
X141555634Y-103713243D01*
X141549734Y-103720431D01*
X141547863Y-103722055D01*
X141546086Y-103724876D01*
X141543975Y-103727450D01*
X141543028Y-103729735D01*
X141538072Y-103737609D01*
X141466644Y-103880466D01*
X141460076Y-103897630D01*
X141459837Y-103900989D01*
X141458548Y-103904102D01*
X141456747Y-103922392D01*
X141001389Y-103922392D01*
X141001389Y-103636678D01*
X140999588Y-103618388D01*
X140985589Y-103584593D01*
X140959724Y-103558728D01*
X140925929Y-103544729D01*
X140889349Y-103544729D01*
X140855554Y-103558728D01*
X140829689Y-103584593D01*
X140815690Y-103618388D01*
X140813889Y-103636678D01*
X140181688Y-103636678D01*
X140179405Y-103634045D01*
X140170149Y-103628218D01*
X140168352Y-103626660D01*
X140166909Y-103626179D01*
X140163851Y-103624254D01*
X140020995Y-103552826D01*
X140003830Y-103546257D01*
X140000470Y-103546018D01*
X139997358Y-103544729D01*
X139979068Y-103542928D01*
X139764782Y-103542928D01*
X139746492Y-103544729D01*
X139743379Y-103546018D01*
X139740020Y-103546257D01*
X139722855Y-103552826D01*
X139633743Y-103597381D01*
X139628446Y-103584593D01*
X139602581Y-103558728D01*
X139568786Y-103544729D01*
X139532206Y-103544729D01*
X139498411Y-103558728D01*
X139472546Y-103584593D01*
X139458547Y-103618388D01*
X139456746Y-103636678D01*
X138824814Y-103636678D01*
X138823884Y-103635915D01*
X138822262Y-103634045D01*
X138819441Y-103632269D01*
X138816866Y-103630156D01*
X138814579Y-103629208D01*
X138806708Y-103624254D01*
X138663852Y-103552826D01*
X138646687Y-103546257D01*
X138643327Y-103546018D01*
X138640215Y-103544729D01*
X138621925Y-103542928D01*
X138407639Y-103542928D01*
X138389349Y-103544729D01*
X138386236Y-103546018D01*
X138382877Y-103546257D01*
X138365712Y-103552826D01*
X138222855Y-103624255D01*
X138214985Y-103629208D01*
X138212698Y-103630156D01*
X138210122Y-103632269D01*
X138207302Y-103634045D01*
X138205679Y-103635915D01*
X138198491Y-103641815D01*
X138127062Y-103713243D01*
X138121162Y-103720431D01*
X138119291Y-103722055D01*
X138117514Y-103724876D01*
X138115403Y-103727450D01*
X138114456Y-103729735D01*
X138109500Y-103737609D01*
X138038072Y-103880466D01*
X138031504Y-103897630D01*
X138031265Y-103900989D01*
X138029976Y-103904102D01*
X138028175Y-103922392D01*
X137369597Y-103922392D01*
X137413258Y-103835070D01*
X137463174Y-103785155D01*
X137572629Y-103730428D01*
X137693354Y-103730428D01*
X137711644Y-103728627D01*
X137745439Y-103714628D01*
X137771304Y-103688763D01*
X137785303Y-103654968D01*
X137785303Y-103618388D01*
X137771304Y-103584593D01*
X137745439Y-103558728D01*
X137711644Y-103544729D01*
X137693354Y-103542928D01*
X137550497Y-103542928D01*
X137532207Y-103544729D01*
X137529094Y-103546018D01*
X137525735Y-103546257D01*
X137508570Y-103552826D01*
X137365713Y-103624255D01*
X137357843Y-103629208D01*
X137357798Y-103629227D01*
X137356731Y-103618388D01*
X137342732Y-103584593D01*
X137316867Y-103558728D01*
X137283072Y-103544729D01*
X137246492Y-103544729D01*
X137212697Y-103558728D01*
X137186832Y-103584593D01*
X137172833Y-103618388D01*
X137171032Y-103636678D01*
X136856731Y-103636678D01*
X136856731Y-103618388D01*
X136842732Y-103584593D01*
X136816867Y-103558728D01*
X136783072Y-103544729D01*
X136764782Y-103542928D01*
X136501389Y-103542928D01*
X136501389Y-103189818D01*
X140744262Y-103189818D01*
X140744262Y-103226397D01*
X140745186Y-103228627D01*
X140758260Y-103260192D01*
X140769920Y-103274398D01*
X140841347Y-103345826D01*
X140855554Y-103357485D01*
X140889349Y-103371484D01*
X140925929Y-103371484D01*
X140939927Y-103365685D01*
X140959723Y-103357486D01*
X140973930Y-103345827D01*
X141045359Y-103274399D01*
X141057013Y-103260197D01*
X141057019Y-103260192D01*
X141071017Y-103226396D01*
X141071017Y-103189818D01*
X141057019Y-103156022D01*
X141045359Y-103141816D01*
X140973930Y-103070387D01*
X140959724Y-103058727D01*
X140935826Y-103048829D01*
X140925929Y-103044729D01*
X140889349Y-103044729D01*
X140879451Y-103048829D01*
X140855554Y-103058727D01*
X140855548Y-103058732D01*
X140841347Y-103070387D01*
X140769919Y-103141816D01*
X140758264Y-103156017D01*
X140758260Y-103156022D01*
X140758260Y-103156023D01*
X140744262Y-103189818D01*
X136501389Y-103189818D01*
X136501389Y-103136678D01*
X136499588Y-103118388D01*
X136485589Y-103084593D01*
X136459724Y-103058728D01*
X136425929Y-103044729D01*
X136389349Y-103044729D01*
X136355554Y-103058728D01*
X136329689Y-103084593D01*
X136315690Y-103118388D01*
X136313889Y-103136678D01*
X136313889Y-103542928D01*
X136193354Y-103542928D01*
X136175064Y-103544729D01*
X136141269Y-103558728D01*
X136115404Y-103584593D01*
X136101405Y-103618388D01*
X135794977Y-103618388D01*
X135663851Y-103552825D01*
X135646687Y-103546257D01*
X135643327Y-103546018D01*
X135640215Y-103544729D01*
X135621925Y-103542928D01*
X135336211Y-103542928D01*
X135317921Y-103544729D01*
X135314808Y-103546018D01*
X135311449Y-103546257D01*
X135294284Y-103552826D01*
X135151427Y-103624255D01*
X135143557Y-103629208D01*
X135141270Y-103630156D01*
X135138694Y-103632269D01*
X135135874Y-103634045D01*
X135134251Y-103635915D01*
X135127063Y-103641815D01*
X135055634Y-103713243D01*
X135049734Y-103720431D01*
X135047863Y-103722055D01*
X135046086Y-103724876D01*
X135043975Y-103727450D01*
X135043028Y-103729735D01*
X135038072Y-103737609D01*
X134966644Y-103880466D01*
X134960076Y-103897630D01*
X134959837Y-103900989D01*
X134958548Y-103904102D01*
X134956747Y-103922392D01*
X134572819Y-103922392D01*
X134572819Y-103850964D01*
X134571018Y-103832674D01*
X134569728Y-103829561D01*
X134569490Y-103826202D01*
X134562921Y-103809037D01*
X134491492Y-103666180D01*
X134489566Y-103663120D01*
X134489086Y-103661680D01*
X134487530Y-103659885D01*
X134481702Y-103650627D01*
X134472820Y-103642924D01*
X134465120Y-103634045D01*
X134455864Y-103628218D01*
X134454067Y-103626660D01*
X134452624Y-103626179D01*
X134449566Y-103624254D01*
X134306710Y-103552826D01*
X134289545Y-103546257D01*
X134286185Y-103546018D01*
X134283073Y-103544729D01*
X134264783Y-103542928D01*
X133979069Y-103542928D01*
X133960779Y-103544729D01*
X133957666Y-103546018D01*
X133954307Y-103546257D01*
X133937143Y-103552825D01*
X133794285Y-103624254D01*
X133791227Y-103626178D01*
X133789783Y-103626660D01*
X133787983Y-103628220D01*
X133778731Y-103634045D01*
X133771030Y-103642924D01*
X133762149Y-103650627D01*
X133756322Y-103659882D01*
X133754764Y-103661680D01*
X133754283Y-103663122D01*
X133752358Y-103666181D01*
X133680930Y-103809038D01*
X133674362Y-103826202D01*
X133674123Y-103829561D01*
X133672834Y-103832674D01*
X133671033Y-103850964D01*
X133144247Y-103850964D01*
X133144247Y-103136678D01*
X133142446Y-103118388D01*
X133128447Y-103084593D01*
X133102582Y-103058728D01*
X133068787Y-103044729D01*
X133032207Y-103044729D01*
X132998412Y-103058728D01*
X132972547Y-103084593D01*
X132958548Y-103118388D01*
X132956747Y-103136678D01*
X132499589Y-103136678D01*
X132499589Y-103118388D01*
X132485590Y-103084593D01*
X132459725Y-103058728D01*
X132425930Y-103044729D01*
X132407640Y-103042928D01*
X131693354Y-103042928D01*
X131675064Y-103044729D01*
X131641269Y-103058728D01*
X131615404Y-103084593D01*
X131601405Y-103118388D01*
X131599604Y-103136678D01*
X127356732Y-103136678D01*
X127356732Y-103118388D01*
X127342733Y-103084593D01*
X127316868Y-103058728D01*
X127283073Y-103044729D01*
X127264783Y-103042928D01*
X126550497Y-103042928D01*
X126532207Y-103044729D01*
X126498412Y-103058728D01*
X126472547Y-103084593D01*
X126458548Y-103118388D01*
X126456747Y-103136678D01*
X126290080Y-103136678D01*
X126290080Y-102876261D01*
X143739485Y-102876261D01*
X143739485Y-104897095D01*
G37*
X126436212Y-99926678D02*
X127293355Y-99926678D01*
X126864783Y-101426678D02*
X126864783Y-99926678D01*
X127793354Y-101426678D02*
X127793354Y-100426678D01*
X127793354Y-100712392D02*
X127864783Y-100569535D01*
X127864783Y-100569535D02*
X127936212Y-100498107D01*
X127936212Y-100498107D02*
X128079069Y-100426678D01*
X128079069Y-100426678D02*
X128221926Y-100426678D01*
X129364783Y-101426678D02*
X129364783Y-100640964D01*
X129364783Y-100640964D02*
X129293354Y-100498107D01*
X129293354Y-100498107D02*
X129150497Y-100426678D01*
X129150497Y-100426678D02*
X128864783Y-100426678D01*
X128864783Y-100426678D02*
X128721925Y-100498107D01*
X129364783Y-101355250D02*
X129221925Y-101426678D01*
X129221925Y-101426678D02*
X128864783Y-101426678D01*
X128864783Y-101426678D02*
X128721925Y-101355250D01*
X128721925Y-101355250D02*
X128650497Y-101212392D01*
X128650497Y-101212392D02*
X128650497Y-101069535D01*
X128650497Y-101069535D02*
X128721925Y-100926678D01*
X128721925Y-100926678D02*
X128864783Y-100855250D01*
X128864783Y-100855250D02*
X129221925Y-100855250D01*
X129221925Y-100855250D02*
X129364783Y-100783821D01*
X130079068Y-100426678D02*
X130079068Y-101426678D01*
X130079068Y-100569535D02*
X130150497Y-100498107D01*
X130150497Y-100498107D02*
X130293354Y-100426678D01*
X130293354Y-100426678D02*
X130507640Y-100426678D01*
X130507640Y-100426678D02*
X130650497Y-100498107D01*
X130650497Y-100498107D02*
X130721926Y-100640964D01*
X130721926Y-100640964D02*
X130721926Y-101426678D01*
X131364783Y-101355250D02*
X131507640Y-101426678D01*
X131507640Y-101426678D02*
X131793354Y-101426678D01*
X131793354Y-101426678D02*
X131936211Y-101355250D01*
X131936211Y-101355250D02*
X132007640Y-101212392D01*
X132007640Y-101212392D02*
X132007640Y-101140964D01*
X132007640Y-101140964D02*
X131936211Y-100998107D01*
X131936211Y-100998107D02*
X131793354Y-100926678D01*
X131793354Y-100926678D02*
X131579069Y-100926678D01*
X131579069Y-100926678D02*
X131436211Y-100855250D01*
X131436211Y-100855250D02*
X131364783Y-100712392D01*
X131364783Y-100712392D02*
X131364783Y-100640964D01*
X131364783Y-100640964D02*
X131436211Y-100498107D01*
X131436211Y-100498107D02*
X131579069Y-100426678D01*
X131579069Y-100426678D02*
X131793354Y-100426678D01*
X131793354Y-100426678D02*
X131936211Y-100498107D01*
X132436212Y-100426678D02*
X133007640Y-100426678D01*
X132650497Y-101426678D02*
X132650497Y-100140964D01*
X132650497Y-100140964D02*
X132721926Y-99998107D01*
X132721926Y-99998107D02*
X132864783Y-99926678D01*
X132864783Y-99926678D02*
X133007640Y-99926678D01*
X133721926Y-101426678D02*
X133579069Y-101355250D01*
X133579069Y-101355250D02*
X133507640Y-101283821D01*
X133507640Y-101283821D02*
X133436212Y-101140964D01*
X133436212Y-101140964D02*
X133436212Y-100712392D01*
X133436212Y-100712392D02*
X133507640Y-100569535D01*
X133507640Y-100569535D02*
X133579069Y-100498107D01*
X133579069Y-100498107D02*
X133721926Y-100426678D01*
X133721926Y-100426678D02*
X133936212Y-100426678D01*
X133936212Y-100426678D02*
X134079069Y-100498107D01*
X134079069Y-100498107D02*
X134150498Y-100569535D01*
X134150498Y-100569535D02*
X134221926Y-100712392D01*
X134221926Y-100712392D02*
X134221926Y-101140964D01*
X134221926Y-101140964D02*
X134150498Y-101283821D01*
X134150498Y-101283821D02*
X134079069Y-101355250D01*
X134079069Y-101355250D02*
X133936212Y-101426678D01*
X133936212Y-101426678D02*
X133721926Y-101426678D01*
X134864783Y-101426678D02*
X134864783Y-100426678D01*
X134864783Y-100712392D02*
X134936212Y-100569535D01*
X134936212Y-100569535D02*
X135007641Y-100498107D01*
X135007641Y-100498107D02*
X135150498Y-100426678D01*
X135150498Y-100426678D02*
X135293355Y-100426678D01*
X135793354Y-101426678D02*
X135793354Y-100426678D01*
X135793354Y-100569535D02*
X135864783Y-100498107D01*
X135864783Y-100498107D02*
X136007640Y-100426678D01*
X136007640Y-100426678D02*
X136221926Y-100426678D01*
X136221926Y-100426678D02*
X136364783Y-100498107D01*
X136364783Y-100498107D02*
X136436212Y-100640964D01*
X136436212Y-100640964D02*
X136436212Y-101426678D01*
X136436212Y-100640964D02*
X136507640Y-100498107D01*
X136507640Y-100498107D02*
X136650497Y-100426678D01*
X136650497Y-100426678D02*
X136864783Y-100426678D01*
X136864783Y-100426678D02*
X137007640Y-100498107D01*
X137007640Y-100498107D02*
X137079069Y-100640964D01*
X137079069Y-100640964D02*
X137079069Y-101426678D01*
X138364783Y-101355250D02*
X138221926Y-101426678D01*
X138221926Y-101426678D02*
X137936212Y-101426678D01*
X137936212Y-101426678D02*
X137793354Y-101355250D01*
X137793354Y-101355250D02*
X137721926Y-101212392D01*
X137721926Y-101212392D02*
X137721926Y-100640964D01*
X137721926Y-100640964D02*
X137793354Y-100498107D01*
X137793354Y-100498107D02*
X137936212Y-100426678D01*
X137936212Y-100426678D02*
X138221926Y-100426678D01*
X138221926Y-100426678D02*
X138364783Y-100498107D01*
X138364783Y-100498107D02*
X138436212Y-100640964D01*
X138436212Y-100640964D02*
X138436212Y-100783821D01*
X138436212Y-100783821D02*
X137721926Y-100926678D01*
X139079068Y-101426678D02*
X139079068Y-100426678D01*
X139079068Y-100712392D02*
X139150497Y-100569535D01*
X139150497Y-100569535D02*
X139221926Y-100498107D01*
X139221926Y-100498107D02*
X139364783Y-100426678D01*
X139364783Y-100426678D02*
X139507640Y-100426678D01*
X140221925Y-101426678D02*
X140079068Y-101355250D01*
X140079068Y-101355250D02*
X140007639Y-101212392D01*
X140007639Y-101212392D02*
X140007639Y-99926678D01*
X141364782Y-101355250D02*
X141221925Y-101426678D01*
X141221925Y-101426678D02*
X140936211Y-101426678D01*
X140936211Y-101426678D02*
X140793353Y-101355250D01*
X140793353Y-101355250D02*
X140721925Y-101212392D01*
X140721925Y-101212392D02*
X140721925Y-100640964D01*
X140721925Y-100640964D02*
X140793353Y-100498107D01*
X140793353Y-100498107D02*
X140936211Y-100426678D01*
X140936211Y-100426678D02*
X141221925Y-100426678D01*
X141221925Y-100426678D02*
X141364782Y-100498107D01*
X141364782Y-100498107D02*
X141436211Y-100640964D01*
X141436211Y-100640964D02*
X141436211Y-100783821D01*
X141436211Y-100783821D02*
X140721925Y-100926678D01*
X142007639Y-101355250D02*
X142150496Y-101426678D01*
X142150496Y-101426678D02*
X142436210Y-101426678D01*
X142436210Y-101426678D02*
X142579067Y-101355250D01*
X142579067Y-101355250D02*
X142650496Y-101212392D01*
X142650496Y-101212392D02*
X142650496Y-101140964D01*
X142650496Y-101140964D02*
X142579067Y-100998107D01*
X142579067Y-100998107D02*
X142436210Y-100926678D01*
X142436210Y-100926678D02*
X142221925Y-100926678D01*
X142221925Y-100926678D02*
X142079067Y-100855250D01*
X142079067Y-100855250D02*
X142007639Y-100712392D01*
X142007639Y-100712392D02*
X142007639Y-100640964D01*
X142007639Y-100640964D02*
X142079067Y-100498107D01*
X142079067Y-100498107D02*
X142221925Y-100426678D01*
X142221925Y-100426678D02*
X142436210Y-100426678D01*
X142436210Y-100426678D02*
X142579067Y-100498107D01*
X143221925Y-101355250D02*
X143364782Y-101426678D01*
X143364782Y-101426678D02*
X143650496Y-101426678D01*
X143650496Y-101426678D02*
X143793353Y-101355250D01*
X143793353Y-101355250D02*
X143864782Y-101212392D01*
X143864782Y-101212392D02*
X143864782Y-101140964D01*
X143864782Y-101140964D02*
X143793353Y-100998107D01*
X143793353Y-100998107D02*
X143650496Y-100926678D01*
X143650496Y-100926678D02*
X143436211Y-100926678D01*
X143436211Y-100926678D02*
X143293353Y-100855250D01*
X143293353Y-100855250D02*
X143221925Y-100712392D01*
X143221925Y-100712392D02*
X143221925Y-100640964D01*
X143221925Y-100640964D02*
X143293353Y-100498107D01*
X143293353Y-100498107D02*
X143436211Y-100426678D01*
X143436211Y-100426678D02*
X143650496Y-100426678D01*
X143650496Y-100426678D02*
X143793353Y-100498107D01*
X145579068Y-100998107D02*
X146293354Y-100998107D01*
X145436211Y-101426678D02*
X145936211Y-99926678D01*
X145936211Y-99926678D02*
X146436211Y-101426678D01*
X147793353Y-101283821D02*
X147721925Y-101355250D01*
X147721925Y-101355250D02*
X147507639Y-101426678D01*
X147507639Y-101426678D02*
X147364782Y-101426678D01*
X147364782Y-101426678D02*
X147150496Y-101355250D01*
X147150496Y-101355250D02*
X147007639Y-101212392D01*
X147007639Y-101212392D02*
X146936210Y-101069535D01*
X146936210Y-101069535D02*
X146864782Y-100783821D01*
X146864782Y-100783821D02*
X146864782Y-100569535D01*
X146864782Y-100569535D02*
X146936210Y-100283821D01*
X146936210Y-100283821D02*
X147007639Y-100140964D01*
X147007639Y-100140964D02*
X147150496Y-99998107D01*
X147150496Y-99998107D02*
X147364782Y-99926678D01*
X147364782Y-99926678D02*
X147507639Y-99926678D01*
X147507639Y-99926678D02*
X147721925Y-99998107D01*
X147721925Y-99998107D02*
X147793353Y-100069535D01*
X149364782Y-100426678D02*
X149936210Y-100426678D01*
X149579067Y-99926678D02*
X149579067Y-101212392D01*
X149579067Y-101212392D02*
X149650496Y-101355250D01*
X149650496Y-101355250D02*
X149793353Y-101426678D01*
X149793353Y-101426678D02*
X149936210Y-101426678D01*
X150650496Y-101426678D02*
X150507639Y-101355250D01*
X150507639Y-101355250D02*
X150436210Y-101283821D01*
X150436210Y-101283821D02*
X150364782Y-101140964D01*
X150364782Y-101140964D02*
X150364782Y-100712392D01*
X150364782Y-100712392D02*
X150436210Y-100569535D01*
X150436210Y-100569535D02*
X150507639Y-100498107D01*
X150507639Y-100498107D02*
X150650496Y-100426678D01*
X150650496Y-100426678D02*
X150864782Y-100426678D01*
X150864782Y-100426678D02*
X151007639Y-100498107D01*
X151007639Y-100498107D02*
X151079068Y-100569535D01*
X151079068Y-100569535D02*
X151150496Y-100712392D01*
X151150496Y-100712392D02*
X151150496Y-101140964D01*
X151150496Y-101140964D02*
X151079068Y-101283821D01*
X151079068Y-101283821D02*
X151007639Y-101355250D01*
X151007639Y-101355250D02*
X150864782Y-101426678D01*
X150864782Y-101426678D02*
X150650496Y-101426678D01*
X152936210Y-101426678D02*
X152936210Y-99926678D01*
X152936210Y-99926678D02*
X153293353Y-99926678D01*
X153293353Y-99926678D02*
X153507639Y-99998107D01*
X153507639Y-99998107D02*
X153650496Y-100140964D01*
X153650496Y-100140964D02*
X153721925Y-100283821D01*
X153721925Y-100283821D02*
X153793353Y-100569535D01*
X153793353Y-100569535D02*
X153793353Y-100783821D01*
X153793353Y-100783821D02*
X153721925Y-101069535D01*
X153721925Y-101069535D02*
X153650496Y-101212392D01*
X153650496Y-101212392D02*
X153507639Y-101355250D01*
X153507639Y-101355250D02*
X153293353Y-101426678D01*
X153293353Y-101426678D02*
X152936210Y-101426678D01*
X155293353Y-101283821D02*
X155221925Y-101355250D01*
X155221925Y-101355250D02*
X155007639Y-101426678D01*
X155007639Y-101426678D02*
X154864782Y-101426678D01*
X154864782Y-101426678D02*
X154650496Y-101355250D01*
X154650496Y-101355250D02*
X154507639Y-101212392D01*
X154507639Y-101212392D02*
X154436210Y-101069535D01*
X154436210Y-101069535D02*
X154364782Y-100783821D01*
X154364782Y-100783821D02*
X154364782Y-100569535D01*
X154364782Y-100569535D02*
X154436210Y-100283821D01*
X154436210Y-100283821D02*
X154507639Y-100140964D01*
X154507639Y-100140964D02*
X154650496Y-99998107D01*
X154650496Y-99998107D02*
X154864782Y-99926678D01*
X154864782Y-99926678D02*
X155007639Y-99926678D01*
X155007639Y-99926678D02*
X155221925Y-99998107D01*
X155221925Y-99998107D02*
X155293353Y-100069535D01*
D11*
X134250619Y-77192094D02*
X133250619Y-77192094D01*
X133250619Y-77192094D02*
X133250619Y-76953999D01*
X133250619Y-76953999D02*
X133298238Y-76811142D01*
X133298238Y-76811142D02*
X133393476Y-76715904D01*
X133393476Y-76715904D02*
X133488714Y-76668285D01*
X133488714Y-76668285D02*
X133679190Y-76620666D01*
X133679190Y-76620666D02*
X133822047Y-76620666D01*
X133822047Y-76620666D02*
X134012523Y-76668285D01*
X134012523Y-76668285D02*
X134107761Y-76715904D01*
X134107761Y-76715904D02*
X134203000Y-76811142D01*
X134203000Y-76811142D02*
X134250619Y-76953999D01*
X134250619Y-76953999D02*
X134250619Y-77192094D01*
X134250619Y-75668285D02*
X134250619Y-76239713D01*
X134250619Y-75953999D02*
X133250619Y-75953999D01*
X133250619Y-75953999D02*
X133393476Y-76049237D01*
X133393476Y-76049237D02*
X133488714Y-76144475D01*
X133488714Y-76144475D02*
X133536333Y-76239713D01*
X212240019Y-113317304D02*
X211240019Y-113317304D01*
X212240019Y-112745876D02*
X211668590Y-113174447D01*
X211240019Y-112745876D02*
X211811447Y-113317304D01*
X163405933Y-68759580D02*
X163358314Y-68807200D01*
X163358314Y-68807200D02*
X163215457Y-68854819D01*
X163215457Y-68854819D02*
X163120219Y-68854819D01*
X163120219Y-68854819D02*
X162977362Y-68807200D01*
X162977362Y-68807200D02*
X162882124Y-68711961D01*
X162882124Y-68711961D02*
X162834505Y-68616723D01*
X162834505Y-68616723D02*
X162786886Y-68426247D01*
X162786886Y-68426247D02*
X162786886Y-68283390D01*
X162786886Y-68283390D02*
X162834505Y-68092914D01*
X162834505Y-68092914D02*
X162882124Y-67997676D01*
X162882124Y-67997676D02*
X162977362Y-67902438D01*
X162977362Y-67902438D02*
X163120219Y-67854819D01*
X163120219Y-67854819D02*
X163215457Y-67854819D01*
X163215457Y-67854819D02*
X163358314Y-67902438D01*
X163358314Y-67902438D02*
X163405933Y-67950057D01*
X164263076Y-68188152D02*
X164263076Y-68854819D01*
X164024981Y-67807200D02*
X163786886Y-68521485D01*
X163786886Y-68521485D02*
X164405933Y-68521485D01*
X128509919Y-76355533D02*
X129224204Y-76355533D01*
X129224204Y-76355533D02*
X129367061Y-76403152D01*
X129367061Y-76403152D02*
X129462300Y-76498390D01*
X129462300Y-76498390D02*
X129509919Y-76641247D01*
X129509919Y-76641247D02*
X129509919Y-76736485D01*
X129509919Y-75355533D02*
X129509919Y-75926961D01*
X129509919Y-75641247D02*
X128509919Y-75641247D01*
X128509919Y-75641247D02*
X128652776Y-75736485D01*
X128652776Y-75736485D02*
X128748014Y-75831723D01*
X128748014Y-75831723D02*
X128795633Y-75926961D01*
X116372180Y-99926666D02*
X116419800Y-99974285D01*
X116419800Y-99974285D02*
X116467419Y-100117142D01*
X116467419Y-100117142D02*
X116467419Y-100212380D01*
X116467419Y-100212380D02*
X116419800Y-100355237D01*
X116419800Y-100355237D02*
X116324561Y-100450475D01*
X116324561Y-100450475D02*
X116229323Y-100498094D01*
X116229323Y-100498094D02*
X116038847Y-100545713D01*
X116038847Y-100545713D02*
X115895990Y-100545713D01*
X115895990Y-100545713D02*
X115705514Y-100498094D01*
X115705514Y-100498094D02*
X115610276Y-100450475D01*
X115610276Y-100450475D02*
X115515038Y-100355237D01*
X115515038Y-100355237D02*
X115467419Y-100212380D01*
X115467419Y-100212380D02*
X115467419Y-100117142D01*
X115467419Y-100117142D02*
X115515038Y-99974285D01*
X115515038Y-99974285D02*
X115562657Y-99926666D01*
X116467419Y-98974285D02*
X116467419Y-99545713D01*
X116467419Y-99259999D02*
X115467419Y-99259999D01*
X115467419Y-99259999D02*
X115610276Y-99355237D01*
X115610276Y-99355237D02*
X115705514Y-99450475D01*
X115705514Y-99450475D02*
X115753133Y-99545713D01*
X158342319Y-91388333D02*
X159056604Y-91388333D01*
X159056604Y-91388333D02*
X159199461Y-91435952D01*
X159199461Y-91435952D02*
X159294700Y-91531190D01*
X159294700Y-91531190D02*
X159342319Y-91674047D01*
X159342319Y-91674047D02*
X159342319Y-91769285D01*
X158437557Y-90959761D02*
X158389938Y-90912142D01*
X158389938Y-90912142D02*
X158342319Y-90816904D01*
X158342319Y-90816904D02*
X158342319Y-90578809D01*
X158342319Y-90578809D02*
X158389938Y-90483571D01*
X158389938Y-90483571D02*
X158437557Y-90435952D01*
X158437557Y-90435952D02*
X158532795Y-90388333D01*
X158532795Y-90388333D02*
X158628033Y-90388333D01*
X158628033Y-90388333D02*
X158770890Y-90435952D01*
X158770890Y-90435952D02*
X159342319Y-91007380D01*
X159342319Y-91007380D02*
X159342319Y-90388333D01*
X209115819Y-115958904D02*
X208115819Y-115958904D01*
X209115819Y-115387476D02*
X208544390Y-115816047D01*
X208115819Y-115387476D02*
X208687247Y-115958904D01*
X158512180Y-70476666D02*
X158559800Y-70524285D01*
X158559800Y-70524285D02*
X158607419Y-70667142D01*
X158607419Y-70667142D02*
X158607419Y-70762380D01*
X158607419Y-70762380D02*
X158559800Y-70905237D01*
X158559800Y-70905237D02*
X158464561Y-71000475D01*
X158464561Y-71000475D02*
X158369323Y-71048094D01*
X158369323Y-71048094D02*
X158178847Y-71095713D01*
X158178847Y-71095713D02*
X158035990Y-71095713D01*
X158035990Y-71095713D02*
X157845514Y-71048094D01*
X157845514Y-71048094D02*
X157750276Y-71000475D01*
X157750276Y-71000475D02*
X157655038Y-70905237D01*
X157655038Y-70905237D02*
X157607419Y-70762380D01*
X157607419Y-70762380D02*
X157607419Y-70667142D01*
X157607419Y-70667142D02*
X157655038Y-70524285D01*
X157655038Y-70524285D02*
X157702657Y-70476666D01*
X157607419Y-70143332D02*
X157607419Y-69524285D01*
X157607419Y-69524285D02*
X157988371Y-69857618D01*
X157988371Y-69857618D02*
X157988371Y-69714761D01*
X157988371Y-69714761D02*
X158035990Y-69619523D01*
X158035990Y-69619523D02*
X158083609Y-69571904D01*
X158083609Y-69571904D02*
X158178847Y-69524285D01*
X158178847Y-69524285D02*
X158416942Y-69524285D01*
X158416942Y-69524285D02*
X158512180Y-69571904D01*
X158512180Y-69571904D02*
X158559800Y-69619523D01*
X158559800Y-69619523D02*
X158607419Y-69714761D01*
X158607419Y-69714761D02*
X158607419Y-70000475D01*
X158607419Y-70000475D02*
X158559800Y-70095713D01*
X158559800Y-70095713D02*
X158512180Y-70143332D01*
X140407419Y-92388094D02*
X139407419Y-92388094D01*
X139407419Y-92388094D02*
X139407419Y-92149999D01*
X139407419Y-92149999D02*
X139455038Y-92007142D01*
X139455038Y-92007142D02*
X139550276Y-91911904D01*
X139550276Y-91911904D02*
X139645514Y-91864285D01*
X139645514Y-91864285D02*
X139835990Y-91816666D01*
X139835990Y-91816666D02*
X139978847Y-91816666D01*
X139978847Y-91816666D02*
X140169323Y-91864285D01*
X140169323Y-91864285D02*
X140264561Y-91911904D01*
X140264561Y-91911904D02*
X140359800Y-92007142D01*
X140359800Y-92007142D02*
X140407419Y-92149999D01*
X140407419Y-92149999D02*
X140407419Y-92388094D01*
X139740752Y-90959523D02*
X140407419Y-90959523D01*
X139359800Y-91197618D02*
X140074085Y-91435713D01*
X140074085Y-91435713D02*
X140074085Y-90816666D01*
X208125219Y-114231704D02*
X207125219Y-114231704D01*
X208125219Y-113660276D02*
X207553790Y-114088847D01*
X207125219Y-113660276D02*
X207696647Y-114231704D01*
X151415933Y-94284819D02*
X151082600Y-93808628D01*
X150844505Y-94284819D02*
X150844505Y-93284819D01*
X150844505Y-93284819D02*
X151225457Y-93284819D01*
X151225457Y-93284819D02*
X151320695Y-93332438D01*
X151320695Y-93332438D02*
X151368314Y-93380057D01*
X151368314Y-93380057D02*
X151415933Y-93475295D01*
X151415933Y-93475295D02*
X151415933Y-93618152D01*
X151415933Y-93618152D02*
X151368314Y-93713390D01*
X151368314Y-93713390D02*
X151320695Y-93761009D01*
X151320695Y-93761009D02*
X151225457Y-93808628D01*
X151225457Y-93808628D02*
X150844505Y-93808628D01*
X151749267Y-93284819D02*
X152368314Y-93284819D01*
X152368314Y-93284819D02*
X152034981Y-93665771D01*
X152034981Y-93665771D02*
X152177838Y-93665771D01*
X152177838Y-93665771D02*
X152273076Y-93713390D01*
X152273076Y-93713390D02*
X152320695Y-93761009D01*
X152320695Y-93761009D02*
X152368314Y-93856247D01*
X152368314Y-93856247D02*
X152368314Y-94094342D01*
X152368314Y-94094342D02*
X152320695Y-94189580D01*
X152320695Y-94189580D02*
X152273076Y-94237200D01*
X152273076Y-94237200D02*
X152177838Y-94284819D01*
X152177838Y-94284819D02*
X151892124Y-94284819D01*
X151892124Y-94284819D02*
X151796886Y-94237200D01*
X151796886Y-94237200D02*
X151749267Y-94189580D01*
X146657419Y-80898094D02*
X145657419Y-80898094D01*
X145657419Y-80898094D02*
X145657419Y-80659999D01*
X145657419Y-80659999D02*
X145705038Y-80517142D01*
X145705038Y-80517142D02*
X145800276Y-80421904D01*
X145800276Y-80421904D02*
X145895514Y-80374285D01*
X145895514Y-80374285D02*
X146085990Y-80326666D01*
X146085990Y-80326666D02*
X146228847Y-80326666D01*
X146228847Y-80326666D02*
X146419323Y-80374285D01*
X146419323Y-80374285D02*
X146514561Y-80421904D01*
X146514561Y-80421904D02*
X146609800Y-80517142D01*
X146609800Y-80517142D02*
X146657419Y-80659999D01*
X146657419Y-80659999D02*
X146657419Y-80898094D01*
X145657419Y-79421904D02*
X145657419Y-79898094D01*
X145657419Y-79898094D02*
X146133609Y-79945713D01*
X146133609Y-79945713D02*
X146085990Y-79898094D01*
X146085990Y-79898094D02*
X146038371Y-79802856D01*
X146038371Y-79802856D02*
X146038371Y-79564761D01*
X146038371Y-79564761D02*
X146085990Y-79469523D01*
X146085990Y-79469523D02*
X146133609Y-79421904D01*
X146133609Y-79421904D02*
X146228847Y-79374285D01*
X146228847Y-79374285D02*
X146466942Y-79374285D01*
X146466942Y-79374285D02*
X146562180Y-79421904D01*
X146562180Y-79421904D02*
X146609800Y-79469523D01*
X146609800Y-79469523D02*
X146657419Y-79564761D01*
X146657419Y-79564761D02*
X146657419Y-79802856D01*
X146657419Y-79802856D02*
X146609800Y-79898094D01*
X146609800Y-79898094D02*
X146562180Y-79945713D01*
X209522219Y-112733104D02*
X208522219Y-112733104D01*
X209522219Y-112161676D02*
X208950790Y-112590247D01*
X208522219Y-112161676D02*
X209093647Y-112733104D01*
X134287419Y-92330494D02*
X133287419Y-92330494D01*
X133287419Y-92330494D02*
X133287419Y-92092399D01*
X133287419Y-92092399D02*
X133335038Y-91949542D01*
X133335038Y-91949542D02*
X133430276Y-91854304D01*
X133430276Y-91854304D02*
X133525514Y-91806685D01*
X133525514Y-91806685D02*
X133715990Y-91759066D01*
X133715990Y-91759066D02*
X133858847Y-91759066D01*
X133858847Y-91759066D02*
X134049323Y-91806685D01*
X134049323Y-91806685D02*
X134144561Y-91854304D01*
X134144561Y-91854304D02*
X134239800Y-91949542D01*
X134239800Y-91949542D02*
X134287419Y-92092399D01*
X134287419Y-92092399D02*
X134287419Y-92330494D01*
X133382657Y-91378113D02*
X133335038Y-91330494D01*
X133335038Y-91330494D02*
X133287419Y-91235256D01*
X133287419Y-91235256D02*
X133287419Y-90997161D01*
X133287419Y-90997161D02*
X133335038Y-90901923D01*
X133335038Y-90901923D02*
X133382657Y-90854304D01*
X133382657Y-90854304D02*
X133477895Y-90806685D01*
X133477895Y-90806685D02*
X133573133Y-90806685D01*
X133573133Y-90806685D02*
X133715990Y-90854304D01*
X133715990Y-90854304D02*
X134287419Y-91425732D01*
X134287419Y-91425732D02*
X134287419Y-90806685D01*
X209522219Y-110243904D02*
X208522219Y-110243904D01*
X209522219Y-109672476D02*
X208950790Y-110101047D01*
X208522219Y-109672476D02*
X209093647Y-110243904D01*
X146657419Y-93126666D02*
X146181228Y-93459999D01*
X146657419Y-93698094D02*
X145657419Y-93698094D01*
X145657419Y-93698094D02*
X145657419Y-93317142D01*
X145657419Y-93317142D02*
X145705038Y-93221904D01*
X145705038Y-93221904D02*
X145752657Y-93174285D01*
X145752657Y-93174285D02*
X145847895Y-93126666D01*
X145847895Y-93126666D02*
X145990752Y-93126666D01*
X145990752Y-93126666D02*
X146085990Y-93174285D01*
X146085990Y-93174285D02*
X146133609Y-93221904D01*
X146133609Y-93221904D02*
X146181228Y-93317142D01*
X146181228Y-93317142D02*
X146181228Y-93698094D01*
X145752657Y-92745713D02*
X145705038Y-92698094D01*
X145705038Y-92698094D02*
X145657419Y-92602856D01*
X145657419Y-92602856D02*
X145657419Y-92364761D01*
X145657419Y-92364761D02*
X145705038Y-92269523D01*
X145705038Y-92269523D02*
X145752657Y-92221904D01*
X145752657Y-92221904D02*
X145847895Y-92174285D01*
X145847895Y-92174285D02*
X145943133Y-92174285D01*
X145943133Y-92174285D02*
X146085990Y-92221904D01*
X146085990Y-92221904D02*
X146657419Y-92793332D01*
X146657419Y-92793332D02*
X146657419Y-92174285D01*
X143715933Y-74034580D02*
X143668314Y-74082200D01*
X143668314Y-74082200D02*
X143525457Y-74129819D01*
X143525457Y-74129819D02*
X143430219Y-74129819D01*
X143430219Y-74129819D02*
X143287362Y-74082200D01*
X143287362Y-74082200D02*
X143192124Y-73986961D01*
X143192124Y-73986961D02*
X143144505Y-73891723D01*
X143144505Y-73891723D02*
X143096886Y-73701247D01*
X143096886Y-73701247D02*
X143096886Y-73558390D01*
X143096886Y-73558390D02*
X143144505Y-73367914D01*
X143144505Y-73367914D02*
X143192124Y-73272676D01*
X143192124Y-73272676D02*
X143287362Y-73177438D01*
X143287362Y-73177438D02*
X143430219Y-73129819D01*
X143430219Y-73129819D02*
X143525457Y-73129819D01*
X143525457Y-73129819D02*
X143668314Y-73177438D01*
X143668314Y-73177438D02*
X143715933Y-73225057D01*
X144096886Y-73225057D02*
X144144505Y-73177438D01*
X144144505Y-73177438D02*
X144239743Y-73129819D01*
X144239743Y-73129819D02*
X144477838Y-73129819D01*
X144477838Y-73129819D02*
X144573076Y-73177438D01*
X144573076Y-73177438D02*
X144620695Y-73225057D01*
X144620695Y-73225057D02*
X144668314Y-73320295D01*
X144668314Y-73320295D02*
X144668314Y-73415533D01*
X144668314Y-73415533D02*
X144620695Y-73558390D01*
X144620695Y-73558390D02*
X144049267Y-74129819D01*
X144049267Y-74129819D02*
X144668314Y-74129819D01*
X129287419Y-90996666D02*
X128811228Y-91329999D01*
X129287419Y-91568094D02*
X128287419Y-91568094D01*
X128287419Y-91568094D02*
X128287419Y-91187142D01*
X128287419Y-91187142D02*
X128335038Y-91091904D01*
X128335038Y-91091904D02*
X128382657Y-91044285D01*
X128382657Y-91044285D02*
X128477895Y-90996666D01*
X128477895Y-90996666D02*
X128620752Y-90996666D01*
X128620752Y-90996666D02*
X128715990Y-91044285D01*
X128715990Y-91044285D02*
X128763609Y-91091904D01*
X128763609Y-91091904D02*
X128811228Y-91187142D01*
X128811228Y-91187142D02*
X128811228Y-91568094D01*
X129287419Y-90044285D02*
X129287419Y-90615713D01*
X129287419Y-90329999D02*
X128287419Y-90329999D01*
X128287419Y-90329999D02*
X128430276Y-90425237D01*
X128430276Y-90425237D02*
X128525514Y-90520475D01*
X128525514Y-90520475D02*
X128573133Y-90615713D01*
X140327419Y-77218094D02*
X139327419Y-77218094D01*
X139327419Y-77218094D02*
X139327419Y-76979999D01*
X139327419Y-76979999D02*
X139375038Y-76837142D01*
X139375038Y-76837142D02*
X139470276Y-76741904D01*
X139470276Y-76741904D02*
X139565514Y-76694285D01*
X139565514Y-76694285D02*
X139755990Y-76646666D01*
X139755990Y-76646666D02*
X139898847Y-76646666D01*
X139898847Y-76646666D02*
X140089323Y-76694285D01*
X140089323Y-76694285D02*
X140184561Y-76741904D01*
X140184561Y-76741904D02*
X140279800Y-76837142D01*
X140279800Y-76837142D02*
X140327419Y-76979999D01*
X140327419Y-76979999D02*
X140327419Y-77218094D01*
X139327419Y-76313332D02*
X139327419Y-75694285D01*
X139327419Y-75694285D02*
X139708371Y-76027618D01*
X139708371Y-76027618D02*
X139708371Y-75884761D01*
X139708371Y-75884761D02*
X139755990Y-75789523D01*
X139755990Y-75789523D02*
X139803609Y-75741904D01*
X139803609Y-75741904D02*
X139898847Y-75694285D01*
X139898847Y-75694285D02*
X140136942Y-75694285D01*
X140136942Y-75694285D02*
X140232180Y-75741904D01*
X140232180Y-75741904D02*
X140279800Y-75789523D01*
X140279800Y-75789523D02*
X140327419Y-75884761D01*
X140327419Y-75884761D02*
X140327419Y-76170475D01*
X140327419Y-76170475D02*
X140279800Y-76265713D01*
X140279800Y-76265713D02*
X140232180Y-76313332D01*
X210893819Y-107526104D02*
X209893819Y-107526104D01*
X210893819Y-106954676D02*
X210322390Y-107383247D01*
X209893819Y-106954676D02*
X210465247Y-107526104D01*
%TO.C,D1*%
D12*
X131325800Y-72714000D02*
X131325800Y-73734000D01*
X131325800Y-80194000D02*
X131325800Y-79174000D01*
X132795800Y-74514000D02*
X129855800Y-74514000D01*
X132795800Y-74634000D02*
X129855800Y-74634000D01*
X132795800Y-74754000D02*
X129855800Y-74754000D01*
X129855800Y-73734000D02*
X132795800Y-73734000D01*
X132795800Y-79174000D01*
X129855800Y-79174000D01*
X129855800Y-73734000D01*
%TO.C,C4*%
X159162902Y-71335000D02*
X159962902Y-71335000D01*
X159562902Y-70935000D02*
X159562902Y-71735000D01*
X163572600Y-69570000D02*
X163572600Y-77730000D01*
X163612600Y-69570000D02*
X163612600Y-77730000D01*
X163652600Y-69571000D02*
X163652600Y-77729000D01*
X163692600Y-69572000D02*
X163692600Y-77728000D01*
X163732600Y-69573000D02*
X163732600Y-77727000D01*
X163772600Y-69575000D02*
X163772600Y-77725000D01*
X163812600Y-69577000D02*
X163812600Y-77723000D01*
X163852600Y-69580000D02*
X163852600Y-77720000D01*
X163892600Y-69582000D02*
X163892600Y-77718000D01*
X163932600Y-69586000D02*
X163932600Y-77714000D01*
X163972600Y-69589000D02*
X163972600Y-77711000D01*
X164012600Y-69594000D02*
X164012600Y-77706000D01*
X164052600Y-69598000D02*
X164052600Y-77702000D01*
X164092600Y-69603000D02*
X164092600Y-77697000D01*
X164132600Y-69608000D02*
X164132600Y-77692000D01*
X164172600Y-69614000D02*
X164172600Y-77686000D01*
X164212600Y-69620000D02*
X164212600Y-77680000D01*
X164252600Y-69627000D02*
X164252600Y-77673000D01*
X164292600Y-69633000D02*
X164292600Y-72610000D01*
X164292600Y-74690000D02*
X164292600Y-77667000D01*
X164332600Y-69641000D02*
X164332600Y-72610000D01*
X164332600Y-74690000D02*
X164332600Y-77659000D01*
X164372600Y-69648000D02*
X164372600Y-72610000D01*
X164372600Y-74690000D02*
X164372600Y-77652000D01*
X164412600Y-69657000D02*
X164412600Y-72610000D01*
X164412600Y-74690000D02*
X164412600Y-77643000D01*
X164452600Y-69665000D02*
X164452600Y-72610000D01*
X164452600Y-74690000D02*
X164452600Y-77635000D01*
X164492600Y-69674000D02*
X164492600Y-72610000D01*
X164492600Y-74690000D02*
X164492600Y-77626000D01*
X164532600Y-69683000D02*
X164532600Y-72610000D01*
X164532600Y-74690000D02*
X164532600Y-77617000D01*
X164572600Y-69693000D02*
X164572600Y-72610000D01*
X164572600Y-74690000D02*
X164572600Y-77607000D01*
X164612600Y-69703000D02*
X164612600Y-72610000D01*
X164612600Y-74690000D02*
X164612600Y-77597000D01*
X164652600Y-69714000D02*
X164652600Y-72610000D01*
X164652600Y-74690000D02*
X164652600Y-77586000D01*
X164692600Y-69725000D02*
X164692600Y-72610000D01*
X164692600Y-74690000D02*
X164692600Y-77575000D01*
X164732600Y-69737000D02*
X164732600Y-72610000D01*
X164732600Y-74690000D02*
X164732600Y-77563000D01*
X164772600Y-69749000D02*
X164772600Y-72610000D01*
X164772600Y-74690000D02*
X164772600Y-77551000D01*
X164812600Y-69761000D02*
X164812600Y-72610000D01*
X164812600Y-74690000D02*
X164812600Y-77539000D01*
X164852600Y-69774000D02*
X164852600Y-72610000D01*
X164852600Y-74690000D02*
X164852600Y-77526000D01*
X164892600Y-69787000D02*
X164892600Y-72610000D01*
X164892600Y-74690000D02*
X164892600Y-77513000D01*
X164932600Y-69801000D02*
X164932600Y-72610000D01*
X164932600Y-74690000D02*
X164932600Y-77499000D01*
X164972600Y-69815000D02*
X164972600Y-72610000D01*
X164972600Y-74690000D02*
X164972600Y-77485000D01*
X165012600Y-69830000D02*
X165012600Y-72610000D01*
X165012600Y-74690000D02*
X165012600Y-77470000D01*
X165052600Y-69845000D02*
X165052600Y-72610000D01*
X165052600Y-74690000D02*
X165052600Y-77455000D01*
X165092600Y-69861000D02*
X165092600Y-72610000D01*
X165092600Y-74690000D02*
X165092600Y-77439000D01*
X165132600Y-69877000D02*
X165132600Y-72610000D01*
X165132600Y-74690000D02*
X165132600Y-77423000D01*
X165172600Y-69893000D02*
X165172600Y-72610000D01*
X165172600Y-74690000D02*
X165172600Y-77407000D01*
X165212600Y-69910000D02*
X165212600Y-72610000D01*
X165212600Y-74690000D02*
X165212600Y-77390000D01*
X165252600Y-69928000D02*
X165252600Y-72610000D01*
X165252600Y-74690000D02*
X165252600Y-77372000D01*
X165292600Y-69946000D02*
X165292600Y-72610000D01*
X165292600Y-74690000D02*
X165292600Y-77354000D01*
X165332600Y-69965000D02*
X165332600Y-72610000D01*
X165332600Y-74690000D02*
X165332600Y-77335000D01*
X165372600Y-69984000D02*
X165372600Y-72610000D01*
X165372600Y-74690000D02*
X165372600Y-77316000D01*
X165412600Y-70004000D02*
X165412600Y-72610000D01*
X165412600Y-74690000D02*
X165412600Y-77296000D01*
X165452600Y-70024000D02*
X165452600Y-72610000D01*
X165452600Y-74690000D02*
X165452600Y-77276000D01*
X165492600Y-70045000D02*
X165492600Y-72610000D01*
X165492600Y-74690000D02*
X165492600Y-77255000D01*
X165532600Y-70066000D02*
X165532600Y-72610000D01*
X165532600Y-74690000D02*
X165532600Y-77234000D01*
X165572600Y-70088000D02*
X165572600Y-72610000D01*
X165572600Y-74690000D02*
X165572600Y-77212000D01*
X165612600Y-70111000D02*
X165612600Y-72610000D01*
X165612600Y-74690000D02*
X165612600Y-77189000D01*
X165652600Y-70134000D02*
X165652600Y-72610000D01*
X165652600Y-74690000D02*
X165652600Y-77166000D01*
X165692600Y-70157000D02*
X165692600Y-72610000D01*
X165692600Y-74690000D02*
X165692600Y-77143000D01*
X165732600Y-70182000D02*
X165732600Y-72610000D01*
X165732600Y-74690000D02*
X165732600Y-77118000D01*
X165772600Y-70207000D02*
X165772600Y-72610000D01*
X165772600Y-74690000D02*
X165772600Y-77093000D01*
X165812600Y-70232000D02*
X165812600Y-72610000D01*
X165812600Y-74690000D02*
X165812600Y-77068000D01*
X165852600Y-70258000D02*
X165852600Y-72610000D01*
X165852600Y-74690000D02*
X165852600Y-77042000D01*
X165892600Y-70285000D02*
X165892600Y-72610000D01*
X165892600Y-74690000D02*
X165892600Y-77015000D01*
X165932600Y-70313000D02*
X165932600Y-72610000D01*
X165932600Y-74690000D02*
X165932600Y-76987000D01*
X165972600Y-70341000D02*
X165972600Y-72610000D01*
X165972600Y-74690000D02*
X165972600Y-76959000D01*
X166012600Y-70370000D02*
X166012600Y-72610000D01*
X166012600Y-74690000D02*
X166012600Y-76930000D01*
X166052600Y-70400000D02*
X166052600Y-72610000D01*
X166052600Y-74690000D02*
X166052600Y-76900000D01*
X166092600Y-70431000D02*
X166092600Y-72610000D01*
X166092600Y-74690000D02*
X166092600Y-76869000D01*
X166132600Y-70462000D02*
X166132600Y-72610000D01*
X166132600Y-74690000D02*
X166132600Y-76838000D01*
X166172600Y-70494000D02*
X166172600Y-72610000D01*
X166172600Y-74690000D02*
X166172600Y-76806000D01*
X166212600Y-70527000D02*
X166212600Y-72610000D01*
X166212600Y-74690000D02*
X166212600Y-76773000D01*
X166252600Y-70561000D02*
X166252600Y-72610000D01*
X166252600Y-74690000D02*
X166252600Y-76739000D01*
X166292600Y-70595000D02*
X166292600Y-72610000D01*
X166292600Y-74690000D02*
X166292600Y-76705000D01*
X166332600Y-70631000D02*
X166332600Y-72610000D01*
X166332600Y-74690000D02*
X166332600Y-76669000D01*
X166372600Y-70668000D02*
X166372600Y-76632000D01*
X166412600Y-70705000D02*
X166412600Y-76595000D01*
X166452600Y-70744000D02*
X166452600Y-76556000D01*
X166492600Y-70783000D02*
X166492600Y-76517000D01*
X166532600Y-70824000D02*
X166532600Y-76476000D01*
X166572600Y-70866000D02*
X166572600Y-76434000D01*
X166612600Y-70909000D02*
X166612600Y-76391000D01*
X166652600Y-70954000D02*
X166652600Y-76346000D01*
X166692600Y-70999000D02*
X166692600Y-76301000D01*
X166732600Y-71046000D02*
X166732600Y-76254000D01*
X166772600Y-71095000D02*
X166772600Y-76205000D01*
X166812600Y-71145000D02*
X166812600Y-76155000D01*
X166852600Y-71197000D02*
X166852600Y-76103000D01*
X166892600Y-71250000D02*
X166892600Y-76050000D01*
X166932600Y-71306000D02*
X166932600Y-75994000D01*
X166972600Y-71363000D02*
X166972600Y-75937000D01*
X167012600Y-71423000D02*
X167012600Y-75877000D01*
X167052600Y-71485000D02*
X167052600Y-75815000D01*
X167092600Y-71549000D02*
X167092600Y-75751000D01*
X167132600Y-71616000D02*
X167132600Y-75684000D01*
X167172600Y-71686000D02*
X167172600Y-75614000D01*
X167212600Y-71760000D02*
X167212600Y-75540000D01*
X167252600Y-71837000D02*
X167252600Y-75463000D01*
X167292600Y-71919000D02*
X167292600Y-75381000D01*
X167332600Y-72006000D02*
X167332600Y-75294000D01*
X167372600Y-72098000D02*
X167372600Y-75202000D01*
X167412600Y-72197000D02*
X167412600Y-75103000D01*
X167452600Y-72304000D02*
X167452600Y-74996000D01*
X167492600Y-72422000D02*
X167492600Y-74878000D01*
X167532600Y-72553000D02*
X167532600Y-74747000D01*
X167572600Y-72703000D02*
X167572600Y-74597000D01*
X167612600Y-72882000D02*
X167612600Y-74418000D01*
X167652600Y-73117000D02*
X167652600Y-74183000D01*
X167692600Y-73650000D02*
G75*
G02*
X159452600Y-73650000I-4120000J0D01*
G01*
X159452600Y-73650000D02*
G75*
G02*
X167692600Y-73650000I4120000J0D01*
G01*
%TO.C,D7*%
X161857200Y-86615000D02*
X161857200Y-89705000D01*
X161857200Y-86615170D02*
G75*
G02*
X167407200Y-88160000I2560000J-1544830D01*
G01*
X167407200Y-88160000D02*
G75*
G02*
X161857200Y-89704830I-2990000J0D01*
G01*
X166917200Y-88160000D02*
G75*
G02*
X161917200Y-88160000I-2500000J0D01*
G01*
X161917200Y-88160000D02*
G75*
G02*
X166917200Y-88160000I2500000J0D01*
G01*
%TO.C,J1*%
X118015100Y-70822200D02*
X128055100Y-70822200D01*
X118015100Y-73182200D02*
X118015100Y-70822200D01*
X118015100Y-81222200D02*
X118015100Y-73782200D01*
X118635100Y-70822200D02*
X118635100Y-81222200D01*
X120135100Y-70822200D02*
X120135100Y-81222200D01*
X125035100Y-70822200D02*
X125035100Y-81222200D01*
X128055100Y-70822200D02*
X128055100Y-81222200D01*
X128055100Y-81222200D02*
X118015100Y-81222200D01*
X118015100Y-73482200D02*
X117405100Y-73922200D01*
X117405100Y-73042200D01*
X118015100Y-73482200D01*
G36*
X118015100Y-73482200D02*
G01*
X117405100Y-73922200D01*
X117405100Y-73042200D01*
X118015100Y-73482200D01*
G37*
%TO.C,C1*%
X117382600Y-82880000D02*
X123622600Y-82880000D01*
X117382600Y-101120000D02*
X117382600Y-82880000D01*
X123622600Y-82880000D02*
X123622600Y-101120000D01*
X123622600Y-101120000D02*
X117382600Y-101120000D01*
%TO.C,R4*%
X153730400Y-82455000D02*
X153730400Y-88995000D01*
X153730400Y-88995000D02*
X154060400Y-88995000D01*
X154060400Y-82455000D02*
X153730400Y-82455000D01*
X156140400Y-82455000D02*
X156470400Y-82455000D01*
X156470400Y-82455000D02*
X156470400Y-88995000D01*
X156470400Y-88995000D02*
X156140400Y-88995000D01*
%TO.C,J2*%
X157740000Y-92650000D02*
X167780000Y-92650000D01*
X157740000Y-103050000D02*
X157740000Y-92650000D01*
X160760000Y-103050000D02*
X160760000Y-92650000D01*
X165660000Y-103050000D02*
X165660000Y-92650000D01*
X167160000Y-103050000D02*
X167160000Y-92650000D01*
X167780000Y-92650000D02*
X167780000Y-100090000D01*
X167780000Y-100690000D02*
X167780000Y-103050000D01*
X167780000Y-103050000D02*
X157740000Y-103050000D01*
X168390000Y-100830000D02*
X167780000Y-100390000D01*
X168390000Y-99950000D01*
X168390000Y-100830000D01*
G36*
X168390000Y-100830000D02*
G01*
X167780000Y-100390000D01*
X168390000Y-99950000D01*
X168390000Y-100830000D01*
G37*
%TO.C,D6*%
X148237600Y-83255000D02*
X148237600Y-88695000D01*
X148237600Y-88695000D02*
X148567600Y-88695000D01*
X148567600Y-83255000D02*
X148237600Y-83255000D01*
X150847600Y-83255000D02*
X151177600Y-83255000D01*
X151177600Y-83255000D02*
X151177600Y-88695000D01*
X151177600Y-84035000D02*
X148237600Y-84035000D01*
X151177600Y-84155000D02*
X148237600Y-84155000D01*
X151177600Y-84275000D02*
X148237600Y-84275000D01*
X151177600Y-88695000D02*
X150847600Y-88695000D01*
%TO.C,C3*%
X151592600Y-75412323D02*
X147915600Y-75412323D01*
X151592600Y-75452323D02*
X147925600Y-75452323D01*
X151592600Y-75492323D02*
X147936600Y-75492323D01*
X151592600Y-75532323D02*
X147947600Y-75532323D01*
X151592600Y-75572323D02*
X147959600Y-75572323D01*
X151592600Y-75612323D02*
X147971600Y-75612323D01*
X151592600Y-75652323D02*
X147983600Y-75652323D01*
X151592600Y-75692323D02*
X147995600Y-75692323D01*
X151592600Y-75732323D02*
X148008600Y-75732323D01*
X151592600Y-75772323D02*
X148022600Y-75772323D01*
X151592600Y-75812323D02*
X148035600Y-75812323D01*
X151592600Y-75852323D02*
X148050600Y-75852323D01*
X151592600Y-75892323D02*
X148064600Y-75892323D01*
X151592600Y-75932323D02*
X148079600Y-75932323D01*
X151592600Y-75972323D02*
X148094600Y-75972323D01*
X151592600Y-76012323D02*
X148110600Y-76012323D01*
X151592600Y-76052323D02*
X148126600Y-76052323D01*
X151592600Y-76092323D02*
X148142600Y-76092323D01*
X151592600Y-76132323D02*
X148159600Y-76132323D01*
X151592600Y-76172323D02*
X148176600Y-76172323D01*
X151592600Y-76212323D02*
X148194600Y-76212323D01*
X151592600Y-76252323D02*
X148212600Y-76252323D01*
X151592600Y-76292323D02*
X148230600Y-76292323D01*
X151592600Y-76332323D02*
X148249600Y-76332323D01*
X151592600Y-76372323D02*
X148268600Y-76372323D01*
X151592600Y-76412323D02*
X148288600Y-76412323D01*
X151592600Y-76452323D02*
X148308600Y-76452323D01*
X151592600Y-76492323D02*
X148328600Y-76492323D01*
X151592600Y-76532323D02*
X148349600Y-76532323D01*
X151592600Y-76572323D02*
X148371600Y-76572323D01*
X151592600Y-76612323D02*
X148393600Y-76612323D01*
X151592600Y-76652323D02*
X148415600Y-76652323D01*
X151592600Y-76692323D02*
X148438600Y-76692323D01*
X151592600Y-76732323D02*
X148461600Y-76732323D01*
X151592600Y-76772323D02*
X148485600Y-76772323D01*
X151592600Y-76812323D02*
X148509600Y-76812323D01*
X151592600Y-76852323D02*
X148534600Y-76852323D01*
X151592600Y-76892323D02*
X148560600Y-76892323D01*
X151592600Y-76932323D02*
X148585600Y-76932323D01*
X151592600Y-76972323D02*
X148612600Y-76972323D01*
X151592600Y-77012323D02*
X148639600Y-77012323D01*
X151592600Y-77052323D02*
X148666600Y-77052323D01*
X151592600Y-77092323D02*
X148694600Y-77092323D01*
X151592600Y-77132323D02*
X148723600Y-77132323D01*
X151592600Y-77172323D02*
X148752600Y-77172323D01*
X151592600Y-77212323D02*
X148782600Y-77212323D01*
X151592600Y-77252323D02*
X148812600Y-77252323D01*
X151592600Y-77292323D02*
X148844600Y-77292323D01*
X151592600Y-77332323D02*
X148875600Y-77332323D01*
X151592600Y-77372323D02*
X148908600Y-77372323D01*
X151592600Y-77412323D02*
X148941600Y-77412323D01*
X151592600Y-77452323D02*
X148974600Y-77452323D01*
X151592600Y-77492323D02*
X149009600Y-77492323D01*
X151592600Y-77532323D02*
X149044600Y-77532323D01*
X151592600Y-77572323D02*
X149080600Y-77572323D01*
X151592600Y-77612323D02*
X149116600Y-77612323D01*
X151592600Y-77652323D02*
X149154600Y-77652323D01*
X151592600Y-77692323D02*
X149192600Y-77692323D01*
X151592600Y-77732323D02*
X149231600Y-77732323D01*
X151592600Y-77772323D02*
X149271600Y-77772323D01*
X151592600Y-77812323D02*
X149312600Y-77812323D01*
X151592600Y-77852323D02*
X149354600Y-77852323D01*
X153431600Y-79212323D02*
X152233600Y-79212323D01*
X153694600Y-79172323D02*
X151970600Y-79172323D01*
X153894600Y-79132323D02*
X151770600Y-79132323D01*
X154062600Y-79092323D02*
X151602600Y-79092323D01*
X154209600Y-79052323D02*
X151455600Y-79052323D01*
X154341600Y-79012323D02*
X151323600Y-79012323D01*
X154462600Y-78972323D02*
X151202600Y-78972323D01*
X154574600Y-78932323D02*
X151090600Y-78932323D01*
X154678600Y-78892323D02*
X150986600Y-78892323D01*
X154776600Y-78852323D02*
X150888600Y-78852323D01*
X154869600Y-78812323D02*
X150795600Y-78812323D01*
X154956600Y-78772323D02*
X150708600Y-78772323D01*
X155040600Y-78732323D02*
X150624600Y-78732323D01*
X155120600Y-78692323D02*
X150544600Y-78692323D01*
X155197600Y-78652323D02*
X150467600Y-78652323D01*
X155271600Y-78612323D02*
X150393600Y-78612323D01*
X155342600Y-78572323D02*
X150322600Y-78572323D01*
X155410600Y-78532323D02*
X150254600Y-78532323D01*
X155476600Y-78492323D02*
X150188600Y-78492323D01*
X155540600Y-78452323D02*
X150124600Y-78452323D01*
X155602600Y-78412323D02*
X150062600Y-78412323D01*
X155662600Y-78372323D02*
X150002600Y-78372323D01*
X155707600Y-68652677D02*
X155707600Y-69652677D01*
X155720600Y-78332323D02*
X149944600Y-78332323D01*
X155777600Y-78292323D02*
X149887600Y-78292323D01*
X155832600Y-78252323D02*
X149832600Y-78252323D01*
X155885600Y-78212323D02*
X149779600Y-78212323D01*
X155937600Y-78172323D02*
X149727600Y-78172323D01*
X155988600Y-78132323D02*
X149676600Y-78132323D01*
X156037600Y-78092323D02*
X149627600Y-78092323D01*
X156086600Y-78052323D02*
X149578600Y-78052323D01*
X156133600Y-78012323D02*
X149531600Y-78012323D01*
X156179600Y-77972323D02*
X149485600Y-77972323D01*
X156207600Y-69152677D02*
X155207600Y-69152677D01*
X156223600Y-77932323D02*
X149441600Y-77932323D01*
X156267600Y-77892323D02*
X149397600Y-77892323D01*
X156310600Y-77852323D02*
X154072600Y-77852323D01*
X156352600Y-77812323D02*
X154072600Y-77812323D01*
X156393600Y-77772323D02*
X154072600Y-77772323D01*
X156433600Y-77732323D02*
X154072600Y-77732323D01*
X156472600Y-77692323D02*
X154072600Y-77692323D01*
X156510600Y-77652323D02*
X154072600Y-77652323D01*
X156548600Y-77612323D02*
X154072600Y-77612323D01*
X156584600Y-77572323D02*
X154072600Y-77572323D01*
X156620600Y-77532323D02*
X154072600Y-77532323D01*
X156655600Y-77492323D02*
X154072600Y-77492323D01*
X156690600Y-77452323D02*
X154072600Y-77452323D01*
X156723600Y-77412323D02*
X154072600Y-77412323D01*
X156756600Y-77372323D02*
X154072600Y-77372323D01*
X156789600Y-77332323D02*
X154072600Y-77332323D01*
X156820600Y-77292323D02*
X154072600Y-77292323D01*
X156852600Y-77252323D02*
X154072600Y-77252323D01*
X156882600Y-77212323D02*
X154072600Y-77212323D01*
X156912600Y-77172323D02*
X154072600Y-77172323D01*
X156941600Y-77132323D02*
X154072600Y-77132323D01*
X156970600Y-77092323D02*
X154072600Y-77092323D01*
X156998600Y-77052323D02*
X154072600Y-77052323D01*
X157025600Y-77012323D02*
X154072600Y-77012323D01*
X157052600Y-76972323D02*
X154072600Y-76972323D01*
X157079600Y-76932323D02*
X154072600Y-76932323D01*
X157104600Y-76892323D02*
X154072600Y-76892323D01*
X157130600Y-76852323D02*
X154072600Y-76852323D01*
X157155600Y-76812323D02*
X154072600Y-76812323D01*
X157179600Y-76772323D02*
X154072600Y-76772323D01*
X157203600Y-76732323D02*
X154072600Y-76732323D01*
X157226600Y-76692323D02*
X154072600Y-76692323D01*
X157249600Y-76652323D02*
X154072600Y-76652323D01*
X157271600Y-76612323D02*
X154072600Y-76612323D01*
X157293600Y-76572323D02*
X154072600Y-76572323D01*
X157315600Y-76532323D02*
X154072600Y-76532323D01*
X157336600Y-76492323D02*
X154072600Y-76492323D01*
X157356600Y-76452323D02*
X154072600Y-76452323D01*
X157376600Y-76412323D02*
X154072600Y-76412323D01*
X157396600Y-76372323D02*
X154072600Y-76372323D01*
X157415600Y-76332323D02*
X154072600Y-76332323D01*
X157434600Y-76292323D02*
X154072600Y-76292323D01*
X157452600Y-76252323D02*
X154072600Y-76252323D01*
X157470600Y-76212323D02*
X154072600Y-76212323D01*
X157488600Y-76172323D02*
X154072600Y-76172323D01*
X157505600Y-76132323D02*
X154072600Y-76132323D01*
X157522600Y-76092323D02*
X154072600Y-76092323D01*
X157538600Y-76052323D02*
X154072600Y-76052323D01*
X157554600Y-76012323D02*
X154072600Y-76012323D01*
X157570600Y-75972323D02*
X154072600Y-75972323D01*
X157585600Y-75932323D02*
X154072600Y-75932323D01*
X157600600Y-75892323D02*
X154072600Y-75892323D01*
X157614600Y-75852323D02*
X154072600Y-75852323D01*
X157629600Y-75812323D02*
X154072600Y-75812323D01*
X157642600Y-75772323D02*
X154072600Y-75772323D01*
X157656600Y-75732323D02*
X154072600Y-75732323D01*
X157669600Y-75692323D02*
X154072600Y-75692323D01*
X157681600Y-75652323D02*
X154072600Y-75652323D01*
X157693600Y-75612323D02*
X154072600Y-75612323D01*
X157705600Y-75572323D02*
X154072600Y-75572323D01*
X157717600Y-75532323D02*
X154072600Y-75532323D01*
X157728600Y-75492323D02*
X154072600Y-75492323D01*
X157739600Y-75452323D02*
X154072600Y-75452323D01*
X157749600Y-75412323D02*
X154072600Y-75412323D01*
X157760600Y-75372323D02*
X147904600Y-75372323D01*
X157769600Y-75332323D02*
X147895600Y-75332323D01*
X157779600Y-75292323D02*
X147885600Y-75292323D01*
X157788600Y-75252323D02*
X147876600Y-75252323D01*
X157797600Y-75212323D02*
X147867600Y-75212323D01*
X157805600Y-75172323D02*
X147859600Y-75172323D01*
X157813600Y-75132323D02*
X147851600Y-75132323D01*
X157821600Y-75092323D02*
X147843600Y-75092323D01*
X157829600Y-75052323D02*
X147835600Y-75052323D01*
X157836600Y-75012323D02*
X147828600Y-75012323D01*
X157843600Y-74972323D02*
X147821600Y-74972323D01*
X157849600Y-74932323D02*
X147815600Y-74932323D01*
X157855600Y-74892323D02*
X147809600Y-74892323D01*
X157861600Y-74852323D02*
X147803600Y-74852323D01*
X157867600Y-74812323D02*
X147797600Y-74812323D01*
X157872600Y-74772323D02*
X147792600Y-74772323D01*
X157877600Y-74732323D02*
X147787600Y-74732323D01*
X157881600Y-74692323D02*
X147783600Y-74692323D01*
X157886600Y-74652323D02*
X147778600Y-74652323D01*
X157889600Y-74612323D02*
X147775600Y-74612323D01*
X157893600Y-74572323D02*
X147771600Y-74572323D01*
X157896600Y-74532323D02*
X147768600Y-74532323D01*
X157899600Y-74492323D02*
X147765600Y-74492323D01*
X157902600Y-74452323D02*
X147762600Y-74452323D01*
X157904600Y-74412323D02*
X147760600Y-74412323D01*
X157906600Y-74372323D02*
X147758600Y-74372323D01*
X157908600Y-74332323D02*
X147756600Y-74332323D01*
X157909600Y-74292323D02*
X147755600Y-74292323D01*
X157911600Y-74212323D02*
X147753600Y-74212323D01*
X157911600Y-74252323D02*
X147753600Y-74252323D01*
X157912600Y-74132323D02*
X147752600Y-74132323D01*
X157912600Y-74172323D02*
X147752600Y-74172323D01*
X157952600Y-74132323D02*
G75*
G02*
X147712600Y-74132323I-5120000J0D01*
G01*
X147712600Y-74132323D02*
G75*
G02*
X157952600Y-74132323I5120000J0D01*
G01*
%TO.C,D4*%
X137482600Y-87910000D02*
X137482600Y-88930000D01*
X137482600Y-95390000D02*
X137482600Y-94370000D01*
X138952600Y-89710000D02*
X136012600Y-89710000D01*
X138952600Y-89830000D02*
X136012600Y-89830000D01*
X138952600Y-89950000D02*
X136012600Y-89950000D01*
X136012600Y-88930000D02*
X138952600Y-88930000D01*
X138952600Y-94370000D01*
X136012600Y-94370000D01*
X136012600Y-88930000D01*
%TO.C,R3*%
X148312600Y-94830000D02*
X154852600Y-94830000D01*
X148312600Y-95160000D02*
X148312600Y-94830000D01*
X148312600Y-97240000D02*
X148312600Y-97570000D01*
X148312600Y-97570000D02*
X154852600Y-97570000D01*
X154852600Y-94830000D02*
X154852600Y-95160000D01*
X154852600Y-97570000D02*
X154852600Y-97240000D01*
%TO.C,D5*%
X142262600Y-77440000D02*
X142262600Y-82880000D01*
X142262600Y-82880000D02*
X142592600Y-82880000D01*
X142592600Y-77440000D02*
X142262600Y-77440000D01*
X144872600Y-77440000D02*
X145202600Y-77440000D01*
X145202600Y-77440000D02*
X145202600Y-82880000D01*
X145202600Y-78220000D02*
X142262600Y-78220000D01*
X145202600Y-78340000D02*
X142262600Y-78340000D01*
X145202600Y-78460000D02*
X142262600Y-78460000D01*
X145202600Y-82880000D02*
X144872600Y-82880000D01*
%TO.C,D2*%
X131362600Y-87852400D02*
X131362600Y-88872400D01*
X131362600Y-95332400D02*
X131362600Y-94312400D01*
X132832600Y-89652400D02*
X129892600Y-89652400D01*
X132832600Y-89772400D02*
X129892600Y-89772400D01*
X132832600Y-89892400D02*
X129892600Y-89892400D01*
X129892600Y-88872400D02*
X132832600Y-88872400D01*
X132832600Y-94312400D01*
X129892600Y-94312400D01*
X129892600Y-88872400D01*
%TO.C,R2*%
X142462600Y-89690000D02*
X142462600Y-96230000D01*
X142462600Y-96230000D02*
X142792600Y-96230000D01*
X142792600Y-89690000D02*
X142462600Y-89690000D01*
X144872600Y-89690000D02*
X145202600Y-89690000D01*
X145202600Y-89690000D02*
X145202600Y-96230000D01*
X145202600Y-96230000D02*
X144872600Y-96230000D01*
%TO.C,C2*%
X141412600Y-69805000D02*
X146352600Y-69805000D01*
X141412600Y-70135000D02*
X141412600Y-69805000D01*
X141412600Y-72545000D02*
X141412600Y-72215000D01*
X146352600Y-69805000D02*
X146352600Y-70135000D01*
X146352600Y-72215000D02*
X146352600Y-72545000D01*
X146352600Y-72545000D02*
X141412600Y-72545000D01*
%TO.C,R1*%
X125092600Y-87560000D02*
X125092600Y-94100000D01*
X125092600Y-94100000D02*
X125422600Y-94100000D01*
X125422600Y-87560000D02*
X125092600Y-87560000D01*
X127502600Y-87560000D02*
X127832600Y-87560000D01*
X127832600Y-87560000D02*
X127832600Y-94100000D01*
X127832600Y-94100000D02*
X127502600Y-94100000D01*
%TO.C,D3*%
X137402600Y-72740000D02*
X137402600Y-73760000D01*
X137402600Y-80220000D02*
X137402600Y-79200000D01*
X138872600Y-74540000D02*
X135932600Y-74540000D01*
X138872600Y-74660000D02*
X135932600Y-74660000D01*
X138872600Y-74780000D02*
X135932600Y-74780000D01*
X135932600Y-73760000D02*
X138872600Y-73760000D01*
X138872600Y-79200000D01*
X135932600Y-79200000D01*
X135932600Y-73760000D01*
%TO.C,U2*%
X159228000Y-79188400D02*
X169448000Y-79188400D01*
X159228000Y-80568400D02*
X169448000Y-80568400D01*
X159228000Y-83808400D02*
X159228000Y-79188400D01*
X162488000Y-79188400D02*
X162488000Y-80568400D01*
X166188000Y-79188400D02*
X166188000Y-80568400D01*
X169448000Y-79188400D02*
X169448000Y-83808400D01*
X169448000Y-83808400D02*
X159228000Y-83808400D01*
%TD*%
M02*
