%TF.GenerationSoftware,KiCad,Pcbnew,10.0.1*%
%TF.CreationDate,2026-06-23T20:13:12+05:30*%
%TF.ProjectId,Transfarmerless AC to DC,5472616e-7366-4617-926d-65726c657373,rev?*%
%TF.SameCoordinates,Original*%
%TF.FileFunction,Copper,L2,Bot*%
%TF.FilePolarity,Positive*%
%FSLAX46Y46*%
G04 Gerber Fmt 4.6, Leading zero omitted, Abs format (unit mm)*
G04 Created by KiCad (PCBNEW 10.0.1) date 2026-06-23 20:13:12*
%MOMM*%
%LPD*%
G01*
G04 APERTURE LIST*
G04 Aperture macros list*
%AMRoundRect*
0 Rectangle with rounded corners*
0 $1 Rounding radius*
0 $2 $3 $4 $5 $6 $7 $8 $9 X,Y pos of 4 corners*
0 Add a 4 corners polygon primitive as box body*
4,1,4,$2,$3,$4,$5,$6,$7,$8,$9,$2,$3,0*
0 Add four circle primitives for the rounded corners*
1,1,$1+$1,$2,$3*
1,1,$1+$1,$4,$5*
1,1,$1+$1,$6,$7*
1,1,$1+$1,$8,$9*
0 Add four rect primitives between the rounded corners*
20,1,$1+$1,$2,$3,$4,$5,0*
20,1,$1+$1,$4,$5,$6,$7,0*
20,1,$1+$1,$6,$7,$8,$9,0*
20,1,$1+$1,$8,$9,$2,$3,0*%
G04 Aperture macros list end*
%TA.AperFunction,ComponentPad*%
%ADD10RoundRect,0.249999X-0.850001X0.850001X-0.850001X-0.850001X0.850001X-0.850001X0.850001X0.850001X0*%
%TD*%
%TA.AperFunction,ComponentPad*%
%ADD11C,2.200000*%
%TD*%
%TA.AperFunction,ComponentPad*%
%ADD12RoundRect,0.250000X-0.550000X-0.550000X0.550000X-0.550000X0.550000X0.550000X-0.550000X0.550000X0*%
%TD*%
%TA.AperFunction,ComponentPad*%
%ADD13C,1.600000*%
%TD*%
%TA.AperFunction,ComponentPad*%
%ADD14R,1.800000X1.800000*%
%TD*%
%TA.AperFunction,ComponentPad*%
%ADD15C,1.800000*%
%TD*%
%TA.AperFunction,ComponentPad*%
%ADD16RoundRect,0.250000X-1.050000X1.050000X-1.050000X-1.050000X1.050000X-1.050000X1.050000X1.050000X0*%
%TD*%
%TA.AperFunction,ComponentPad*%
%ADD17C,2.600000*%
%TD*%
%TA.AperFunction,ComponentPad*%
%ADD18C,2.400000*%
%TD*%
%TA.AperFunction,ComponentPad*%
%ADD19RoundRect,0.250000X1.050000X-1.050000X1.050000X1.050000X-1.050000X1.050000X-1.050000X-1.050000X0*%
%TD*%
%TA.AperFunction,ComponentPad*%
%ADD20RoundRect,0.250000X-0.650000X0.650000X-0.650000X-0.650000X0.650000X-0.650000X0.650000X0.650000X0*%
%TD*%
%TA.AperFunction,ComponentPad*%
%ADD21RoundRect,0.250000X-0.750000X0.750000X-0.750000X-0.750000X0.750000X-0.750000X0.750000X0.750000X0*%
%TD*%
%TA.AperFunction,ComponentPad*%
%ADD22C,2.000000*%
%TD*%
%TA.AperFunction,ComponentPad*%
%ADD23R,1.905000X2.000000*%
%TD*%
%TA.AperFunction,ComponentPad*%
%ADD24O,1.905000X2.000000*%
%TD*%
%TA.AperFunction,Conductor*%
%ADD25C,1.000000*%
%TD*%
%TA.AperFunction,Conductor*%
%ADD26C,0.500000*%
%TD*%
G04 APERTURE END LIST*
D10*
%TO.P,D1,1,K_1*%
%TO.N,Net-(D1-K)*%
X131325800Y-71374000D03*
D11*
%TO.P,D1,2,A_2*%
%TO.N,Net-(D1-A)*%
X131325800Y-81534000D03*
%TD*%
D12*
%TO.P,C4,1*%
%TO.N,+5V*%
X161822600Y-73650000D03*
D13*
%TO.P,C4,2*%
%TO.N,GND*%
X165322600Y-73650000D03*
%TD*%
D14*
%TO.P,D7,1,K_1*%
%TO.N,GND*%
X163147200Y-88160000D03*
D15*
%TO.P,D7,2,A_2*%
%TO.N,Net-(D7-A)*%
X165687200Y-88160000D03*
%TD*%
D16*
%TO.P,J1,1,Pin_1_1*%
%TO.N,Net-(D3-A)*%
X122735100Y-73482200D03*
D17*
%TO.P,J1,2,Pin_2_2*%
%TO.N,Net-(J1-Pin_2)*%
X122735100Y-78562200D03*
%TD*%
D18*
%TO.P,C1,1*%
%TO.N,Net-(J1-Pin_2)*%
X120502600Y-84500000D03*
%TO.P,C1,2*%
%TO.N,Net-(D1-A)*%
X120502600Y-99500000D03*
%TD*%
D13*
%TO.P,R4,1*%
%TO.N,Net-(D1-K)*%
X155100400Y-81915000D03*
%TO.P,R4,2*%
%TO.N,Net-(D7-A)*%
X155100400Y-89535000D03*
%TD*%
D19*
%TO.P,J2,1,Pin_1_1*%
%TO.N,GND*%
X163060000Y-100390000D03*
D17*
%TO.P,J2,2,Pin_2_2*%
%TO.N,+5V*%
X163060000Y-95310000D03*
%TD*%
D20*
%TO.P,D6,1,K_1*%
%TO.N,Net-(D1-K)*%
X149707600Y-82165000D03*
D15*
%TO.P,D6,2,A_2*%
%TO.N,Net-(D6-A)*%
X149707600Y-89785000D03*
%TD*%
D21*
%TO.P,C3,1*%
%TO.N,Net-(D1-K)*%
X152832600Y-71632323D03*
D22*
%TO.P,C3,2*%
%TO.N,GND*%
X152832600Y-76632323D03*
%TD*%
D10*
%TO.P,D4,1,K_1*%
%TO.N,Net-(D3-A)*%
X137482600Y-86570000D03*
D11*
%TO.P,D4,2,A_2*%
%TO.N,GND*%
X137482600Y-96730000D03*
%TD*%
D13*
%TO.P,R3,1*%
%TO.N,Net-(D6-A)*%
X147772600Y-96200000D03*
%TO.P,R3,2*%
%TO.N,GND*%
X155392600Y-96200000D03*
%TD*%
D20*
%TO.P,D5,1,K_1*%
%TO.N,Net-(D1-K)*%
X143732600Y-76350000D03*
D15*
%TO.P,D5,2,A_2*%
%TO.N,Net-(D5-A)*%
X143732600Y-83970000D03*
%TD*%
D10*
%TO.P,D2,1,K_1*%
%TO.N,Net-(D1-A)*%
X131362600Y-86512400D03*
D11*
%TO.P,D2,2,A_2*%
%TO.N,GND*%
X131362600Y-96672400D03*
%TD*%
D13*
%TO.P,R2,1*%
%TO.N,Net-(D5-A)*%
X143832600Y-89150000D03*
%TO.P,R2,2*%
%TO.N,GND*%
X143832600Y-96770000D03*
%TD*%
%TO.P,C2,1*%
%TO.N,Net-(D1-K)*%
X146382600Y-71175000D03*
%TO.P,C2,2*%
%TO.N,GND*%
X141382600Y-71175000D03*
%TD*%
%TO.P,R1,1*%
%TO.N,Net-(J1-Pin_2)*%
X126462600Y-87020000D03*
%TO.P,R1,2*%
%TO.N,Net-(D1-A)*%
X126462600Y-94640000D03*
%TD*%
D10*
%TO.P,D3,1,K_1*%
%TO.N,Net-(D1-K)*%
X137402600Y-71400000D03*
D11*
%TO.P,D3,2,A_2*%
%TO.N,Net-(D3-A)*%
X137402600Y-81560000D03*
%TD*%
D23*
%TO.P,U2,1,VI_1*%
%TO.N,Net-(D1-K)*%
X161798000Y-82448400D03*
D24*
%TO.P,U2,2,GND_2*%
%TO.N,GND*%
X164338000Y-82448400D03*
%TO.P,U2,3,VO_3*%
%TO.N,+5V*%
X166878000Y-82448400D03*
%TD*%
%TO.N,Net-(J1-Pin_2)*%
D25*
X120502600Y-82240200D02*
X120502600Y-84500000D01*
X123942600Y-84500000D02*
X126462600Y-87020000D01*
X122735100Y-78562200D02*
X120523000Y-80774300D01*
X120523000Y-80774300D02*
X120523000Y-82219800D01*
X120523000Y-82219800D02*
X120502600Y-82240200D01*
X120502600Y-84500000D02*
X123942600Y-84500000D01*
%TO.N,Net-(D1-A)*%
X131362600Y-89160200D02*
X131362600Y-86512400D01*
X126462600Y-94060200D02*
X131362600Y-89160200D01*
X126462600Y-97877400D02*
X126462600Y-94640000D01*
X131325800Y-81534000D02*
X131325800Y-86475600D01*
X120502600Y-99500000D02*
X124840000Y-99500000D01*
X126462600Y-94640000D02*
X126462600Y-94060200D01*
X131325800Y-86475600D02*
X131362600Y-86512400D01*
X124840000Y-99500000D02*
X126462600Y-97877400D01*
%TO.N,+5V*%
D26*
X162814000Y-78333600D02*
X165455600Y-78333600D01*
X168610000Y-95310000D02*
X163060000Y-95310000D01*
X166878000Y-82448400D02*
X168758400Y-82448400D01*
X168640000Y-95340000D02*
X168610000Y-95310000D01*
X168758400Y-82448400D02*
X170190000Y-83880000D01*
X170190000Y-83880000D02*
X170190000Y-93790000D01*
X170190000Y-93790000D02*
X168640000Y-95340000D01*
X166878000Y-79756000D02*
X166878000Y-82448400D01*
X165455600Y-78333600D02*
X166878000Y-79756000D01*
X161822600Y-73650000D02*
X161822600Y-77342200D01*
X161822600Y-77342200D02*
X162814000Y-78333600D01*
%TO.N,Net-(D3-A)*%
D25*
X122735100Y-73895100D02*
X126410000Y-77570000D01*
X137402600Y-86490000D02*
X137482600Y-86570000D01*
X135570000Y-77570000D02*
X137402600Y-79402600D01*
X122735100Y-73482200D02*
X122735100Y-73895100D01*
X137402600Y-81560000D02*
X137402600Y-86490000D01*
X126410000Y-77570000D02*
X135570000Y-77570000D01*
X137402600Y-79402600D02*
X137402600Y-81560000D01*
%TO.N,Net-(D5-A)*%
D26*
X143732600Y-83970000D02*
X143732600Y-89050000D01*
X143732600Y-89050000D02*
X143832600Y-89150000D01*
%TO.N,Net-(D6-A)*%
X149707600Y-92125800D02*
X147772600Y-94060800D01*
X147772600Y-94060800D02*
X147772600Y-96200000D01*
X149707600Y-89785000D02*
X149707600Y-92125800D01*
%TO.N,Net-(D7-A)*%
X155100400Y-89535000D02*
X164312200Y-89535000D01*
X164312200Y-89535000D02*
X165687200Y-88160000D01*
%TO.N,Net-(D1-K)*%
D25*
X131325800Y-71374000D02*
X137376600Y-71374000D01*
X152375277Y-71175000D02*
X152832600Y-71632323D01*
D26*
X149707600Y-82165000D02*
X154850400Y-82165000D01*
D25*
X139010000Y-76350000D02*
X143732600Y-76350000D01*
X148480000Y-76350000D02*
X149691900Y-77561900D01*
D26*
X155633800Y-82448400D02*
X155100400Y-81915000D01*
X154850400Y-82165000D02*
X155100400Y-81915000D01*
X161798000Y-82448400D02*
X155633800Y-82448400D01*
D25*
X137376600Y-71374000D02*
X137402600Y-71400000D01*
X146382600Y-71175000D02*
X146382600Y-73700000D01*
X149707600Y-77546200D02*
X149707600Y-82165000D01*
X146382600Y-73700000D02*
X143732600Y-76350000D01*
X137402600Y-74742600D02*
X139010000Y-76350000D01*
X146382600Y-71175000D02*
X152375277Y-71175000D01*
X161264600Y-81915000D02*
X161798000Y-82448400D01*
X137402600Y-71400000D02*
X137402600Y-74742600D01*
X143732600Y-76350000D02*
X148480000Y-76350000D01*
X149691900Y-77561900D02*
X149707600Y-77546200D01*
%TD*%
%TA.AperFunction,Conductor*%
%TO.N,GND*%
G36*
X168507469Y-66244145D02*
G01*
X168536834Y-66250169D01*
X168540640Y-66253886D01*
X168545745Y-66255385D01*
X168565371Y-66278035D01*
X168586824Y-66298983D01*
X168588017Y-66304169D01*
X168591500Y-66308189D01*
X168595765Y-66337853D01*
X168602487Y-66367074D01*
X168600686Y-66372081D01*
X168601444Y-66377347D01*
X168588990Y-66404615D01*
X168578850Y-66432824D01*
X168573699Y-66438098D01*
X168572419Y-66440903D01*
X168554192Y-66458076D01*
X168402291Y-66574632D01*
X168402284Y-66574638D01*
X168214638Y-66762284D01*
X168214632Y-66762291D01*
X168053084Y-66972826D01*
X168053073Y-66972842D01*
X167920388Y-67202657D01*
X167920383Y-67202668D01*
X167818825Y-67447851D01*
X167750141Y-67704189D01*
X167750139Y-67704200D01*
X167715500Y-67967299D01*
X167715500Y-68232700D01*
X167744351Y-68451836D01*
X167750140Y-68495808D01*
X167767676Y-68561254D01*
X167818825Y-68752148D01*
X167920383Y-68997331D01*
X167920388Y-68997342D01*
X168053073Y-69227157D01*
X168053084Y-69227173D01*
X168214632Y-69437708D01*
X168214638Y-69437715D01*
X168402284Y-69625361D01*
X168402290Y-69625366D01*
X168612835Y-69786922D01*
X168612842Y-69786926D01*
X168842657Y-69919611D01*
X168842662Y-69919613D01*
X168842665Y-69919615D01*
X169087849Y-70021174D01*
X169344192Y-70089860D01*
X169607307Y-70124500D01*
X169607314Y-70124500D01*
X169872686Y-70124500D01*
X169872693Y-70124500D01*
X170135808Y-70089860D01*
X170392151Y-70021174D01*
X170637335Y-69919615D01*
X170867165Y-69786922D01*
X171077710Y-69625366D01*
X171265366Y-69437710D01*
X171426922Y-69227165D01*
X171480937Y-69133609D01*
X171531504Y-69085393D01*
X171600111Y-69072171D01*
X171664976Y-69098139D01*
X171705504Y-69155053D01*
X171712324Y-69195609D01*
X171712324Y-103184390D01*
X171692639Y-103251429D01*
X171639835Y-103297184D01*
X171570677Y-103307128D01*
X171507121Y-103278103D01*
X171480937Y-103246391D01*
X171445140Y-103184390D01*
X171426922Y-103152835D01*
X171265366Y-102942290D01*
X171265361Y-102942284D01*
X171077715Y-102754638D01*
X171077708Y-102754632D01*
X170867173Y-102593084D01*
X170867171Y-102593082D01*
X170867165Y-102593078D01*
X170867160Y-102593075D01*
X170867157Y-102593073D01*
X170637342Y-102460388D01*
X170637331Y-102460383D01*
X170493708Y-102400892D01*
X170392151Y-102358826D01*
X170392149Y-102358825D01*
X170392148Y-102358825D01*
X170315991Y-102338419D01*
X170135808Y-102290140D01*
X170091836Y-102284351D01*
X169872700Y-102255500D01*
X169872693Y-102255500D01*
X169607307Y-102255500D01*
X169607299Y-102255500D01*
X169356856Y-102288472D01*
X169344192Y-102290140D01*
X169268032Y-102310546D01*
X169087851Y-102358825D01*
X168842668Y-102460383D01*
X168842657Y-102460388D01*
X168612842Y-102593073D01*
X168612826Y-102593084D01*
X168402291Y-102754632D01*
X168402284Y-102754638D01*
X168214638Y-102942284D01*
X168214632Y-102942291D01*
X168053084Y-103152826D01*
X168053073Y-103152842D01*
X167920388Y-103382657D01*
X167920383Y-103382668D01*
X167818825Y-103627851D01*
X167750141Y-103884189D01*
X167750139Y-103884200D01*
X167715500Y-104147299D01*
X167715500Y-104412700D01*
X167744351Y-104631836D01*
X167750140Y-104675808D01*
X167750141Y-104675810D01*
X167818825Y-104932148D01*
X167920383Y-105177331D01*
X167920388Y-105177342D01*
X168053073Y-105407157D01*
X168053084Y-105407173D01*
X168214632Y-105617708D01*
X168214638Y-105617715D01*
X168350602Y-105753679D01*
X168384087Y-105815002D01*
X168379103Y-105884694D01*
X168337231Y-105940627D01*
X168271767Y-105965044D01*
X168262921Y-105965360D01*
X119027079Y-105965360D01*
X118960040Y-105945675D01*
X118914285Y-105892871D01*
X118904341Y-105823713D01*
X118933366Y-105760157D01*
X118939398Y-105753679D01*
X119075361Y-105617715D01*
X119075366Y-105617710D01*
X119236922Y-105407165D01*
X119369615Y-105177335D01*
X119471174Y-104932151D01*
X119539860Y-104675808D01*
X119574500Y-104412693D01*
X119574500Y-104147307D01*
X119539860Y-103884192D01*
X119471174Y-103627849D01*
X119369615Y-103382665D01*
X119369612Y-103382659D01*
X119369611Y-103382657D01*
X119236926Y-103152842D01*
X119236922Y-103152835D01*
X119075366Y-102942290D01*
X119075361Y-102942284D01*
X118887715Y-102754638D01*
X118887708Y-102754632D01*
X118677173Y-102593084D01*
X118677171Y-102593082D01*
X118677165Y-102593078D01*
X118677160Y-102593075D01*
X118677157Y-102593073D01*
X118447342Y-102460388D01*
X118447331Y-102460383D01*
X118303708Y-102400892D01*
X118202151Y-102358826D01*
X118202149Y-102358825D01*
X118202148Y-102358825D01*
X118125991Y-102338419D01*
X117945808Y-102290140D01*
X117901836Y-102284351D01*
X117682700Y-102255500D01*
X117682693Y-102255500D01*
X117417307Y-102255500D01*
X117417299Y-102255500D01*
X117166856Y-102288472D01*
X117154192Y-102290140D01*
X117078032Y-102310546D01*
X116897851Y-102358825D01*
X116652668Y-102460383D01*
X116652657Y-102460388D01*
X116422842Y-102593073D01*
X116422826Y-102593084D01*
X116212291Y-102754632D01*
X116212284Y-102754638D01*
X116024638Y-102942284D01*
X116024632Y-102942291D01*
X115863084Y-103152826D01*
X115863073Y-103152842D01*
X115730387Y-103382659D01*
X115729512Y-103384435D01*
X115729110Y-103384871D01*
X115728355Y-103386180D01*
X115728062Y-103386010D01*
X115682206Y-103435854D01*
X115614610Y-103453535D01*
X115548186Y-103431864D01*
X115504023Y-103377722D01*
X115494300Y-103329590D01*
X115494300Y-99388549D01*
X118802100Y-99388549D01*
X118802100Y-99611450D01*
X118802101Y-99611466D01*
X118831194Y-99832452D01*
X118831195Y-99832457D01*
X118831196Y-99832463D01*
X118888890Y-100047780D01*
X118888893Y-100047790D01*
X118974193Y-100253722D01*
X118974195Y-100253726D01*
X119085652Y-100446774D01*
X119085657Y-100446780D01*
X119085658Y-100446782D01*
X119221351Y-100623622D01*
X119221357Y-100623629D01*
X119378970Y-100781242D01*
X119378976Y-100781247D01*
X119555826Y-100916948D01*
X119748874Y-101028405D01*
X119954819Y-101113710D01*
X120170137Y-101171404D01*
X120391143Y-101200500D01*
X120391150Y-101200500D01*
X120614050Y-101200500D01*
X120614057Y-101200500D01*
X120835063Y-101171404D01*
X121050381Y-101113710D01*
X121256326Y-101028405D01*
X121449374Y-100916948D01*
X121626224Y-100781247D01*
X121783847Y-100623624D01*
X121841097Y-100549013D01*
X121897524Y-100507811D01*
X121939473Y-100500500D01*
X124938542Y-100500500D01*
X124962866Y-100495661D01*
X125035188Y-100481275D01*
X125131836Y-100462051D01*
X125185165Y-100439961D01*
X125313914Y-100386632D01*
X125477782Y-100277139D01*
X125617139Y-100137782D01*
X125617140Y-100137779D01*
X125624206Y-100130714D01*
X125624209Y-100130710D01*
X126464906Y-99290013D01*
X161260000Y-99290013D01*
X161260000Y-100140000D01*
X162459999Y-100140000D01*
X162434979Y-100200402D01*
X162410000Y-100325981D01*
X162410000Y-100454019D01*
X162434979Y-100579598D01*
X162459999Y-100640000D01*
X161260001Y-100640000D01*
X161260001Y-101489986D01*
X161270494Y-101592697D01*
X161325641Y-101759119D01*
X161325643Y-101759124D01*
X161417684Y-101908345D01*
X161541654Y-102032315D01*
X161690875Y-102124356D01*
X161690880Y-102124358D01*
X161857302Y-102179505D01*
X161857309Y-102179506D01*
X161960019Y-102189999D01*
X162809999Y-102189999D01*
X162810000Y-102189998D01*
X162810000Y-100990001D01*
X162870402Y-101015021D01*
X162995981Y-101040000D01*
X163124019Y-101040000D01*
X163249598Y-101015021D01*
X163310000Y-100990001D01*
X163310000Y-102189999D01*
X164159972Y-102189999D01*
X164159986Y-102189998D01*
X164262697Y-102179505D01*
X164429119Y-102124358D01*
X164429124Y-102124356D01*
X164578345Y-102032315D01*
X164702315Y-101908345D01*
X164794356Y-101759124D01*
X164794358Y-101759119D01*
X164849505Y-101592697D01*
X164849506Y-101592690D01*
X164859999Y-101489986D01*
X164860000Y-101489973D01*
X164860000Y-100640000D01*
X163660001Y-100640000D01*
X163685021Y-100579598D01*
X163710000Y-100454019D01*
X163710000Y-100325981D01*
X163685021Y-100200402D01*
X163660001Y-100140000D01*
X164859999Y-100140000D01*
X164859999Y-99290028D01*
X164859998Y-99290013D01*
X164849505Y-99187302D01*
X164794358Y-99020880D01*
X164794356Y-99020875D01*
X164702315Y-98871654D01*
X164578345Y-98747684D01*
X164429124Y-98655643D01*
X164429119Y-98655641D01*
X164262697Y-98600494D01*
X164262690Y-98600493D01*
X164159986Y-98590000D01*
X163310000Y-98590000D01*
X163310000Y-99789998D01*
X163249598Y-99764979D01*
X163124019Y-99740000D01*
X162995981Y-99740000D01*
X162870402Y-99764979D01*
X162810000Y-99789998D01*
X162810000Y-98590000D01*
X161960028Y-98590000D01*
X161960012Y-98590001D01*
X161857302Y-98600494D01*
X161690880Y-98655641D01*
X161690875Y-98655643D01*
X161541654Y-98747684D01*
X161417684Y-98871654D01*
X161325643Y-99020875D01*
X161325641Y-99020880D01*
X161270494Y-99187302D01*
X161270493Y-99187309D01*
X161260000Y-99290013D01*
X126464906Y-99290013D01*
X127100378Y-98654541D01*
X127100382Y-98654539D01*
X127239739Y-98515182D01*
X127349232Y-98351314D01*
X127358061Y-98330000D01*
X127366321Y-98310055D01*
X127424651Y-98169235D01*
X127444390Y-98070000D01*
X127463100Y-97975943D01*
X127463100Y-96546471D01*
X129762600Y-96546471D01*
X129762600Y-96798328D01*
X129801997Y-97047069D01*
X129879819Y-97286584D01*
X129994157Y-97510983D01*
X130068348Y-97613097D01*
X130068348Y-97613098D01*
X130838812Y-96842634D01*
X130850082Y-96884692D01*
X130922490Y-97010108D01*
X131024892Y-97112510D01*
X131150308Y-97184918D01*
X131192365Y-97196187D01*
X130421900Y-97966650D01*
X130524016Y-98040842D01*
X130748415Y-98155180D01*
X130987930Y-98233002D01*
X131236672Y-98272400D01*
X131488528Y-98272400D01*
X131737269Y-98233002D01*
X131976784Y-98155180D01*
X132201175Y-98040846D01*
X132201181Y-98040842D01*
X132303298Y-97966650D01*
X131532834Y-97196187D01*
X131574892Y-97184918D01*
X131700308Y-97112510D01*
X131802710Y-97010108D01*
X131875118Y-96884692D01*
X131886387Y-96842635D01*
X132656850Y-97613098D01*
X132656850Y-97613097D01*
X132731042Y-97510981D01*
X132731046Y-97510975D01*
X132845380Y-97286584D01*
X132923202Y-97047069D01*
X132962600Y-96798328D01*
X132962600Y-96604071D01*
X135882600Y-96604071D01*
X135882600Y-96855928D01*
X135921997Y-97104669D01*
X135999819Y-97344184D01*
X136114157Y-97568583D01*
X136188348Y-97670697D01*
X136188348Y-97670698D01*
X136958812Y-96900234D01*
X136970082Y-96942292D01*
X137042490Y-97067708D01*
X137144892Y-97170110D01*
X137270308Y-97242518D01*
X137312365Y-97253787D01*
X136541900Y-98024250D01*
X136644016Y-98098442D01*
X136868415Y-98212780D01*
X137107930Y-98290602D01*
X137356672Y-98330000D01*
X137608528Y-98330000D01*
X137857269Y-98290602D01*
X138096784Y-98212780D01*
X138321175Y-98098446D01*
X138321181Y-98098442D01*
X138423297Y-98024250D01*
X138423298Y-98024250D01*
X138288944Y-97889896D01*
X137652834Y-97253787D01*
X137694892Y-97242518D01*
X137820308Y-97170110D01*
X137922710Y-97067708D01*
X137995118Y-96942292D01*
X138006387Y-96900235D01*
X138776850Y-97670698D01*
X138776850Y-97670697D01*
X138851042Y-97568581D01*
X138851046Y-97568575D01*
X138965380Y-97344184D01*
X139043202Y-97104669D01*
X139082600Y-96855928D01*
X139082600Y-96667682D01*
X142532600Y-96667682D01*
X142532600Y-96872317D01*
X142564609Y-97074417D01*
X142627844Y-97269031D01*
X142720741Y-97451350D01*
X142720747Y-97451359D01*
X142753123Y-97495921D01*
X142753124Y-97495922D01*
X143432600Y-96816446D01*
X143432600Y-96822661D01*
X143459859Y-96924394D01*
X143512520Y-97015606D01*
X143586994Y-97090080D01*
X143678206Y-97142741D01*
X143779939Y-97170000D01*
X143786153Y-97170000D01*
X143106676Y-97849474D01*
X143151250Y-97881859D01*
X143333568Y-97974755D01*
X143528182Y-98037990D01*
X143730283Y-98070000D01*
X143934917Y-98070000D01*
X144137017Y-98037990D01*
X144331631Y-97974755D01*
X144513949Y-97881859D01*
X144558521Y-97849474D01*
X143879047Y-97170000D01*
X143885261Y-97170000D01*
X143986994Y-97142741D01*
X144078206Y-97090080D01*
X144152680Y-97015606D01*
X144205341Y-96924394D01*
X144232600Y-96822661D01*
X144232600Y-96816448D01*
X144912074Y-97495922D01*
X144912074Y-97495921D01*
X144944459Y-97451349D01*
X145037355Y-97269031D01*
X145100590Y-97074417D01*
X145132600Y-96872317D01*
X145132600Y-96667682D01*
X145100590Y-96465582D01*
X145037355Y-96270968D01*
X144975245Y-96149071D01*
X144975244Y-96149069D01*
X144949045Y-96097648D01*
X146472100Y-96097648D01*
X146472100Y-96302351D01*
X146504122Y-96504534D01*
X146567381Y-96699223D01*
X146619958Y-96802409D01*
X146660185Y-96881359D01*
X146660315Y-96881613D01*
X146780628Y-97047213D01*
X146925386Y-97191971D01*
X147080349Y-97304556D01*
X147090990Y-97312287D01*
X147207207Y-97371503D01*
X147273376Y-97405218D01*
X147273378Y-97405218D01*
X147273381Y-97405220D01*
X147377737Y-97439127D01*
X147468065Y-97468477D01*
X147532339Y-97478657D01*
X147670248Y-97500500D01*
X147670249Y-97500500D01*
X147874951Y-97500500D01*
X147874952Y-97500500D01*
X148077134Y-97468477D01*
X148271819Y-97405220D01*
X148454210Y-97312287D01*
X148577930Y-97222400D01*
X148619813Y-97191971D01*
X148619815Y-97191968D01*
X148619819Y-97191966D01*
X148764566Y-97047219D01*
X148764568Y-97047215D01*
X148764571Y-97047213D01*
X148840799Y-96942292D01*
X148884887Y-96881610D01*
X148977820Y-96699219D01*
X149041077Y-96504534D01*
X149073100Y-96302352D01*
X149073100Y-96097682D01*
X154092600Y-96097682D01*
X154092600Y-96302317D01*
X154124609Y-96504417D01*
X154187844Y-96699031D01*
X154280741Y-96881350D01*
X154280747Y-96881359D01*
X154313123Y-96925921D01*
X154313124Y-96925922D01*
X154992600Y-96246446D01*
X154992600Y-96252661D01*
X155019859Y-96354394D01*
X155072520Y-96445606D01*
X155146994Y-96520080D01*
X155238206Y-96572741D01*
X155339939Y-96600000D01*
X155346153Y-96600000D01*
X154666676Y-97279474D01*
X154711250Y-97311859D01*
X154893568Y-97404755D01*
X155088182Y-97467990D01*
X155290283Y-97500000D01*
X155494917Y-97500000D01*
X155697017Y-97467990D01*
X155891631Y-97404755D01*
X156073949Y-97311859D01*
X156118521Y-97279474D01*
X155439047Y-96600000D01*
X155445261Y-96600000D01*
X155546994Y-96572741D01*
X155638206Y-96520080D01*
X155712680Y-96445606D01*
X155765341Y-96354394D01*
X155792600Y-96252661D01*
X155792600Y-96246447D01*
X156472074Y-96925921D01*
X156504459Y-96881349D01*
X156597355Y-96699031D01*
X156660590Y-96504417D01*
X156692600Y-96302317D01*
X156692600Y-96097682D01*
X156660590Y-95895582D01*
X156597355Y-95700968D01*
X156504459Y-95518650D01*
X156472074Y-95474077D01*
X156472074Y-95474076D01*
X155792600Y-96153551D01*
X155792600Y-96147339D01*
X155765341Y-96045606D01*
X155712680Y-95954394D01*
X155638206Y-95879920D01*
X155546994Y-95827259D01*
X155445261Y-95800000D01*
X155439046Y-95800000D01*
X156118522Y-95120524D01*
X156118521Y-95120523D01*
X156073959Y-95088147D01*
X156073950Y-95088141D01*
X155891631Y-94995244D01*
X155697017Y-94932009D01*
X155494917Y-94900000D01*
X155290283Y-94900000D01*
X155088182Y-94932009D01*
X154893568Y-94995244D01*
X154711244Y-95088143D01*
X154666677Y-95120523D01*
X154666677Y-95120524D01*
X155346154Y-95800000D01*
X155339939Y-95800000D01*
X155238206Y-95827259D01*
X155146994Y-95879920D01*
X155072520Y-95954394D01*
X155019859Y-96045606D01*
X154992600Y-96147339D01*
X154992600Y-96153553D01*
X154313124Y-95474077D01*
X154313123Y-95474077D01*
X154280743Y-95518644D01*
X154187844Y-95700968D01*
X154124609Y-95895582D01*
X154092600Y-96097682D01*
X149073100Y-96097682D01*
X149073100Y-96097648D01*
X149067400Y-96061658D01*
X149041077Y-95895465D01*
X149006582Y-95789300D01*
X148977820Y-95700781D01*
X148977818Y-95700778D01*
X148977818Y-95700776D01*
X148885019Y-95518650D01*
X148884887Y-95518390D01*
X148853706Y-95475472D01*
X148764571Y-95352786D01*
X148670438Y-95258653D01*
X148619819Y-95208034D01*
X148569981Y-95171824D01*
X148566014Y-95168396D01*
X148549811Y-95143254D01*
X148531549Y-95119571D01*
X148530314Y-95112999D01*
X148528166Y-95109665D01*
X148528155Y-95101503D01*
X148523100Y-95074582D01*
X148523100Y-94423029D01*
X148542785Y-94355990D01*
X148559419Y-94335348D01*
X150290548Y-92604219D01*
X150290551Y-92604216D01*
X150372684Y-92481295D01*
X150429258Y-92344713D01*
X150458100Y-92199718D01*
X150458100Y-92051883D01*
X150458100Y-91034024D01*
X150477785Y-90966985D01*
X150509216Y-90933705D01*
X150619961Y-90853245D01*
X150619961Y-90853244D01*
X150619965Y-90853242D01*
X150775842Y-90697365D01*
X150905415Y-90519022D01*
X151005495Y-90322606D01*
X151073615Y-90112951D01*
X151108100Y-89895222D01*
X151108100Y-89674778D01*
X151073615Y-89457049D01*
X151065686Y-89432648D01*
X153799900Y-89432648D01*
X153799900Y-89637351D01*
X153831922Y-89839534D01*
X153895181Y-90034223D01*
X153988115Y-90216613D01*
X154108428Y-90382213D01*
X154253186Y-90526971D01*
X154408149Y-90639556D01*
X154418790Y-90647287D01*
X154535007Y-90706503D01*
X154601176Y-90740218D01*
X154601178Y-90740218D01*
X154601181Y-90740220D01*
X154705537Y-90774127D01*
X154795865Y-90803477D01*
X154896957Y-90819488D01*
X154998048Y-90835500D01*
X154998049Y-90835500D01*
X155202751Y-90835500D01*
X155202752Y-90835500D01*
X155404934Y-90803477D01*
X155599619Y-90740220D01*
X155782010Y-90647287D01*
X155874990Y-90579732D01*
X155947613Y-90526971D01*
X155947615Y-90526968D01*
X155947619Y-90526966D01*
X156092366Y-90382219D01*
X156111982Y-90355220D01*
X156125500Y-90336615D01*
X156180829Y-90293949D01*
X156225818Y-90285500D01*
X164386120Y-90285500D01*
X164483662Y-90266096D01*
X164531113Y-90256658D01*
X164667695Y-90200084D01*
X164716929Y-90167186D01*
X164790616Y-90117952D01*
X165334692Y-89573874D01*
X165396013Y-89540391D01*
X165441765Y-89539084D01*
X165576978Y-89560500D01*
X165576980Y-89560500D01*
X165797421Y-89560500D01*
X165797422Y-89560500D01*
X166015151Y-89526015D01*
X166224806Y-89457895D01*
X166421222Y-89357815D01*
X166599565Y-89228242D01*
X166755442Y-89072365D01*
X166885015Y-88894022D01*
X166985095Y-88697606D01*
X167053215Y-88487951D01*
X167087700Y-88270222D01*
X167087700Y-88049778D01*
X167053215Y-87832049D01*
X167019155Y-87727221D01*
X166985096Y-87622396D01*
X166985095Y-87622393D01*
X166907454Y-87470017D01*
X166885015Y-87425978D01*
X166811312Y-87324534D01*
X166755447Y-87247641D01*
X166755443Y-87247636D01*
X166599563Y-87091756D01*
X166599558Y-87091752D01*
X166421225Y-86962187D01*
X166421224Y-86962186D01*
X166421222Y-86962185D01*
X166333814Y-86917648D01*
X166224806Y-86862104D01*
X166224803Y-86862103D01*
X166015152Y-86793985D01*
X165906286Y-86776742D01*
X165797422Y-86759500D01*
X165576978Y-86759500D01*
X165504401Y-86770995D01*
X165359247Y-86793985D01*
X165149596Y-86862103D01*
X165149593Y-86862104D01*
X164953174Y-86962187D01*
X164774841Y-87091752D01*
X164774836Y-87091756D01*
X164724275Y-87142317D01*
X164662952Y-87175801D01*
X164593260Y-87170816D01*
X164537327Y-87128945D01*
X164520413Y-87097968D01*
X164490554Y-87017913D01*
X164490550Y-87017906D01*
X164404390Y-86902812D01*
X164404387Y-86902809D01*
X164289293Y-86816649D01*
X164289286Y-86816645D01*
X164154579Y-86766403D01*
X164154572Y-86766401D01*
X164095044Y-86760000D01*
X163397200Y-86760000D01*
X163397200Y-87784722D01*
X163320894Y-87740667D01*
X163206444Y-87710000D01*
X163087956Y-87710000D01*
X162973506Y-87740667D01*
X162897200Y-87784722D01*
X162897200Y-86760000D01*
X162199355Y-86760000D01*
X162139827Y-86766401D01*
X162139820Y-86766403D01*
X162005113Y-86816645D01*
X162005106Y-86816649D01*
X161890012Y-86902809D01*
X161890009Y-86902812D01*
X161803849Y-87017906D01*
X161803845Y-87017913D01*
X161753603Y-87152620D01*
X161753601Y-87152627D01*
X161747200Y-87212155D01*
X161747200Y-87910000D01*
X162771922Y-87910000D01*
X162727867Y-87986306D01*
X162697200Y-88100756D01*
X162697200Y-88219244D01*
X162727867Y-88333694D01*
X162771922Y-88410000D01*
X161747200Y-88410000D01*
X161747200Y-88660500D01*
X161727515Y-88727539D01*
X161674711Y-88773294D01*
X161623200Y-88784500D01*
X156225818Y-88784500D01*
X156158779Y-88764815D01*
X156125500Y-88733385D01*
X156092371Y-88687787D01*
X156092367Y-88687782D01*
X155947613Y-88543028D01*
X155782013Y-88422715D01*
X155782012Y-88422714D01*
X155782010Y-88422713D01*
X155707013Y-88384500D01*
X155599623Y-88329781D01*
X155404934Y-88266522D01*
X155230395Y-88238878D01*
X155202752Y-88234500D01*
X154998048Y-88234500D01*
X154973729Y-88238351D01*
X154795865Y-88266522D01*
X154601176Y-88329781D01*
X154418786Y-88422715D01*
X154253186Y-88543028D01*
X154108428Y-88687786D01*
X153988115Y-88853386D01*
X153895181Y-89035776D01*
X153831922Y-89230465D01*
X153799900Y-89432648D01*
X151065686Y-89432648D01*
X151065025Y-89430614D01*
X151005496Y-89247396D01*
X151005495Y-89247393D01*
X150916311Y-89072363D01*
X150905415Y-89050978D01*
X150791383Y-88894025D01*
X150775847Y-88872641D01*
X150775843Y-88872636D01*
X150619963Y-88716756D01*
X150619958Y-88716752D01*
X150441625Y-88587187D01*
X150441624Y-88587186D01*
X150441622Y-88587185D01*
X150354960Y-88543028D01*
X150245206Y-88487104D01*
X150245203Y-88487103D01*
X150035552Y-88418985D01*
X149908070Y-88398794D01*
X149817822Y-88384500D01*
X149597378Y-88384500D01*
X149524801Y-88395995D01*
X149379647Y-88418985D01*
X149169996Y-88487103D01*
X149169993Y-88487104D01*
X148973574Y-88587187D01*
X148795241Y-88716752D01*
X148795236Y-88716756D01*
X148639356Y-88872636D01*
X148639352Y-88872641D01*
X148509787Y-89050974D01*
X148409704Y-89247393D01*
X148409703Y-89247396D01*
X148341585Y-89457047D01*
X148307100Y-89674778D01*
X148307100Y-89895221D01*
X148341585Y-90112952D01*
X148409703Y-90322603D01*
X148409704Y-90322606D01*
X148509787Y-90519025D01*
X148639352Y-90697358D01*
X148639356Y-90697363D01*
X148795238Y-90853245D01*
X148905984Y-90933705D01*
X148948651Y-90989035D01*
X148957100Y-91034024D01*
X148957100Y-91763569D01*
X148937415Y-91830608D01*
X148920781Y-91851250D01*
X147189652Y-93582378D01*
X147189649Y-93582381D01*
X147151484Y-93639499D01*
X147151485Y-93639500D01*
X147107514Y-93705308D01*
X147050943Y-93841882D01*
X147050940Y-93841892D01*
X147022100Y-93986879D01*
X147022100Y-95074582D01*
X147002415Y-95141621D01*
X146970985Y-95174900D01*
X146925387Y-95208028D01*
X146925382Y-95208032D01*
X146780628Y-95352786D01*
X146660315Y-95518386D01*
X146567381Y-95700776D01*
X146504122Y-95895465D01*
X146472100Y-96097648D01*
X144949045Y-96097648D01*
X144944461Y-96088652D01*
X144912074Y-96044077D01*
X144912074Y-96044076D01*
X144232600Y-96723551D01*
X144232600Y-96717339D01*
X144205341Y-96615606D01*
X144152680Y-96524394D01*
X144078206Y-96449920D01*
X143986994Y-96397259D01*
X143885261Y-96370000D01*
X143879046Y-96370000D01*
X144558522Y-95690524D01*
X144558521Y-95690523D01*
X144513959Y-95658147D01*
X144513950Y-95658141D01*
X144331631Y-95565244D01*
X144137017Y-95502009D01*
X143934917Y-95470000D01*
X143730283Y-95470000D01*
X143528182Y-95502009D01*
X143333568Y-95565244D01*
X143151244Y-95658143D01*
X143106677Y-95690523D01*
X143106677Y-95690524D01*
X143786154Y-96370000D01*
X143779939Y-96370000D01*
X143678206Y-96397259D01*
X143586994Y-96449920D01*
X143512520Y-96524394D01*
X143459859Y-96615606D01*
X143432600Y-96717339D01*
X143432600Y-96723553D01*
X142753124Y-96044077D01*
X142753123Y-96044077D01*
X142720743Y-96088644D01*
X142627844Y-96270968D01*
X142564609Y-96465582D01*
X142532600Y-96667682D01*
X139082600Y-96667682D01*
X139082600Y-96604071D01*
X139043202Y-96355330D01*
X138965380Y-96115815D01*
X138851040Y-95891413D01*
X138792378Y-95810671D01*
X138792376Y-95810669D01*
X138776851Y-95789301D01*
X138776850Y-95789300D01*
X138006387Y-96559764D01*
X137995118Y-96517708D01*
X137922710Y-96392292D01*
X137820308Y-96289890D01*
X137694892Y-96217482D01*
X137652832Y-96206212D01*
X138423298Y-95435748D01*
X138321183Y-95361557D01*
X138096784Y-95247219D01*
X137857269Y-95169397D01*
X137608528Y-95130000D01*
X137356672Y-95130000D01*
X137107930Y-95169397D01*
X136868415Y-95247219D01*
X136644013Y-95361559D01*
X136541901Y-95435747D01*
X136541900Y-95435748D01*
X137312365Y-96206212D01*
X137270308Y-96217482D01*
X137144892Y-96289890D01*
X137042490Y-96392292D01*
X136970082Y-96517708D01*
X136958812Y-96559765D01*
X136188348Y-95789300D01*
X136188347Y-95789301D01*
X136114159Y-95891413D01*
X135999819Y-96115815D01*
X135921997Y-96355330D01*
X135882600Y-96604071D01*
X132962600Y-96604071D01*
X132962600Y-96546471D01*
X132923202Y-96297730D01*
X132845380Y-96058215D01*
X132731042Y-95833816D01*
X132656850Y-95731701D01*
X132656850Y-95731700D01*
X131886387Y-96502164D01*
X131875118Y-96460108D01*
X131802710Y-96334692D01*
X131700308Y-96232290D01*
X131574892Y-96159882D01*
X131532833Y-96148612D01*
X132286120Y-95395327D01*
X132303298Y-95378148D01*
X132201183Y-95303957D01*
X131976784Y-95189619D01*
X131737269Y-95111797D01*
X131488528Y-95072400D01*
X131236672Y-95072400D01*
X130987930Y-95111797D01*
X130748415Y-95189619D01*
X130524013Y-95303959D01*
X130421901Y-95378147D01*
X130421900Y-95378148D01*
X131192365Y-96148612D01*
X131150308Y-96159882D01*
X131024892Y-96232290D01*
X130922490Y-96334692D01*
X130850082Y-96460108D01*
X130838812Y-96502165D01*
X130068348Y-95731700D01*
X130068347Y-95731701D01*
X129994159Y-95833813D01*
X129879819Y-96058215D01*
X129801997Y-96297730D01*
X129762600Y-96546471D01*
X127463100Y-96546471D01*
X127463100Y-95515761D01*
X127469096Y-95495339D01*
X127470312Y-95474090D01*
X127481640Y-95452619D01*
X127482785Y-95448722D01*
X127486765Y-95442899D01*
X127574887Y-95321610D01*
X127667820Y-95139219D01*
X127731077Y-94944534D01*
X127763100Y-94742352D01*
X127763100Y-94537648D01*
X127731077Y-94335466D01*
X127722964Y-94310500D01*
X127720969Y-94240662D01*
X127753213Y-94184505D01*
X132139739Y-89797982D01*
X132189149Y-89724035D01*
X132249232Y-89634114D01*
X132249233Y-89634112D01*
X132302508Y-89505495D01*
X132314617Y-89476259D01*
X132324651Y-89452036D01*
X132363100Y-89258741D01*
X132363100Y-89061660D01*
X132363100Y-88192701D01*
X132382785Y-88125662D01*
X132435589Y-88079907D01*
X132448087Y-88074998D01*
X132531935Y-88047214D01*
X132681256Y-87955112D01*
X132805312Y-87831056D01*
X132897414Y-87681735D01*
X132952599Y-87515198D01*
X132963100Y-87412410D01*
X132963100Y-85612390D01*
X132952599Y-85509602D01*
X132897414Y-85343065D01*
X132805312Y-85193744D01*
X132681256Y-85069688D01*
X132577593Y-85005748D01*
X132531937Y-84977587D01*
X132531932Y-84977585D01*
X132411296Y-84937610D01*
X132353851Y-84897837D01*
X132327028Y-84833321D01*
X132326300Y-84819904D01*
X132326300Y-82847962D01*
X132345985Y-82780923D01*
X132365423Y-82758650D01*
X132365011Y-82758238D01*
X132451146Y-82672103D01*
X132546593Y-82576656D01*
X132694670Y-82372845D01*
X132809041Y-82148379D01*
X132886890Y-81908785D01*
X132926300Y-81659962D01*
X132926300Y-81408038D01*
X132886890Y-81159215D01*
X132809041Y-80919621D01*
X132809039Y-80919618D01*
X132809039Y-80919616D01*
X132738003Y-80780201D01*
X132694670Y-80695155D01*
X132636071Y-80614500D01*
X132546598Y-80491350D01*
X132546594Y-80491345D01*
X132368454Y-80313205D01*
X132368449Y-80313201D01*
X132164648Y-80165132D01*
X132164647Y-80165131D01*
X132164645Y-80165130D01*
X132094547Y-80129413D01*
X131940183Y-80050760D01*
X131700585Y-79972910D01*
X131451762Y-79933500D01*
X131199838Y-79933500D01*
X131075426Y-79953205D01*
X130951014Y-79972910D01*
X130711416Y-80050760D01*
X130486951Y-80165132D01*
X130283150Y-80313201D01*
X130283145Y-80313205D01*
X130105005Y-80491345D01*
X130105001Y-80491350D01*
X129956932Y-80695151D01*
X129842560Y-80919616D01*
X129764710Y-81159214D01*
X129725300Y-81408038D01*
X129725300Y-81659961D01*
X129764710Y-81908785D01*
X129842560Y-82148383D01*
X129956932Y-82372848D01*
X130105001Y-82576649D01*
X130105005Y-82576654D01*
X130286589Y-82758238D01*
X130285514Y-82759312D01*
X130320025Y-82812180D01*
X130325300Y-82847962D01*
X130325300Y-84844292D01*
X130305615Y-84911331D01*
X130252811Y-84957086D01*
X130240306Y-84961997D01*
X130193267Y-84977584D01*
X130043942Y-85069689D01*
X129919889Y-85193742D01*
X129827787Y-85343062D01*
X129827785Y-85343067D01*
X129799949Y-85427069D01*
X129772601Y-85509602D01*
X129772601Y-85509603D01*
X129772600Y-85509603D01*
X129762100Y-85612382D01*
X129762100Y-87412417D01*
X129772600Y-87515196D01*
X129791687Y-87572796D01*
X129827786Y-87681735D01*
X129919888Y-87831056D01*
X130043944Y-87955112D01*
X130193265Y-88047214D01*
X130277105Y-88074996D01*
X130334549Y-88114768D01*
X130361372Y-88179283D01*
X130362100Y-88192701D01*
X130362100Y-88694417D01*
X130342415Y-88761456D01*
X130325781Y-88782098D01*
X125824820Y-93283059D01*
X125824818Y-93283061D01*
X125755138Y-93352740D01*
X125685459Y-93422419D01*
X125575971Y-93586280D01*
X125575964Y-93586293D01*
X125553926Y-93639500D01*
X125532298Y-93691716D01*
X125526668Y-93705308D01*
X125513875Y-93736192D01*
X125487001Y-93776413D01*
X125470632Y-93792783D01*
X125470630Y-93792785D01*
X125350315Y-93958386D01*
X125257381Y-94140776D01*
X125194122Y-94335465D01*
X125162100Y-94537648D01*
X125162100Y-94742351D01*
X125194122Y-94944534D01*
X125257381Y-95139223D01*
X125341318Y-95303957D01*
X125350313Y-95321610D01*
X125438419Y-95442877D01*
X125461898Y-95508681D01*
X125462100Y-95515761D01*
X125462100Y-97411618D01*
X125442415Y-97478657D01*
X125425781Y-97499299D01*
X124461899Y-98463181D01*
X124400576Y-98496666D01*
X124374218Y-98499500D01*
X121939473Y-98499500D01*
X121872434Y-98479815D01*
X121841097Y-98450986D01*
X121783848Y-98376377D01*
X121783842Y-98376370D01*
X121626229Y-98218757D01*
X121626222Y-98218751D01*
X121449382Y-98083058D01*
X121449380Y-98083057D01*
X121449374Y-98083052D01*
X121256326Y-97971595D01*
X121256322Y-97971593D01*
X121050390Y-97886293D01*
X121050383Y-97886291D01*
X121050381Y-97886290D01*
X120835063Y-97828596D01*
X120835057Y-97828595D01*
X120835052Y-97828594D01*
X120614066Y-97799501D01*
X120614063Y-97799500D01*
X120614057Y-97799500D01*
X120391143Y-97799500D01*
X120391137Y-97799500D01*
X120391133Y-97799501D01*
X120170147Y-97828594D01*
X120170140Y-97828595D01*
X120170137Y-97828596D01*
X120092219Y-97849474D01*
X119954819Y-97886290D01*
X119954809Y-97886293D01*
X119748877Y-97971593D01*
X119748873Y-97971595D01*
X119555826Y-98083052D01*
X119555817Y-98083058D01*
X119378977Y-98218751D01*
X119378970Y-98218757D01*
X119221357Y-98376370D01*
X119221351Y-98376377D01*
X119085658Y-98553217D01*
X119085652Y-98553226D01*
X118974195Y-98746273D01*
X118974193Y-98746277D01*
X118888893Y-98952209D01*
X118888890Y-98952219D01*
X118831197Y-99167534D01*
X118831194Y-99167547D01*
X118802101Y-99388533D01*
X118802100Y-99388549D01*
X115494300Y-99388549D01*
X115494300Y-84388549D01*
X118802100Y-84388549D01*
X118802100Y-84611450D01*
X118802101Y-84611466D01*
X118831194Y-84832452D01*
X118831195Y-84832457D01*
X118831196Y-84832463D01*
X118886334Y-85038242D01*
X118888890Y-85047780D01*
X118888893Y-85047790D01*
X118973208Y-85251344D01*
X118974195Y-85253726D01*
X119085652Y-85446774D01*
X119085657Y-85446780D01*
X119085658Y-85446782D01*
X119221351Y-85623622D01*
X119221357Y-85623629D01*
X119378970Y-85781242D01*
X119378977Y-85781248D01*
X119504894Y-85877867D01*
X119555826Y-85916948D01*
X119748874Y-86028405D01*
X119954819Y-86113710D01*
X120170137Y-86171404D01*
X120391143Y-86200500D01*
X120391150Y-86200500D01*
X120614050Y-86200500D01*
X120614057Y-86200500D01*
X120835063Y-86171404D01*
X121050381Y-86113710D01*
X121256326Y-86028405D01*
X121449374Y-85916948D01*
X121626224Y-85781247D01*
X121783847Y-85623624D01*
X121841097Y-85549013D01*
X121897524Y-85507811D01*
X121939473Y-85500500D01*
X123476818Y-85500500D01*
X123543857Y-85520185D01*
X123564499Y-85536819D01*
X125135881Y-87108201D01*
X125169366Y-87169524D01*
X125170673Y-87176483D01*
X125194123Y-87324535D01*
X125257381Y-87519223D01*
X125350315Y-87701613D01*
X125470628Y-87867213D01*
X125615386Y-88011971D01*
X125756877Y-88114768D01*
X125780990Y-88132287D01*
X125873225Y-88179283D01*
X125963376Y-88225218D01*
X125963378Y-88225218D01*
X125963381Y-88225220D01*
X126067737Y-88259127D01*
X126158065Y-88288477D01*
X126248376Y-88302781D01*
X126360248Y-88320500D01*
X126360249Y-88320500D01*
X126564951Y-88320500D01*
X126564952Y-88320500D01*
X126767134Y-88288477D01*
X126961819Y-88225220D01*
X127144210Y-88132287D01*
X127296200Y-88021861D01*
X127309813Y-88011971D01*
X127309815Y-88011968D01*
X127309819Y-88011966D01*
X127454566Y-87867219D01*
X127454568Y-87867215D01*
X127454571Y-87867213D01*
X127507332Y-87794590D01*
X127574887Y-87701610D01*
X127667820Y-87519219D01*
X127731077Y-87324534D01*
X127763100Y-87122352D01*
X127763100Y-86917648D01*
X127747103Y-86816649D01*
X127731077Y-86715465D01*
X127667818Y-86520776D01*
X127634103Y-86454607D01*
X127574887Y-86338390D01*
X127567156Y-86327749D01*
X127454571Y-86172786D01*
X127309813Y-86028028D01*
X127144213Y-85907715D01*
X127144212Y-85907714D01*
X127144210Y-85907713D01*
X127087253Y-85878691D01*
X126961823Y-85814781D01*
X126767135Y-85751523D01*
X126619083Y-85728073D01*
X126555949Y-85698143D01*
X126550801Y-85693281D01*
X124724079Y-83866559D01*
X124724059Y-83866537D01*
X124580385Y-83722863D01*
X124580381Y-83722860D01*
X124416520Y-83613371D01*
X124416507Y-83613364D01*
X124283054Y-83558087D01*
X124283051Y-83558086D01*
X124275598Y-83554999D01*
X124234436Y-83537949D01*
X124137788Y-83518724D01*
X124133736Y-83517918D01*
X124041144Y-83499500D01*
X124041141Y-83499500D01*
X121939473Y-83499500D01*
X121872434Y-83479815D01*
X121841097Y-83450986D01*
X121783848Y-83376377D01*
X121783842Y-83376370D01*
X121626229Y-83218757D01*
X121621984Y-83215500D01*
X121551613Y-83161502D01*
X121510411Y-83105074D01*
X121503100Y-83063126D01*
X121503100Y-82433107D01*
X121505483Y-82408915D01*
X121512035Y-82375977D01*
X121512035Y-82375976D01*
X121523500Y-82318342D01*
X121523500Y-81240081D01*
X121543185Y-81173042D01*
X121559815Y-81152404D01*
X122337409Y-80374809D01*
X122398730Y-80341326D01*
X122441270Y-80339553D01*
X122602206Y-80360740D01*
X122617073Y-80362698D01*
X122617089Y-80362700D01*
X122617096Y-80362700D01*
X122853104Y-80362700D01*
X122853111Y-80362700D01*
X123087114Y-80331893D01*
X123315093Y-80270806D01*
X123533149Y-80180484D01*
X123737550Y-80062473D01*
X123924799Y-79918792D01*
X124091692Y-79751899D01*
X124235373Y-79564650D01*
X124353384Y-79360249D01*
X124443706Y-79142193D01*
X124504793Y-78914214D01*
X124535600Y-78680211D01*
X124535600Y-78444189D01*
X124504793Y-78210186D01*
X124443706Y-77982207D01*
X124353384Y-77764151D01*
X124353382Y-77764148D01*
X124353380Y-77764143D01*
X124298167Y-77668513D01*
X124235373Y-77559750D01*
X124126982Y-77418492D01*
X124091693Y-77372502D01*
X124091687Y-77372495D01*
X123924804Y-77205612D01*
X123924797Y-77205606D01*
X123737554Y-77061930D01*
X123737553Y-77061929D01*
X123737550Y-77061927D01*
X123641250Y-77006328D01*
X123533156Y-76943919D01*
X123533145Y-76943914D01*
X123315093Y-76853594D01*
X123088435Y-76792861D01*
X123087114Y-76792507D01*
X123087113Y-76792506D01*
X123087110Y-76792506D01*
X122853120Y-76761701D01*
X122853117Y-76761700D01*
X122853111Y-76761700D01*
X122617089Y-76761700D01*
X122617083Y-76761700D01*
X122617079Y-76761701D01*
X122383089Y-76792506D01*
X122155106Y-76853594D01*
X121937054Y-76943914D01*
X121937043Y-76943919D01*
X121732645Y-77061930D01*
X121545402Y-77205606D01*
X121545395Y-77205612D01*
X121378512Y-77372495D01*
X121378506Y-77372502D01*
X121234830Y-77559745D01*
X121116819Y-77764143D01*
X121116814Y-77764154D01*
X121026494Y-77982206D01*
X120965406Y-78210189D01*
X120934601Y-78444179D01*
X120934600Y-78444195D01*
X120934600Y-78680204D01*
X120934601Y-78680221D01*
X120957746Y-78856024D01*
X120946980Y-78925059D01*
X120922488Y-78959890D01*
X120345297Y-79537082D01*
X119885221Y-79997158D01*
X119885218Y-79997161D01*
X119831620Y-80050759D01*
X119745859Y-80136519D01*
X119636371Y-80300379D01*
X119636364Y-80300392D01*
X119560950Y-80482460D01*
X119560947Y-80482470D01*
X119522500Y-80675756D01*
X119522500Y-82026890D01*
X119520117Y-82051082D01*
X119502100Y-82141656D01*
X119502100Y-83063126D01*
X119482415Y-83130165D01*
X119453587Y-83161502D01*
X119378970Y-83218757D01*
X119221357Y-83376370D01*
X119221351Y-83376377D01*
X119085658Y-83553217D01*
X119085652Y-83553226D01*
X118974195Y-83746273D01*
X118974193Y-83746277D01*
X118888893Y-83952209D01*
X118888890Y-83952219D01*
X118834677Y-84154548D01*
X118831197Y-84167534D01*
X118831194Y-84167547D01*
X118802101Y-84388533D01*
X118802100Y-84388549D01*
X115494300Y-84388549D01*
X115494300Y-72382183D01*
X120934600Y-72382183D01*
X120934600Y-74582201D01*
X120934601Y-74582218D01*
X120945100Y-74684996D01*
X120945101Y-74684999D01*
X121000285Y-74851531D01*
X121000287Y-74851536D01*
X121020813Y-74884814D01*
X121092388Y-75000856D01*
X121216444Y-75124912D01*
X121365766Y-75217014D01*
X121532303Y-75272199D01*
X121635091Y-75282700D01*
X122656417Y-75282699D01*
X122723456Y-75302383D01*
X122744097Y-75319017D01*
X125632860Y-78207781D01*
X125632861Y-78207782D01*
X125772218Y-78347139D01*
X125936086Y-78456632D01*
X126042745Y-78500811D01*
X126118164Y-78532051D01*
X126311454Y-78570499D01*
X126311457Y-78570500D01*
X126311459Y-78570500D01*
X126508540Y-78570500D01*
X135104218Y-78570500D01*
X135171257Y-78590185D01*
X135191899Y-78606819D01*
X136365781Y-79780701D01*
X136399266Y-79842024D01*
X136402100Y-79868382D01*
X136402100Y-80246037D01*
X136382415Y-80313076D01*
X136362976Y-80335350D01*
X136363388Y-80335762D01*
X136181805Y-80517345D01*
X136181801Y-80517350D01*
X136033732Y-80721151D01*
X135919360Y-80945616D01*
X135841510Y-81185214D01*
X135807406Y-81400535D01*
X135802100Y-81434038D01*
X135802100Y-81685962D01*
X135822730Y-81816212D01*
X135841510Y-81934785D01*
X135919360Y-82174383D01*
X135950811Y-82236108D01*
X136022085Y-82375991D01*
X136033732Y-82398848D01*
X136181801Y-82602649D01*
X136181805Y-82602654D01*
X136363389Y-82784238D01*
X136362314Y-82785312D01*
X136396825Y-82838180D01*
X136402100Y-82873962D01*
X136402100Y-84916207D01*
X136382415Y-84983246D01*
X136329611Y-85029001D01*
X136317114Y-85033910D01*
X136313267Y-85035184D01*
X136163942Y-85127289D01*
X136039889Y-85251342D01*
X135947787Y-85400662D01*
X135947786Y-85400665D01*
X135892601Y-85567202D01*
X135892601Y-85567203D01*
X135892600Y-85567203D01*
X135882100Y-85669982D01*
X135882100Y-87470017D01*
X135892600Y-87572796D01*
X135947785Y-87739332D01*
X135947787Y-87739337D01*
X135982670Y-87795890D01*
X136039888Y-87888656D01*
X136163944Y-88012712D01*
X136313265Y-88104814D01*
X136479802Y-88159999D01*
X136582590Y-88170500D01*
X136582595Y-88170500D01*
X138382605Y-88170500D01*
X138382610Y-88170500D01*
X138485398Y-88159999D01*
X138651935Y-88104814D01*
X138801256Y-88012712D01*
X138925312Y-87888656D01*
X139017414Y-87739335D01*
X139072599Y-87572798D01*
X139083100Y-87470010D01*
X139083100Y-85669990D01*
X139072599Y-85567202D01*
X139017414Y-85400665D01*
X138925312Y-85251344D01*
X138801256Y-85127288D01*
X138707872Y-85069688D01*
X138651937Y-85035187D01*
X138651932Y-85035185D01*
X138488096Y-84980895D01*
X138430651Y-84941122D01*
X138403828Y-84876606D01*
X138403100Y-84863189D01*
X138403100Y-83859778D01*
X142332100Y-83859778D01*
X142332100Y-84080221D01*
X142366585Y-84297952D01*
X142434703Y-84507603D01*
X142434704Y-84507606D01*
X142534787Y-84704025D01*
X142664352Y-84882358D01*
X142664356Y-84882363D01*
X142820238Y-85038245D01*
X142930984Y-85118705D01*
X142973651Y-85174035D01*
X142982100Y-85219024D01*
X142982100Y-88109953D01*
X142962415Y-88176992D01*
X142945781Y-88197634D01*
X142840632Y-88302782D01*
X142840628Y-88302786D01*
X142720315Y-88468386D01*
X142627381Y-88650776D01*
X142564122Y-88845465D01*
X142532100Y-89047648D01*
X142532100Y-89252351D01*
X142564122Y-89454534D01*
X142627381Y-89649223D01*
X142720315Y-89831613D01*
X142840628Y-89997213D01*
X142985386Y-90141971D01*
X143140349Y-90254556D01*
X143150990Y-90262287D01*
X143267207Y-90321503D01*
X143333376Y-90355218D01*
X143333378Y-90355218D01*
X143333381Y-90355220D01*
X143437737Y-90389127D01*
X143528065Y-90418477D01*
X143629157Y-90434488D01*
X143730248Y-90450500D01*
X143730249Y-90450500D01*
X143934951Y-90450500D01*
X143934952Y-90450500D01*
X144137134Y-90418477D01*
X144331819Y-90355220D01*
X144514210Y-90262287D01*
X144607190Y-90194732D01*
X144679813Y-90141971D01*
X144679815Y-90141968D01*
X144679819Y-90141966D01*
X144824566Y-89997219D01*
X144824568Y-89997215D01*
X144824571Y-89997213D01*
X144877332Y-89924590D01*
X144944887Y-89831610D01*
X145037820Y-89649219D01*
X145101077Y-89454534D01*
X145133100Y-89252352D01*
X145133100Y-89047648D01*
X145105381Y-88872641D01*
X145101077Y-88845465D01*
X145059257Y-88716758D01*
X145037820Y-88650781D01*
X145037818Y-88650778D01*
X145037818Y-88650776D01*
X144982917Y-88543028D01*
X144944887Y-88468390D01*
X144921577Y-88436306D01*
X144824571Y-88302786D01*
X144679817Y-88158032D01*
X144679812Y-88158028D01*
X144534215Y-88052246D01*
X144491549Y-87996916D01*
X144483100Y-87951928D01*
X144483100Y-85219024D01*
X144502785Y-85151985D01*
X144534216Y-85118705D01*
X144644961Y-85038245D01*
X144644961Y-85038244D01*
X144644965Y-85038242D01*
X144800842Y-84882365D01*
X144930415Y-84704022D01*
X145030495Y-84507606D01*
X145098615Y-84297951D01*
X145133100Y-84080222D01*
X145133100Y-83859778D01*
X145098615Y-83642049D01*
X145036536Y-83450986D01*
X145030496Y-83432396D01*
X145030495Y-83432393D01*
X144992352Y-83357535D01*
X144930415Y-83235978D01*
X144885332Y-83173926D01*
X144800847Y-83057641D01*
X144800843Y-83057636D01*
X144644963Y-82901756D01*
X144644958Y-82901752D01*
X144466625Y-82772187D01*
X144466624Y-82772186D01*
X144466622Y-82772185D01*
X144403696Y-82740122D01*
X144270206Y-82672104D01*
X144270203Y-82672103D01*
X144060552Y-82603985D01*
X143951686Y-82586742D01*
X143842822Y-82569500D01*
X143622378Y-82569500D01*
X143577210Y-82576654D01*
X143404647Y-82603985D01*
X143194996Y-82672103D01*
X143194993Y-82672104D01*
X142998574Y-82772187D01*
X142820241Y-82901752D01*
X142820236Y-82901756D01*
X142664356Y-83057636D01*
X142664352Y-83057641D01*
X142534787Y-83235974D01*
X142434704Y-83432393D01*
X142434703Y-83432396D01*
X142366585Y-83642047D01*
X142332100Y-83859778D01*
X138403100Y-83859778D01*
X138403100Y-82873962D01*
X138422785Y-82806923D01*
X138442223Y-82784650D01*
X138441811Y-82784238D01*
X138471256Y-82754793D01*
X138623393Y-82602656D01*
X138771470Y-82398845D01*
X138885841Y-82174379D01*
X138963690Y-81934785D01*
X139003100Y-81685962D01*
X139003100Y-81434038D01*
X138963690Y-81185215D01*
X138885841Y-80945621D01*
X138885839Y-80945618D01*
X138885839Y-80945616D01*
X138844347Y-80864184D01*
X138771470Y-80721155D01*
X138693981Y-80614500D01*
X138623398Y-80517350D01*
X138623394Y-80517345D01*
X138441812Y-80335762D01*
X138442885Y-80334688D01*
X138408374Y-80281815D01*
X138403100Y-80246037D01*
X138403100Y-79304056D01*
X138385603Y-79216099D01*
X138375478Y-79165194D01*
X138364651Y-79110764D01*
X138320361Y-79003839D01*
X138289232Y-78928686D01*
X138179739Y-78764818D01*
X138040382Y-78625461D01*
X138040381Y-78625460D01*
X136354208Y-76939288D01*
X136354206Y-76939285D01*
X136354206Y-76939286D01*
X136347139Y-76932219D01*
X136347139Y-76932218D01*
X136207782Y-76792861D01*
X136207781Y-76792860D01*
X136207780Y-76792859D01*
X136043920Y-76683371D01*
X136043907Y-76683364D01*
X135915632Y-76630231D01*
X135915624Y-76630228D01*
X135908435Y-76627251D01*
X135861836Y-76607949D01*
X135765188Y-76588724D01*
X135760883Y-76587867D01*
X135760877Y-76587866D01*
X135668544Y-76569500D01*
X135668541Y-76569500D01*
X126875783Y-76569500D01*
X126808744Y-76549815D01*
X126788102Y-76533181D01*
X124571918Y-74316997D01*
X124538433Y-74255674D01*
X124535599Y-74229316D01*
X124535599Y-72382198D01*
X124535598Y-72382181D01*
X124525099Y-72279403D01*
X124525098Y-72279400D01*
X124494382Y-72186706D01*
X124469914Y-72112866D01*
X124377812Y-71963544D01*
X124253756Y-71839488D01*
X124104434Y-71747386D01*
X123937897Y-71692201D01*
X123937895Y-71692200D01*
X123835110Y-71681700D01*
X121635098Y-71681700D01*
X121635081Y-71681701D01*
X121532303Y-71692200D01*
X121532300Y-71692201D01*
X121365768Y-71747385D01*
X121365763Y-71747387D01*
X121216442Y-71839489D01*
X121092389Y-71963542D01*
X121000287Y-72112863D01*
X121000286Y-72112866D01*
X120945101Y-72279403D01*
X120945101Y-72279404D01*
X120945100Y-72279404D01*
X120934600Y-72382183D01*
X115494300Y-72382183D01*
X115494300Y-70473982D01*
X129725300Y-70473982D01*
X129725300Y-72274017D01*
X129735800Y-72376796D01*
X129788263Y-72535118D01*
X129790986Y-72543335D01*
X129883088Y-72692656D01*
X130007144Y-72816712D01*
X130156465Y-72908814D01*
X130323002Y-72963999D01*
X130425790Y-72974500D01*
X130425795Y-72974500D01*
X132225805Y-72974500D01*
X132225810Y-72974500D01*
X132328598Y-72963999D01*
X132495135Y-72908814D01*
X132644456Y-72816712D01*
X132768512Y-72692656D01*
X132860614Y-72543335D01*
X132888396Y-72459494D01*
X132928168Y-72402051D01*
X132992683Y-72375228D01*
X133006101Y-72374500D01*
X135713683Y-72374500D01*
X135780722Y-72394185D01*
X135826477Y-72446989D01*
X135831388Y-72459494D01*
X135867786Y-72569335D01*
X135959888Y-72718656D01*
X136083944Y-72842712D01*
X136233265Y-72934814D01*
X136317105Y-72962596D01*
X136374549Y-73002368D01*
X136401372Y-73066883D01*
X136402100Y-73080301D01*
X136402100Y-74841141D01*
X136402100Y-74841143D01*
X136402099Y-74841143D01*
X136440547Y-75034429D01*
X136440550Y-75034439D01*
X136515964Y-75216507D01*
X136515971Y-75216520D01*
X136625460Y-75380381D01*
X136625463Y-75380385D01*
X136769137Y-75524059D01*
X136769159Y-75524079D01*
X138229735Y-76984655D01*
X138229764Y-76984686D01*
X138372214Y-77127136D01*
X138372218Y-77127139D01*
X138536079Y-77236628D01*
X138536092Y-77236635D01*
X138664833Y-77289961D01*
X138707744Y-77307735D01*
X138718164Y-77312051D01*
X138814812Y-77331275D01*
X138863135Y-77340887D01*
X138911458Y-77350500D01*
X138911459Y-77350500D01*
X138911460Y-77350500D01*
X139108540Y-77350500D01*
X142347802Y-77350500D01*
X142414841Y-77370185D01*
X142453339Y-77409401D01*
X142489888Y-77468656D01*
X142613944Y-77592712D01*
X142763266Y-77684814D01*
X142929803Y-77739999D01*
X143032591Y-77750500D01*
X144432608Y-77750499D01*
X144535397Y-77739999D01*
X144701934Y-77684814D01*
X144851256Y-77592712D01*
X144975312Y-77468656D01*
X145011859Y-77409402D01*
X145063807Y-77362679D01*
X145117398Y-77350500D01*
X148014218Y-77350500D01*
X148081257Y-77370185D01*
X148101899Y-77386819D01*
X148670781Y-77955701D01*
X148704266Y-78017024D01*
X148707100Y-78043382D01*
X148707100Y-80780201D01*
X148687415Y-80847240D01*
X148648198Y-80885739D01*
X148588944Y-80922287D01*
X148464889Y-81046342D01*
X148372787Y-81195663D01*
X148372785Y-81195668D01*
X148369338Y-81206071D01*
X148317601Y-81362203D01*
X148317601Y-81362204D01*
X148317600Y-81362204D01*
X148307100Y-81464983D01*
X148307100Y-82865001D01*
X148307101Y-82865018D01*
X148317600Y-82967796D01*
X148317601Y-82967799D01*
X148372785Y-83134331D01*
X148372787Y-83134336D01*
X148401099Y-83180237D01*
X148464888Y-83283656D01*
X148588944Y-83407712D01*
X148738266Y-83499814D01*
X148904803Y-83554999D01*
X149007591Y-83565500D01*
X150407608Y-83565499D01*
X150510397Y-83554999D01*
X150676934Y-83499814D01*
X150826256Y-83407712D01*
X150950312Y-83283656D01*
X151042414Y-83134334D01*
X151086764Y-83000494D01*
X151126536Y-82943051D01*
X151191051Y-82916228D01*
X151204469Y-82915500D01*
X154224638Y-82915500D01*
X154291677Y-82935185D01*
X154297519Y-82939179D01*
X154418790Y-83027287D01*
X154535007Y-83086503D01*
X154601176Y-83120218D01*
X154601178Y-83120218D01*
X154601181Y-83120220D01*
X154644626Y-83134336D01*
X154795865Y-83183477D01*
X154857007Y-83193161D01*
X154998048Y-83215500D01*
X154998049Y-83215500D01*
X155202751Y-83215500D01*
X155202752Y-83215500D01*
X155404934Y-83183477D01*
X155404950Y-83183471D01*
X155409673Y-83182339D01*
X155409964Y-83183553D01*
X155418940Y-83183023D01*
X155430820Y-83178349D01*
X155466053Y-83180236D01*
X155531041Y-83193163D01*
X155550268Y-83196987D01*
X155559881Y-83198900D01*
X155559882Y-83198900D01*
X155559883Y-83198900D01*
X155707718Y-83198900D01*
X160221001Y-83198900D01*
X160288040Y-83218585D01*
X160333795Y-83271389D01*
X160345001Y-83322900D01*
X160345001Y-83496276D01*
X160351408Y-83555883D01*
X160401702Y-83690728D01*
X160401706Y-83690735D01*
X160487952Y-83805944D01*
X160487955Y-83805947D01*
X160603164Y-83892193D01*
X160603171Y-83892197D01*
X160738017Y-83942491D01*
X160738016Y-83942491D01*
X160744944Y-83943235D01*
X160797627Y-83948900D01*
X162798372Y-83948899D01*
X162857983Y-83942491D01*
X162992831Y-83892196D01*
X163108046Y-83805946D01*
X163194296Y-83690731D01*
X163204872Y-83662374D01*
X163246740Y-83606441D01*
X163312204Y-83582022D01*
X163380477Y-83596872D01*
X163393940Y-83605388D01*
X163576723Y-83738188D01*
X163780429Y-83841982D01*
X163997871Y-83912634D01*
X164088000Y-83926909D01*
X164088000Y-82939147D01*
X164125708Y-82960918D01*
X164265591Y-82998400D01*
X164410409Y-82998400D01*
X164550292Y-82960918D01*
X164588000Y-82939147D01*
X164588000Y-83926908D01*
X164678128Y-83912634D01*
X164895570Y-83841982D01*
X165099276Y-83738188D01*
X165284242Y-83603802D01*
X165445905Y-83442139D01*
X165507371Y-83357537D01*
X165562701Y-83314870D01*
X165632314Y-83308891D01*
X165694109Y-83341496D01*
X165708007Y-83357534D01*
X165769714Y-83442466D01*
X165931434Y-83604186D01*
X166116462Y-83738617D01*
X166248599Y-83805944D01*
X166320244Y-83842449D01*
X166537751Y-83913121D01*
X166537752Y-83913121D01*
X166537755Y-83913122D01*
X166763646Y-83948900D01*
X166763647Y-83948900D01*
X166992353Y-83948900D01*
X166992354Y-83948900D01*
X167218245Y-83913122D01*
X167218248Y-83913121D01*
X167218249Y-83913121D01*
X167435755Y-83842449D01*
X167435755Y-83842448D01*
X167435758Y-83842448D01*
X167639538Y-83738617D01*
X167824566Y-83604186D01*
X167986286Y-83442466D01*
X168120717Y-83257438D01*
X168120717Y-83257437D01*
X168123581Y-83253496D01*
X168124591Y-83254230D01*
X168128007Y-83251141D01*
X168132320Y-83241697D01*
X168153475Y-83228101D01*
X168172123Y-83211232D01*
X168183926Y-83208532D01*
X168191098Y-83203923D01*
X168226033Y-83198900D01*
X168396170Y-83198900D01*
X168463209Y-83218585D01*
X168483851Y-83235219D01*
X169403181Y-84154548D01*
X169436666Y-84215871D01*
X169439500Y-84242229D01*
X169439500Y-93427770D01*
X169419815Y-93494809D01*
X169403181Y-93515451D01*
X168395451Y-94523181D01*
X168334128Y-94556666D01*
X168307770Y-94559500D01*
X164777328Y-94559500D01*
X164710289Y-94539815D01*
X164669941Y-94497500D01*
X164626945Y-94423029D01*
X164560273Y-94307550D01*
X164416592Y-94120301D01*
X164416587Y-94120295D01*
X164249704Y-93953412D01*
X164249697Y-93953406D01*
X164062454Y-93809730D01*
X164062453Y-93809729D01*
X164062450Y-93809727D01*
X163881586Y-93705305D01*
X163858053Y-93691718D01*
X163858045Y-93691714D01*
X163639993Y-93601394D01*
X163569036Y-93582381D01*
X163412014Y-93540307D01*
X163412013Y-93540306D01*
X163412010Y-93540306D01*
X163178020Y-93509501D01*
X163178017Y-93509500D01*
X163178011Y-93509500D01*
X162941989Y-93509500D01*
X162941983Y-93509500D01*
X162941979Y-93509501D01*
X162707989Y-93540306D01*
X162480006Y-93601394D01*
X162261954Y-93691714D01*
X162261947Y-93691718D01*
X162057545Y-93809730D01*
X161870302Y-93953406D01*
X161870295Y-93953412D01*
X161703412Y-94120295D01*
X161703406Y-94120302D01*
X161559730Y-94307545D01*
X161441719Y-94511943D01*
X161441714Y-94511954D01*
X161351394Y-94730006D01*
X161290306Y-94957989D01*
X161259501Y-95191979D01*
X161259500Y-95191995D01*
X161259500Y-95428004D01*
X161259501Y-95428020D01*
X161290306Y-95662010D01*
X161351394Y-95889993D01*
X161441714Y-96108045D01*
X161441719Y-96108056D01*
X161504897Y-96217482D01*
X161559727Y-96312450D01*
X161559729Y-96312453D01*
X161559730Y-96312454D01*
X161703406Y-96499697D01*
X161703412Y-96499704D01*
X161870295Y-96666587D01*
X161870302Y-96666593D01*
X161936436Y-96717339D01*
X162057550Y-96810273D01*
X162186447Y-96884692D01*
X162261943Y-96928280D01*
X162261948Y-96928282D01*
X162261951Y-96928284D01*
X162480007Y-97018606D01*
X162707986Y-97079693D01*
X162941989Y-97110500D01*
X162941996Y-97110500D01*
X163178004Y-97110500D01*
X163178011Y-97110500D01*
X163412014Y-97079693D01*
X163639993Y-97018606D01*
X163858049Y-96928284D01*
X164062450Y-96810273D01*
X164249699Y-96666592D01*
X164416592Y-96499699D01*
X164560273Y-96312450D01*
X164669941Y-96122500D01*
X164720508Y-96074284D01*
X164777328Y-96060500D01*
X168403053Y-96060500D01*
X168427245Y-96062883D01*
X168566079Y-96090500D01*
X168566082Y-96090500D01*
X168713919Y-96090500D01*
X168811461Y-96071096D01*
X168858912Y-96061658D01*
X168995494Y-96005084D01*
X169118416Y-95922952D01*
X170772952Y-94268416D01*
X170826797Y-94187829D01*
X170855084Y-94145495D01*
X170911658Y-94008913D01*
X170940500Y-93863918D01*
X170940500Y-83806082D01*
X170940500Y-83806079D01*
X170911659Y-83661092D01*
X170911658Y-83661091D01*
X170911658Y-83661087D01*
X170903772Y-83642049D01*
X170855087Y-83524511D01*
X170855080Y-83524498D01*
X170772952Y-83401585D01*
X170728902Y-83357535D01*
X170668416Y-83297049D01*
X170310549Y-82939182D01*
X169236821Y-81865452D01*
X169236814Y-81865446D01*
X169163129Y-81816212D01*
X169163129Y-81816213D01*
X169113891Y-81783313D01*
X168977317Y-81726743D01*
X168977307Y-81726740D01*
X168832320Y-81697900D01*
X168832318Y-81697900D01*
X168226033Y-81697900D01*
X168158994Y-81678215D01*
X168124305Y-81642777D01*
X168123581Y-81643304D01*
X168108948Y-81623164D01*
X167986286Y-81454334D01*
X167824566Y-81292614D01*
X167679613Y-81187299D01*
X167636949Y-81131970D01*
X167628500Y-81086982D01*
X167628500Y-79682079D01*
X167599659Y-79537092D01*
X167599658Y-79537091D01*
X167599658Y-79537087D01*
X167599656Y-79537082D01*
X167543087Y-79400511D01*
X167543080Y-79400498D01*
X167460952Y-79277585D01*
X167460951Y-79277584D01*
X167356416Y-79173049D01*
X167039391Y-78856024D01*
X165934021Y-77750652D01*
X165934014Y-77750646D01*
X165860329Y-77701412D01*
X165860329Y-77701413D01*
X165811091Y-77668513D01*
X165674517Y-77611943D01*
X165674507Y-77611940D01*
X165529520Y-77583100D01*
X165529518Y-77583100D01*
X163176229Y-77583100D01*
X163109190Y-77563415D01*
X163088548Y-77546781D01*
X162609419Y-77067651D01*
X162575934Y-77006328D01*
X162573100Y-76979970D01*
X162573100Y-75013732D01*
X162592785Y-74946693D01*
X162645589Y-74900938D01*
X162658095Y-74896026D01*
X162691934Y-74884814D01*
X162841256Y-74792712D01*
X162965312Y-74668656D01*
X163057414Y-74519334D01*
X163112599Y-74352797D01*
X163123100Y-74250009D01*
X163123099Y-73547682D01*
X164022600Y-73547682D01*
X164022600Y-73752317D01*
X164054609Y-73954417D01*
X164117844Y-74149031D01*
X164210741Y-74331350D01*
X164210747Y-74331359D01*
X164243123Y-74375921D01*
X164243124Y-74375922D01*
X164922600Y-73696446D01*
X164922600Y-73702661D01*
X164949859Y-73804394D01*
X165002520Y-73895606D01*
X165076994Y-73970080D01*
X165168206Y-74022741D01*
X165269939Y-74050000D01*
X165276153Y-74050000D01*
X164596676Y-74729474D01*
X164641250Y-74761859D01*
X164823568Y-74854755D01*
X165018182Y-74917990D01*
X165220283Y-74950000D01*
X165424917Y-74950000D01*
X165627017Y-74917990D01*
X165821631Y-74854755D01*
X166003949Y-74761859D01*
X166048521Y-74729474D01*
X165369047Y-74050000D01*
X165375261Y-74050000D01*
X165476994Y-74022741D01*
X165568206Y-73970080D01*
X165642680Y-73895606D01*
X165695341Y-73804394D01*
X165722600Y-73702661D01*
X165722600Y-73696448D01*
X166402074Y-74375922D01*
X166402074Y-74375921D01*
X166434459Y-74331349D01*
X166527355Y-74149031D01*
X166590590Y-73954417D01*
X166622600Y-73752317D01*
X166622600Y-73547682D01*
X166590590Y-73345582D01*
X166527355Y-73150968D01*
X166434459Y-72968650D01*
X166402074Y-72924077D01*
X166402074Y-72924076D01*
X165722600Y-73603551D01*
X165722600Y-73597339D01*
X165695341Y-73495606D01*
X165642680Y-73404394D01*
X165568206Y-73329920D01*
X165476994Y-73277259D01*
X165375261Y-73250000D01*
X165369046Y-73250000D01*
X166048522Y-72570524D01*
X166048521Y-72570523D01*
X166003959Y-72538147D01*
X166003950Y-72538141D01*
X165821631Y-72445244D01*
X165627017Y-72382009D01*
X165424917Y-72350000D01*
X165220283Y-72350000D01*
X165018182Y-72382009D01*
X164823568Y-72445244D01*
X164641244Y-72538143D01*
X164596677Y-72570523D01*
X164596677Y-72570524D01*
X165276154Y-73250000D01*
X165269939Y-73250000D01*
X165168206Y-73277259D01*
X165076994Y-73329920D01*
X165002520Y-73404394D01*
X164949859Y-73495606D01*
X164922600Y-73597339D01*
X164922600Y-73603553D01*
X164243124Y-72924077D01*
X164243123Y-72924077D01*
X164210743Y-72968644D01*
X164117844Y-73150968D01*
X164054609Y-73345582D01*
X164022600Y-73547682D01*
X163123099Y-73547682D01*
X163123099Y-73049992D01*
X163112599Y-72947203D01*
X163057414Y-72780666D01*
X162965312Y-72631344D01*
X162841256Y-72507288D01*
X162691934Y-72415186D01*
X162525397Y-72360001D01*
X162525395Y-72360000D01*
X162422610Y-72349500D01*
X161222598Y-72349500D01*
X161222581Y-72349501D01*
X161119803Y-72360000D01*
X161119800Y-72360001D01*
X160953268Y-72415185D01*
X160953263Y-72415187D01*
X160803942Y-72507289D01*
X160679889Y-72631342D01*
X160587787Y-72780663D01*
X160587785Y-72780668D01*
X160564486Y-72850980D01*
X160532601Y-72947203D01*
X160532601Y-72947204D01*
X160532600Y-72947204D01*
X160522100Y-73049983D01*
X160522100Y-74250001D01*
X160522101Y-74250018D01*
X160532600Y-74352796D01*
X160532601Y-74352799D01*
X160576145Y-74484204D01*
X160587786Y-74519334D01*
X160679888Y-74668656D01*
X160803944Y-74792712D01*
X160953266Y-74884814D01*
X160987100Y-74896025D01*
X161044547Y-74935796D01*
X161071372Y-75000311D01*
X161072100Y-75013732D01*
X161072100Y-77416118D01*
X161072100Y-77416120D01*
X161072099Y-77416120D01*
X161100940Y-77561107D01*
X161100943Y-77561117D01*
X161157513Y-77697690D01*
X161157514Y-77697692D01*
X161185783Y-77739999D01*
X161185784Y-77740001D01*
X161239643Y-77820610D01*
X161239647Y-77820615D01*
X162335580Y-78916548D01*
X162335584Y-78916551D01*
X162458498Y-78998680D01*
X162458511Y-78998687D01*
X162595082Y-79055256D01*
X162595087Y-79055258D01*
X162595091Y-79055258D01*
X162595092Y-79055259D01*
X162740079Y-79084100D01*
X162740082Y-79084100D01*
X162887917Y-79084100D01*
X165093370Y-79084100D01*
X165160409Y-79103785D01*
X165181051Y-79120419D01*
X166091181Y-80030548D01*
X166124666Y-80091871D01*
X166127500Y-80118229D01*
X166127500Y-81086982D01*
X166107815Y-81154021D01*
X166076386Y-81187299D01*
X165931434Y-81292614D01*
X165931432Y-81292616D01*
X165931431Y-81292616D01*
X165769716Y-81454331D01*
X165769709Y-81454340D01*
X165708007Y-81539264D01*
X165652677Y-81581930D01*
X165583063Y-81587908D01*
X165521269Y-81555301D01*
X165507372Y-81539263D01*
X165445907Y-81454663D01*
X165445902Y-81454657D01*
X165284242Y-81292997D01*
X165099276Y-81158611D01*
X164895568Y-81054817D01*
X164678124Y-80984165D01*
X164588000Y-80969890D01*
X164588000Y-81957652D01*
X164550292Y-81935882D01*
X164410409Y-81898400D01*
X164265591Y-81898400D01*
X164125708Y-81935882D01*
X164088000Y-81957652D01*
X164088000Y-80969890D01*
X164087999Y-80969890D01*
X163997875Y-80984165D01*
X163780431Y-81054817D01*
X163576719Y-81158613D01*
X163393939Y-81291410D01*
X163328132Y-81314890D01*
X163260079Y-81299064D01*
X163211384Y-81248958D01*
X163204875Y-81234433D01*
X163194296Y-81206069D01*
X163194295Y-81206067D01*
X163194293Y-81206064D01*
X163108047Y-81090855D01*
X163108044Y-81090852D01*
X162992835Y-81004606D01*
X162992828Y-81004602D01*
X162857982Y-80954308D01*
X162857983Y-80954308D01*
X162798383Y-80947901D01*
X162798381Y-80947900D01*
X162798373Y-80947900D01*
X162798365Y-80947900D01*
X161543267Y-80947900D01*
X161519076Y-80945517D01*
X161363144Y-80914500D01*
X161363140Y-80914500D01*
X161166060Y-80914500D01*
X161102908Y-80927061D01*
X161010116Y-80945518D01*
X160985927Y-80947900D01*
X160797630Y-80947900D01*
X160797623Y-80947901D01*
X160738016Y-80954308D01*
X160603171Y-81004602D01*
X160603164Y-81004606D01*
X160487955Y-81090852D01*
X160487952Y-81090855D01*
X160401706Y-81206064D01*
X160401702Y-81206071D01*
X160351408Y-81340917D01*
X160345001Y-81400516D01*
X160345000Y-81400535D01*
X160345000Y-81496013D01*
X160343373Y-81504191D01*
X160344289Y-81509268D01*
X160335561Y-81543466D01*
X160303299Y-81621353D01*
X160259458Y-81675756D01*
X160193164Y-81697821D01*
X160188738Y-81697900D01*
X156487378Y-81697900D01*
X156420339Y-81678215D01*
X156374584Y-81625411D01*
X156369447Y-81612219D01*
X156321607Y-81464983D01*
X156305620Y-81415781D01*
X156305618Y-81415778D01*
X156305618Y-81415776D01*
X156254213Y-81314890D01*
X156212687Y-81233390D01*
X156177686Y-81185215D01*
X156092371Y-81067786D01*
X155947613Y-80923028D01*
X155782013Y-80802715D01*
X155782012Y-80802714D01*
X155782010Y-80802713D01*
X155725053Y-80773691D01*
X155599623Y-80709781D01*
X155404934Y-80646522D01*
X155230395Y-80618878D01*
X155202752Y-80614500D01*
X154998048Y-80614500D01*
X154973729Y-80618351D01*
X154795865Y-80646522D01*
X154601176Y-80709781D01*
X154418786Y-80802715D01*
X154253186Y-80923028D01*
X154108428Y-81067786D01*
X153988115Y-81233386D01*
X153930330Y-81346795D01*
X153882355Y-81397591D01*
X153819845Y-81414500D01*
X151204470Y-81414500D01*
X151137431Y-81394815D01*
X151091676Y-81342011D01*
X151086764Y-81329505D01*
X151060073Y-81248958D01*
X151042414Y-81195666D01*
X150950312Y-81046344D01*
X150826256Y-80922288D01*
X150826255Y-80922287D01*
X150767002Y-80885739D01*
X150720278Y-80833791D01*
X150708100Y-80780201D01*
X150708100Y-77447656D01*
X150688774Y-77350500D01*
X150672774Y-77270064D01*
X150669651Y-77254364D01*
X150627580Y-77152797D01*
X150594232Y-77072286D01*
X150567596Y-77032422D01*
X150484739Y-76908417D01*
X150345385Y-76769063D01*
X150345381Y-76769060D01*
X150260905Y-76712615D01*
X150242115Y-76697194D01*
X150142000Y-76597079D01*
X150059191Y-76514270D01*
X151332600Y-76514270D01*
X151332600Y-76750375D01*
X151369534Y-76983570D01*
X151442497Y-77208125D01*
X151549687Y-77418497D01*
X151609938Y-77501427D01*
X151609940Y-77501428D01*
X152349637Y-76761731D01*
X152366675Y-76825316D01*
X152432501Y-76939330D01*
X152525593Y-77032422D01*
X152639607Y-77098248D01*
X152703190Y-77115285D01*
X151963493Y-77854981D01*
X152046428Y-77915237D01*
X152256797Y-78022425D01*
X152481352Y-78095388D01*
X152481351Y-78095388D01*
X152714548Y-78132323D01*
X152950652Y-78132323D01*
X153183847Y-78095388D01*
X153408402Y-78022425D01*
X153618763Y-77915241D01*
X153618769Y-77915237D01*
X153701704Y-77854981D01*
X153701705Y-77854981D01*
X152962008Y-77115285D01*
X153025593Y-77098248D01*
X153139607Y-77032422D01*
X153232699Y-76939330D01*
X153298525Y-76825316D01*
X153315562Y-76761732D01*
X154055258Y-77501428D01*
X154055258Y-77501427D01*
X154115514Y-77418492D01*
X154115518Y-77418486D01*
X154222702Y-77208125D01*
X154295665Y-76983570D01*
X154332600Y-76750375D01*
X154332600Y-76514270D01*
X154295665Y-76281075D01*
X154222702Y-76056520D01*
X154115514Y-75846151D01*
X154055258Y-75763217D01*
X154055258Y-75763216D01*
X153315562Y-76502913D01*
X153298525Y-76439330D01*
X153232699Y-76325316D01*
X153139607Y-76232224D01*
X153025593Y-76166398D01*
X152962009Y-76149360D01*
X153701705Y-75409663D01*
X153701704Y-75409661D01*
X153618774Y-75349410D01*
X153408402Y-75242220D01*
X153183847Y-75169257D01*
X153183848Y-75169257D01*
X152950652Y-75132323D01*
X152714548Y-75132323D01*
X152481352Y-75169257D01*
X152256797Y-75242220D01*
X152046430Y-75349407D01*
X151963494Y-75409663D01*
X152703191Y-76149360D01*
X152639607Y-76166398D01*
X152525593Y-76232224D01*
X152432501Y-76325316D01*
X152366675Y-76439330D01*
X152349637Y-76502914D01*
X151609940Y-75763217D01*
X151549684Y-75846153D01*
X151442497Y-76056520D01*
X151369534Y-76281075D01*
X151332600Y-76514270D01*
X150059191Y-76514270D01*
X149264209Y-75719289D01*
X149264206Y-75719285D01*
X149264206Y-75719286D01*
X149257139Y-75712219D01*
X149257139Y-75712218D01*
X149117782Y-75572861D01*
X149098569Y-75560023D01*
X149098568Y-75560022D01*
X148953920Y-75463371D01*
X148953907Y-75463364D01*
X148807878Y-75402878D01*
X148807876Y-75402877D01*
X148799722Y-75399500D01*
X148771836Y-75387949D01*
X148675188Y-75368724D01*
X148671884Y-75368066D01*
X148671881Y-75368066D01*
X148578544Y-75349500D01*
X148578541Y-75349500D01*
X146447382Y-75349500D01*
X146380343Y-75329815D01*
X146334588Y-75277011D01*
X146324644Y-75207853D01*
X146353669Y-75144297D01*
X146359701Y-75137819D01*
X146497209Y-75000311D01*
X147020378Y-74477141D01*
X147020382Y-74477139D01*
X147159739Y-74337782D01*
X147269232Y-74173914D01*
X147343903Y-73993641D01*
X147344651Y-73991836D01*
X147383100Y-73798540D01*
X147383100Y-73601460D01*
X147383100Y-72299500D01*
X147402785Y-72232461D01*
X147455589Y-72186706D01*
X147507100Y-72175500D01*
X151208101Y-72175500D01*
X151275140Y-72195185D01*
X151320895Y-72247989D01*
X151332101Y-72299500D01*
X151332101Y-72432341D01*
X151342600Y-72535119D01*
X151342601Y-72535122D01*
X151397785Y-72701654D01*
X151397787Y-72701659D01*
X151432669Y-72758211D01*
X151489888Y-72850979D01*
X151613944Y-72975035D01*
X151763266Y-73067137D01*
X151929803Y-73122322D01*
X152032591Y-73132823D01*
X153632608Y-73132822D01*
X153735397Y-73122322D01*
X153901934Y-73067137D01*
X154051256Y-72975035D01*
X154175312Y-72850979D01*
X154267414Y-72701657D01*
X154322599Y-72535120D01*
X154333100Y-72432332D01*
X154333099Y-70832315D01*
X154322599Y-70729526D01*
X154267414Y-70562989D01*
X154175312Y-70413667D01*
X154051256Y-70289611D01*
X153901934Y-70197509D01*
X153735397Y-70142324D01*
X153735395Y-70142323D01*
X153632610Y-70131823D01*
X152032598Y-70131823D01*
X152032581Y-70131824D01*
X151929803Y-70142323D01*
X151929800Y-70142324D01*
X151851696Y-70168206D01*
X151812692Y-70174500D01*
X147258362Y-70174500D01*
X147191323Y-70154815D01*
X147185477Y-70150818D01*
X147184158Y-70149860D01*
X147089620Y-70081174D01*
X147064213Y-70062715D01*
X147064212Y-70062714D01*
X147064210Y-70062713D01*
X147007253Y-70033691D01*
X146881823Y-69969781D01*
X146687134Y-69906522D01*
X146512595Y-69878878D01*
X146484952Y-69874500D01*
X146280248Y-69874500D01*
X146255929Y-69878351D01*
X146078065Y-69906522D01*
X145883376Y-69969781D01*
X145700986Y-70062715D01*
X145535386Y-70183028D01*
X145390628Y-70327786D01*
X145270315Y-70493386D01*
X145177381Y-70675776D01*
X145114122Y-70870465D01*
X145082100Y-71072648D01*
X145082100Y-71277351D01*
X145114122Y-71479534D01*
X145177381Y-71674223D01*
X145261589Y-71839488D01*
X145270313Y-71856610D01*
X145358419Y-71977877D01*
X145381898Y-72043681D01*
X145382100Y-72050761D01*
X145382100Y-73234217D01*
X145362415Y-73301256D01*
X145345781Y-73321898D01*
X143754497Y-74913181D01*
X143693174Y-74946666D01*
X143666816Y-74949500D01*
X143032598Y-74949500D01*
X143032580Y-74949501D01*
X142929803Y-74960000D01*
X142929800Y-74960001D01*
X142763268Y-75015185D01*
X142763263Y-75015187D01*
X142613942Y-75107289D01*
X142489889Y-75231342D01*
X142489888Y-75231344D01*
X142458212Y-75282700D01*
X142453341Y-75290597D01*
X142401393Y-75337321D01*
X142347802Y-75349500D01*
X139475782Y-75349500D01*
X139408743Y-75329815D01*
X139388101Y-75313181D01*
X138439419Y-74364499D01*
X138405934Y-74303176D01*
X138403100Y-74276818D01*
X138403100Y-73080301D01*
X138422785Y-73013262D01*
X138475589Y-72967507D01*
X138488087Y-72962598D01*
X138571935Y-72934814D01*
X138721256Y-72842712D01*
X138845312Y-72718656D01*
X138937414Y-72569335D01*
X138992599Y-72402798D01*
X139003100Y-72300010D01*
X139003100Y-71072682D01*
X140082600Y-71072682D01*
X140082600Y-71277317D01*
X140114609Y-71479417D01*
X140177844Y-71674031D01*
X140270741Y-71856350D01*
X140270747Y-71856359D01*
X140303123Y-71900921D01*
X140303124Y-71900922D01*
X140982600Y-71221446D01*
X140982600Y-71227661D01*
X141009859Y-71329394D01*
X141062520Y-71420606D01*
X141136994Y-71495080D01*
X141228206Y-71547741D01*
X141329939Y-71575000D01*
X141336153Y-71575000D01*
X140656676Y-72254474D01*
X140701250Y-72286859D01*
X140883568Y-72379755D01*
X141078182Y-72442990D01*
X141280283Y-72475000D01*
X141484917Y-72475000D01*
X141687017Y-72442990D01*
X141881631Y-72379755D01*
X142063949Y-72286859D01*
X142108521Y-72254474D01*
X141429047Y-71575000D01*
X141435261Y-71575000D01*
X141536994Y-71547741D01*
X141628206Y-71495080D01*
X141702680Y-71420606D01*
X141755341Y-71329394D01*
X141782600Y-71227661D01*
X141782600Y-71221448D01*
X142462074Y-71900922D01*
X142462074Y-71900921D01*
X142494459Y-71856349D01*
X142587355Y-71674031D01*
X142650590Y-71479417D01*
X142682600Y-71277317D01*
X142682600Y-71072682D01*
X142650590Y-70870582D01*
X142587355Y-70675968D01*
X142494459Y-70493650D01*
X142462074Y-70449077D01*
X142462074Y-70449076D01*
X141782600Y-71128551D01*
X141782600Y-71122339D01*
X141755341Y-71020606D01*
X141702680Y-70929394D01*
X141628206Y-70854920D01*
X141536994Y-70802259D01*
X141435261Y-70775000D01*
X141429046Y-70775000D01*
X142108522Y-70095524D01*
X142108521Y-70095523D01*
X142063959Y-70063147D01*
X142063950Y-70063141D01*
X141881631Y-69970244D01*
X141687017Y-69907009D01*
X141484917Y-69875000D01*
X141280283Y-69875000D01*
X141078182Y-69907009D01*
X140883568Y-69970244D01*
X140701244Y-70063143D01*
X140656677Y-70095523D01*
X140656677Y-70095524D01*
X141336154Y-70775000D01*
X141329939Y-70775000D01*
X141228206Y-70802259D01*
X141136994Y-70854920D01*
X141062520Y-70929394D01*
X141009859Y-71020606D01*
X140982600Y-71122339D01*
X140982600Y-71128553D01*
X140303124Y-70449077D01*
X140303123Y-70449077D01*
X140270743Y-70493644D01*
X140177844Y-70675968D01*
X140114609Y-70870582D01*
X140082600Y-71072682D01*
X139003100Y-71072682D01*
X139003100Y-70499990D01*
X138992599Y-70397202D01*
X138937414Y-70230665D01*
X138845312Y-70081344D01*
X138721256Y-69957288D01*
X138587846Y-69875000D01*
X138571937Y-69865187D01*
X138571932Y-69865185D01*
X138570463Y-69864698D01*
X138405398Y-69810001D01*
X138405396Y-69810000D01*
X138302617Y-69799500D01*
X138302610Y-69799500D01*
X136502590Y-69799500D01*
X136502582Y-69799500D01*
X136399803Y-69810000D01*
X136399802Y-69810001D01*
X136317269Y-69837349D01*
X136233267Y-69865185D01*
X136233262Y-69865187D01*
X136083942Y-69957289D01*
X135959889Y-70081342D01*
X135867787Y-70230662D01*
X135867786Y-70230665D01*
X135848620Y-70288505D01*
X135808847Y-70345949D01*
X135744331Y-70372772D01*
X135730914Y-70373500D01*
X133006101Y-70373500D01*
X132939062Y-70353815D01*
X132893307Y-70301011D01*
X132888398Y-70288512D01*
X132860614Y-70204665D01*
X132768512Y-70055344D01*
X132644456Y-69931288D01*
X132495135Y-69839186D01*
X132328598Y-69784001D01*
X132328596Y-69784000D01*
X132225817Y-69773500D01*
X132225810Y-69773500D01*
X130425790Y-69773500D01*
X130425782Y-69773500D01*
X130323003Y-69784000D01*
X130323002Y-69784001D01*
X130244542Y-69810000D01*
X130156467Y-69839185D01*
X130156462Y-69839187D01*
X130007142Y-69931289D01*
X129883089Y-70055342D01*
X129790987Y-70204662D01*
X129790985Y-70204667D01*
X129789920Y-70207881D01*
X129735801Y-70371202D01*
X129735801Y-70371203D01*
X129735800Y-70371203D01*
X129725300Y-70473982D01*
X115494300Y-70473982D01*
X115494300Y-69393405D01*
X115513985Y-69326366D01*
X115566789Y-69280611D01*
X115635947Y-69270667D01*
X115699503Y-69299692D01*
X115716676Y-69317919D01*
X115854632Y-69497708D01*
X115854638Y-69497715D01*
X116042284Y-69685361D01*
X116042290Y-69685366D01*
X116252835Y-69846922D01*
X116252842Y-69846926D01*
X116482657Y-69979611D01*
X116482662Y-69979613D01*
X116482665Y-69979615D01*
X116727849Y-70081174D01*
X116984192Y-70149860D01*
X117247307Y-70184500D01*
X117247314Y-70184500D01*
X117512686Y-70184500D01*
X117512693Y-70184500D01*
X117775808Y-70149860D01*
X118032151Y-70081174D01*
X118277335Y-69979615D01*
X118507165Y-69846922D01*
X118717710Y-69685366D01*
X118905366Y-69497710D01*
X119066922Y-69287165D01*
X119199615Y-69057335D01*
X119301174Y-68812151D01*
X119369860Y-68555808D01*
X119404500Y-68292693D01*
X119404500Y-68027307D01*
X119369860Y-67764192D01*
X119301174Y-67507849D01*
X119199615Y-67262665D01*
X119199613Y-67262662D01*
X119199611Y-67262657D01*
X119066926Y-67032842D01*
X119066922Y-67032835D01*
X118905366Y-66822290D01*
X118905361Y-66822284D01*
X118717715Y-66634638D01*
X118717708Y-66634632D01*
X118507173Y-66473084D01*
X118507170Y-66473082D01*
X118507165Y-66473078D01*
X118496787Y-66467086D01*
X118448573Y-66416521D01*
X118435349Y-66347914D01*
X118461317Y-66283049D01*
X118518231Y-66242520D01*
X118558788Y-66235700D01*
X168478706Y-66235700D01*
X168507469Y-66244145D01*
G37*
%TD.AperFunction*%
%TD*%
M02*
