%TF.GenerationSoftware,KiCad,Pcbnew,10.0.1*%
%TF.CreationDate,2026-06-23T20:13:12+05:30*%
%TF.ProjectId,Transfarmerless AC to DC,5472616e-7366-4617-926d-65726c657373,rev?*%
%TF.SameCoordinates,Original*%
%TF.FileFunction,Legend,Bot*%
%TF.FilePolarity,Positive*%
%FSLAX46Y46*%
G04 Gerber Fmt 4.6, Leading zero omitted, Abs format (unit mm)*
G04 Created by KiCad (PCBNEW 10.0.1) date 2026-06-23 20:13:12*
%MOMM*%
%LPD*%
G01*
G04 APERTURE LIST*
%ADD10C,0.010000*%
G04 APERTURE END LIST*
D10*
%TO.C,REF\u002A\u002A*%
X130745406Y-104204949D02*
X130771127Y-104220647D01*
X130797778Y-104242227D01*
X130797778Y-104889684D01*
X130771127Y-104911264D01*
X130739767Y-104928739D01*
X130703966Y-104929575D01*
X130672528Y-104909082D01*
X130668652Y-104904416D01*
X130663186Y-104894949D01*
X130658979Y-104881267D01*
X130655867Y-104860748D01*
X130653687Y-104830768D01*
X130652276Y-104788704D01*
X130651471Y-104731932D01*
X130651107Y-104657830D01*
X130651022Y-104563773D01*
X130651022Y-104242227D01*
X130677673Y-104220647D01*
X130701386Y-104205877D01*
X130724400Y-104199067D01*
X130745406Y-104204949D01*
G36*
X130745406Y-104204949D02*
G01*
X130771127Y-104220647D01*
X130797778Y-104242227D01*
X130797778Y-104889684D01*
X130771127Y-104911264D01*
X130739767Y-104928739D01*
X130703966Y-104929575D01*
X130672528Y-104909082D01*
X130668652Y-104904416D01*
X130663186Y-104894949D01*
X130658979Y-104881267D01*
X130655867Y-104860748D01*
X130653687Y-104830768D01*
X130652276Y-104788704D01*
X130651471Y-104731932D01*
X130651107Y-104657830D01*
X130651022Y-104563773D01*
X130651022Y-104242227D01*
X130677673Y-104220647D01*
X130701386Y-104205877D01*
X130724400Y-104199067D01*
X130745406Y-104204949D01*
G37*
X137876137Y-104203463D02*
X137910291Y-104226776D01*
X137938000Y-104254485D01*
X137938000Y-104567537D01*
X137937959Y-104651567D01*
X137937701Y-104725789D01*
X137937030Y-104782541D01*
X137935752Y-104824512D01*
X137933673Y-104854389D01*
X137930599Y-104874861D01*
X137926334Y-104888614D01*
X137920684Y-104898337D01*
X137913455Y-104906717D01*
X137881991Y-104928181D01*
X137846826Y-104929947D01*
X137813822Y-104910267D01*
X137808516Y-104904398D01*
X137803066Y-104895314D01*
X137798900Y-104881973D01*
X137795846Y-104861757D01*
X137793732Y-104832049D01*
X137792386Y-104790232D01*
X137791638Y-104733689D01*
X137791314Y-104659802D01*
X137791245Y-104565956D01*
X137791284Y-104490294D01*
X137791539Y-104412385D01*
X137792183Y-104352375D01*
X137793387Y-104307648D01*
X137795324Y-104275585D01*
X137798164Y-104253571D01*
X137802079Y-104238987D01*
X137807242Y-104229218D01*
X137813822Y-104221645D01*
X137843006Y-104202623D01*
X137876137Y-104203463D01*
G36*
X137876137Y-104203463D02*
G01*
X137910291Y-104226776D01*
X137938000Y-104254485D01*
X137938000Y-104567537D01*
X137937959Y-104651567D01*
X137937701Y-104725789D01*
X137937030Y-104782541D01*
X137935752Y-104824512D01*
X137933673Y-104854389D01*
X137930599Y-104874861D01*
X137926334Y-104888614D01*
X137920684Y-104898337D01*
X137913455Y-104906717D01*
X137881991Y-104928181D01*
X137846826Y-104929947D01*
X137813822Y-104910267D01*
X137808516Y-104904398D01*
X137803066Y-104895314D01*
X137798900Y-104881973D01*
X137795846Y-104861757D01*
X137793732Y-104832049D01*
X137792386Y-104790232D01*
X137791638Y-104733689D01*
X137791314Y-104659802D01*
X137791245Y-104565956D01*
X137791284Y-104490294D01*
X137791539Y-104412385D01*
X137792183Y-104352375D01*
X137793387Y-104307648D01*
X137795324Y-104275585D01*
X137798164Y-104253571D01*
X137802079Y-104238987D01*
X137807242Y-104229218D01*
X137813822Y-104221645D01*
X137843006Y-104202623D01*
X137876137Y-104203463D01*
G37*
X137344562Y-98962850D02*
X137427313Y-98990053D01*
X137502406Y-99035484D01*
X137574298Y-99101302D01*
X137612846Y-99145567D01*
X137652256Y-99203961D01*
X137677446Y-99264586D01*
X137690861Y-99333865D01*
X137694948Y-99418222D01*
X137694669Y-99464307D01*
X137692460Y-99505450D01*
X137686894Y-99537582D01*
X137676586Y-99568122D01*
X137660148Y-99604489D01*
X137646200Y-99631728D01*
X137587665Y-99717429D01*
X137515619Y-99786617D01*
X137431947Y-99837741D01*
X137338531Y-99869250D01*
X137305434Y-99876225D01*
X137264960Y-99883094D01*
X137231999Y-99884919D01*
X137197698Y-99881947D01*
X137153200Y-99874426D01*
X137101934Y-99862002D01*
X137011434Y-99824112D01*
X136932345Y-99769836D01*
X136866528Y-99701770D01*
X136815840Y-99622511D01*
X136782140Y-99534654D01*
X136767286Y-99440795D01*
X136773136Y-99343530D01*
X136799399Y-99247220D01*
X136844418Y-99158494D01*
X136905373Y-99083419D01*
X136980184Y-99023641D01*
X137066768Y-98980809D01*
X137163043Y-98956571D01*
X137266928Y-98952576D01*
X137344562Y-98962850D01*
G36*
X137344562Y-98962850D02*
G01*
X137427313Y-98990053D01*
X137502406Y-99035484D01*
X137574298Y-99101302D01*
X137612846Y-99145567D01*
X137652256Y-99203961D01*
X137677446Y-99264586D01*
X137690861Y-99333865D01*
X137694948Y-99418222D01*
X137694669Y-99464307D01*
X137692460Y-99505450D01*
X137686894Y-99537582D01*
X137676586Y-99568122D01*
X137660148Y-99604489D01*
X137646200Y-99631728D01*
X137587665Y-99717429D01*
X137515619Y-99786617D01*
X137431947Y-99837741D01*
X137338531Y-99869250D01*
X137305434Y-99876225D01*
X137264960Y-99883094D01*
X137231999Y-99884919D01*
X137197698Y-99881947D01*
X137153200Y-99874426D01*
X137101934Y-99862002D01*
X137011434Y-99824112D01*
X136932345Y-99769836D01*
X136866528Y-99701770D01*
X136815840Y-99622511D01*
X136782140Y-99534654D01*
X136767286Y-99440795D01*
X136773136Y-99343530D01*
X136799399Y-99247220D01*
X136844418Y-99158494D01*
X136905373Y-99083419D01*
X136980184Y-99023641D01*
X137066768Y-98980809D01*
X137163043Y-98956571D01*
X137266928Y-98952576D01*
X137344562Y-98962850D01*
G37*
X130045767Y-104199068D02*
X130139890Y-104199158D01*
X130214405Y-104199498D01*
X130271811Y-104200239D01*
X130314611Y-104201535D01*
X130345304Y-104203537D01*
X130366391Y-104206396D01*
X130380373Y-104210266D01*
X130389750Y-104215298D01*
X130397022Y-104221645D01*
X130415828Y-104254362D01*
X130417275Y-104291939D01*
X130400917Y-104325178D01*
X130399557Y-104326631D01*
X130388354Y-104334992D01*
X130371252Y-104340547D01*
X130344082Y-104343840D01*
X130302678Y-104345418D01*
X130242873Y-104345822D01*
X130103511Y-104345822D01*
X130103511Y-104609589D01*
X130103436Y-104685417D01*
X130103028Y-104752083D01*
X130102046Y-104801867D01*
X130100250Y-104837784D01*
X130097399Y-104862850D01*
X130093253Y-104880081D01*
X130087571Y-104892492D01*
X130080114Y-104903100D01*
X130077824Y-104905906D01*
X130046646Y-104928548D01*
X130012266Y-104930112D01*
X129979334Y-104910267D01*
X129972355Y-104902191D01*
X129966883Y-104891593D01*
X129962863Y-104875749D01*
X129960072Y-104851773D01*
X129958288Y-104816774D01*
X129957289Y-104767864D01*
X129956852Y-104702154D01*
X129956756Y-104616756D01*
X129956756Y-104345822D01*
X129810820Y-104345822D01*
X129799720Y-104345821D01*
X129743202Y-104345596D01*
X129704358Y-104344457D01*
X129678965Y-104341657D01*
X129662804Y-104336450D01*
X129651652Y-104328089D01*
X129641289Y-104315826D01*
X129625441Y-104285138D01*
X129628543Y-104251358D01*
X129654187Y-104218822D01*
X129659129Y-104215105D01*
X129669338Y-104210269D01*
X129684764Y-104206506D01*
X129707886Y-104203683D01*
X129741183Y-104201670D01*
X129787137Y-104200333D01*
X129848228Y-104199542D01*
X129926935Y-104199163D01*
X130025740Y-104199067D01*
X130045767Y-104199068D01*
G36*
X130045767Y-104199068D02*
G01*
X130139890Y-104199158D01*
X130214405Y-104199498D01*
X130271811Y-104200239D01*
X130314611Y-104201535D01*
X130345304Y-104203537D01*
X130366391Y-104206396D01*
X130380373Y-104210266D01*
X130389750Y-104215298D01*
X130397022Y-104221645D01*
X130415828Y-104254362D01*
X130417275Y-104291939D01*
X130400917Y-104325178D01*
X130399557Y-104326631D01*
X130388354Y-104334992D01*
X130371252Y-104340547D01*
X130344082Y-104343840D01*
X130302678Y-104345418D01*
X130242873Y-104345822D01*
X130103511Y-104345822D01*
X130103511Y-104609589D01*
X130103436Y-104685417D01*
X130103028Y-104752083D01*
X130102046Y-104801867D01*
X130100250Y-104837784D01*
X130097399Y-104862850D01*
X130093253Y-104880081D01*
X130087571Y-104892492D01*
X130080114Y-104903100D01*
X130077824Y-104905906D01*
X130046646Y-104928548D01*
X130012266Y-104930112D01*
X129979334Y-104910267D01*
X129972355Y-104902191D01*
X129966883Y-104891593D01*
X129962863Y-104875749D01*
X129960072Y-104851773D01*
X129958288Y-104816774D01*
X129957289Y-104767864D01*
X129956852Y-104702154D01*
X129956756Y-104616756D01*
X129956756Y-104345822D01*
X129810820Y-104345822D01*
X129799720Y-104345821D01*
X129743202Y-104345596D01*
X129704358Y-104344457D01*
X129678965Y-104341657D01*
X129662804Y-104336450D01*
X129651652Y-104328089D01*
X129641289Y-104315826D01*
X129625441Y-104285138D01*
X129628543Y-104251358D01*
X129654187Y-104218822D01*
X129659129Y-104215105D01*
X129669338Y-104210269D01*
X129684764Y-104206506D01*
X129707886Y-104203683D01*
X129741183Y-104201670D01*
X129787137Y-104200333D01*
X129848228Y-104199542D01*
X129926935Y-104199163D01*
X130025740Y-104199067D01*
X130045767Y-104199068D01*
G37*
X129369734Y-104221645D02*
X129375366Y-104227835D01*
X129380456Y-104236041D01*
X129384543Y-104247817D01*
X129387721Y-104265276D01*
X129390087Y-104290530D01*
X129391738Y-104325690D01*
X129392769Y-104372869D01*
X129393277Y-104434177D01*
X129393359Y-104511727D01*
X129393109Y-104607631D01*
X129392625Y-104724000D01*
X129392557Y-104738175D01*
X129391971Y-104799937D01*
X129390648Y-104843620D01*
X129388103Y-104873001D01*
X129383848Y-104891855D01*
X129377396Y-104903959D01*
X129368262Y-104913089D01*
X129334804Y-104930506D01*
X129299856Y-104927604D01*
X129268953Y-104903100D01*
X129259944Y-104889897D01*
X129252492Y-104871361D01*
X129248124Y-104845333D01*
X129246069Y-104806787D01*
X129245556Y-104750700D01*
X129245556Y-104628045D01*
X128748845Y-104628045D01*
X128748845Y-104762871D01*
X128748772Y-104798662D01*
X128748009Y-104844992D01*
X128745833Y-104875526D01*
X128741536Y-104894557D01*
X128734412Y-104906374D01*
X128723755Y-104915271D01*
X128691504Y-104930341D01*
X128656217Y-104927673D01*
X128625486Y-104903100D01*
X128620831Y-104896845D01*
X128614895Y-104886321D01*
X128610364Y-104872391D01*
X128607048Y-104852317D01*
X128604759Y-104823360D01*
X128603308Y-104782780D01*
X128602505Y-104727840D01*
X128602162Y-104655799D01*
X128602089Y-104563920D01*
X128602089Y-104254485D01*
X128629798Y-104226776D01*
X128661177Y-104204533D01*
X128694406Y-104201844D01*
X128726267Y-104221645D01*
X128734553Y-104231415D01*
X128741965Y-104247307D01*
X128746302Y-104271275D01*
X128748338Y-104308148D01*
X128748845Y-104362756D01*
X128748845Y-104481289D01*
X129245556Y-104481289D01*
X129245556Y-104365776D01*
X129245994Y-104314078D01*
X129247958Y-104279554D01*
X129252474Y-104256978D01*
X129260567Y-104241126D01*
X129273265Y-104226776D01*
X129304643Y-104204533D01*
X129337872Y-104201844D01*
X129369734Y-104221645D01*
G36*
X129369734Y-104221645D02*
G01*
X129375366Y-104227835D01*
X129380456Y-104236041D01*
X129384543Y-104247817D01*
X129387721Y-104265276D01*
X129390087Y-104290530D01*
X129391738Y-104325690D01*
X129392769Y-104372869D01*
X129393277Y-104434177D01*
X129393359Y-104511727D01*
X129393109Y-104607631D01*
X129392625Y-104724000D01*
X129392557Y-104738175D01*
X129391971Y-104799937D01*
X129390648Y-104843620D01*
X129388103Y-104873001D01*
X129383848Y-104891855D01*
X129377396Y-104903959D01*
X129368262Y-104913089D01*
X129334804Y-104930506D01*
X129299856Y-104927604D01*
X129268953Y-104903100D01*
X129259944Y-104889897D01*
X129252492Y-104871361D01*
X129248124Y-104845333D01*
X129246069Y-104806787D01*
X129245556Y-104750700D01*
X129245556Y-104628045D01*
X128748845Y-104628045D01*
X128748845Y-104762871D01*
X128748772Y-104798662D01*
X128748009Y-104844992D01*
X128745833Y-104875526D01*
X128741536Y-104894557D01*
X128734412Y-104906374D01*
X128723755Y-104915271D01*
X128691504Y-104930341D01*
X128656217Y-104927673D01*
X128625486Y-104903100D01*
X128620831Y-104896845D01*
X128614895Y-104886321D01*
X128610364Y-104872391D01*
X128607048Y-104852317D01*
X128604759Y-104823360D01*
X128603308Y-104782780D01*
X128602505Y-104727840D01*
X128602162Y-104655799D01*
X128602089Y-104563920D01*
X128602089Y-104254485D01*
X128629798Y-104226776D01*
X128661177Y-104204533D01*
X128694406Y-104201844D01*
X128726267Y-104221645D01*
X128734553Y-104231415D01*
X128741965Y-104247307D01*
X128746302Y-104271275D01*
X128748338Y-104308148D01*
X128748845Y-104362756D01*
X128748845Y-104481289D01*
X129245556Y-104481289D01*
X129245556Y-104365776D01*
X129245994Y-104314078D01*
X129247958Y-104279554D01*
X129252474Y-104256978D01*
X129260567Y-104241126D01*
X129273265Y-104226776D01*
X129304643Y-104204533D01*
X129337872Y-104201844D01*
X129369734Y-104221645D01*
G37*
X134075133Y-104810396D02*
X134073163Y-104843175D01*
X134070235Y-104866095D01*
X134066158Y-104881897D01*
X134060743Y-104893319D01*
X134053803Y-104903100D01*
X134030406Y-104932845D01*
X133864714Y-104932251D01*
X133829918Y-104931953D01*
X133731435Y-104928522D01*
X133650473Y-104920839D01*
X133583379Y-104908282D01*
X133526496Y-104890227D01*
X133476169Y-104866052D01*
X133472810Y-104864135D01*
X133414998Y-104827417D01*
X133372644Y-104790451D01*
X133339828Y-104746966D01*
X133310628Y-104690689D01*
X133306346Y-104681073D01*
X133283769Y-104617887D01*
X133278034Y-104572333D01*
X133427279Y-104572333D01*
X133432892Y-104597061D01*
X133438618Y-104612939D01*
X133471548Y-104672847D01*
X133518886Y-104718600D01*
X133582652Y-104751736D01*
X133664861Y-104773790D01*
X133667655Y-104774292D01*
X133713940Y-104780255D01*
X133770336Y-104784483D01*
X133825274Y-104786089D01*
X133919156Y-104786089D01*
X133919156Y-104345822D01*
X133831667Y-104346270D01*
X133764747Y-104348746D01*
X133672349Y-104359998D01*
X133593034Y-104379537D01*
X133531060Y-104406511D01*
X133500120Y-104427240D01*
X133472000Y-104457006D01*
X133448660Y-104499434D01*
X133441533Y-104515400D01*
X133429709Y-104547902D01*
X133427279Y-104572333D01*
X133278034Y-104572333D01*
X133276797Y-104562509D01*
X133285399Y-104507483D01*
X133309541Y-104445351D01*
X133310337Y-104443658D01*
X133350788Y-104374236D01*
X133401473Y-104317638D01*
X133464198Y-104273070D01*
X133540774Y-104239741D01*
X133633009Y-104216861D01*
X133742712Y-104203636D01*
X133871691Y-104199275D01*
X133875263Y-104199270D01*
X133935283Y-104199410D01*
X133977214Y-104200446D01*
X134005328Y-104203040D01*
X134023897Y-104207853D01*
X134037194Y-104215544D01*
X134049491Y-104226776D01*
X134077200Y-104254485D01*
X134077200Y-104563920D01*
X134077175Y-104625526D01*
X134076950Y-104704311D01*
X134076332Y-104765021D01*
X134075775Y-104786089D01*
X134075133Y-104810396D01*
G36*
X134075133Y-104810396D02*
G01*
X134073163Y-104843175D01*
X134070235Y-104866095D01*
X134066158Y-104881897D01*
X134060743Y-104893319D01*
X134053803Y-104903100D01*
X134030406Y-104932845D01*
X133864714Y-104932251D01*
X133829918Y-104931953D01*
X133731435Y-104928522D01*
X133650473Y-104920839D01*
X133583379Y-104908282D01*
X133526496Y-104890227D01*
X133476169Y-104866052D01*
X133472810Y-104864135D01*
X133414998Y-104827417D01*
X133372644Y-104790451D01*
X133339828Y-104746966D01*
X133310628Y-104690689D01*
X133306346Y-104681073D01*
X133283769Y-104617887D01*
X133278034Y-104572333D01*
X133427279Y-104572333D01*
X133432892Y-104597061D01*
X133438618Y-104612939D01*
X133471548Y-104672847D01*
X133518886Y-104718600D01*
X133582652Y-104751736D01*
X133664861Y-104773790D01*
X133667655Y-104774292D01*
X133713940Y-104780255D01*
X133770336Y-104784483D01*
X133825274Y-104786089D01*
X133919156Y-104786089D01*
X133919156Y-104345822D01*
X133831667Y-104346270D01*
X133764747Y-104348746D01*
X133672349Y-104359998D01*
X133593034Y-104379537D01*
X133531060Y-104406511D01*
X133500120Y-104427240D01*
X133472000Y-104457006D01*
X133448660Y-104499434D01*
X133441533Y-104515400D01*
X133429709Y-104547902D01*
X133427279Y-104572333D01*
X133278034Y-104572333D01*
X133276797Y-104562509D01*
X133285399Y-104507483D01*
X133309541Y-104445351D01*
X133310337Y-104443658D01*
X133350788Y-104374236D01*
X133401473Y-104317638D01*
X133464198Y-104273070D01*
X133540774Y-104239741D01*
X133633009Y-104216861D01*
X133742712Y-104203636D01*
X133871691Y-104199275D01*
X133875263Y-104199270D01*
X133935283Y-104199410D01*
X133977214Y-104200446D01*
X134005328Y-104203040D01*
X134023897Y-104207853D01*
X134037194Y-104215544D01*
X134049491Y-104226776D01*
X134077200Y-104254485D01*
X134077200Y-104563920D01*
X134077175Y-104625526D01*
X134076950Y-104704311D01*
X134076332Y-104765021D01*
X134075775Y-104786089D01*
X134075133Y-104810396D01*
G37*
X141166817Y-104384427D02*
X141166870Y-104465041D01*
X141166622Y-104565956D01*
X141166583Y-104641617D01*
X141166328Y-104719526D01*
X141165684Y-104779536D01*
X141164480Y-104824264D01*
X141162543Y-104856326D01*
X141159703Y-104878340D01*
X141155788Y-104892924D01*
X141150626Y-104902694D01*
X141144045Y-104910267D01*
X141137077Y-104916501D01*
X141124079Y-104923801D01*
X141104931Y-104928554D01*
X141075528Y-104931292D01*
X141031762Y-104932545D01*
X140969528Y-104932845D01*
X140920582Y-104932469D01*
X140813722Y-104928041D01*
X140724494Y-104917953D01*
X140649696Y-104901365D01*
X140586125Y-104877435D01*
X140530579Y-104845321D01*
X140479854Y-104804182D01*
X140473866Y-104798330D01*
X140436999Y-104749821D01*
X140405899Y-104689013D01*
X140384417Y-104624769D01*
X140379136Y-104586026D01*
X140526353Y-104586026D01*
X140544635Y-104636961D01*
X140574305Y-104682878D01*
X140621002Y-104725287D01*
X140682392Y-104755090D01*
X140761538Y-104774226D01*
X140763028Y-104774464D01*
X140811999Y-104780256D01*
X140870693Y-104784396D01*
X140926734Y-104786004D01*
X141019867Y-104786089D01*
X141019867Y-104345822D01*
X140943667Y-104345808D01*
X140940639Y-104345817D01*
X140889519Y-104347782D01*
X140829416Y-104352507D01*
X140772708Y-104359035D01*
X140722750Y-104368331D01*
X140647998Y-104394600D01*
X140590489Y-104433899D01*
X140548988Y-104486933D01*
X140527771Y-104538200D01*
X140526353Y-104586026D01*
X140379136Y-104586026D01*
X140376400Y-104565956D01*
X140377679Y-104544739D01*
X140389991Y-104487323D01*
X140412520Y-104427413D01*
X140441750Y-104373363D01*
X140474167Y-104333532D01*
X140493708Y-104316510D01*
X140548420Y-104277322D01*
X140608723Y-104247193D01*
X140677919Y-104225232D01*
X140759311Y-104210550D01*
X140856200Y-104202259D01*
X140971889Y-104199467D01*
X141011371Y-104199066D01*
X141057082Y-104198653D01*
X141092883Y-104200457D01*
X141119974Y-104206739D01*
X141139556Y-104219759D01*
X141152830Y-104241778D01*
X141160998Y-104275055D01*
X141165260Y-104321851D01*
X141165857Y-104345822D01*
X141166817Y-104384427D01*
G36*
X141166817Y-104384427D02*
G01*
X141166870Y-104465041D01*
X141166622Y-104565956D01*
X141166583Y-104641617D01*
X141166328Y-104719526D01*
X141165684Y-104779536D01*
X141164480Y-104824264D01*
X141162543Y-104856326D01*
X141159703Y-104878340D01*
X141155788Y-104892924D01*
X141150626Y-104902694D01*
X141144045Y-104910267D01*
X141137077Y-104916501D01*
X141124079Y-104923801D01*
X141104931Y-104928554D01*
X141075528Y-104931292D01*
X141031762Y-104932545D01*
X140969528Y-104932845D01*
X140920582Y-104932469D01*
X140813722Y-104928041D01*
X140724494Y-104917953D01*
X140649696Y-104901365D01*
X140586125Y-104877435D01*
X140530579Y-104845321D01*
X140479854Y-104804182D01*
X140473866Y-104798330D01*
X140436999Y-104749821D01*
X140405899Y-104689013D01*
X140384417Y-104624769D01*
X140379136Y-104586026D01*
X140526353Y-104586026D01*
X140544635Y-104636961D01*
X140574305Y-104682878D01*
X140621002Y-104725287D01*
X140682392Y-104755090D01*
X140761538Y-104774226D01*
X140763028Y-104774464D01*
X140811999Y-104780256D01*
X140870693Y-104784396D01*
X140926734Y-104786004D01*
X141019867Y-104786089D01*
X141019867Y-104345822D01*
X140943667Y-104345808D01*
X140940639Y-104345817D01*
X140889519Y-104347782D01*
X140829416Y-104352507D01*
X140772708Y-104359035D01*
X140722750Y-104368331D01*
X140647998Y-104394600D01*
X140590489Y-104433899D01*
X140548988Y-104486933D01*
X140527771Y-104538200D01*
X140526353Y-104586026D01*
X140379136Y-104586026D01*
X140376400Y-104565956D01*
X140377679Y-104544739D01*
X140389991Y-104487323D01*
X140412520Y-104427413D01*
X140441750Y-104373363D01*
X140474167Y-104333532D01*
X140493708Y-104316510D01*
X140548420Y-104277322D01*
X140608723Y-104247193D01*
X140677919Y-104225232D01*
X140759311Y-104210550D01*
X140856200Y-104202259D01*
X140971889Y-104199467D01*
X141011371Y-104199066D01*
X141057082Y-104198653D01*
X141092883Y-104200457D01*
X141119974Y-104206739D01*
X141139556Y-104219759D01*
X141152830Y-104241778D01*
X141160998Y-104275055D01*
X141165260Y-104321851D01*
X141165857Y-104345822D01*
X141166817Y-104384427D01*
G37*
X136221893Y-104197892D02*
X136233301Y-104204029D01*
X136243850Y-104214691D01*
X136255136Y-104228811D01*
X136259589Y-104234772D01*
X136265588Y-104245268D01*
X136270167Y-104259093D01*
X136273519Y-104278998D01*
X136275833Y-104307732D01*
X136277301Y-104348045D01*
X136278113Y-104402687D01*
X136278460Y-104474407D01*
X136278534Y-104565956D01*
X136278511Y-104624486D01*
X136278292Y-104703573D01*
X136277683Y-104764516D01*
X136276492Y-104810062D01*
X136274529Y-104842963D01*
X136271603Y-104865968D01*
X136267523Y-104881826D01*
X136262097Y-104893286D01*
X136255136Y-104903100D01*
X136224708Y-104927493D01*
X136189765Y-104930372D01*
X136152784Y-104911282D01*
X136148600Y-104907807D01*
X136140424Y-104899279D01*
X136134364Y-104887728D01*
X136129981Y-104869896D01*
X136126839Y-104842524D01*
X136124502Y-104802354D01*
X136122531Y-104746128D01*
X136120489Y-104670589D01*
X136114845Y-104451458D01*
X135849556Y-104692099D01*
X135775722Y-104758875D01*
X135710542Y-104816991D01*
X135658348Y-104861949D01*
X135617273Y-104894871D01*
X135585455Y-104916879D01*
X135561026Y-104929094D01*
X135542124Y-104932639D01*
X135526883Y-104928636D01*
X135513439Y-104918207D01*
X135499927Y-104902474D01*
X135493682Y-104893991D01*
X135488050Y-104883413D01*
X135483839Y-104869255D01*
X135480887Y-104848803D01*
X135479032Y-104819342D01*
X135478113Y-104778161D01*
X135477968Y-104722544D01*
X135478435Y-104649779D01*
X135479352Y-104557151D01*
X135482667Y-104242199D01*
X135509318Y-104220633D01*
X135535383Y-104204441D01*
X135568241Y-104201670D01*
X135602772Y-104220623D01*
X135607084Y-104224208D01*
X135615216Y-104232737D01*
X135621245Y-104244329D01*
X135625606Y-104262235D01*
X135628734Y-104289706D01*
X135631063Y-104329994D01*
X135633029Y-104386351D01*
X135635067Y-104462029D01*
X135640711Y-104681878D01*
X135821334Y-104518084D01*
X135908072Y-104439451D01*
X135983843Y-104371058D01*
X136045980Y-104315708D01*
X136096078Y-104272338D01*
X136135735Y-104239881D01*
X136166548Y-104217273D01*
X136190114Y-104203448D01*
X136208030Y-104197343D01*
X136221893Y-104197892D01*
G36*
X136221893Y-104197892D02*
G01*
X136233301Y-104204029D01*
X136243850Y-104214691D01*
X136255136Y-104228811D01*
X136259589Y-104234772D01*
X136265588Y-104245268D01*
X136270167Y-104259093D01*
X136273519Y-104278998D01*
X136275833Y-104307732D01*
X136277301Y-104348045D01*
X136278113Y-104402687D01*
X136278460Y-104474407D01*
X136278534Y-104565956D01*
X136278511Y-104624486D01*
X136278292Y-104703573D01*
X136277683Y-104764516D01*
X136276492Y-104810062D01*
X136274529Y-104842963D01*
X136271603Y-104865968D01*
X136267523Y-104881826D01*
X136262097Y-104893286D01*
X136255136Y-104903100D01*
X136224708Y-104927493D01*
X136189765Y-104930372D01*
X136152784Y-104911282D01*
X136148600Y-104907807D01*
X136140424Y-104899279D01*
X136134364Y-104887728D01*
X136129981Y-104869896D01*
X136126839Y-104842524D01*
X136124502Y-104802354D01*
X136122531Y-104746128D01*
X136120489Y-104670589D01*
X136114845Y-104451458D01*
X135849556Y-104692099D01*
X135775722Y-104758875D01*
X135710542Y-104816991D01*
X135658348Y-104861949D01*
X135617273Y-104894871D01*
X135585455Y-104916879D01*
X135561026Y-104929094D01*
X135542124Y-104932639D01*
X135526883Y-104928636D01*
X135513439Y-104918207D01*
X135499927Y-104902474D01*
X135493682Y-104893991D01*
X135488050Y-104883413D01*
X135483839Y-104869255D01*
X135480887Y-104848803D01*
X135479032Y-104819342D01*
X135478113Y-104778161D01*
X135477968Y-104722544D01*
X135478435Y-104649779D01*
X135479352Y-104557151D01*
X135482667Y-104242199D01*
X135509318Y-104220633D01*
X135535383Y-104204441D01*
X135568241Y-104201670D01*
X135602772Y-104220623D01*
X135607084Y-104224208D01*
X135615216Y-104232737D01*
X135621245Y-104244329D01*
X135625606Y-104262235D01*
X135628734Y-104289706D01*
X135631063Y-104329994D01*
X135633029Y-104386351D01*
X135635067Y-104462029D01*
X135640711Y-104681878D01*
X135821334Y-104518084D01*
X135908072Y-104439451D01*
X135983843Y-104371058D01*
X136045980Y-104315708D01*
X136096078Y-104272338D01*
X136135735Y-104239881D01*
X136166548Y-104217273D01*
X136190114Y-104203448D01*
X136208030Y-104197343D01*
X136221893Y-104197892D01*
G37*
X137019150Y-104204179D02*
X137125157Y-104220494D01*
X137218969Y-104248545D01*
X137297765Y-104287452D01*
X137358719Y-104336334D01*
X137384789Y-104369195D01*
X137414297Y-104418394D01*
X137439568Y-104472252D01*
X137457218Y-104523419D01*
X137463858Y-104564544D01*
X137462298Y-104584259D01*
X137449357Y-104635592D01*
X137426194Y-104692118D01*
X137396302Y-104746035D01*
X137363173Y-104789539D01*
X137352977Y-104799887D01*
X137285892Y-104851662D01*
X137205766Y-104891554D01*
X137119556Y-104915956D01*
X137064592Y-104924068D01*
X136971139Y-104930673D01*
X136881358Y-104928586D01*
X136798869Y-104918340D01*
X136727286Y-104900470D01*
X136670228Y-104875508D01*
X136631311Y-104843988D01*
X136629936Y-104842012D01*
X136622848Y-104816786D01*
X136618609Y-104769535D01*
X136617200Y-104700071D01*
X136618060Y-104637838D01*
X136622780Y-104590456D01*
X136634470Y-104558353D01*
X136656239Y-104538800D01*
X136691198Y-104529070D01*
X136742456Y-104526433D01*
X136813123Y-104528161D01*
X136861743Y-104531173D01*
X136911939Y-104539366D01*
X136944433Y-104553419D01*
X136961892Y-104574654D01*
X136966983Y-104604394D01*
X136966877Y-104608936D01*
X136958175Y-104643730D01*
X136934165Y-104667147D01*
X136892900Y-104680347D01*
X136832431Y-104684489D01*
X136763956Y-104684489D01*
X136763956Y-104722841D01*
X136764006Y-104731976D01*
X136766227Y-104749227D01*
X136775494Y-104759521D01*
X136796875Y-104766459D01*
X136835436Y-104773641D01*
X136840910Y-104774575D01*
X136937860Y-104784478D01*
X137027852Y-104781559D01*
X137108760Y-104766829D01*
X137178459Y-104741299D01*
X137234824Y-104705978D01*
X137275729Y-104661879D01*
X137299051Y-104610012D01*
X137302663Y-104551388D01*
X137297145Y-104522494D01*
X137270461Y-104466604D01*
X137224273Y-104420945D01*
X137159291Y-104386108D01*
X137076229Y-104362690D01*
X137051555Y-104358241D01*
X136962226Y-104347742D01*
X136882419Y-104348971D01*
X136804326Y-104361906D01*
X136769183Y-104368696D01*
X136723745Y-104369713D01*
X136692430Y-104357182D01*
X136672277Y-104330395D01*
X136665893Y-104302148D01*
X136675379Y-104270924D01*
X136684708Y-104257499D01*
X136718943Y-104233967D01*
X136771565Y-104216095D01*
X136840081Y-104204599D01*
X136922000Y-104200192D01*
X137019150Y-104204179D01*
G36*
X137019150Y-104204179D02*
G01*
X137125157Y-104220494D01*
X137218969Y-104248545D01*
X137297765Y-104287452D01*
X137358719Y-104336334D01*
X137384789Y-104369195D01*
X137414297Y-104418394D01*
X137439568Y-104472252D01*
X137457218Y-104523419D01*
X137463858Y-104564544D01*
X137462298Y-104584259D01*
X137449357Y-104635592D01*
X137426194Y-104692118D01*
X137396302Y-104746035D01*
X137363173Y-104789539D01*
X137352977Y-104799887D01*
X137285892Y-104851662D01*
X137205766Y-104891554D01*
X137119556Y-104915956D01*
X137064592Y-104924068D01*
X136971139Y-104930673D01*
X136881358Y-104928586D01*
X136798869Y-104918340D01*
X136727286Y-104900470D01*
X136670228Y-104875508D01*
X136631311Y-104843988D01*
X136629936Y-104842012D01*
X136622848Y-104816786D01*
X136618609Y-104769535D01*
X136617200Y-104700071D01*
X136618060Y-104637838D01*
X136622780Y-104590456D01*
X136634470Y-104558353D01*
X136656239Y-104538800D01*
X136691198Y-104529070D01*
X136742456Y-104526433D01*
X136813123Y-104528161D01*
X136861743Y-104531173D01*
X136911939Y-104539366D01*
X136944433Y-104553419D01*
X136961892Y-104574654D01*
X136966983Y-104604394D01*
X136966877Y-104608936D01*
X136958175Y-104643730D01*
X136934165Y-104667147D01*
X136892900Y-104680347D01*
X136832431Y-104684489D01*
X136763956Y-104684489D01*
X136763956Y-104722841D01*
X136764006Y-104731976D01*
X136766227Y-104749227D01*
X136775494Y-104759521D01*
X136796875Y-104766459D01*
X136835436Y-104773641D01*
X136840910Y-104774575D01*
X136937860Y-104784478D01*
X137027852Y-104781559D01*
X137108760Y-104766829D01*
X137178459Y-104741299D01*
X137234824Y-104705978D01*
X137275729Y-104661879D01*
X137299051Y-104610012D01*
X137302663Y-104551388D01*
X137297145Y-104522494D01*
X137270461Y-104466604D01*
X137224273Y-104420945D01*
X137159291Y-104386108D01*
X137076229Y-104362690D01*
X137051555Y-104358241D01*
X136962226Y-104347742D01*
X136882419Y-104348971D01*
X136804326Y-104361906D01*
X136769183Y-104368696D01*
X136723745Y-104369713D01*
X136692430Y-104357182D01*
X136672277Y-104330395D01*
X136665893Y-104302148D01*
X136675379Y-104270924D01*
X136684708Y-104257499D01*
X136718943Y-104233967D01*
X136771565Y-104216095D01*
X136840081Y-104204599D01*
X136922000Y-104200192D01*
X137019150Y-104204179D01*
G37*
X135069803Y-104228811D02*
X135074752Y-104235495D01*
X135080596Y-104246066D01*
X135085057Y-104260153D01*
X135088321Y-104280478D01*
X135090574Y-104309765D01*
X135092002Y-104350737D01*
X135092792Y-104406117D01*
X135093129Y-104478628D01*
X135093200Y-104570994D01*
X135093171Y-104636911D01*
X135092939Y-104715228D01*
X135092319Y-104775496D01*
X135091126Y-104820393D01*
X135089179Y-104852602D01*
X135086294Y-104874800D01*
X135082288Y-104889669D01*
X135076979Y-104899889D01*
X135070183Y-104908138D01*
X135065668Y-104912795D01*
X135057438Y-104919282D01*
X135046078Y-104924194D01*
X135028810Y-104927749D01*
X135002855Y-104930167D01*
X134965436Y-104931667D01*
X134913773Y-104932467D01*
X134845089Y-104932787D01*
X134756606Y-104932845D01*
X134736931Y-104932838D01*
X134649906Y-104932572D01*
X134582254Y-104931806D01*
X134531299Y-104930392D01*
X134494367Y-104928180D01*
X134468783Y-104925022D01*
X134451871Y-104920769D01*
X134440957Y-104915271D01*
X134430464Y-104905285D01*
X134417203Y-104874168D01*
X134418386Y-104838280D01*
X134434550Y-104806733D01*
X134436739Y-104804457D01*
X134445427Y-104798189D01*
X134458769Y-104793523D01*
X134479752Y-104790227D01*
X134511363Y-104788068D01*
X134556590Y-104786814D01*
X134618420Y-104786231D01*
X134699839Y-104786089D01*
X134946445Y-104786089D01*
X134946445Y-104628045D01*
X134784006Y-104628045D01*
X134748338Y-104627964D01*
X134692568Y-104627167D01*
X134653430Y-104625162D01*
X134626976Y-104621521D01*
X134609259Y-104615812D01*
X134596329Y-104607607D01*
X134592686Y-104604423D01*
X134574278Y-104573448D01*
X134573644Y-104537112D01*
X134591183Y-104503493D01*
X134591245Y-104503424D01*
X134600916Y-104494798D01*
X134614209Y-104488742D01*
X134634917Y-104484811D01*
X134666828Y-104482556D01*
X134713734Y-104481531D01*
X134779424Y-104481289D01*
X134947571Y-104481289D01*
X134944186Y-104416378D01*
X134940800Y-104351467D01*
X134698723Y-104348414D01*
X134673707Y-104348086D01*
X134592087Y-104346606D01*
X134529768Y-104344222D01*
X134484154Y-104340227D01*
X134452652Y-104333913D01*
X134432667Y-104324574D01*
X134421604Y-104311503D01*
X134416869Y-104293992D01*
X134415867Y-104271335D01*
X134415873Y-104268970D01*
X134417027Y-104248939D01*
X134421824Y-104233146D01*
X134432632Y-104221090D01*
X134451817Y-104212267D01*
X134481745Y-104206175D01*
X134524783Y-104202311D01*
X134583299Y-104200174D01*
X134659657Y-104199260D01*
X134756226Y-104199067D01*
X135046406Y-104199067D01*
X135069803Y-104228811D01*
G36*
X135069803Y-104228811D02*
G01*
X135074752Y-104235495D01*
X135080596Y-104246066D01*
X135085057Y-104260153D01*
X135088321Y-104280478D01*
X135090574Y-104309765D01*
X135092002Y-104350737D01*
X135092792Y-104406117D01*
X135093129Y-104478628D01*
X135093200Y-104570994D01*
X135093171Y-104636911D01*
X135092939Y-104715228D01*
X135092319Y-104775496D01*
X135091126Y-104820393D01*
X135089179Y-104852602D01*
X135086294Y-104874800D01*
X135082288Y-104889669D01*
X135076979Y-104899889D01*
X135070183Y-104908138D01*
X135065668Y-104912795D01*
X135057438Y-104919282D01*
X135046078Y-104924194D01*
X135028810Y-104927749D01*
X135002855Y-104930167D01*
X134965436Y-104931667D01*
X134913773Y-104932467D01*
X134845089Y-104932787D01*
X134756606Y-104932845D01*
X134736931Y-104932838D01*
X134649906Y-104932572D01*
X134582254Y-104931806D01*
X134531299Y-104930392D01*
X134494367Y-104928180D01*
X134468783Y-104925022D01*
X134451871Y-104920769D01*
X134440957Y-104915271D01*
X134430464Y-104905285D01*
X134417203Y-104874168D01*
X134418386Y-104838280D01*
X134434550Y-104806733D01*
X134436739Y-104804457D01*
X134445427Y-104798189D01*
X134458769Y-104793523D01*
X134479752Y-104790227D01*
X134511363Y-104788068D01*
X134556590Y-104786814D01*
X134618420Y-104786231D01*
X134699839Y-104786089D01*
X134946445Y-104786089D01*
X134946445Y-104628045D01*
X134784006Y-104628045D01*
X134748338Y-104627964D01*
X134692568Y-104627167D01*
X134653430Y-104625162D01*
X134626976Y-104621521D01*
X134609259Y-104615812D01*
X134596329Y-104607607D01*
X134592686Y-104604423D01*
X134574278Y-104573448D01*
X134573644Y-104537112D01*
X134591183Y-104503493D01*
X134591245Y-104503424D01*
X134600916Y-104494798D01*
X134614209Y-104488742D01*
X134634917Y-104484811D01*
X134666828Y-104482556D01*
X134713734Y-104481531D01*
X134779424Y-104481289D01*
X134947571Y-104481289D01*
X134944186Y-104416378D01*
X134940800Y-104351467D01*
X134698723Y-104348414D01*
X134673707Y-104348086D01*
X134592087Y-104346606D01*
X134529768Y-104344222D01*
X134484154Y-104340227D01*
X134452652Y-104333913D01*
X134432667Y-104324574D01*
X134421604Y-104311503D01*
X134416869Y-104293992D01*
X134415867Y-104271335D01*
X134415873Y-104268970D01*
X134417027Y-104248939D01*
X134421824Y-104233146D01*
X134432632Y-104221090D01*
X134451817Y-104212267D01*
X134481745Y-104206175D01*
X134524783Y-104202311D01*
X134583299Y-104200174D01*
X134659657Y-104199260D01*
X134756226Y-104199067D01*
X135046406Y-104199067D01*
X135069803Y-104228811D01*
G37*
X139746734Y-104199083D02*
X139823831Y-104199275D01*
X139882777Y-104199860D01*
X139926364Y-104201051D01*
X139957383Y-104203064D01*
X139978625Y-104206112D01*
X139992882Y-104210409D01*
X140002945Y-104216172D01*
X140011606Y-104223612D01*
X140013391Y-104225293D01*
X140020635Y-104232832D01*
X140026277Y-104241850D01*
X140030517Y-104254984D01*
X140033556Y-104274872D01*
X140035594Y-104304151D01*
X140036830Y-104345458D01*
X140037465Y-104401431D01*
X140037700Y-104474707D01*
X140037734Y-104567923D01*
X140037697Y-104640713D01*
X140037448Y-104718889D01*
X140036812Y-104779103D01*
X140035615Y-104823982D01*
X140033684Y-104856152D01*
X140030846Y-104878239D01*
X140026927Y-104892870D01*
X140021755Y-104902670D01*
X140015156Y-104910267D01*
X140011822Y-104913444D01*
X140003300Y-104919554D01*
X139991298Y-104924229D01*
X139973087Y-104927659D01*
X139945940Y-104930036D01*
X139907129Y-104931552D01*
X139853924Y-104932398D01*
X139783598Y-104932765D01*
X139693422Y-104932845D01*
X139651314Y-104932833D01*
X139570167Y-104932651D01*
X139507675Y-104932098D01*
X139461109Y-104930982D01*
X139427741Y-104929113D01*
X139404844Y-104926298D01*
X139389688Y-104922346D01*
X139379546Y-104917066D01*
X139371689Y-104910267D01*
X139356963Y-104888667D01*
X139349111Y-104859467D01*
X139354610Y-104835560D01*
X139371689Y-104808667D01*
X139376668Y-104804059D01*
X139386443Y-104797772D01*
X139400559Y-104793146D01*
X139422054Y-104789930D01*
X139453968Y-104787870D01*
X139499342Y-104786712D01*
X139561213Y-104786202D01*
X139642622Y-104786089D01*
X139890978Y-104786089D01*
X139890978Y-104628045D01*
X139729801Y-104628045D01*
X139693983Y-104627899D01*
X139628359Y-104626176D01*
X139581118Y-104621741D01*
X139549383Y-104613637D01*
X139530277Y-104600906D01*
X139520923Y-104582592D01*
X139518445Y-104557738D01*
X139519242Y-104537482D01*
X139524494Y-104515656D01*
X139537288Y-104500304D01*
X139560628Y-104490309D01*
X139597517Y-104484553D01*
X139650959Y-104481919D01*
X139723958Y-104481289D01*
X139892105Y-104481289D01*
X139888719Y-104416378D01*
X139885334Y-104351467D01*
X139637617Y-104348418D01*
X139575026Y-104347539D01*
X139506565Y-104346095D01*
X139455661Y-104344164D01*
X139419408Y-104341514D01*
X139394901Y-104337910D01*
X139379235Y-104333121D01*
X139369506Y-104326913D01*
X139363491Y-104320510D01*
X139350482Y-104288828D01*
X139354043Y-104253142D01*
X139373818Y-104222084D01*
X139377069Y-104219161D01*
X139386049Y-104212810D01*
X139398153Y-104207957D01*
X139416159Y-104204403D01*
X139442847Y-104201946D01*
X139480997Y-104200385D01*
X139533386Y-104199518D01*
X139602794Y-104199146D01*
X139692001Y-104199067D01*
X139746734Y-104199083D01*
G36*
X139746734Y-104199083D02*
G01*
X139823831Y-104199275D01*
X139882777Y-104199860D01*
X139926364Y-104201051D01*
X139957383Y-104203064D01*
X139978625Y-104206112D01*
X139992882Y-104210409D01*
X140002945Y-104216172D01*
X140011606Y-104223612D01*
X140013391Y-104225293D01*
X140020635Y-104232832D01*
X140026277Y-104241850D01*
X140030517Y-104254984D01*
X140033556Y-104274872D01*
X140035594Y-104304151D01*
X140036830Y-104345458D01*
X140037465Y-104401431D01*
X140037700Y-104474707D01*
X140037734Y-104567923D01*
X140037697Y-104640713D01*
X140037448Y-104718889D01*
X140036812Y-104779103D01*
X140035615Y-104823982D01*
X140033684Y-104856152D01*
X140030846Y-104878239D01*
X140026927Y-104892870D01*
X140021755Y-104902670D01*
X140015156Y-104910267D01*
X140011822Y-104913444D01*
X140003300Y-104919554D01*
X139991298Y-104924229D01*
X139973087Y-104927659D01*
X139945940Y-104930036D01*
X139907129Y-104931552D01*
X139853924Y-104932398D01*
X139783598Y-104932765D01*
X139693422Y-104932845D01*
X139651314Y-104932833D01*
X139570167Y-104932651D01*
X139507675Y-104932098D01*
X139461109Y-104930982D01*
X139427741Y-104929113D01*
X139404844Y-104926298D01*
X139389688Y-104922346D01*
X139379546Y-104917066D01*
X139371689Y-104910267D01*
X139356963Y-104888667D01*
X139349111Y-104859467D01*
X139354610Y-104835560D01*
X139371689Y-104808667D01*
X139376668Y-104804059D01*
X139386443Y-104797772D01*
X139400559Y-104793146D01*
X139422054Y-104789930D01*
X139453968Y-104787870D01*
X139499342Y-104786712D01*
X139561213Y-104786202D01*
X139642622Y-104786089D01*
X139890978Y-104786089D01*
X139890978Y-104628045D01*
X139729801Y-104628045D01*
X139693983Y-104627899D01*
X139628359Y-104626176D01*
X139581118Y-104621741D01*
X139549383Y-104613637D01*
X139530277Y-104600906D01*
X139520923Y-104582592D01*
X139518445Y-104557738D01*
X139519242Y-104537482D01*
X139524494Y-104515656D01*
X139537288Y-104500304D01*
X139560628Y-104490309D01*
X139597517Y-104484553D01*
X139650959Y-104481919D01*
X139723958Y-104481289D01*
X139892105Y-104481289D01*
X139888719Y-104416378D01*
X139885334Y-104351467D01*
X139637617Y-104348418D01*
X139575026Y-104347539D01*
X139506565Y-104346095D01*
X139455661Y-104344164D01*
X139419408Y-104341514D01*
X139394901Y-104337910D01*
X139379235Y-104333121D01*
X139369506Y-104326913D01*
X139363491Y-104320510D01*
X139350482Y-104288828D01*
X139354043Y-104253142D01*
X139373818Y-104222084D01*
X139377069Y-104219161D01*
X139386049Y-104212810D01*
X139398153Y-104207957D01*
X139416159Y-104204403D01*
X139442847Y-104201946D01*
X139480997Y-104200385D01*
X139533386Y-104199518D01*
X139602794Y-104199146D01*
X139692001Y-104199067D01*
X139746734Y-104199083D01*
G37*
X131179702Y-104208478D02*
X131197663Y-104226989D01*
X131218263Y-104258071D01*
X131243095Y-104303756D01*
X131273750Y-104366078D01*
X131311820Y-104447071D01*
X131326454Y-104478454D01*
X131356203Y-104541638D01*
X131382297Y-104596244D01*
X131403292Y-104639290D01*
X131417739Y-104667793D01*
X131424191Y-104678770D01*
X131425550Y-104678189D01*
X131435542Y-104664242D01*
X131452833Y-104634704D01*
X131475430Y-104593087D01*
X131501338Y-104542903D01*
X131517311Y-104511414D01*
X131546261Y-104456061D01*
X131568749Y-104417044D01*
X131586965Y-104391566D01*
X131603096Y-104376831D01*
X131619330Y-104370042D01*
X131637857Y-104368400D01*
X131648360Y-104368875D01*
X131664476Y-104373082D01*
X131679790Y-104383946D01*
X131696388Y-104404219D01*
X131716357Y-104436654D01*
X131741783Y-104484004D01*
X131774752Y-104549022D01*
X131784485Y-104568277D01*
X131808943Y-104614946D01*
X131829178Y-104651109D01*
X131843311Y-104673497D01*
X131849460Y-104678845D01*
X131850827Y-104675573D01*
X131860202Y-104654664D01*
X131877062Y-104617725D01*
X131899979Y-104567874D01*
X131927520Y-104508226D01*
X131958255Y-104441898D01*
X131984970Y-104384677D01*
X132014593Y-104322688D01*
X132037664Y-104276949D01*
X132055643Y-104244908D01*
X132069990Y-104224014D01*
X132082166Y-104211718D01*
X132093632Y-104205466D01*
X132103042Y-104202574D01*
X132128147Y-104202425D01*
X132155290Y-104217768D01*
X132156590Y-104218753D01*
X132178674Y-104241388D01*
X132189723Y-104263613D01*
X132189769Y-104264253D01*
X132185228Y-104281915D01*
X132172364Y-104316481D01*
X132152605Y-104364826D01*
X132127381Y-104423825D01*
X132098119Y-104490355D01*
X132066250Y-104561291D01*
X132033201Y-104633507D01*
X132000401Y-104703880D01*
X131969280Y-104769285D01*
X131941265Y-104826597D01*
X131917786Y-104872692D01*
X131900272Y-104904446D01*
X131890151Y-104918733D01*
X131855743Y-104932102D01*
X131814046Y-104925741D01*
X131808681Y-104921044D01*
X131792852Y-104898893D01*
X131770650Y-104862132D01*
X131744233Y-104814415D01*
X131715760Y-104759393D01*
X131635986Y-104600150D01*
X131562799Y-104746742D01*
X131553103Y-104766032D01*
X131526125Y-104818380D01*
X131502096Y-104863170D01*
X131483332Y-104896154D01*
X131472146Y-104913089D01*
X131471000Y-104914332D01*
X131442879Y-104929619D01*
X131407817Y-104931302D01*
X131376776Y-104918733D01*
X131374350Y-104915884D01*
X131362090Y-104895259D01*
X131342352Y-104857708D01*
X131316448Y-104805880D01*
X131285685Y-104742423D01*
X131251375Y-104669985D01*
X131214825Y-104591216D01*
X131194585Y-104547093D01*
X131157812Y-104466365D01*
X131129355Y-104402687D01*
X131108331Y-104353752D01*
X131093854Y-104317257D01*
X131085039Y-104290895D01*
X131081004Y-104272361D01*
X131080862Y-104259352D01*
X131083730Y-104249561D01*
X131098387Y-104228678D01*
X131124990Y-104208377D01*
X131125745Y-104208035D01*
X131145335Y-104201034D01*
X131162790Y-104200504D01*
X131179702Y-104208478D01*
G36*
X131179702Y-104208478D02*
G01*
X131197663Y-104226989D01*
X131218263Y-104258071D01*
X131243095Y-104303756D01*
X131273750Y-104366078D01*
X131311820Y-104447071D01*
X131326454Y-104478454D01*
X131356203Y-104541638D01*
X131382297Y-104596244D01*
X131403292Y-104639290D01*
X131417739Y-104667793D01*
X131424191Y-104678770D01*
X131425550Y-104678189D01*
X131435542Y-104664242D01*
X131452833Y-104634704D01*
X131475430Y-104593087D01*
X131501338Y-104542903D01*
X131517311Y-104511414D01*
X131546261Y-104456061D01*
X131568749Y-104417044D01*
X131586965Y-104391566D01*
X131603096Y-104376831D01*
X131619330Y-104370042D01*
X131637857Y-104368400D01*
X131648360Y-104368875D01*
X131664476Y-104373082D01*
X131679790Y-104383946D01*
X131696388Y-104404219D01*
X131716357Y-104436654D01*
X131741783Y-104484004D01*
X131774752Y-104549022D01*
X131784485Y-104568277D01*
X131808943Y-104614946D01*
X131829178Y-104651109D01*
X131843311Y-104673497D01*
X131849460Y-104678845D01*
X131850827Y-104675573D01*
X131860202Y-104654664D01*
X131877062Y-104617725D01*
X131899979Y-104567874D01*
X131927520Y-104508226D01*
X131958255Y-104441898D01*
X131984970Y-104384677D01*
X132014593Y-104322688D01*
X132037664Y-104276949D01*
X132055643Y-104244908D01*
X132069990Y-104224014D01*
X132082166Y-104211718D01*
X132093632Y-104205466D01*
X132103042Y-104202574D01*
X132128147Y-104202425D01*
X132155290Y-104217768D01*
X132156590Y-104218753D01*
X132178674Y-104241388D01*
X132189723Y-104263613D01*
X132189769Y-104264253D01*
X132185228Y-104281915D01*
X132172364Y-104316481D01*
X132152605Y-104364826D01*
X132127381Y-104423825D01*
X132098119Y-104490355D01*
X132066250Y-104561291D01*
X132033201Y-104633507D01*
X132000401Y-104703880D01*
X131969280Y-104769285D01*
X131941265Y-104826597D01*
X131917786Y-104872692D01*
X131900272Y-104904446D01*
X131890151Y-104918733D01*
X131855743Y-104932102D01*
X131814046Y-104925741D01*
X131808681Y-104921044D01*
X131792852Y-104898893D01*
X131770650Y-104862132D01*
X131744233Y-104814415D01*
X131715760Y-104759393D01*
X131635986Y-104600150D01*
X131562799Y-104746742D01*
X131553103Y-104766032D01*
X131526125Y-104818380D01*
X131502096Y-104863170D01*
X131483332Y-104896154D01*
X131472146Y-104913089D01*
X131471000Y-104914332D01*
X131442879Y-104929619D01*
X131407817Y-104931302D01*
X131376776Y-104918733D01*
X131374350Y-104915884D01*
X131362090Y-104895259D01*
X131342352Y-104857708D01*
X131316448Y-104805880D01*
X131285685Y-104742423D01*
X131251375Y-104669985D01*
X131214825Y-104591216D01*
X131194585Y-104547093D01*
X131157812Y-104466365D01*
X131129355Y-104402687D01*
X131108331Y-104353752D01*
X131093854Y-104317257D01*
X131085039Y-104290895D01*
X131081004Y-104272361D01*
X131080862Y-104259352D01*
X131083730Y-104249561D01*
X131098387Y-104228678D01*
X131124990Y-104208377D01*
X131125745Y-104208035D01*
X131145335Y-104201034D01*
X131162790Y-104200504D01*
X131179702Y-104208478D01*
G37*
X138730853Y-104199936D02*
X138797100Y-104205366D01*
X138852400Y-104214964D01*
X138903283Y-104229825D01*
X138974595Y-104262958D01*
X139025752Y-104305640D01*
X139056575Y-104357705D01*
X139066889Y-104418983D01*
X139065952Y-104450232D01*
X139060160Y-104475029D01*
X139045353Y-104496699D01*
X139017380Y-104524049D01*
X139009402Y-104531378D01*
X138985692Y-104552281D01*
X138963298Y-104569251D01*
X138939265Y-104583205D01*
X138910637Y-104595056D01*
X138874460Y-104605720D01*
X138827780Y-104616111D01*
X138767641Y-104627146D01*
X138691090Y-104639738D01*
X138595171Y-104654804D01*
X138576808Y-104657838D01*
X138514478Y-104671458D01*
X138469260Y-104687192D01*
X138442976Y-104704263D01*
X138437447Y-104721897D01*
X138440068Y-104726168D01*
X138458000Y-104741233D01*
X138486126Y-104757867D01*
X138498926Y-104763857D01*
X138520224Y-104771050D01*
X138546610Y-104775827D01*
X138582454Y-104778646D01*
X138632128Y-104779964D01*
X138700000Y-104780237D01*
X138717785Y-104780164D01*
X138785406Y-104779053D01*
X138850345Y-104776828D01*
X138905970Y-104773762D01*
X138945651Y-104770127D01*
X138981162Y-104766059D01*
X139010415Y-104765276D01*
X139029315Y-104769876D01*
X139044429Y-104780551D01*
X139048085Y-104784144D01*
X139064427Y-104815918D01*
X139063107Y-104851572D01*
X139044150Y-104882190D01*
X139023780Y-104893796D01*
X138987796Y-104906491D01*
X138945372Y-104916541D01*
X138941922Y-104917140D01*
X138899252Y-104922356D01*
X138841866Y-104926730D01*
X138776849Y-104929818D01*
X138711289Y-104931177D01*
X138695057Y-104931218D01*
X138596744Y-104928741D01*
X138516692Y-104920735D01*
X138451513Y-104906203D01*
X138397817Y-104884149D01*
X138352216Y-104853576D01*
X138311323Y-104813486D01*
X138291202Y-104787259D01*
X138279576Y-104757712D01*
X138276667Y-104717995D01*
X138276808Y-104706026D01*
X138280681Y-104673345D01*
X138293065Y-104646819D01*
X138318230Y-104615971D01*
X138339442Y-104593831D01*
X138365838Y-104571285D01*
X138395555Y-104552917D01*
X138431785Y-104537661D01*
X138477717Y-104524449D01*
X138536544Y-104512214D01*
X138611456Y-104499889D01*
X138705645Y-104486406D01*
X138750957Y-104479396D01*
X138818911Y-104464837D01*
X138868047Y-104448337D01*
X138897614Y-104430439D01*
X138906864Y-104411685D01*
X138895048Y-104392615D01*
X138861416Y-104373771D01*
X138858370Y-104372557D01*
X138812011Y-104360479D01*
X138749361Y-104352279D01*
X138675927Y-104348119D01*
X138597217Y-104348161D01*
X138518739Y-104352569D01*
X138446000Y-104361505D01*
X138442073Y-104362154D01*
X138393257Y-104369861D01*
X138361005Y-104373473D01*
X138340008Y-104372876D01*
X138324954Y-104367954D01*
X138310534Y-104358596D01*
X138309364Y-104357725D01*
X138284847Y-104327351D01*
X138280054Y-104291850D01*
X138295860Y-104257269D01*
X138300406Y-104252813D01*
X138330020Y-104237673D01*
X138377002Y-104224550D01*
X138437306Y-104213750D01*
X138506888Y-104205581D01*
X138581703Y-104200351D01*
X138657706Y-104198367D01*
X138730853Y-104199936D01*
G36*
X138730853Y-104199936D02*
G01*
X138797100Y-104205366D01*
X138852400Y-104214964D01*
X138903283Y-104229825D01*
X138974595Y-104262958D01*
X139025752Y-104305640D01*
X139056575Y-104357705D01*
X139066889Y-104418983D01*
X139065952Y-104450232D01*
X139060160Y-104475029D01*
X139045353Y-104496699D01*
X139017380Y-104524049D01*
X139009402Y-104531378D01*
X138985692Y-104552281D01*
X138963298Y-104569251D01*
X138939265Y-104583205D01*
X138910637Y-104595056D01*
X138874460Y-104605720D01*
X138827780Y-104616111D01*
X138767641Y-104627146D01*
X138691090Y-104639738D01*
X138595171Y-104654804D01*
X138576808Y-104657838D01*
X138514478Y-104671458D01*
X138469260Y-104687192D01*
X138442976Y-104704263D01*
X138437447Y-104721897D01*
X138440068Y-104726168D01*
X138458000Y-104741233D01*
X138486126Y-104757867D01*
X138498926Y-104763857D01*
X138520224Y-104771050D01*
X138546610Y-104775827D01*
X138582454Y-104778646D01*
X138632128Y-104779964D01*
X138700000Y-104780237D01*
X138717785Y-104780164D01*
X138785406Y-104779053D01*
X138850345Y-104776828D01*
X138905970Y-104773762D01*
X138945651Y-104770127D01*
X138981162Y-104766059D01*
X139010415Y-104765276D01*
X139029315Y-104769876D01*
X139044429Y-104780551D01*
X139048085Y-104784144D01*
X139064427Y-104815918D01*
X139063107Y-104851572D01*
X139044150Y-104882190D01*
X139023780Y-104893796D01*
X138987796Y-104906491D01*
X138945372Y-104916541D01*
X138941922Y-104917140D01*
X138899252Y-104922356D01*
X138841866Y-104926730D01*
X138776849Y-104929818D01*
X138711289Y-104931177D01*
X138695057Y-104931218D01*
X138596744Y-104928741D01*
X138516692Y-104920735D01*
X138451513Y-104906203D01*
X138397817Y-104884149D01*
X138352216Y-104853576D01*
X138311323Y-104813486D01*
X138291202Y-104787259D01*
X138279576Y-104757712D01*
X138276667Y-104717995D01*
X138276808Y-104706026D01*
X138280681Y-104673345D01*
X138293065Y-104646819D01*
X138318230Y-104615971D01*
X138339442Y-104593831D01*
X138365838Y-104571285D01*
X138395555Y-104552917D01*
X138431785Y-104537661D01*
X138477717Y-104524449D01*
X138536544Y-104512214D01*
X138611456Y-104499889D01*
X138705645Y-104486406D01*
X138750957Y-104479396D01*
X138818911Y-104464837D01*
X138868047Y-104448337D01*
X138897614Y-104430439D01*
X138906864Y-104411685D01*
X138895048Y-104392615D01*
X138861416Y-104373771D01*
X138858370Y-104372557D01*
X138812011Y-104360479D01*
X138749361Y-104352279D01*
X138675927Y-104348119D01*
X138597217Y-104348161D01*
X138518739Y-104352569D01*
X138446000Y-104361505D01*
X138442073Y-104362154D01*
X138393257Y-104369861D01*
X138361005Y-104373473D01*
X138340008Y-104372876D01*
X138324954Y-104367954D01*
X138310534Y-104358596D01*
X138309364Y-104357725D01*
X138284847Y-104327351D01*
X138280054Y-104291850D01*
X138295860Y-104257269D01*
X138300406Y-104252813D01*
X138330020Y-104237673D01*
X138377002Y-104224550D01*
X138437306Y-104213750D01*
X138506888Y-104205581D01*
X138581703Y-104200351D01*
X138657706Y-104198367D01*
X138730853Y-104199936D01*
G37*
X134878711Y-99892033D02*
X134974268Y-99909523D01*
X135138558Y-99954564D01*
X135292589Y-100017656D01*
X135438509Y-100099915D01*
X135578466Y-100202457D01*
X135714608Y-100326399D01*
X135758473Y-100371661D01*
X135870758Y-100503865D01*
X135963972Y-100641832D01*
X136040719Y-100789750D01*
X136103603Y-100951803D01*
X136107420Y-100963391D01*
X136157507Y-101149392D01*
X136190899Y-101345521D01*
X136207584Y-101547568D01*
X136207551Y-101751325D01*
X136190791Y-101952581D01*
X136157292Y-102147128D01*
X136107044Y-102330756D01*
X136063190Y-102448053D01*
X135985348Y-102610951D01*
X135891828Y-102764866D01*
X135784822Y-102906671D01*
X135666519Y-103033239D01*
X135539111Y-103141441D01*
X135461606Y-103194120D01*
X135334725Y-103263750D01*
X135197243Y-103322468D01*
X135055716Y-103367587D01*
X134916702Y-103396422D01*
X134902597Y-103398106D01*
X134859153Y-103401434D01*
X134801723Y-103404275D01*
X134736122Y-103406373D01*
X134668167Y-103407468D01*
X134541378Y-103405140D01*
X134393673Y-103392136D01*
X134255779Y-103367133D01*
X134122014Y-103329318D01*
X134098562Y-103320889D01*
X134050612Y-103301408D01*
X133994140Y-103276473D01*
X133932379Y-103247722D01*
X133868563Y-103216790D01*
X133805926Y-103185315D01*
X133747703Y-103154934D01*
X133697127Y-103127283D01*
X133657433Y-103103999D01*
X133631854Y-103086718D01*
X133623625Y-103077079D01*
X133625076Y-103073984D01*
X133636250Y-103054079D01*
X133657134Y-103018420D01*
X133686265Y-102969459D01*
X133722181Y-102909646D01*
X133763420Y-102841433D01*
X133808517Y-102767271D01*
X133989785Y-102470008D01*
X134036315Y-102514539D01*
X134127723Y-102592865D01*
X134241334Y-102667439D01*
X134359122Y-102721474D01*
X134479559Y-102754290D01*
X134601117Y-102765211D01*
X134642585Y-102763868D01*
X134760080Y-102745612D01*
X134870089Y-102706617D01*
X134971430Y-102647670D01*
X135062921Y-102569557D01*
X135143380Y-102473064D01*
X135211627Y-102358978D01*
X135227908Y-102324724D01*
X135273982Y-102201240D01*
X135309106Y-102062918D01*
X135333197Y-101913561D01*
X135346173Y-101756973D01*
X135347949Y-101596956D01*
X135338443Y-101437314D01*
X135317572Y-101281850D01*
X135285252Y-101134366D01*
X135241399Y-100998667D01*
X135203982Y-100912076D01*
X135139185Y-100798688D01*
X135063772Y-100705070D01*
X134977418Y-100630959D01*
X134879795Y-100576094D01*
X134770577Y-100540212D01*
X134649439Y-100523051D01*
X134580038Y-100521880D01*
X134457168Y-100536141D01*
X134341664Y-100571241D01*
X134234953Y-100626682D01*
X134138464Y-100701964D01*
X134122720Y-100716440D01*
X134092150Y-100742962D01*
X134069809Y-100760138D01*
X134059691Y-100764787D01*
X134057706Y-100762597D01*
X134043241Y-100743721D01*
X134019400Y-100710397D01*
X133988029Y-100665380D01*
X133950974Y-100611425D01*
X133910083Y-100551285D01*
X133867202Y-100487718D01*
X133824178Y-100423476D01*
X133782857Y-100361315D01*
X133745086Y-100303991D01*
X133712712Y-100254257D01*
X133687582Y-100214868D01*
X133671542Y-100188580D01*
X133666439Y-100178147D01*
X133671050Y-100173941D01*
X133690267Y-100168933D01*
X133699838Y-100166386D01*
X133727809Y-100155249D01*
X133769448Y-100136802D01*
X133820995Y-100112725D01*
X133878690Y-100084699D01*
X133889957Y-100079154D01*
X134067687Y-99999889D01*
X134237490Y-99940385D01*
X134401430Y-99900245D01*
X134561571Y-99879071D01*
X134719977Y-99876466D01*
X134878711Y-99892033D01*
G36*
X134878711Y-99892033D02*
G01*
X134974268Y-99909523D01*
X135138558Y-99954564D01*
X135292589Y-100017656D01*
X135438509Y-100099915D01*
X135578466Y-100202457D01*
X135714608Y-100326399D01*
X135758473Y-100371661D01*
X135870758Y-100503865D01*
X135963972Y-100641832D01*
X136040719Y-100789750D01*
X136103603Y-100951803D01*
X136107420Y-100963391D01*
X136157507Y-101149392D01*
X136190899Y-101345521D01*
X136207584Y-101547568D01*
X136207551Y-101751325D01*
X136190791Y-101952581D01*
X136157292Y-102147128D01*
X136107044Y-102330756D01*
X136063190Y-102448053D01*
X135985348Y-102610951D01*
X135891828Y-102764866D01*
X135784822Y-102906671D01*
X135666519Y-103033239D01*
X135539111Y-103141441D01*
X135461606Y-103194120D01*
X135334725Y-103263750D01*
X135197243Y-103322468D01*
X135055716Y-103367587D01*
X134916702Y-103396422D01*
X134902597Y-103398106D01*
X134859153Y-103401434D01*
X134801723Y-103404275D01*
X134736122Y-103406373D01*
X134668167Y-103407468D01*
X134541378Y-103405140D01*
X134393673Y-103392136D01*
X134255779Y-103367133D01*
X134122014Y-103329318D01*
X134098562Y-103320889D01*
X134050612Y-103301408D01*
X133994140Y-103276473D01*
X133932379Y-103247722D01*
X133868563Y-103216790D01*
X133805926Y-103185315D01*
X133747703Y-103154934D01*
X133697127Y-103127283D01*
X133657433Y-103103999D01*
X133631854Y-103086718D01*
X133623625Y-103077079D01*
X133625076Y-103073984D01*
X133636250Y-103054079D01*
X133657134Y-103018420D01*
X133686265Y-102969459D01*
X133722181Y-102909646D01*
X133763420Y-102841433D01*
X133808517Y-102767271D01*
X133989785Y-102470008D01*
X134036315Y-102514539D01*
X134127723Y-102592865D01*
X134241334Y-102667439D01*
X134359122Y-102721474D01*
X134479559Y-102754290D01*
X134601117Y-102765211D01*
X134642585Y-102763868D01*
X134760080Y-102745612D01*
X134870089Y-102706617D01*
X134971430Y-102647670D01*
X135062921Y-102569557D01*
X135143380Y-102473064D01*
X135211627Y-102358978D01*
X135227908Y-102324724D01*
X135273982Y-102201240D01*
X135309106Y-102062918D01*
X135333197Y-101913561D01*
X135346173Y-101756973D01*
X135347949Y-101596956D01*
X135338443Y-101437314D01*
X135317572Y-101281850D01*
X135285252Y-101134366D01*
X135241399Y-100998667D01*
X135203982Y-100912076D01*
X135139185Y-100798688D01*
X135063772Y-100705070D01*
X134977418Y-100630959D01*
X134879795Y-100576094D01*
X134770577Y-100540212D01*
X134649439Y-100523051D01*
X134580038Y-100521880D01*
X134457168Y-100536141D01*
X134341664Y-100571241D01*
X134234953Y-100626682D01*
X134138464Y-100701964D01*
X134122720Y-100716440D01*
X134092150Y-100742962D01*
X134069809Y-100760138D01*
X134059691Y-100764787D01*
X134057706Y-100762597D01*
X134043241Y-100743721D01*
X134019400Y-100710397D01*
X133988029Y-100665380D01*
X133950974Y-100611425D01*
X133910083Y-100551285D01*
X133867202Y-100487718D01*
X133824178Y-100423476D01*
X133782857Y-100361315D01*
X133745086Y-100303991D01*
X133712712Y-100254257D01*
X133687582Y-100214868D01*
X133671542Y-100188580D01*
X133666439Y-100178147D01*
X133671050Y-100173941D01*
X133690267Y-100168933D01*
X133699838Y-100166386D01*
X133727809Y-100155249D01*
X133769448Y-100136802D01*
X133820995Y-100112725D01*
X133878690Y-100084699D01*
X133889957Y-100079154D01*
X134067687Y-99999889D01*
X134237490Y-99940385D01*
X134401430Y-99900245D01*
X134561571Y-99879071D01*
X134719977Y-99876466D01*
X134878711Y-99892033D01*
G37*
X131075994Y-102172711D02*
X131075268Y-102250158D01*
X131066689Y-102401594D01*
X131047833Y-102538283D01*
X131017837Y-102664276D01*
X130975836Y-102783625D01*
X130920969Y-102900381D01*
X130854167Y-103011179D01*
X130763363Y-103124739D01*
X130659708Y-103220211D01*
X130543887Y-103297073D01*
X130416586Y-103354797D01*
X130278489Y-103392858D01*
X130240793Y-103398666D01*
X130161752Y-103404396D01*
X130073629Y-103404583D01*
X129984236Y-103399539D01*
X129901384Y-103389578D01*
X129832887Y-103375012D01*
X129802035Y-103365364D01*
X129724730Y-103335123D01*
X129647679Y-103297617D01*
X129578200Y-103256614D01*
X129523615Y-103215879D01*
X129500916Y-103196505D01*
X129478201Y-103178662D01*
X129466779Y-103171778D01*
X129465537Y-103173424D01*
X129462728Y-103191205D01*
X129460776Y-103224370D01*
X129460045Y-103267733D01*
X129460045Y-103363689D01*
X128601896Y-103363689D01*
X128636161Y-103302974D01*
X128641355Y-103293868D01*
X128649715Y-103279249D01*
X128657288Y-103265173D01*
X128664112Y-103250540D01*
X128670227Y-103234249D01*
X128675673Y-103215198D01*
X128680487Y-103192286D01*
X128684708Y-103164413D01*
X128688377Y-103130478D01*
X128691531Y-103089379D01*
X128694211Y-103040015D01*
X128696454Y-102981286D01*
X128698299Y-102912090D01*
X128699787Y-102831326D01*
X128700955Y-102737894D01*
X128701844Y-102630692D01*
X128702491Y-102508620D01*
X128702936Y-102370576D01*
X128703218Y-102215459D01*
X128703375Y-102042168D01*
X128703448Y-101849603D01*
X128703474Y-101636662D01*
X128703485Y-101500530D01*
X129505200Y-101500530D01*
X129505200Y-102650721D01*
X129575756Y-102697089D01*
X129616417Y-102720791D01*
X129670546Y-102746639D01*
X129719689Y-102764829D01*
X129783165Y-102780551D01*
X129879331Y-102791541D01*
X129963900Y-102783365D01*
X130037219Y-102755805D01*
X130099637Y-102708642D01*
X130151502Y-102641658D01*
X130193160Y-102554633D01*
X130224962Y-102447350D01*
X130227545Y-102435009D01*
X130236000Y-102373772D01*
X130241663Y-102296692D01*
X130244576Y-102209002D01*
X130244783Y-102115934D01*
X130242330Y-102022720D01*
X130237261Y-101934594D01*
X130229619Y-101856788D01*
X130219448Y-101794533D01*
X130218167Y-101788666D01*
X130189126Y-101678121D01*
X130154610Y-101587575D01*
X130113456Y-101514953D01*
X130064499Y-101458181D01*
X130006574Y-101415184D01*
X129974620Y-101399615D01*
X129901784Y-101380722D01*
X129820443Y-101377465D01*
X129735319Y-101389389D01*
X129651133Y-101416040D01*
X129572608Y-101456962D01*
X129505200Y-101500530D01*
X128703485Y-101500530D01*
X128703493Y-101402245D01*
X128703689Y-99717378D01*
X129609017Y-99717378D01*
X129584585Y-99754067D01*
X129578318Y-99763647D01*
X129552208Y-99809981D01*
X129534469Y-99857102D01*
X129522908Y-99912251D01*
X129515331Y-99982667D01*
X129514839Y-99989650D01*
X129513062Y-100027641D01*
X129511444Y-100081576D01*
X129509999Y-100148703D01*
X129508740Y-100226271D01*
X129507680Y-100311528D01*
X129506829Y-100401724D01*
X129506203Y-100494107D01*
X129505812Y-100585925D01*
X129505670Y-100674427D01*
X129505790Y-100756862D01*
X129506183Y-100830479D01*
X129506862Y-100892526D01*
X129507841Y-100940251D01*
X129509132Y-100970904D01*
X129510747Y-100981733D01*
X129518957Y-100977333D01*
X129540647Y-100962362D01*
X129570014Y-100940448D01*
X129618879Y-100906236D01*
X129707125Y-100859714D01*
X129805916Y-100826046D01*
X129918510Y-100804231D01*
X130048164Y-100793265D01*
X130140670Y-100792219D01*
X130262011Y-100802014D01*
X130372099Y-100826174D01*
X130475389Y-100865785D01*
X130576338Y-100921932D01*
X130621503Y-100952883D01*
X130726911Y-101044115D01*
X130818538Y-101153106D01*
X130896332Y-101279726D01*
X130960241Y-101423845D01*
X131010214Y-101585332D01*
X131046198Y-101764059D01*
X131068143Y-101959895D01*
X131073900Y-102115934D01*
X131075994Y-102172711D01*
G36*
X131075994Y-102172711D02*
G01*
X131075268Y-102250158D01*
X131066689Y-102401594D01*
X131047833Y-102538283D01*
X131017837Y-102664276D01*
X130975836Y-102783625D01*
X130920969Y-102900381D01*
X130854167Y-103011179D01*
X130763363Y-103124739D01*
X130659708Y-103220211D01*
X130543887Y-103297073D01*
X130416586Y-103354797D01*
X130278489Y-103392858D01*
X130240793Y-103398666D01*
X130161752Y-103404396D01*
X130073629Y-103404583D01*
X129984236Y-103399539D01*
X129901384Y-103389578D01*
X129832887Y-103375012D01*
X129802035Y-103365364D01*
X129724730Y-103335123D01*
X129647679Y-103297617D01*
X129578200Y-103256614D01*
X129523615Y-103215879D01*
X129500916Y-103196505D01*
X129478201Y-103178662D01*
X129466779Y-103171778D01*
X129465537Y-103173424D01*
X129462728Y-103191205D01*
X129460776Y-103224370D01*
X129460045Y-103267733D01*
X129460045Y-103363689D01*
X128601896Y-103363689D01*
X128636161Y-103302974D01*
X128641355Y-103293868D01*
X128649715Y-103279249D01*
X128657288Y-103265173D01*
X128664112Y-103250540D01*
X128670227Y-103234249D01*
X128675673Y-103215198D01*
X128680487Y-103192286D01*
X128684708Y-103164413D01*
X128688377Y-103130478D01*
X128691531Y-103089379D01*
X128694211Y-103040015D01*
X128696454Y-102981286D01*
X128698299Y-102912090D01*
X128699787Y-102831326D01*
X128700955Y-102737894D01*
X128701844Y-102630692D01*
X128702491Y-102508620D01*
X128702936Y-102370576D01*
X128703218Y-102215459D01*
X128703375Y-102042168D01*
X128703448Y-101849603D01*
X128703474Y-101636662D01*
X128703485Y-101500530D01*
X129505200Y-101500530D01*
X129505200Y-102650721D01*
X129575756Y-102697089D01*
X129616417Y-102720791D01*
X129670546Y-102746639D01*
X129719689Y-102764829D01*
X129783165Y-102780551D01*
X129879331Y-102791541D01*
X129963900Y-102783365D01*
X130037219Y-102755805D01*
X130099637Y-102708642D01*
X130151502Y-102641658D01*
X130193160Y-102554633D01*
X130224962Y-102447350D01*
X130227545Y-102435009D01*
X130236000Y-102373772D01*
X130241663Y-102296692D01*
X130244576Y-102209002D01*
X130244783Y-102115934D01*
X130242330Y-102022720D01*
X130237261Y-101934594D01*
X130229619Y-101856788D01*
X130219448Y-101794533D01*
X130218167Y-101788666D01*
X130189126Y-101678121D01*
X130154610Y-101587575D01*
X130113456Y-101514953D01*
X130064499Y-101458181D01*
X130006574Y-101415184D01*
X129974620Y-101399615D01*
X129901784Y-101380722D01*
X129820443Y-101377465D01*
X129735319Y-101389389D01*
X129651133Y-101416040D01*
X129572608Y-101456962D01*
X129505200Y-101500530D01*
X128703485Y-101500530D01*
X128703493Y-101402245D01*
X128703689Y-99717378D01*
X129609017Y-99717378D01*
X129584585Y-99754067D01*
X129578318Y-99763647D01*
X129552208Y-99809981D01*
X129534469Y-99857102D01*
X129522908Y-99912251D01*
X129515331Y-99982667D01*
X129514839Y-99989650D01*
X129513062Y-100027641D01*
X129511444Y-100081576D01*
X129509999Y-100148703D01*
X129508740Y-100226271D01*
X129507680Y-100311528D01*
X129506829Y-100401724D01*
X129506203Y-100494107D01*
X129505812Y-100585925D01*
X129505670Y-100674427D01*
X129505790Y-100756862D01*
X129506183Y-100830479D01*
X129506862Y-100892526D01*
X129507841Y-100940251D01*
X129509132Y-100970904D01*
X129510747Y-100981733D01*
X129518957Y-100977333D01*
X129540647Y-100962362D01*
X129570014Y-100940448D01*
X129618879Y-100906236D01*
X129707125Y-100859714D01*
X129805916Y-100826046D01*
X129918510Y-100804231D01*
X130048164Y-100793265D01*
X130140670Y-100792219D01*
X130262011Y-100802014D01*
X130372099Y-100826174D01*
X130475389Y-100865785D01*
X130576338Y-100921932D01*
X130621503Y-100952883D01*
X130726911Y-101044115D01*
X130818538Y-101153106D01*
X130896332Y-101279726D01*
X130960241Y-101423845D01*
X131010214Y-101585332D01*
X131046198Y-101764059D01*
X131068143Y-101959895D01*
X131073900Y-102115934D01*
X131075994Y-102172711D01*
G37*
X133617755Y-102573467D02*
X133617261Y-102607363D01*
X133613632Y-102682202D01*
X133606022Y-102744401D01*
X133593688Y-102800984D01*
X133549313Y-102927076D01*
X133486400Y-103041679D01*
X133406238Y-103142568D01*
X133309740Y-103228924D01*
X133197822Y-103299932D01*
X133071397Y-103354776D01*
X132931378Y-103392638D01*
X132895149Y-103398351D01*
X132816155Y-103404313D01*
X132727841Y-103404646D01*
X132638075Y-103399659D01*
X132554722Y-103389666D01*
X132485651Y-103374978D01*
X132399187Y-103344749D01*
X132289286Y-103290057D01*
X132191956Y-103222543D01*
X132129867Y-103171556D01*
X132126605Y-103267622D01*
X132123343Y-103363689D01*
X131700450Y-103363689D01*
X131689543Y-103363686D01*
X131595056Y-103363380D01*
X131508331Y-103362616D01*
X131431837Y-103361451D01*
X131368043Y-103359942D01*
X131319418Y-103358147D01*
X131288433Y-103356121D01*
X131277556Y-103353922D01*
X131277578Y-103353463D01*
X131284614Y-103337910D01*
X131300434Y-103315071D01*
X131304734Y-103309638D01*
X131315777Y-103295606D01*
X131325311Y-103282186D01*
X131333461Y-103267722D01*
X131340352Y-103250556D01*
X131346111Y-103229034D01*
X131350862Y-103201498D01*
X131354731Y-103166292D01*
X131357844Y-103121760D01*
X131360325Y-103066246D01*
X131362300Y-102998093D01*
X131363894Y-102915645D01*
X131365234Y-102817246D01*
X131366444Y-102701239D01*
X131367649Y-102565968D01*
X131368595Y-102454586D01*
X132169378Y-102454586D01*
X132169378Y-102650462D01*
X132214048Y-102706973D01*
X132226785Y-102722212D01*
X132273604Y-102764844D01*
X132334255Y-102800672D01*
X132344897Y-102805850D01*
X132383676Y-102822745D01*
X132418692Y-102832909D01*
X132458722Y-102838325D01*
X132512541Y-102840978D01*
X132530648Y-102841383D01*
X132606011Y-102838540D01*
X132666743Y-102826620D01*
X132718452Y-102804037D01*
X132766746Y-102769211D01*
X132771803Y-102764798D01*
X132820272Y-102709160D01*
X132848459Y-102645333D01*
X132857752Y-102570282D01*
X132850520Y-102498693D01*
X132825796Y-102435645D01*
X132781249Y-102377758D01*
X132726319Y-102330808D01*
X132653894Y-102290961D01*
X132567340Y-102263263D01*
X132464670Y-102247096D01*
X132343894Y-102241842D01*
X132335007Y-102241857D01*
X132279660Y-102242655D01*
X132232736Y-102244488D01*
X132198953Y-102247111D01*
X132183028Y-102250274D01*
X132178943Y-102256741D01*
X132174572Y-102278875D01*
X132171604Y-102317988D01*
X132169914Y-102375939D01*
X132169378Y-102454586D01*
X131368595Y-102454586D01*
X131368975Y-102409778D01*
X131370228Y-102267012D01*
X131371651Y-102121942D01*
X131373176Y-101996027D01*
X131374933Y-101887436D01*
X131377051Y-101794334D01*
X131379660Y-101714891D01*
X131382890Y-101647273D01*
X131386869Y-101589649D01*
X131391728Y-101540185D01*
X131397597Y-101497050D01*
X131404604Y-101458410D01*
X131412880Y-101422434D01*
X131422554Y-101387289D01*
X131433756Y-101351142D01*
X131446616Y-101312161D01*
X131462090Y-101269091D01*
X131504994Y-101176871D01*
X131558735Y-101097099D01*
X131627576Y-101022965D01*
X131705185Y-100959405D01*
X131809761Y-100897725D01*
X131929244Y-100850202D01*
X132064508Y-100816567D01*
X132216426Y-100796552D01*
X132385872Y-100789889D01*
X132443890Y-100790287D01*
X132509398Y-100792335D01*
X132570693Y-100796704D01*
X132632097Y-100804035D01*
X132697932Y-100814969D01*
X132772520Y-100830147D01*
X132860184Y-100850209D01*
X132965245Y-100875797D01*
X132993806Y-100882820D01*
X133069054Y-100900776D01*
X133139388Y-100916820D01*
X133200567Y-100930028D01*
X133248354Y-100939474D01*
X133278511Y-100944231D01*
X133306783Y-100947910D01*
X133333060Y-100953187D01*
X133343059Y-100957942D01*
X133339952Y-100966781D01*
X133329194Y-100994072D01*
X133311864Y-101036906D01*
X133289126Y-101092425D01*
X133262147Y-101157772D01*
X133232090Y-101230089D01*
X133225493Y-101245879D01*
X133186907Y-101336484D01*
X133155768Y-101406217D01*
X133131917Y-101455405D01*
X133115198Y-101484374D01*
X133105454Y-101493452D01*
X133097766Y-101491405D01*
X133071415Y-101481760D01*
X133032982Y-101466190D01*
X132987822Y-101446815D01*
X132893293Y-101408814D01*
X132756480Y-101367780D01*
X132615289Y-101342612D01*
X132577314Y-101338611D01*
X132474059Y-101336447D01*
X132386952Y-101349622D01*
X132315129Y-101378756D01*
X132257731Y-101424466D01*
X132213896Y-101487372D01*
X132182762Y-101568092D01*
X132163470Y-101667245D01*
X132156050Y-101726224D01*
X132317936Y-101719445D01*
X132444495Y-101717813D01*
X132595951Y-101724194D01*
X132744396Y-101738777D01*
X132880578Y-101760882D01*
X132945245Y-101775821D01*
X133077490Y-101818741D01*
X133199762Y-101875340D01*
X133309685Y-101944017D01*
X133404883Y-102023170D01*
X133482980Y-102111196D01*
X133541599Y-102206493D01*
X133565595Y-102258864D01*
X133591232Y-102329590D01*
X133607478Y-102400812D01*
X133615822Y-102479712D01*
X133617690Y-102570282D01*
X133617755Y-102573467D01*
G36*
X133617755Y-102573467D02*
G01*
X133617261Y-102607363D01*
X133613632Y-102682202D01*
X133606022Y-102744401D01*
X133593688Y-102800984D01*
X133549313Y-102927076D01*
X133486400Y-103041679D01*
X133406238Y-103142568D01*
X133309740Y-103228924D01*
X133197822Y-103299932D01*
X133071397Y-103354776D01*
X132931378Y-103392638D01*
X132895149Y-103398351D01*
X132816155Y-103404313D01*
X132727841Y-103404646D01*
X132638075Y-103399659D01*
X132554722Y-103389666D01*
X132485651Y-103374978D01*
X132399187Y-103344749D01*
X132289286Y-103290057D01*
X132191956Y-103222543D01*
X132129867Y-103171556D01*
X132126605Y-103267622D01*
X132123343Y-103363689D01*
X131700450Y-103363689D01*
X131689543Y-103363686D01*
X131595056Y-103363380D01*
X131508331Y-103362616D01*
X131431837Y-103361451D01*
X131368043Y-103359942D01*
X131319418Y-103358147D01*
X131288433Y-103356121D01*
X131277556Y-103353922D01*
X131277578Y-103353463D01*
X131284614Y-103337910D01*
X131300434Y-103315071D01*
X131304734Y-103309638D01*
X131315777Y-103295606D01*
X131325311Y-103282186D01*
X131333461Y-103267722D01*
X131340352Y-103250556D01*
X131346111Y-103229034D01*
X131350862Y-103201498D01*
X131354731Y-103166292D01*
X131357844Y-103121760D01*
X131360325Y-103066246D01*
X131362300Y-102998093D01*
X131363894Y-102915645D01*
X131365234Y-102817246D01*
X131366444Y-102701239D01*
X131367649Y-102565968D01*
X131368595Y-102454586D01*
X132169378Y-102454586D01*
X132169378Y-102650462D01*
X132214048Y-102706973D01*
X132226785Y-102722212D01*
X132273604Y-102764844D01*
X132334255Y-102800672D01*
X132344897Y-102805850D01*
X132383676Y-102822745D01*
X132418692Y-102832909D01*
X132458722Y-102838325D01*
X132512541Y-102840978D01*
X132530648Y-102841383D01*
X132606011Y-102838540D01*
X132666743Y-102826620D01*
X132718452Y-102804037D01*
X132766746Y-102769211D01*
X132771803Y-102764798D01*
X132820272Y-102709160D01*
X132848459Y-102645333D01*
X132857752Y-102570282D01*
X132850520Y-102498693D01*
X132825796Y-102435645D01*
X132781249Y-102377758D01*
X132726319Y-102330808D01*
X132653894Y-102290961D01*
X132567340Y-102263263D01*
X132464670Y-102247096D01*
X132343894Y-102241842D01*
X132335007Y-102241857D01*
X132279660Y-102242655D01*
X132232736Y-102244488D01*
X132198953Y-102247111D01*
X132183028Y-102250274D01*
X132178943Y-102256741D01*
X132174572Y-102278875D01*
X132171604Y-102317988D01*
X132169914Y-102375939D01*
X132169378Y-102454586D01*
X131368595Y-102454586D01*
X131368975Y-102409778D01*
X131370228Y-102267012D01*
X131371651Y-102121942D01*
X131373176Y-101996027D01*
X131374933Y-101887436D01*
X131377051Y-101794334D01*
X131379660Y-101714891D01*
X131382890Y-101647273D01*
X131386869Y-101589649D01*
X131391728Y-101540185D01*
X131397597Y-101497050D01*
X131404604Y-101458410D01*
X131412880Y-101422434D01*
X131422554Y-101387289D01*
X131433756Y-101351142D01*
X131446616Y-101312161D01*
X131462090Y-101269091D01*
X131504994Y-101176871D01*
X131558735Y-101097099D01*
X131627576Y-101022965D01*
X131705185Y-100959405D01*
X131809761Y-100897725D01*
X131929244Y-100850202D01*
X132064508Y-100816567D01*
X132216426Y-100796552D01*
X132385872Y-100789889D01*
X132443890Y-100790287D01*
X132509398Y-100792335D01*
X132570693Y-100796704D01*
X132632097Y-100804035D01*
X132697932Y-100814969D01*
X132772520Y-100830147D01*
X132860184Y-100850209D01*
X132965245Y-100875797D01*
X132993806Y-100882820D01*
X133069054Y-100900776D01*
X133139388Y-100916820D01*
X133200567Y-100930028D01*
X133248354Y-100939474D01*
X133278511Y-100944231D01*
X133306783Y-100947910D01*
X133333060Y-100953187D01*
X133343059Y-100957942D01*
X133339952Y-100966781D01*
X133329194Y-100994072D01*
X133311864Y-101036906D01*
X133289126Y-101092425D01*
X133262147Y-101157772D01*
X133232090Y-101230089D01*
X133225493Y-101245879D01*
X133186907Y-101336484D01*
X133155768Y-101406217D01*
X133131917Y-101455405D01*
X133115198Y-101484374D01*
X133105454Y-101493452D01*
X133097766Y-101491405D01*
X133071415Y-101481760D01*
X133032982Y-101466190D01*
X132987822Y-101446815D01*
X132893293Y-101408814D01*
X132756480Y-101367780D01*
X132615289Y-101342612D01*
X132577314Y-101338611D01*
X132474059Y-101336447D01*
X132386952Y-101349622D01*
X132315129Y-101378756D01*
X132257731Y-101424466D01*
X132213896Y-101487372D01*
X132182762Y-101568092D01*
X132163470Y-101667245D01*
X132156050Y-101726224D01*
X132317936Y-101719445D01*
X132444495Y-101717813D01*
X132595951Y-101724194D01*
X132744396Y-101738777D01*
X132880578Y-101760882D01*
X132945245Y-101775821D01*
X133077490Y-101818741D01*
X133199762Y-101875340D01*
X133309685Y-101944017D01*
X133404883Y-102023170D01*
X133482980Y-102111196D01*
X133541599Y-102206493D01*
X133565595Y-102258864D01*
X133591232Y-102329590D01*
X133607478Y-102400812D01*
X133615822Y-102479712D01*
X133617690Y-102570282D01*
X133617755Y-102573467D01*
G37*
X141165614Y-100041792D02*
X141166059Y-100173011D01*
X141166362Y-100320216D01*
X141166548Y-100484349D01*
X141166642Y-100666352D01*
X141166671Y-100867165D01*
X141166661Y-101087732D01*
X141166636Y-101328992D01*
X141166622Y-101591889D01*
X141166622Y-101634040D01*
X141166646Y-101894668D01*
X141166685Y-102133796D01*
X141166708Y-102352360D01*
X141166687Y-102551295D01*
X141166593Y-102731535D01*
X141166395Y-102894015D01*
X141166063Y-103039670D01*
X141165569Y-103169434D01*
X141164883Y-103284243D01*
X141163976Y-103385030D01*
X141162817Y-103472730D01*
X141161378Y-103548279D01*
X141159629Y-103612611D01*
X141157540Y-103666661D01*
X141155083Y-103711363D01*
X141152227Y-103747652D01*
X141148943Y-103776463D01*
X141145202Y-103798731D01*
X141140974Y-103815390D01*
X141136229Y-103827375D01*
X141130939Y-103835621D01*
X141125073Y-103841062D01*
X141118602Y-103844634D01*
X141111497Y-103847270D01*
X141103728Y-103849906D01*
X141095266Y-103853477D01*
X141090908Y-103855145D01*
X141082395Y-103857111D01*
X141069694Y-103858911D01*
X141051885Y-103860555D01*
X141028049Y-103862047D01*
X140997266Y-103863397D01*
X140958617Y-103864611D01*
X140911182Y-103865697D01*
X140854043Y-103866661D01*
X140786279Y-103867511D01*
X140706971Y-103868253D01*
X140615199Y-103868897D01*
X140510044Y-103869447D01*
X140390587Y-103869913D01*
X140255908Y-103870300D01*
X140105088Y-103870616D01*
X139937206Y-103870869D01*
X139751345Y-103871066D01*
X139546583Y-103871213D01*
X139322002Y-103871318D01*
X139076682Y-103871389D01*
X138809704Y-103871432D01*
X138771321Y-103871437D01*
X138505922Y-103871480D01*
X138262050Y-103871525D01*
X138038783Y-103871548D01*
X137835196Y-103871524D01*
X137650367Y-103871430D01*
X137483373Y-103871243D01*
X137333290Y-103870939D01*
X137199196Y-103870494D01*
X137080166Y-103869885D01*
X136975279Y-103869089D01*
X136883610Y-103868080D01*
X136804237Y-103866837D01*
X136736237Y-103865335D01*
X136678686Y-103863551D01*
X136630662Y-103861461D01*
X136591240Y-103859042D01*
X136559499Y-103856270D01*
X136534514Y-103853121D01*
X136515364Y-103849572D01*
X136501123Y-103845598D01*
X136490871Y-103841178D01*
X136483682Y-103836286D01*
X136478635Y-103830900D01*
X136474805Y-103824996D01*
X136471271Y-103818549D01*
X136467108Y-103811537D01*
X136466025Y-103809687D01*
X136463813Y-103804180D01*
X136461786Y-103795868D01*
X136459938Y-103783809D01*
X136458261Y-103767063D01*
X136456745Y-103744687D01*
X136455383Y-103715740D01*
X136454167Y-103679280D01*
X136453089Y-103634367D01*
X136452140Y-103580057D01*
X136451312Y-103515410D01*
X136450597Y-103439484D01*
X136449987Y-103351338D01*
X136449942Y-103342493D01*
X136741378Y-103342493D01*
X136745260Y-103343765D01*
X136768520Y-103345791D01*
X136810874Y-103347626D01*
X136870132Y-103349227D01*
X136944107Y-103350549D01*
X137030610Y-103351548D01*
X137127452Y-103352180D01*
X137232445Y-103352400D01*
X137930651Y-103352400D01*
X139085090Y-103352400D01*
X139084456Y-103276200D01*
X139085574Y-103234160D01*
X139091304Y-103198334D01*
X139103890Y-103160772D01*
X139125568Y-103112577D01*
X139128789Y-103105897D01*
X139154188Y-103056359D01*
X139180996Y-103008369D01*
X139203917Y-102971466D01*
X139208485Y-102964834D01*
X139230516Y-102933593D01*
X139262693Y-102888654D01*
X139303457Y-102832147D01*
X139351245Y-102766204D01*
X139404498Y-102692957D01*
X139461655Y-102614536D01*
X139521155Y-102533072D01*
X139581437Y-102450698D01*
X139640940Y-102369544D01*
X139698105Y-102291742D01*
X139751370Y-102219423D01*
X139799174Y-102154718D01*
X139839957Y-102099759D01*
X139872158Y-102056676D01*
X139894216Y-102027602D01*
X139904571Y-102014667D01*
X139909044Y-102010351D01*
X139913236Y-102008312D01*
X139916643Y-102010926D01*
X139919325Y-102019986D01*
X139921341Y-102037285D01*
X139922748Y-102064614D01*
X139923605Y-102103765D01*
X139923970Y-102156533D01*
X139923903Y-102224707D01*
X139923460Y-102310082D01*
X139922702Y-102414449D01*
X139921685Y-102539600D01*
X139921308Y-102584300D01*
X139920169Y-102705395D01*
X139918972Y-102806688D01*
X139917636Y-102890262D01*
X139916077Y-102958204D01*
X139914215Y-103012599D01*
X139911966Y-103055532D01*
X139909248Y-103089089D01*
X139905979Y-103115355D01*
X139902078Y-103136416D01*
X139897461Y-103154357D01*
X139889192Y-103180770D01*
X139865583Y-103242772D01*
X139839685Y-103295573D01*
X139814535Y-103332645D01*
X139813339Y-103334075D01*
X139811168Y-103338424D01*
X139813328Y-103342026D01*
X139821644Y-103344951D01*
X139837940Y-103347269D01*
X139864041Y-103349051D01*
X139901771Y-103350367D01*
X139952956Y-103351286D01*
X140019420Y-103351878D01*
X140102987Y-103352215D01*
X140205483Y-103352365D01*
X140328732Y-103352400D01*
X140860296Y-103352400D01*
X140821523Y-103294783D01*
X140815432Y-103285893D01*
X140804976Y-103271069D01*
X140795579Y-103257422D01*
X140787183Y-103243765D01*
X140779733Y-103228911D01*
X140773173Y-103211670D01*
X140767446Y-103190855D01*
X140762495Y-103165280D01*
X140758266Y-103133755D01*
X140754701Y-103095093D01*
X140751744Y-103048107D01*
X140749340Y-102991608D01*
X140747431Y-102924409D01*
X140745962Y-102845322D01*
X140744876Y-102753160D01*
X140744118Y-102646734D01*
X140743630Y-102524857D01*
X140743358Y-102386341D01*
X140743243Y-102229999D01*
X140743231Y-102054642D01*
X140743265Y-101859082D01*
X140743289Y-101642133D01*
X140743280Y-101519513D01*
X140743243Y-101314447D01*
X140743227Y-101130116D01*
X140743288Y-100965334D01*
X140743484Y-100818916D01*
X140743870Y-100689674D01*
X140744505Y-100576422D01*
X140745444Y-100477975D01*
X140746745Y-100393144D01*
X140748464Y-100320744D01*
X140750659Y-100259589D01*
X140753385Y-100208492D01*
X140756701Y-100166267D01*
X140760662Y-100131727D01*
X140765325Y-100103686D01*
X140770747Y-100080958D01*
X140776986Y-100062356D01*
X140784097Y-100046693D01*
X140792138Y-100032784D01*
X140801166Y-100019441D01*
X140811236Y-100005479D01*
X140822407Y-99989711D01*
X140862197Y-99931867D01*
X139802314Y-99931867D01*
X139840311Y-99994966D01*
X139854993Y-100020005D01*
X139869531Y-100047586D01*
X139881627Y-100075700D01*
X139891532Y-100106551D01*
X139899494Y-100142344D01*
X139905761Y-100185283D01*
X139910582Y-100237574D01*
X139914206Y-100301419D01*
X139916881Y-100379025D01*
X139918857Y-100472594D01*
X139920382Y-100584333D01*
X139921704Y-100716445D01*
X139922613Y-100836434D01*
X139923020Y-100953063D01*
X139922767Y-101048531D01*
X139921857Y-101122556D01*
X139920293Y-101174855D01*
X139918079Y-101205149D01*
X139915220Y-101213156D01*
X139912161Y-101209858D01*
X139894006Y-101188408D01*
X139864275Y-101151889D01*
X139824639Y-101102442D01*
X139776771Y-101042207D01*
X139722343Y-100973327D01*
X139663027Y-100897943D01*
X139600495Y-100818196D01*
X139536421Y-100736228D01*
X139472475Y-100654180D01*
X139410331Y-100574194D01*
X139351661Y-100498411D01*
X139298137Y-100428973D01*
X139251430Y-100368021D01*
X139213214Y-100317696D01*
X139185161Y-100280140D01*
X139168943Y-100257495D01*
X139123635Y-100185212D01*
X139083661Y-100105463D01*
X139062130Y-100037188D01*
X139058827Y-99979844D01*
X139064116Y-99931867D01*
X137932356Y-99932117D01*
X137971867Y-99962722D01*
X137981248Y-99970089D01*
X138044183Y-100024438D01*
X138112997Y-100092259D01*
X138189596Y-100175516D01*
X138275888Y-100276178D01*
X138293052Y-100296847D01*
X138333833Y-100346409D01*
X138383588Y-100407326D01*
X138440955Y-100477898D01*
X138504569Y-100556424D01*
X138573069Y-100641204D01*
X138645090Y-100730537D01*
X138719270Y-100822722D01*
X138734517Y-100841702D01*
X138794246Y-100916060D01*
X138868653Y-101008848D01*
X138941131Y-101099388D01*
X139010314Y-101185978D01*
X139074841Y-101266918D01*
X139133347Y-101340506D01*
X139184470Y-101405044D01*
X139226847Y-101458829D01*
X139259115Y-101500162D01*
X139279910Y-101527342D01*
X139287869Y-101538668D01*
X139286111Y-101542771D01*
X139273230Y-101563334D01*
X139248885Y-101599561D01*
X139214247Y-101649824D01*
X139170486Y-101712492D01*
X139118775Y-101785936D01*
X139060284Y-101868527D01*
X138996184Y-101958636D01*
X138927646Y-102054631D01*
X138855843Y-102154885D01*
X138781944Y-102257768D01*
X138707121Y-102361650D01*
X138632545Y-102464901D01*
X138559387Y-102565892D01*
X138488819Y-102662994D01*
X138422011Y-102754577D01*
X138360135Y-102839011D01*
X138304361Y-102914667D01*
X138255862Y-102979916D01*
X138215807Y-103033128D01*
X138185369Y-103072673D01*
X138164944Y-103098026D01*
X138118899Y-103152295D01*
X138068612Y-103208775D01*
X138021815Y-103258669D01*
X137930651Y-103352400D01*
X137232445Y-103352400D01*
X137301356Y-103352349D01*
X137399607Y-103352091D01*
X137489030Y-103351637D01*
X137567333Y-103351010D01*
X137632223Y-103350235D01*
X137681411Y-103349335D01*
X137712604Y-103348334D01*
X137723511Y-103347257D01*
X137722322Y-103344037D01*
X137712176Y-103326452D01*
X137695040Y-103300158D01*
X137686540Y-103287691D01*
X137677329Y-103273622D01*
X137669233Y-103259351D01*
X137662185Y-103243479D01*
X137656117Y-103224609D01*
X137650961Y-103201341D01*
X137646651Y-103172278D01*
X137643119Y-103136021D01*
X137640297Y-103091170D01*
X137638118Y-103036328D01*
X137636514Y-102970097D01*
X137635419Y-102891077D01*
X137634765Y-102797871D01*
X137634484Y-102689079D01*
X137634509Y-102563303D01*
X137634772Y-102419145D01*
X137635206Y-102255207D01*
X137635745Y-102070089D01*
X137636279Y-101891232D01*
X137636805Y-101732374D01*
X137637350Y-101593316D01*
X137637945Y-101472665D01*
X137638619Y-101369028D01*
X137639403Y-101281011D01*
X137640326Y-101207223D01*
X137641419Y-101146269D01*
X137642712Y-101096757D01*
X137644235Y-101057293D01*
X137646019Y-101026484D01*
X137648092Y-101002938D01*
X137650486Y-100985260D01*
X137653230Y-100972059D01*
X137656356Y-100961940D01*
X137659892Y-100953511D01*
X137663791Y-100945375D01*
X137683438Y-100908544D01*
X137702225Y-100878391D01*
X137703272Y-100876908D01*
X137717602Y-100854659D01*
X137723511Y-100841702D01*
X137722504Y-100841249D01*
X137705305Y-100839803D01*
X137668656Y-100838480D01*
X137614962Y-100837316D01*
X137546630Y-100836347D01*
X137466064Y-100835611D01*
X137375670Y-100835142D01*
X137277853Y-100834978D01*
X136832195Y-100834978D01*
X136829120Y-102011845D01*
X136826045Y-103188711D01*
X136799407Y-103247622D01*
X136787485Y-103272183D01*
X136770246Y-103302434D01*
X136757074Y-103319560D01*
X136749076Y-103327591D01*
X136741378Y-103342493D01*
X136449942Y-103342493D01*
X136449474Y-103250029D01*
X136449050Y-103134617D01*
X136448706Y-103004160D01*
X136448434Y-102857716D01*
X136448227Y-102694344D01*
X136448076Y-102513101D01*
X136447972Y-102313048D01*
X136447908Y-102093241D01*
X136447876Y-101852739D01*
X136447867Y-101590602D01*
X136447867Y-99399031D01*
X136486249Y-99360649D01*
X136513355Y-99336911D01*
X136540253Y-99325111D01*
X136576560Y-99322267D01*
X136628489Y-99322267D01*
X136628489Y-99410206D01*
X136630427Y-99460102D01*
X136649199Y-99570523D01*
X136686217Y-99671987D01*
X136739369Y-99763152D01*
X136806546Y-99842673D01*
X136885638Y-99909205D01*
X136974534Y-99961406D01*
X137071125Y-99997930D01*
X137173300Y-100017434D01*
X137278950Y-100018573D01*
X137385964Y-100000005D01*
X137492232Y-99960384D01*
X137589219Y-99902516D01*
X137674293Y-99827684D01*
X137743015Y-99739615D01*
X137793918Y-99640616D01*
X137825535Y-99532993D01*
X137836400Y-99419054D01*
X137836400Y-99322267D01*
X139456753Y-99322267D01*
X139667897Y-99322280D01*
X139872020Y-99322330D01*
X140055686Y-99322430D01*
X140219991Y-99322592D01*
X140366029Y-99322829D01*
X140494894Y-99323153D01*
X140607683Y-99323575D01*
X140705488Y-99324109D01*
X140789404Y-99324767D01*
X140860527Y-99325561D01*
X140919950Y-99326504D01*
X140968768Y-99327608D01*
X141008077Y-99328884D01*
X141038969Y-99330347D01*
X141062541Y-99332007D01*
X141079886Y-99333878D01*
X141092099Y-99335972D01*
X141100275Y-99338300D01*
X141105508Y-99340876D01*
X141111504Y-99344445D01*
X141118279Y-99347978D01*
X141124478Y-99351488D01*
X141130126Y-99355918D01*
X141135247Y-99362208D01*
X141139869Y-99371301D01*
X141144015Y-99384139D01*
X141147713Y-99401662D01*
X141150987Y-99424813D01*
X141153863Y-99454534D01*
X141156367Y-99491765D01*
X141158524Y-99537449D01*
X141160360Y-99592527D01*
X141161900Y-99657941D01*
X141163170Y-99734633D01*
X141164195Y-99823544D01*
X141165001Y-99925617D01*
X141165034Y-99931867D01*
X141165614Y-100041792D01*
G36*
X141165614Y-100041792D02*
G01*
X141166059Y-100173011D01*
X141166362Y-100320216D01*
X141166548Y-100484349D01*
X141166642Y-100666352D01*
X141166671Y-100867165D01*
X141166661Y-101087732D01*
X141166636Y-101328992D01*
X141166622Y-101591889D01*
X141166622Y-101634040D01*
X141166646Y-101894668D01*
X141166685Y-102133796D01*
X141166708Y-102352360D01*
X141166687Y-102551295D01*
X141166593Y-102731535D01*
X141166395Y-102894015D01*
X141166063Y-103039670D01*
X141165569Y-103169434D01*
X141164883Y-103284243D01*
X141163976Y-103385030D01*
X141162817Y-103472730D01*
X141161378Y-103548279D01*
X141159629Y-103612611D01*
X141157540Y-103666661D01*
X141155083Y-103711363D01*
X141152227Y-103747652D01*
X141148943Y-103776463D01*
X141145202Y-103798731D01*
X141140974Y-103815390D01*
X141136229Y-103827375D01*
X141130939Y-103835621D01*
X141125073Y-103841062D01*
X141118602Y-103844634D01*
X141111497Y-103847270D01*
X141103728Y-103849906D01*
X141095266Y-103853477D01*
X141090908Y-103855145D01*
X141082395Y-103857111D01*
X141069694Y-103858911D01*
X141051885Y-103860555D01*
X141028049Y-103862047D01*
X140997266Y-103863397D01*
X140958617Y-103864611D01*
X140911182Y-103865697D01*
X140854043Y-103866661D01*
X140786279Y-103867511D01*
X140706971Y-103868253D01*
X140615199Y-103868897D01*
X140510044Y-103869447D01*
X140390587Y-103869913D01*
X140255908Y-103870300D01*
X140105088Y-103870616D01*
X139937206Y-103870869D01*
X139751345Y-103871066D01*
X139546583Y-103871213D01*
X139322002Y-103871318D01*
X139076682Y-103871389D01*
X138809704Y-103871432D01*
X138771321Y-103871437D01*
X138505922Y-103871480D01*
X138262050Y-103871525D01*
X138038783Y-103871548D01*
X137835196Y-103871524D01*
X137650367Y-103871430D01*
X137483373Y-103871243D01*
X137333290Y-103870939D01*
X137199196Y-103870494D01*
X137080166Y-103869885D01*
X136975279Y-103869089D01*
X136883610Y-103868080D01*
X136804237Y-103866837D01*
X136736237Y-103865335D01*
X136678686Y-103863551D01*
X136630662Y-103861461D01*
X136591240Y-103859042D01*
X136559499Y-103856270D01*
X136534514Y-103853121D01*
X136515364Y-103849572D01*
X136501123Y-103845598D01*
X136490871Y-103841178D01*
X136483682Y-103836286D01*
X136478635Y-103830900D01*
X136474805Y-103824996D01*
X136471271Y-103818549D01*
X136467108Y-103811537D01*
X136466025Y-103809687D01*
X136463813Y-103804180D01*
X136461786Y-103795868D01*
X136459938Y-103783809D01*
X136458261Y-103767063D01*
X136456745Y-103744687D01*
X136455383Y-103715740D01*
X136454167Y-103679280D01*
X136453089Y-103634367D01*
X136452140Y-103580057D01*
X136451312Y-103515410D01*
X136450597Y-103439484D01*
X136449987Y-103351338D01*
X136449942Y-103342493D01*
X136741378Y-103342493D01*
X136745260Y-103343765D01*
X136768520Y-103345791D01*
X136810874Y-103347626D01*
X136870132Y-103349227D01*
X136944107Y-103350549D01*
X137030610Y-103351548D01*
X137127452Y-103352180D01*
X137232445Y-103352400D01*
X137930651Y-103352400D01*
X139085090Y-103352400D01*
X139084456Y-103276200D01*
X139085574Y-103234160D01*
X139091304Y-103198334D01*
X139103890Y-103160772D01*
X139125568Y-103112577D01*
X139128789Y-103105897D01*
X139154188Y-103056359D01*
X139180996Y-103008369D01*
X139203917Y-102971466D01*
X139208485Y-102964834D01*
X139230516Y-102933593D01*
X139262693Y-102888654D01*
X139303457Y-102832147D01*
X139351245Y-102766204D01*
X139404498Y-102692957D01*
X139461655Y-102614536D01*
X139521155Y-102533072D01*
X139581437Y-102450698D01*
X139640940Y-102369544D01*
X139698105Y-102291742D01*
X139751370Y-102219423D01*
X139799174Y-102154718D01*
X139839957Y-102099759D01*
X139872158Y-102056676D01*
X139894216Y-102027602D01*
X139904571Y-102014667D01*
X139909044Y-102010351D01*
X139913236Y-102008312D01*
X139916643Y-102010926D01*
X139919325Y-102019986D01*
X139921341Y-102037285D01*
X139922748Y-102064614D01*
X139923605Y-102103765D01*
X139923970Y-102156533D01*
X139923903Y-102224707D01*
X139923460Y-102310082D01*
X139922702Y-102414449D01*
X139921685Y-102539600D01*
X139921308Y-102584300D01*
X139920169Y-102705395D01*
X139918972Y-102806688D01*
X139917636Y-102890262D01*
X139916077Y-102958204D01*
X139914215Y-103012599D01*
X139911966Y-103055532D01*
X139909248Y-103089089D01*
X139905979Y-103115355D01*
X139902078Y-103136416D01*
X139897461Y-103154357D01*
X139889192Y-103180770D01*
X139865583Y-103242772D01*
X139839685Y-103295573D01*
X139814535Y-103332645D01*
X139813339Y-103334075D01*
X139811168Y-103338424D01*
X139813328Y-103342026D01*
X139821644Y-103344951D01*
X139837940Y-103347269D01*
X139864041Y-103349051D01*
X139901771Y-103350367D01*
X139952956Y-103351286D01*
X140019420Y-103351878D01*
X140102987Y-103352215D01*
X140205483Y-103352365D01*
X140328732Y-103352400D01*
X140860296Y-103352400D01*
X140821523Y-103294783D01*
X140815432Y-103285893D01*
X140804976Y-103271069D01*
X140795579Y-103257422D01*
X140787183Y-103243765D01*
X140779733Y-103228911D01*
X140773173Y-103211670D01*
X140767446Y-103190855D01*
X140762495Y-103165280D01*
X140758266Y-103133755D01*
X140754701Y-103095093D01*
X140751744Y-103048107D01*
X140749340Y-102991608D01*
X140747431Y-102924409D01*
X140745962Y-102845322D01*
X140744876Y-102753160D01*
X140744118Y-102646734D01*
X140743630Y-102524857D01*
X140743358Y-102386341D01*
X140743243Y-102229999D01*
X140743231Y-102054642D01*
X140743265Y-101859082D01*
X140743289Y-101642133D01*
X140743280Y-101519513D01*
X140743243Y-101314447D01*
X140743227Y-101130116D01*
X140743288Y-100965334D01*
X140743484Y-100818916D01*
X140743870Y-100689674D01*
X140744505Y-100576422D01*
X140745444Y-100477975D01*
X140746745Y-100393144D01*
X140748464Y-100320744D01*
X140750659Y-100259589D01*
X140753385Y-100208492D01*
X140756701Y-100166267D01*
X140760662Y-100131727D01*
X140765325Y-100103686D01*
X140770747Y-100080958D01*
X140776986Y-100062356D01*
X140784097Y-100046693D01*
X140792138Y-100032784D01*
X140801166Y-100019441D01*
X140811236Y-100005479D01*
X140822407Y-99989711D01*
X140862197Y-99931867D01*
X139802314Y-99931867D01*
X139840311Y-99994966D01*
X139854993Y-100020005D01*
X139869531Y-100047586D01*
X139881627Y-100075700D01*
X139891532Y-100106551D01*
X139899494Y-100142344D01*
X139905761Y-100185283D01*
X139910582Y-100237574D01*
X139914206Y-100301419D01*
X139916881Y-100379025D01*
X139918857Y-100472594D01*
X139920382Y-100584333D01*
X139921704Y-100716445D01*
X139922613Y-100836434D01*
X139923020Y-100953063D01*
X139922767Y-101048531D01*
X139921857Y-101122556D01*
X139920293Y-101174855D01*
X139918079Y-101205149D01*
X139915220Y-101213156D01*
X139912161Y-101209858D01*
X139894006Y-101188408D01*
X139864275Y-101151889D01*
X139824639Y-101102442D01*
X139776771Y-101042207D01*
X139722343Y-100973327D01*
X139663027Y-100897943D01*
X139600495Y-100818196D01*
X139536421Y-100736228D01*
X139472475Y-100654180D01*
X139410331Y-100574194D01*
X139351661Y-100498411D01*
X139298137Y-100428973D01*
X139251430Y-100368021D01*
X139213214Y-100317696D01*
X139185161Y-100280140D01*
X139168943Y-100257495D01*
X139123635Y-100185212D01*
X139083661Y-100105463D01*
X139062130Y-100037188D01*
X139058827Y-99979844D01*
X139064116Y-99931867D01*
X137932356Y-99932117D01*
X137971867Y-99962722D01*
X137981248Y-99970089D01*
X138044183Y-100024438D01*
X138112997Y-100092259D01*
X138189596Y-100175516D01*
X138275888Y-100276178D01*
X138293052Y-100296847D01*
X138333833Y-100346409D01*
X138383588Y-100407326D01*
X138440955Y-100477898D01*
X138504569Y-100556424D01*
X138573069Y-100641204D01*
X138645090Y-100730537D01*
X138719270Y-100822722D01*
X138734517Y-100841702D01*
X138794246Y-100916060D01*
X138868653Y-101008848D01*
X138941131Y-101099388D01*
X139010314Y-101185978D01*
X139074841Y-101266918D01*
X139133347Y-101340506D01*
X139184470Y-101405044D01*
X139226847Y-101458829D01*
X139259115Y-101500162D01*
X139279910Y-101527342D01*
X139287869Y-101538668D01*
X139286111Y-101542771D01*
X139273230Y-101563334D01*
X139248885Y-101599561D01*
X139214247Y-101649824D01*
X139170486Y-101712492D01*
X139118775Y-101785936D01*
X139060284Y-101868527D01*
X138996184Y-101958636D01*
X138927646Y-102054631D01*
X138855843Y-102154885D01*
X138781944Y-102257768D01*
X138707121Y-102361650D01*
X138632545Y-102464901D01*
X138559387Y-102565892D01*
X138488819Y-102662994D01*
X138422011Y-102754577D01*
X138360135Y-102839011D01*
X138304361Y-102914667D01*
X138255862Y-102979916D01*
X138215807Y-103033128D01*
X138185369Y-103072673D01*
X138164944Y-103098026D01*
X138118899Y-103152295D01*
X138068612Y-103208775D01*
X138021815Y-103258669D01*
X137930651Y-103352400D01*
X137232445Y-103352400D01*
X137301356Y-103352349D01*
X137399607Y-103352091D01*
X137489030Y-103351637D01*
X137567333Y-103351010D01*
X137632223Y-103350235D01*
X137681411Y-103349335D01*
X137712604Y-103348334D01*
X137723511Y-103347257D01*
X137722322Y-103344037D01*
X137712176Y-103326452D01*
X137695040Y-103300158D01*
X137686540Y-103287691D01*
X137677329Y-103273622D01*
X137669233Y-103259351D01*
X137662185Y-103243479D01*
X137656117Y-103224609D01*
X137650961Y-103201341D01*
X137646651Y-103172278D01*
X137643119Y-103136021D01*
X137640297Y-103091170D01*
X137638118Y-103036328D01*
X137636514Y-102970097D01*
X137635419Y-102891077D01*
X137634765Y-102797871D01*
X137634484Y-102689079D01*
X137634509Y-102563303D01*
X137634772Y-102419145D01*
X137635206Y-102255207D01*
X137635745Y-102070089D01*
X137636279Y-101891232D01*
X137636805Y-101732374D01*
X137637350Y-101593316D01*
X137637945Y-101472665D01*
X137638619Y-101369028D01*
X137639403Y-101281011D01*
X137640326Y-101207223D01*
X137641419Y-101146269D01*
X137642712Y-101096757D01*
X137644235Y-101057293D01*
X137646019Y-101026484D01*
X137648092Y-101002938D01*
X137650486Y-100985260D01*
X137653230Y-100972059D01*
X137656356Y-100961940D01*
X137659892Y-100953511D01*
X137663791Y-100945375D01*
X137683438Y-100908544D01*
X137702225Y-100878391D01*
X137703272Y-100876908D01*
X137717602Y-100854659D01*
X137723511Y-100841702D01*
X137722504Y-100841249D01*
X137705305Y-100839803D01*
X137668656Y-100838480D01*
X137614962Y-100837316D01*
X137546630Y-100836347D01*
X137466064Y-100835611D01*
X137375670Y-100835142D01*
X137277853Y-100834978D01*
X136832195Y-100834978D01*
X136829120Y-102011845D01*
X136826045Y-103188711D01*
X136799407Y-103247622D01*
X136787485Y-103272183D01*
X136770246Y-103302434D01*
X136757074Y-103319560D01*
X136749076Y-103327591D01*
X136741378Y-103342493D01*
X136449942Y-103342493D01*
X136449474Y-103250029D01*
X136449050Y-103134617D01*
X136448706Y-103004160D01*
X136448434Y-102857716D01*
X136448227Y-102694344D01*
X136448076Y-102513101D01*
X136447972Y-102313048D01*
X136447908Y-102093241D01*
X136447876Y-101852739D01*
X136447867Y-101590602D01*
X136447867Y-99399031D01*
X136486249Y-99360649D01*
X136513355Y-99336911D01*
X136540253Y-99325111D01*
X136576560Y-99322267D01*
X136628489Y-99322267D01*
X136628489Y-99410206D01*
X136630427Y-99460102D01*
X136649199Y-99570523D01*
X136686217Y-99671987D01*
X136739369Y-99763152D01*
X136806546Y-99842673D01*
X136885638Y-99909205D01*
X136974534Y-99961406D01*
X137071125Y-99997930D01*
X137173300Y-100017434D01*
X137278950Y-100018573D01*
X137385964Y-100000005D01*
X137492232Y-99960384D01*
X137589219Y-99902516D01*
X137674293Y-99827684D01*
X137743015Y-99739615D01*
X137793918Y-99640616D01*
X137825535Y-99532993D01*
X137836400Y-99419054D01*
X137836400Y-99322267D01*
X139456753Y-99322267D01*
X139667897Y-99322280D01*
X139872020Y-99322330D01*
X140055686Y-99322430D01*
X140219991Y-99322592D01*
X140366029Y-99322829D01*
X140494894Y-99323153D01*
X140607683Y-99323575D01*
X140705488Y-99324109D01*
X140789404Y-99324767D01*
X140860527Y-99325561D01*
X140919950Y-99326504D01*
X140968768Y-99327608D01*
X141008077Y-99328884D01*
X141038969Y-99330347D01*
X141062541Y-99332007D01*
X141079886Y-99333878D01*
X141092099Y-99335972D01*
X141100275Y-99338300D01*
X141105508Y-99340876D01*
X141111504Y-99344445D01*
X141118279Y-99347978D01*
X141124478Y-99351488D01*
X141130126Y-99355918D01*
X141135247Y-99362208D01*
X141139869Y-99371301D01*
X141144015Y-99384139D01*
X141147713Y-99401662D01*
X141150987Y-99424813D01*
X141153863Y-99454534D01*
X141156367Y-99491765D01*
X141158524Y-99537449D01*
X141160360Y-99592527D01*
X141161900Y-99657941D01*
X141163170Y-99734633D01*
X141164195Y-99823544D01*
X141165001Y-99925617D01*
X141165034Y-99931867D01*
X141165614Y-100041792D01*
G37*
%TD*%
M02*
