%TF.GenerationSoftware,KiCad,Pcbnew,10.0.1*%
%TF.CreationDate,2026-06-23T20:13:17+05:30*%
%TF.ProjectId,Transfarmerless AC to DC,5472616e-7366-4617-926d-65726c657373,rev?*%
%TF.SameCoordinates,Original*%
%TF.FileFunction,Drillmap*%
%TF.FilePolarity,Positive*%
%FSLAX45Y45*%
G04 Gerber Fmt 4.5, Leading zero omitted, Abs format (unit mm)*
G04 Created by KiCad (PCBNEW 10.0.1) date 2026-06-23 20:13:17*
%MOMM*%
%LPD*%
G01*
G04 APERTURE LIST*
%ADD10C,0.050000*%
%ADD11C,0.200000*%
%ADD12C,0.100000*%
%ADD13C,0.110000*%
%ADD14C,0.120000*%
%ADD15C,0.130000*%
G04 APERTURE END LIST*
D10*
X11499380Y-6573520D02*
X17221282Y-6573520D01*
X17221282Y-10646586D01*
X11499380Y-10646586D01*
X11499380Y-6573520D01*
X11890400Y-6816000D02*
G75*
G02*
X11585600Y-6816000I-152400J0D01*
G01*
X11585600Y-6816000D02*
G75*
G02*
X11890400Y-6816000I152400J0D01*
G01*
X11907400Y-10428000D02*
G75*
G02*
X11602600Y-10428000I-152400J0D01*
G01*
X11602600Y-10428000D02*
G75*
G02*
X11907400Y-10428000I152400J0D01*
G01*
X17126400Y-6810000D02*
G75*
G02*
X16821600Y-6810000I-152400J0D01*
G01*
X16821600Y-6810000D02*
G75*
G02*
X17126400Y-6810000I152400J0D01*
G01*
X17126400Y-10428000D02*
G75*
G02*
X16821600Y-10428000I-152400J0D01*
G01*
X16821600Y-10428000D02*
G75*
G02*
X17126400Y-10428000I152400J0D01*
G01*
D11*
D12*
X12606260Y-8662000D02*
X12686260Y-8742000D01*
X12686260Y-8662000D02*
X12606260Y-8742000D01*
X12606260Y-9424000D02*
X12686260Y-9504000D01*
X12686260Y-9424000D02*
X12606260Y-9504000D01*
X14098260Y-7077500D02*
X14178260Y-7157500D01*
X14178260Y-7077500D02*
X14098260Y-7157500D01*
X14343260Y-8875000D02*
X14423260Y-8955000D01*
X14423260Y-8875000D02*
X14343260Y-8955000D01*
X14343260Y-9637000D02*
X14423260Y-9717000D01*
X14423260Y-9637000D02*
X14343260Y-9717000D01*
X14598260Y-7077500D02*
X14678260Y-7157500D01*
X14678260Y-7077500D02*
X14598260Y-7157500D01*
X14737260Y-9580000D02*
X14817260Y-9660000D01*
X14817260Y-9580000D02*
X14737260Y-9660000D01*
X15470040Y-8151500D02*
X15550040Y-8231500D01*
X15550040Y-8151500D02*
X15470040Y-8231500D01*
X15470040Y-8913500D02*
X15550040Y-8993500D01*
X15550040Y-8913500D02*
X15470040Y-8993500D01*
X15499260Y-9580000D02*
X15579260Y-9660000D01*
X15579260Y-9580000D02*
X15499260Y-9660000D01*
X16142260Y-7325000D02*
X16222260Y-7405000D01*
X16222260Y-7325000D02*
X16142260Y-7405000D01*
X16492260Y-7325000D02*
X16572260Y-7405000D01*
X16572260Y-7325000D02*
X16492260Y-7405000D01*
X14418260Y-7635000D02*
G75*
G02*
X14328260Y-7635000I-45000J0D01*
G01*
X14328260Y-7635000D02*
G75*
G02*
X14418260Y-7635000I45000J0D01*
G01*
X14418260Y-8397000D02*
G75*
G02*
X14328260Y-8397000I-45000J0D01*
G01*
X14328260Y-8397000D02*
G75*
G02*
X14418260Y-8397000I45000J0D01*
G01*
X15015760Y-8216500D02*
G75*
G02*
X14925760Y-8216500I-45000J0D01*
G01*
X14925760Y-8216500D02*
G75*
G02*
X15015760Y-8216500I45000J0D01*
G01*
X15015760Y-8978500D02*
G75*
G02*
X14925760Y-8978500I-45000J0D01*
G01*
X14925760Y-8978500D02*
G75*
G02*
X15015760Y-8978500I45000J0D01*
G01*
X16359720Y-8816000D02*
G75*
G02*
X16269720Y-8816000I-45000J0D01*
G01*
X16269720Y-8816000D02*
G75*
G02*
X16359720Y-8816000I45000J0D01*
G01*
X16613720Y-8816000D02*
G75*
G02*
X16523720Y-8816000I-45000J0D01*
G01*
X16523720Y-8816000D02*
G75*
G02*
X16613720Y-8816000I45000J0D01*
G01*
X15283260Y-7113232D02*
X15283260Y-7213232D01*
X15233260Y-7163232D02*
X15333260Y-7163232D01*
X15283260Y-7613232D02*
X15283260Y-7713232D01*
X15233260Y-7663232D02*
X15333260Y-7663232D01*
D13*
X13171471Y-7176291D02*
X13171471Y-7098509D01*
X13093689Y-7098509D01*
X13093689Y-7176291D01*
X13171471Y-7176291D01*
X13171471Y-8192291D02*
X13171471Y-8114509D01*
X13093689Y-8114509D01*
X13093689Y-8192291D01*
X13171471Y-8192291D01*
X13175151Y-8690131D02*
X13175151Y-8612349D01*
X13097369Y-8612349D01*
X13097369Y-8690131D01*
X13175151Y-8690131D01*
X13175151Y-9706131D02*
X13175151Y-9628349D01*
X13097369Y-9628349D01*
X13097369Y-9706131D01*
X13175151Y-9706131D01*
X13779151Y-7178891D02*
X13779151Y-7101109D01*
X13701369Y-7101109D01*
X13701369Y-7178891D01*
X13779151Y-7178891D01*
X13779151Y-8194891D02*
X13779151Y-8117109D01*
X13701369Y-8117109D01*
X13701369Y-8194891D01*
X13779151Y-8194891D01*
X13787151Y-8695891D02*
X13787151Y-8618109D01*
X13709369Y-8618109D01*
X13709369Y-8695891D01*
X13787151Y-8695891D01*
X13787151Y-9711891D02*
X13787151Y-9634109D01*
X13709369Y-9634109D01*
X13709369Y-9711891D01*
X13787151Y-9711891D01*
X16218691Y-8283731D02*
X16218691Y-8205949D01*
X16140909Y-8205949D01*
X16140909Y-8283731D01*
X16218691Y-8283731D01*
X16472691Y-8283731D02*
X16472691Y-8205949D01*
X16394909Y-8205949D01*
X16394909Y-8283731D01*
X16472691Y-8283731D01*
X16726691Y-8283731D02*
X16726691Y-8205949D01*
X16648909Y-8205949D01*
X16648909Y-8283731D01*
X16726691Y-8283731D01*
D14*
X12050260Y-8510000D02*
X12110260Y-8450000D01*
X12050260Y-8390000D01*
X11990260Y-8450000D01*
X12050260Y-8510000D01*
X12050260Y-10010000D02*
X12110260Y-9950000D01*
X12050260Y-9890000D01*
X11990260Y-9950000D01*
X12050260Y-10010000D01*
D15*
X12208510Y-7283220D02*
X12338510Y-7413220D01*
X12338510Y-7283220D02*
X12208510Y-7413220D01*
X12338510Y-7348220D02*
G75*
G02*
X12208510Y-7348220I-65000J0D01*
G01*
X12208510Y-7348220D02*
G75*
G02*
X12338510Y-7348220I65000J0D01*
G01*
X12208510Y-7791220D02*
X12338510Y-7921220D01*
X12338510Y-7791220D02*
X12208510Y-7921220D01*
X12338510Y-7856220D02*
G75*
G02*
X12208510Y-7856220I-65000J0D01*
G01*
X12208510Y-7856220D02*
G75*
G02*
X12338510Y-7856220I65000J0D01*
G01*
X16241000Y-9466000D02*
X16371000Y-9596000D01*
X16371000Y-9466000D02*
X16241000Y-9596000D01*
X16371000Y-9531000D02*
G75*
G02*
X16241000Y-9531000I-65000J0D01*
G01*
X16241000Y-9531000D02*
G75*
G02*
X16371000Y-9531000I65000J0D01*
G01*
X16241000Y-9974000D02*
X16371000Y-10104000D01*
X16371000Y-9974000D02*
X16241000Y-10104000D01*
X16371000Y-10039000D02*
G75*
G02*
X16241000Y-10039000I-65000J0D01*
G01*
X16241000Y-10039000D02*
G75*
G02*
X16371000Y-10039000I65000J0D01*
G01*
D11*
X11757657Y-10960570D02*
X11757657Y-10760570D01*
X11757657Y-10760570D02*
X11805276Y-10760570D01*
X11805276Y-10760570D02*
X11833847Y-10770094D01*
X11833847Y-10770094D02*
X11852895Y-10789141D01*
X11852895Y-10789141D02*
X11862419Y-10808189D01*
X11862419Y-10808189D02*
X11871942Y-10846284D01*
X11871942Y-10846284D02*
X11871942Y-10874856D01*
X11871942Y-10874856D02*
X11862419Y-10912951D01*
X11862419Y-10912951D02*
X11852895Y-10931998D01*
X11852895Y-10931998D02*
X11833847Y-10951046D01*
X11833847Y-10951046D02*
X11805276Y-10960570D01*
X11805276Y-10960570D02*
X11757657Y-10960570D01*
X11957657Y-10960570D02*
X11957657Y-10827236D01*
X11957657Y-10865332D02*
X11967181Y-10846284D01*
X11967181Y-10846284D02*
X11976704Y-10836760D01*
X11976704Y-10836760D02*
X11995752Y-10827236D01*
X11995752Y-10827236D02*
X12014800Y-10827236D01*
X12081466Y-10960570D02*
X12081466Y-10827236D01*
X12081466Y-10760570D02*
X12071942Y-10770094D01*
X12071942Y-10770094D02*
X12081466Y-10779617D01*
X12081466Y-10779617D02*
X12090990Y-10770094D01*
X12090990Y-10770094D02*
X12081466Y-10760570D01*
X12081466Y-10760570D02*
X12081466Y-10779617D01*
X12205276Y-10960570D02*
X12186228Y-10951046D01*
X12186228Y-10951046D02*
X12176704Y-10931998D01*
X12176704Y-10931998D02*
X12176704Y-10760570D01*
X12310038Y-10960570D02*
X12290990Y-10951046D01*
X12290990Y-10951046D02*
X12281466Y-10931998D01*
X12281466Y-10931998D02*
X12281466Y-10760570D01*
X12538609Y-10960570D02*
X12538609Y-10760570D01*
X12538609Y-10760570D02*
X12605276Y-10903427D01*
X12605276Y-10903427D02*
X12671942Y-10760570D01*
X12671942Y-10760570D02*
X12671942Y-10960570D01*
X12852895Y-10960570D02*
X12852895Y-10855808D01*
X12852895Y-10855808D02*
X12843371Y-10836760D01*
X12843371Y-10836760D02*
X12824323Y-10827236D01*
X12824323Y-10827236D02*
X12786228Y-10827236D01*
X12786228Y-10827236D02*
X12767181Y-10836760D01*
X12852895Y-10951046D02*
X12833847Y-10960570D01*
X12833847Y-10960570D02*
X12786228Y-10960570D01*
X12786228Y-10960570D02*
X12767181Y-10951046D01*
X12767181Y-10951046D02*
X12757657Y-10931998D01*
X12757657Y-10931998D02*
X12757657Y-10912951D01*
X12757657Y-10912951D02*
X12767181Y-10893903D01*
X12767181Y-10893903D02*
X12786228Y-10884379D01*
X12786228Y-10884379D02*
X12833847Y-10884379D01*
X12833847Y-10884379D02*
X12852895Y-10874856D01*
X12948133Y-10827236D02*
X12948133Y-11027236D01*
X12948133Y-10836760D02*
X12967181Y-10827236D01*
X12967181Y-10827236D02*
X13005276Y-10827236D01*
X13005276Y-10827236D02*
X13024323Y-10836760D01*
X13024323Y-10836760D02*
X13033847Y-10846284D01*
X13033847Y-10846284D02*
X13043371Y-10865332D01*
X13043371Y-10865332D02*
X13043371Y-10922475D01*
X13043371Y-10922475D02*
X13033847Y-10941522D01*
X13033847Y-10941522D02*
X13024323Y-10951046D01*
X13024323Y-10951046D02*
X13005276Y-10960570D01*
X13005276Y-10960570D02*
X12967181Y-10960570D01*
X12967181Y-10960570D02*
X12948133Y-10951046D01*
X13129085Y-10941522D02*
X13138609Y-10951046D01*
X13138609Y-10951046D02*
X13129085Y-10960570D01*
X13129085Y-10960570D02*
X13119562Y-10951046D01*
X13119562Y-10951046D02*
X13129085Y-10941522D01*
X13129085Y-10941522D02*
X13129085Y-10960570D01*
X13129085Y-10836760D02*
X13138609Y-10846284D01*
X13138609Y-10846284D02*
X13129085Y-10855808D01*
X13129085Y-10855808D02*
X13119562Y-10846284D01*
X13119562Y-10846284D02*
X13129085Y-10836760D01*
X13129085Y-10836760D02*
X13129085Y-10855808D01*
D12*
X11416880Y-11249086D02*
X11496880Y-11329086D01*
X11496880Y-11249086D02*
X11416880Y-11329086D01*
D11*
X11795752Y-11180570D02*
X11814800Y-11180570D01*
X11814800Y-11180570D02*
X11833847Y-11190094D01*
X11833847Y-11190094D02*
X11843371Y-11199617D01*
X11843371Y-11199617D02*
X11852895Y-11218665D01*
X11852895Y-11218665D02*
X11862419Y-11256760D01*
X11862419Y-11256760D02*
X11862419Y-11304379D01*
X11862419Y-11304379D02*
X11852895Y-11342474D01*
X11852895Y-11342474D02*
X11843371Y-11361522D01*
X11843371Y-11361522D02*
X11833847Y-11371046D01*
X11833847Y-11371046D02*
X11814800Y-11380570D01*
X11814800Y-11380570D02*
X11795752Y-11380570D01*
X11795752Y-11380570D02*
X11776704Y-11371046D01*
X11776704Y-11371046D02*
X11767181Y-11361522D01*
X11767181Y-11361522D02*
X11757657Y-11342474D01*
X11757657Y-11342474D02*
X11748133Y-11304379D01*
X11748133Y-11304379D02*
X11748133Y-11256760D01*
X11748133Y-11256760D02*
X11757657Y-11218665D01*
X11757657Y-11218665D02*
X11767181Y-11199617D01*
X11767181Y-11199617D02*
X11776704Y-11190094D01*
X11776704Y-11190094D02*
X11795752Y-11180570D01*
X11948133Y-11361522D02*
X11957657Y-11371046D01*
X11957657Y-11371046D02*
X11948133Y-11380570D01*
X11948133Y-11380570D02*
X11938609Y-11371046D01*
X11938609Y-11371046D02*
X11948133Y-11361522D01*
X11948133Y-11361522D02*
X11948133Y-11380570D01*
X12071942Y-11266284D02*
X12052895Y-11256760D01*
X12052895Y-11256760D02*
X12043371Y-11247236D01*
X12043371Y-11247236D02*
X12033847Y-11228189D01*
X12033847Y-11228189D02*
X12033847Y-11218665D01*
X12033847Y-11218665D02*
X12043371Y-11199617D01*
X12043371Y-11199617D02*
X12052895Y-11190094D01*
X12052895Y-11190094D02*
X12071942Y-11180570D01*
X12071942Y-11180570D02*
X12110038Y-11180570D01*
X12110038Y-11180570D02*
X12129085Y-11190094D01*
X12129085Y-11190094D02*
X12138609Y-11199617D01*
X12138609Y-11199617D02*
X12148133Y-11218665D01*
X12148133Y-11218665D02*
X12148133Y-11228189D01*
X12148133Y-11228189D02*
X12138609Y-11247236D01*
X12138609Y-11247236D02*
X12129085Y-11256760D01*
X12129085Y-11256760D02*
X12110038Y-11266284D01*
X12110038Y-11266284D02*
X12071942Y-11266284D01*
X12071942Y-11266284D02*
X12052895Y-11275808D01*
X12052895Y-11275808D02*
X12043371Y-11285332D01*
X12043371Y-11285332D02*
X12033847Y-11304379D01*
X12033847Y-11304379D02*
X12033847Y-11342474D01*
X12033847Y-11342474D02*
X12043371Y-11361522D01*
X12043371Y-11361522D02*
X12052895Y-11371046D01*
X12052895Y-11371046D02*
X12071942Y-11380570D01*
X12071942Y-11380570D02*
X12110038Y-11380570D01*
X12110038Y-11380570D02*
X12129085Y-11371046D01*
X12129085Y-11371046D02*
X12138609Y-11361522D01*
X12138609Y-11361522D02*
X12148133Y-11342474D01*
X12148133Y-11342474D02*
X12148133Y-11304379D01*
X12148133Y-11304379D02*
X12138609Y-11285332D01*
X12138609Y-11285332D02*
X12129085Y-11275808D01*
X12129085Y-11275808D02*
X12110038Y-11266284D01*
X12271942Y-11180570D02*
X12290990Y-11180570D01*
X12290990Y-11180570D02*
X12310038Y-11190094D01*
X12310038Y-11190094D02*
X12319562Y-11199617D01*
X12319562Y-11199617D02*
X12329085Y-11218665D01*
X12329085Y-11218665D02*
X12338609Y-11256760D01*
X12338609Y-11256760D02*
X12338609Y-11304379D01*
X12338609Y-11304379D02*
X12329085Y-11342474D01*
X12329085Y-11342474D02*
X12319562Y-11361522D01*
X12319562Y-11361522D02*
X12310038Y-11371046D01*
X12310038Y-11371046D02*
X12290990Y-11380570D01*
X12290990Y-11380570D02*
X12271942Y-11380570D01*
X12271942Y-11380570D02*
X12252895Y-11371046D01*
X12252895Y-11371046D02*
X12243371Y-11361522D01*
X12243371Y-11361522D02*
X12233847Y-11342474D01*
X12233847Y-11342474D02*
X12224323Y-11304379D01*
X12224323Y-11304379D02*
X12224323Y-11256760D01*
X12224323Y-11256760D02*
X12233847Y-11218665D01*
X12233847Y-11218665D02*
X12243371Y-11199617D01*
X12243371Y-11199617D02*
X12252895Y-11190094D01*
X12252895Y-11190094D02*
X12271942Y-11180570D01*
X12462419Y-11180570D02*
X12481466Y-11180570D01*
X12481466Y-11180570D02*
X12500514Y-11190094D01*
X12500514Y-11190094D02*
X12510038Y-11199617D01*
X12510038Y-11199617D02*
X12519562Y-11218665D01*
X12519562Y-11218665D02*
X12529085Y-11256760D01*
X12529085Y-11256760D02*
X12529085Y-11304379D01*
X12529085Y-11304379D02*
X12519562Y-11342474D01*
X12519562Y-11342474D02*
X12510038Y-11361522D01*
X12510038Y-11361522D02*
X12500514Y-11371046D01*
X12500514Y-11371046D02*
X12481466Y-11380570D01*
X12481466Y-11380570D02*
X12462419Y-11380570D01*
X12462419Y-11380570D02*
X12443371Y-11371046D01*
X12443371Y-11371046D02*
X12433847Y-11361522D01*
X12433847Y-11361522D02*
X12424323Y-11342474D01*
X12424323Y-11342474D02*
X12414800Y-11304379D01*
X12414800Y-11304379D02*
X12414800Y-11256760D01*
X12414800Y-11256760D02*
X12424323Y-11218665D01*
X12424323Y-11218665D02*
X12433847Y-11199617D01*
X12433847Y-11199617D02*
X12443371Y-11190094D01*
X12443371Y-11190094D02*
X12462419Y-11180570D01*
X12614800Y-11380570D02*
X12614800Y-11247236D01*
X12614800Y-11266284D02*
X12624323Y-11256760D01*
X12624323Y-11256760D02*
X12643371Y-11247236D01*
X12643371Y-11247236D02*
X12671943Y-11247236D01*
X12671943Y-11247236D02*
X12690990Y-11256760D01*
X12690990Y-11256760D02*
X12700514Y-11275808D01*
X12700514Y-11275808D02*
X12700514Y-11380570D01*
X12700514Y-11275808D02*
X12710038Y-11256760D01*
X12710038Y-11256760D02*
X12729085Y-11247236D01*
X12729085Y-11247236D02*
X12757657Y-11247236D01*
X12757657Y-11247236D02*
X12776704Y-11256760D01*
X12776704Y-11256760D02*
X12786228Y-11275808D01*
X12786228Y-11275808D02*
X12786228Y-11380570D01*
X12881466Y-11380570D02*
X12881466Y-11247236D01*
X12881466Y-11266284D02*
X12890990Y-11256760D01*
X12890990Y-11256760D02*
X12910038Y-11247236D01*
X12910038Y-11247236D02*
X12938609Y-11247236D01*
X12938609Y-11247236D02*
X12957657Y-11256760D01*
X12957657Y-11256760D02*
X12967181Y-11275808D01*
X12967181Y-11275808D02*
X12967181Y-11380570D01*
X12967181Y-11275808D02*
X12976704Y-11256760D01*
X12976704Y-11256760D02*
X12995752Y-11247236D01*
X12995752Y-11247236D02*
X13024323Y-11247236D01*
X13024323Y-11247236D02*
X13043371Y-11256760D01*
X13043371Y-11256760D02*
X13052895Y-11275808D01*
X13052895Y-11275808D02*
X13052895Y-11380570D01*
X13443371Y-11171046D02*
X13271943Y-11428189D01*
X13700514Y-11180570D02*
X13719562Y-11180570D01*
X13719562Y-11180570D02*
X13738609Y-11190094D01*
X13738609Y-11190094D02*
X13748133Y-11199617D01*
X13748133Y-11199617D02*
X13757657Y-11218665D01*
X13757657Y-11218665D02*
X13767181Y-11256760D01*
X13767181Y-11256760D02*
X13767181Y-11304379D01*
X13767181Y-11304379D02*
X13757657Y-11342474D01*
X13757657Y-11342474D02*
X13748133Y-11361522D01*
X13748133Y-11361522D02*
X13738609Y-11371046D01*
X13738609Y-11371046D02*
X13719562Y-11380570D01*
X13719562Y-11380570D02*
X13700514Y-11380570D01*
X13700514Y-11380570D02*
X13681466Y-11371046D01*
X13681466Y-11371046D02*
X13671943Y-11361522D01*
X13671943Y-11361522D02*
X13662419Y-11342474D01*
X13662419Y-11342474D02*
X13652895Y-11304379D01*
X13652895Y-11304379D02*
X13652895Y-11256760D01*
X13652895Y-11256760D02*
X13662419Y-11218665D01*
X13662419Y-11218665D02*
X13671943Y-11199617D01*
X13671943Y-11199617D02*
X13681466Y-11190094D01*
X13681466Y-11190094D02*
X13700514Y-11180570D01*
X13852895Y-11361522D02*
X13862419Y-11371046D01*
X13862419Y-11371046D02*
X13852895Y-11380570D01*
X13852895Y-11380570D02*
X13843371Y-11371046D01*
X13843371Y-11371046D02*
X13852895Y-11361522D01*
X13852895Y-11361522D02*
X13852895Y-11380570D01*
X13986228Y-11180570D02*
X14005276Y-11180570D01*
X14005276Y-11180570D02*
X14024324Y-11190094D01*
X14024324Y-11190094D02*
X14033847Y-11199617D01*
X14033847Y-11199617D02*
X14043371Y-11218665D01*
X14043371Y-11218665D02*
X14052895Y-11256760D01*
X14052895Y-11256760D02*
X14052895Y-11304379D01*
X14052895Y-11304379D02*
X14043371Y-11342474D01*
X14043371Y-11342474D02*
X14033847Y-11361522D01*
X14033847Y-11361522D02*
X14024324Y-11371046D01*
X14024324Y-11371046D02*
X14005276Y-11380570D01*
X14005276Y-11380570D02*
X13986228Y-11380570D01*
X13986228Y-11380570D02*
X13967181Y-11371046D01*
X13967181Y-11371046D02*
X13957657Y-11361522D01*
X13957657Y-11361522D02*
X13948133Y-11342474D01*
X13948133Y-11342474D02*
X13938609Y-11304379D01*
X13938609Y-11304379D02*
X13938609Y-11256760D01*
X13938609Y-11256760D02*
X13948133Y-11218665D01*
X13948133Y-11218665D02*
X13957657Y-11199617D01*
X13957657Y-11199617D02*
X13967181Y-11190094D01*
X13967181Y-11190094D02*
X13986228Y-11180570D01*
X14119562Y-11180570D02*
X14243371Y-11180570D01*
X14243371Y-11180570D02*
X14176705Y-11256760D01*
X14176705Y-11256760D02*
X14205276Y-11256760D01*
X14205276Y-11256760D02*
X14224324Y-11266284D01*
X14224324Y-11266284D02*
X14233847Y-11275808D01*
X14233847Y-11275808D02*
X14243371Y-11294855D01*
X14243371Y-11294855D02*
X14243371Y-11342474D01*
X14243371Y-11342474D02*
X14233847Y-11361522D01*
X14233847Y-11361522D02*
X14224324Y-11371046D01*
X14224324Y-11371046D02*
X14205276Y-11380570D01*
X14205276Y-11380570D02*
X14148133Y-11380570D01*
X14148133Y-11380570D02*
X14129086Y-11371046D01*
X14129086Y-11371046D02*
X14119562Y-11361522D01*
X14433847Y-11380570D02*
X14319562Y-11380570D01*
X14376705Y-11380570D02*
X14376705Y-11180570D01*
X14376705Y-11180570D02*
X14357657Y-11209141D01*
X14357657Y-11209141D02*
X14338609Y-11228189D01*
X14338609Y-11228189D02*
X14319562Y-11237713D01*
X14614800Y-11180570D02*
X14519562Y-11180570D01*
X14519562Y-11180570D02*
X14510038Y-11275808D01*
X14510038Y-11275808D02*
X14519562Y-11266284D01*
X14519562Y-11266284D02*
X14538609Y-11256760D01*
X14538609Y-11256760D02*
X14586228Y-11256760D01*
X14586228Y-11256760D02*
X14605276Y-11266284D01*
X14605276Y-11266284D02*
X14614800Y-11275808D01*
X14614800Y-11275808D02*
X14624324Y-11294855D01*
X14624324Y-11294855D02*
X14624324Y-11342474D01*
X14624324Y-11342474D02*
X14614800Y-11361522D01*
X14614800Y-11361522D02*
X14605276Y-11371046D01*
X14605276Y-11371046D02*
X14586228Y-11380570D01*
X14586228Y-11380570D02*
X14538609Y-11380570D01*
X14538609Y-11380570D02*
X14519562Y-11371046D01*
X14519562Y-11371046D02*
X14510038Y-11361522D01*
X14700514Y-11180570D02*
X14700514Y-11218665D01*
X14776705Y-11180570D02*
X14776705Y-11218665D01*
X15071943Y-11456760D02*
X15062419Y-11447236D01*
X15062419Y-11447236D02*
X15043371Y-11418665D01*
X15043371Y-11418665D02*
X15033848Y-11399617D01*
X15033848Y-11399617D02*
X15024324Y-11371046D01*
X15024324Y-11371046D02*
X15014800Y-11323427D01*
X15014800Y-11323427D02*
X15014800Y-11285332D01*
X15014800Y-11285332D02*
X15024324Y-11237713D01*
X15024324Y-11237713D02*
X15033848Y-11209141D01*
X15033848Y-11209141D02*
X15043371Y-11190094D01*
X15043371Y-11190094D02*
X15062419Y-11161522D01*
X15062419Y-11161522D02*
X15071943Y-11151998D01*
X15252895Y-11380570D02*
X15138609Y-11380570D01*
X15195752Y-11380570D02*
X15195752Y-11180570D01*
X15195752Y-11180570D02*
X15176705Y-11209141D01*
X15176705Y-11209141D02*
X15157657Y-11228189D01*
X15157657Y-11228189D02*
X15138609Y-11237713D01*
X15329086Y-11199617D02*
X15338609Y-11190094D01*
X15338609Y-11190094D02*
X15357657Y-11180570D01*
X15357657Y-11180570D02*
X15405276Y-11180570D01*
X15405276Y-11180570D02*
X15424324Y-11190094D01*
X15424324Y-11190094D02*
X15433848Y-11199617D01*
X15433848Y-11199617D02*
X15443371Y-11218665D01*
X15443371Y-11218665D02*
X15443371Y-11237713D01*
X15443371Y-11237713D02*
X15433848Y-11266284D01*
X15433848Y-11266284D02*
X15319562Y-11380570D01*
X15319562Y-11380570D02*
X15443371Y-11380570D01*
X15681467Y-11380570D02*
X15681467Y-11180570D01*
X15767181Y-11380570D02*
X15767181Y-11275808D01*
X15767181Y-11275808D02*
X15757657Y-11256760D01*
X15757657Y-11256760D02*
X15738610Y-11247236D01*
X15738610Y-11247236D02*
X15710038Y-11247236D01*
X15710038Y-11247236D02*
X15690990Y-11256760D01*
X15690990Y-11256760D02*
X15681467Y-11266284D01*
X15890990Y-11380570D02*
X15871943Y-11371046D01*
X15871943Y-11371046D02*
X15862419Y-11361522D01*
X15862419Y-11361522D02*
X15852895Y-11342474D01*
X15852895Y-11342474D02*
X15852895Y-11285332D01*
X15852895Y-11285332D02*
X15862419Y-11266284D01*
X15862419Y-11266284D02*
X15871943Y-11256760D01*
X15871943Y-11256760D02*
X15890990Y-11247236D01*
X15890990Y-11247236D02*
X15919562Y-11247236D01*
X15919562Y-11247236D02*
X15938610Y-11256760D01*
X15938610Y-11256760D02*
X15948133Y-11266284D01*
X15948133Y-11266284D02*
X15957657Y-11285332D01*
X15957657Y-11285332D02*
X15957657Y-11342474D01*
X15957657Y-11342474D02*
X15948133Y-11361522D01*
X15948133Y-11361522D02*
X15938610Y-11371046D01*
X15938610Y-11371046D02*
X15919562Y-11380570D01*
X15919562Y-11380570D02*
X15890990Y-11380570D01*
X16071943Y-11380570D02*
X16052895Y-11371046D01*
X16052895Y-11371046D02*
X16043371Y-11351998D01*
X16043371Y-11351998D02*
X16043371Y-11180570D01*
X16224324Y-11371046D02*
X16205276Y-11380570D01*
X16205276Y-11380570D02*
X16167181Y-11380570D01*
X16167181Y-11380570D02*
X16148133Y-11371046D01*
X16148133Y-11371046D02*
X16138610Y-11351998D01*
X16138610Y-11351998D02*
X16138610Y-11275808D01*
X16138610Y-11275808D02*
X16148133Y-11256760D01*
X16148133Y-11256760D02*
X16167181Y-11247236D01*
X16167181Y-11247236D02*
X16205276Y-11247236D01*
X16205276Y-11247236D02*
X16224324Y-11256760D01*
X16224324Y-11256760D02*
X16233848Y-11275808D01*
X16233848Y-11275808D02*
X16233848Y-11294855D01*
X16233848Y-11294855D02*
X16138610Y-11313903D01*
X16310038Y-11371046D02*
X16329086Y-11380570D01*
X16329086Y-11380570D02*
X16367181Y-11380570D01*
X16367181Y-11380570D02*
X16386229Y-11371046D01*
X16386229Y-11371046D02*
X16395752Y-11351998D01*
X16395752Y-11351998D02*
X16395752Y-11342474D01*
X16395752Y-11342474D02*
X16386229Y-11323427D01*
X16386229Y-11323427D02*
X16367181Y-11313903D01*
X16367181Y-11313903D02*
X16338610Y-11313903D01*
X16338610Y-11313903D02*
X16319562Y-11304379D01*
X16319562Y-11304379D02*
X16310038Y-11285332D01*
X16310038Y-11285332D02*
X16310038Y-11275808D01*
X16310038Y-11275808D02*
X16319562Y-11256760D01*
X16319562Y-11256760D02*
X16338610Y-11247236D01*
X16338610Y-11247236D02*
X16367181Y-11247236D01*
X16367181Y-11247236D02*
X16386229Y-11256760D01*
X16462419Y-11456760D02*
X16471943Y-11447236D01*
X16471943Y-11447236D02*
X16490991Y-11418665D01*
X16490991Y-11418665D02*
X16500514Y-11399617D01*
X16500514Y-11399617D02*
X16510038Y-11371046D01*
X16510038Y-11371046D02*
X16519562Y-11323427D01*
X16519562Y-11323427D02*
X16519562Y-11285332D01*
X16519562Y-11285332D02*
X16510038Y-11237713D01*
X16510038Y-11237713D02*
X16500514Y-11209141D01*
X16500514Y-11209141D02*
X16490991Y-11190094D01*
X16490991Y-11190094D02*
X16471943Y-11161522D01*
X16471943Y-11161522D02*
X16462419Y-11151998D01*
D12*
X11496880Y-11553086D02*
G75*
G02*
X11406880Y-11553086I-45000J0D01*
G01*
X11406880Y-11553086D02*
G75*
G02*
X11496880Y-11553086I45000J0D01*
G01*
D11*
X11795752Y-11444570D02*
X11814800Y-11444570D01*
X11814800Y-11444570D02*
X11833847Y-11454094D01*
X11833847Y-11454094D02*
X11843371Y-11463617D01*
X11843371Y-11463617D02*
X11852895Y-11482665D01*
X11852895Y-11482665D02*
X11862419Y-11520760D01*
X11862419Y-11520760D02*
X11862419Y-11568379D01*
X11862419Y-11568379D02*
X11852895Y-11606474D01*
X11852895Y-11606474D02*
X11843371Y-11625522D01*
X11843371Y-11625522D02*
X11833847Y-11635046D01*
X11833847Y-11635046D02*
X11814800Y-11644570D01*
X11814800Y-11644570D02*
X11795752Y-11644570D01*
X11795752Y-11644570D02*
X11776704Y-11635046D01*
X11776704Y-11635046D02*
X11767181Y-11625522D01*
X11767181Y-11625522D02*
X11757657Y-11606474D01*
X11757657Y-11606474D02*
X11748133Y-11568379D01*
X11748133Y-11568379D02*
X11748133Y-11520760D01*
X11748133Y-11520760D02*
X11757657Y-11482665D01*
X11757657Y-11482665D02*
X11767181Y-11463617D01*
X11767181Y-11463617D02*
X11776704Y-11454094D01*
X11776704Y-11454094D02*
X11795752Y-11444570D01*
X11948133Y-11625522D02*
X11957657Y-11635046D01*
X11957657Y-11635046D02*
X11948133Y-11644570D01*
X11948133Y-11644570D02*
X11938609Y-11635046D01*
X11938609Y-11635046D02*
X11948133Y-11625522D01*
X11948133Y-11625522D02*
X11948133Y-11644570D01*
X12052895Y-11644570D02*
X12090990Y-11644570D01*
X12090990Y-11644570D02*
X12110038Y-11635046D01*
X12110038Y-11635046D02*
X12119562Y-11625522D01*
X12119562Y-11625522D02*
X12138609Y-11596951D01*
X12138609Y-11596951D02*
X12148133Y-11558855D01*
X12148133Y-11558855D02*
X12148133Y-11482665D01*
X12148133Y-11482665D02*
X12138609Y-11463617D01*
X12138609Y-11463617D02*
X12129085Y-11454094D01*
X12129085Y-11454094D02*
X12110038Y-11444570D01*
X12110038Y-11444570D02*
X12071942Y-11444570D01*
X12071942Y-11444570D02*
X12052895Y-11454094D01*
X12052895Y-11454094D02*
X12043371Y-11463617D01*
X12043371Y-11463617D02*
X12033847Y-11482665D01*
X12033847Y-11482665D02*
X12033847Y-11530284D01*
X12033847Y-11530284D02*
X12043371Y-11549332D01*
X12043371Y-11549332D02*
X12052895Y-11558855D01*
X12052895Y-11558855D02*
X12071942Y-11568379D01*
X12071942Y-11568379D02*
X12110038Y-11568379D01*
X12110038Y-11568379D02*
X12129085Y-11558855D01*
X12129085Y-11558855D02*
X12138609Y-11549332D01*
X12138609Y-11549332D02*
X12148133Y-11530284D01*
X12271942Y-11444570D02*
X12290990Y-11444570D01*
X12290990Y-11444570D02*
X12310038Y-11454094D01*
X12310038Y-11454094D02*
X12319562Y-11463617D01*
X12319562Y-11463617D02*
X12329085Y-11482665D01*
X12329085Y-11482665D02*
X12338609Y-11520760D01*
X12338609Y-11520760D02*
X12338609Y-11568379D01*
X12338609Y-11568379D02*
X12329085Y-11606474D01*
X12329085Y-11606474D02*
X12319562Y-11625522D01*
X12319562Y-11625522D02*
X12310038Y-11635046D01*
X12310038Y-11635046D02*
X12290990Y-11644570D01*
X12290990Y-11644570D02*
X12271942Y-11644570D01*
X12271942Y-11644570D02*
X12252895Y-11635046D01*
X12252895Y-11635046D02*
X12243371Y-11625522D01*
X12243371Y-11625522D02*
X12233847Y-11606474D01*
X12233847Y-11606474D02*
X12224323Y-11568379D01*
X12224323Y-11568379D02*
X12224323Y-11520760D01*
X12224323Y-11520760D02*
X12233847Y-11482665D01*
X12233847Y-11482665D02*
X12243371Y-11463617D01*
X12243371Y-11463617D02*
X12252895Y-11454094D01*
X12252895Y-11454094D02*
X12271942Y-11444570D01*
X12462419Y-11444570D02*
X12481466Y-11444570D01*
X12481466Y-11444570D02*
X12500514Y-11454094D01*
X12500514Y-11454094D02*
X12510038Y-11463617D01*
X12510038Y-11463617D02*
X12519562Y-11482665D01*
X12519562Y-11482665D02*
X12529085Y-11520760D01*
X12529085Y-11520760D02*
X12529085Y-11568379D01*
X12529085Y-11568379D02*
X12519562Y-11606474D01*
X12519562Y-11606474D02*
X12510038Y-11625522D01*
X12510038Y-11625522D02*
X12500514Y-11635046D01*
X12500514Y-11635046D02*
X12481466Y-11644570D01*
X12481466Y-11644570D02*
X12462419Y-11644570D01*
X12462419Y-11644570D02*
X12443371Y-11635046D01*
X12443371Y-11635046D02*
X12433847Y-11625522D01*
X12433847Y-11625522D02*
X12424323Y-11606474D01*
X12424323Y-11606474D02*
X12414800Y-11568379D01*
X12414800Y-11568379D02*
X12414800Y-11520760D01*
X12414800Y-11520760D02*
X12424323Y-11482665D01*
X12424323Y-11482665D02*
X12433847Y-11463617D01*
X12433847Y-11463617D02*
X12443371Y-11454094D01*
X12443371Y-11454094D02*
X12462419Y-11444570D01*
X12614800Y-11644570D02*
X12614800Y-11511236D01*
X12614800Y-11530284D02*
X12624323Y-11520760D01*
X12624323Y-11520760D02*
X12643371Y-11511236D01*
X12643371Y-11511236D02*
X12671943Y-11511236D01*
X12671943Y-11511236D02*
X12690990Y-11520760D01*
X12690990Y-11520760D02*
X12700514Y-11539808D01*
X12700514Y-11539808D02*
X12700514Y-11644570D01*
X12700514Y-11539808D02*
X12710038Y-11520760D01*
X12710038Y-11520760D02*
X12729085Y-11511236D01*
X12729085Y-11511236D02*
X12757657Y-11511236D01*
X12757657Y-11511236D02*
X12776704Y-11520760D01*
X12776704Y-11520760D02*
X12786228Y-11539808D01*
X12786228Y-11539808D02*
X12786228Y-11644570D01*
X12881466Y-11644570D02*
X12881466Y-11511236D01*
X12881466Y-11530284D02*
X12890990Y-11520760D01*
X12890990Y-11520760D02*
X12910038Y-11511236D01*
X12910038Y-11511236D02*
X12938609Y-11511236D01*
X12938609Y-11511236D02*
X12957657Y-11520760D01*
X12957657Y-11520760D02*
X12967181Y-11539808D01*
X12967181Y-11539808D02*
X12967181Y-11644570D01*
X12967181Y-11539808D02*
X12976704Y-11520760D01*
X12976704Y-11520760D02*
X12995752Y-11511236D01*
X12995752Y-11511236D02*
X13024323Y-11511236D01*
X13024323Y-11511236D02*
X13043371Y-11520760D01*
X13043371Y-11520760D02*
X13052895Y-11539808D01*
X13052895Y-11539808D02*
X13052895Y-11644570D01*
X13443371Y-11435046D02*
X13271943Y-11692189D01*
X13700514Y-11444570D02*
X13719562Y-11444570D01*
X13719562Y-11444570D02*
X13738609Y-11454094D01*
X13738609Y-11454094D02*
X13748133Y-11463617D01*
X13748133Y-11463617D02*
X13757657Y-11482665D01*
X13757657Y-11482665D02*
X13767181Y-11520760D01*
X13767181Y-11520760D02*
X13767181Y-11568379D01*
X13767181Y-11568379D02*
X13757657Y-11606474D01*
X13757657Y-11606474D02*
X13748133Y-11625522D01*
X13748133Y-11625522D02*
X13738609Y-11635046D01*
X13738609Y-11635046D02*
X13719562Y-11644570D01*
X13719562Y-11644570D02*
X13700514Y-11644570D01*
X13700514Y-11644570D02*
X13681466Y-11635046D01*
X13681466Y-11635046D02*
X13671943Y-11625522D01*
X13671943Y-11625522D02*
X13662419Y-11606474D01*
X13662419Y-11606474D02*
X13652895Y-11568379D01*
X13652895Y-11568379D02*
X13652895Y-11520760D01*
X13652895Y-11520760D02*
X13662419Y-11482665D01*
X13662419Y-11482665D02*
X13671943Y-11463617D01*
X13671943Y-11463617D02*
X13681466Y-11454094D01*
X13681466Y-11454094D02*
X13700514Y-11444570D01*
X13852895Y-11625522D02*
X13862419Y-11635046D01*
X13862419Y-11635046D02*
X13852895Y-11644570D01*
X13852895Y-11644570D02*
X13843371Y-11635046D01*
X13843371Y-11635046D02*
X13852895Y-11625522D01*
X13852895Y-11625522D02*
X13852895Y-11644570D01*
X13986228Y-11444570D02*
X14005276Y-11444570D01*
X14005276Y-11444570D02*
X14024324Y-11454094D01*
X14024324Y-11454094D02*
X14033847Y-11463617D01*
X14033847Y-11463617D02*
X14043371Y-11482665D01*
X14043371Y-11482665D02*
X14052895Y-11520760D01*
X14052895Y-11520760D02*
X14052895Y-11568379D01*
X14052895Y-11568379D02*
X14043371Y-11606474D01*
X14043371Y-11606474D02*
X14033847Y-11625522D01*
X14033847Y-11625522D02*
X14024324Y-11635046D01*
X14024324Y-11635046D02*
X14005276Y-11644570D01*
X14005276Y-11644570D02*
X13986228Y-11644570D01*
X13986228Y-11644570D02*
X13967181Y-11635046D01*
X13967181Y-11635046D02*
X13957657Y-11625522D01*
X13957657Y-11625522D02*
X13948133Y-11606474D01*
X13948133Y-11606474D02*
X13938609Y-11568379D01*
X13938609Y-11568379D02*
X13938609Y-11520760D01*
X13938609Y-11520760D02*
X13948133Y-11482665D01*
X13948133Y-11482665D02*
X13957657Y-11463617D01*
X13957657Y-11463617D02*
X13967181Y-11454094D01*
X13967181Y-11454094D02*
X13986228Y-11444570D01*
X14119562Y-11444570D02*
X14243371Y-11444570D01*
X14243371Y-11444570D02*
X14176705Y-11520760D01*
X14176705Y-11520760D02*
X14205276Y-11520760D01*
X14205276Y-11520760D02*
X14224324Y-11530284D01*
X14224324Y-11530284D02*
X14233847Y-11539808D01*
X14233847Y-11539808D02*
X14243371Y-11558855D01*
X14243371Y-11558855D02*
X14243371Y-11606474D01*
X14243371Y-11606474D02*
X14233847Y-11625522D01*
X14233847Y-11625522D02*
X14224324Y-11635046D01*
X14224324Y-11635046D02*
X14205276Y-11644570D01*
X14205276Y-11644570D02*
X14148133Y-11644570D01*
X14148133Y-11644570D02*
X14129086Y-11635046D01*
X14129086Y-11635046D02*
X14119562Y-11625522D01*
X14424324Y-11444570D02*
X14329086Y-11444570D01*
X14329086Y-11444570D02*
X14319562Y-11539808D01*
X14319562Y-11539808D02*
X14329086Y-11530284D01*
X14329086Y-11530284D02*
X14348133Y-11520760D01*
X14348133Y-11520760D02*
X14395752Y-11520760D01*
X14395752Y-11520760D02*
X14414800Y-11530284D01*
X14414800Y-11530284D02*
X14424324Y-11539808D01*
X14424324Y-11539808D02*
X14433847Y-11558855D01*
X14433847Y-11558855D02*
X14433847Y-11606474D01*
X14433847Y-11606474D02*
X14424324Y-11625522D01*
X14424324Y-11625522D02*
X14414800Y-11635046D01*
X14414800Y-11635046D02*
X14395752Y-11644570D01*
X14395752Y-11644570D02*
X14348133Y-11644570D01*
X14348133Y-11644570D02*
X14329086Y-11635046D01*
X14329086Y-11635046D02*
X14319562Y-11625522D01*
X14605276Y-11511236D02*
X14605276Y-11644570D01*
X14557657Y-11435046D02*
X14510038Y-11577903D01*
X14510038Y-11577903D02*
X14633847Y-11577903D01*
X14700514Y-11444570D02*
X14700514Y-11482665D01*
X14776705Y-11444570D02*
X14776705Y-11482665D01*
X15071943Y-11720760D02*
X15062419Y-11711236D01*
X15062419Y-11711236D02*
X15043371Y-11682665D01*
X15043371Y-11682665D02*
X15033848Y-11663617D01*
X15033848Y-11663617D02*
X15024324Y-11635046D01*
X15024324Y-11635046D02*
X15014800Y-11587427D01*
X15014800Y-11587427D02*
X15014800Y-11549332D01*
X15014800Y-11549332D02*
X15024324Y-11501713D01*
X15024324Y-11501713D02*
X15033848Y-11473141D01*
X15033848Y-11473141D02*
X15043371Y-11454094D01*
X15043371Y-11454094D02*
X15062419Y-11425522D01*
X15062419Y-11425522D02*
X15071943Y-11415998D01*
X15233848Y-11444570D02*
X15195752Y-11444570D01*
X15195752Y-11444570D02*
X15176705Y-11454094D01*
X15176705Y-11454094D02*
X15167181Y-11463617D01*
X15167181Y-11463617D02*
X15148133Y-11492189D01*
X15148133Y-11492189D02*
X15138609Y-11530284D01*
X15138609Y-11530284D02*
X15138609Y-11606474D01*
X15138609Y-11606474D02*
X15148133Y-11625522D01*
X15148133Y-11625522D02*
X15157657Y-11635046D01*
X15157657Y-11635046D02*
X15176705Y-11644570D01*
X15176705Y-11644570D02*
X15214800Y-11644570D01*
X15214800Y-11644570D02*
X15233848Y-11635046D01*
X15233848Y-11635046D02*
X15243371Y-11625522D01*
X15243371Y-11625522D02*
X15252895Y-11606474D01*
X15252895Y-11606474D02*
X15252895Y-11558855D01*
X15252895Y-11558855D02*
X15243371Y-11539808D01*
X15243371Y-11539808D02*
X15233848Y-11530284D01*
X15233848Y-11530284D02*
X15214800Y-11520760D01*
X15214800Y-11520760D02*
X15176705Y-11520760D01*
X15176705Y-11520760D02*
X15157657Y-11530284D01*
X15157657Y-11530284D02*
X15148133Y-11539808D01*
X15148133Y-11539808D02*
X15138609Y-11558855D01*
X15490990Y-11644570D02*
X15490990Y-11444570D01*
X15576705Y-11644570D02*
X15576705Y-11539808D01*
X15576705Y-11539808D02*
X15567181Y-11520760D01*
X15567181Y-11520760D02*
X15548133Y-11511236D01*
X15548133Y-11511236D02*
X15519562Y-11511236D01*
X15519562Y-11511236D02*
X15500514Y-11520760D01*
X15500514Y-11520760D02*
X15490990Y-11530284D01*
X15700514Y-11644570D02*
X15681467Y-11635046D01*
X15681467Y-11635046D02*
X15671943Y-11625522D01*
X15671943Y-11625522D02*
X15662419Y-11606474D01*
X15662419Y-11606474D02*
X15662419Y-11549332D01*
X15662419Y-11549332D02*
X15671943Y-11530284D01*
X15671943Y-11530284D02*
X15681467Y-11520760D01*
X15681467Y-11520760D02*
X15700514Y-11511236D01*
X15700514Y-11511236D02*
X15729086Y-11511236D01*
X15729086Y-11511236D02*
X15748133Y-11520760D01*
X15748133Y-11520760D02*
X15757657Y-11530284D01*
X15757657Y-11530284D02*
X15767181Y-11549332D01*
X15767181Y-11549332D02*
X15767181Y-11606474D01*
X15767181Y-11606474D02*
X15757657Y-11625522D01*
X15757657Y-11625522D02*
X15748133Y-11635046D01*
X15748133Y-11635046D02*
X15729086Y-11644570D01*
X15729086Y-11644570D02*
X15700514Y-11644570D01*
X15881467Y-11644570D02*
X15862419Y-11635046D01*
X15862419Y-11635046D02*
X15852895Y-11615998D01*
X15852895Y-11615998D02*
X15852895Y-11444570D01*
X16033848Y-11635046D02*
X16014800Y-11644570D01*
X16014800Y-11644570D02*
X15976705Y-11644570D01*
X15976705Y-11644570D02*
X15957657Y-11635046D01*
X15957657Y-11635046D02*
X15948133Y-11615998D01*
X15948133Y-11615998D02*
X15948133Y-11539808D01*
X15948133Y-11539808D02*
X15957657Y-11520760D01*
X15957657Y-11520760D02*
X15976705Y-11511236D01*
X15976705Y-11511236D02*
X16014800Y-11511236D01*
X16014800Y-11511236D02*
X16033848Y-11520760D01*
X16033848Y-11520760D02*
X16043371Y-11539808D01*
X16043371Y-11539808D02*
X16043371Y-11558855D01*
X16043371Y-11558855D02*
X15948133Y-11577903D01*
X16119562Y-11635046D02*
X16138610Y-11644570D01*
X16138610Y-11644570D02*
X16176705Y-11644570D01*
X16176705Y-11644570D02*
X16195752Y-11635046D01*
X16195752Y-11635046D02*
X16205276Y-11615998D01*
X16205276Y-11615998D02*
X16205276Y-11606474D01*
X16205276Y-11606474D02*
X16195752Y-11587427D01*
X16195752Y-11587427D02*
X16176705Y-11577903D01*
X16176705Y-11577903D02*
X16148133Y-11577903D01*
X16148133Y-11577903D02*
X16129086Y-11568379D01*
X16129086Y-11568379D02*
X16119562Y-11549332D01*
X16119562Y-11549332D02*
X16119562Y-11539808D01*
X16119562Y-11539808D02*
X16129086Y-11520760D01*
X16129086Y-11520760D02*
X16148133Y-11511236D01*
X16148133Y-11511236D02*
X16176705Y-11511236D01*
X16176705Y-11511236D02*
X16195752Y-11520760D01*
X16271943Y-11720760D02*
X16281467Y-11711236D01*
X16281467Y-11711236D02*
X16300514Y-11682665D01*
X16300514Y-11682665D02*
X16310038Y-11663617D01*
X16310038Y-11663617D02*
X16319562Y-11635046D01*
X16319562Y-11635046D02*
X16329086Y-11587427D01*
X16329086Y-11587427D02*
X16329086Y-11549332D01*
X16329086Y-11549332D02*
X16319562Y-11501713D01*
X16319562Y-11501713D02*
X16310038Y-11473141D01*
X16310038Y-11473141D02*
X16300514Y-11454094D01*
X16300514Y-11454094D02*
X16281467Y-11425522D01*
X16281467Y-11425522D02*
X16271943Y-11415998D01*
D12*
X11446880Y-11767086D02*
X11446880Y-11867086D01*
X11396880Y-11817086D02*
X11496880Y-11817086D01*
D11*
X11862419Y-11908570D02*
X11748133Y-11908570D01*
X11805276Y-11908570D02*
X11805276Y-11708570D01*
X11805276Y-11708570D02*
X11786228Y-11737141D01*
X11786228Y-11737141D02*
X11767181Y-11756189D01*
X11767181Y-11756189D02*
X11748133Y-11765713D01*
X11948133Y-11889522D02*
X11957657Y-11899046D01*
X11957657Y-11899046D02*
X11948133Y-11908570D01*
X11948133Y-11908570D02*
X11938609Y-11899046D01*
X11938609Y-11899046D02*
X11948133Y-11889522D01*
X11948133Y-11889522D02*
X11948133Y-11908570D01*
X12081466Y-11708570D02*
X12100514Y-11708570D01*
X12100514Y-11708570D02*
X12119562Y-11718094D01*
X12119562Y-11718094D02*
X12129085Y-11727617D01*
X12129085Y-11727617D02*
X12138609Y-11746665D01*
X12138609Y-11746665D02*
X12148133Y-11784760D01*
X12148133Y-11784760D02*
X12148133Y-11832379D01*
X12148133Y-11832379D02*
X12138609Y-11870474D01*
X12138609Y-11870474D02*
X12129085Y-11889522D01*
X12129085Y-11889522D02*
X12119562Y-11899046D01*
X12119562Y-11899046D02*
X12100514Y-11908570D01*
X12100514Y-11908570D02*
X12081466Y-11908570D01*
X12081466Y-11908570D02*
X12062419Y-11899046D01*
X12062419Y-11899046D02*
X12052895Y-11889522D01*
X12052895Y-11889522D02*
X12043371Y-11870474D01*
X12043371Y-11870474D02*
X12033847Y-11832379D01*
X12033847Y-11832379D02*
X12033847Y-11784760D01*
X12033847Y-11784760D02*
X12043371Y-11746665D01*
X12043371Y-11746665D02*
X12052895Y-11727617D01*
X12052895Y-11727617D02*
X12062419Y-11718094D01*
X12062419Y-11718094D02*
X12081466Y-11708570D01*
X12271942Y-11708570D02*
X12290990Y-11708570D01*
X12290990Y-11708570D02*
X12310038Y-11718094D01*
X12310038Y-11718094D02*
X12319562Y-11727617D01*
X12319562Y-11727617D02*
X12329085Y-11746665D01*
X12329085Y-11746665D02*
X12338609Y-11784760D01*
X12338609Y-11784760D02*
X12338609Y-11832379D01*
X12338609Y-11832379D02*
X12329085Y-11870474D01*
X12329085Y-11870474D02*
X12319562Y-11889522D01*
X12319562Y-11889522D02*
X12310038Y-11899046D01*
X12310038Y-11899046D02*
X12290990Y-11908570D01*
X12290990Y-11908570D02*
X12271942Y-11908570D01*
X12271942Y-11908570D02*
X12252895Y-11899046D01*
X12252895Y-11899046D02*
X12243371Y-11889522D01*
X12243371Y-11889522D02*
X12233847Y-11870474D01*
X12233847Y-11870474D02*
X12224323Y-11832379D01*
X12224323Y-11832379D02*
X12224323Y-11784760D01*
X12224323Y-11784760D02*
X12233847Y-11746665D01*
X12233847Y-11746665D02*
X12243371Y-11727617D01*
X12243371Y-11727617D02*
X12252895Y-11718094D01*
X12252895Y-11718094D02*
X12271942Y-11708570D01*
X12462419Y-11708570D02*
X12481466Y-11708570D01*
X12481466Y-11708570D02*
X12500514Y-11718094D01*
X12500514Y-11718094D02*
X12510038Y-11727617D01*
X12510038Y-11727617D02*
X12519562Y-11746665D01*
X12519562Y-11746665D02*
X12529085Y-11784760D01*
X12529085Y-11784760D02*
X12529085Y-11832379D01*
X12529085Y-11832379D02*
X12519562Y-11870474D01*
X12519562Y-11870474D02*
X12510038Y-11889522D01*
X12510038Y-11889522D02*
X12500514Y-11899046D01*
X12500514Y-11899046D02*
X12481466Y-11908570D01*
X12481466Y-11908570D02*
X12462419Y-11908570D01*
X12462419Y-11908570D02*
X12443371Y-11899046D01*
X12443371Y-11899046D02*
X12433847Y-11889522D01*
X12433847Y-11889522D02*
X12424323Y-11870474D01*
X12424323Y-11870474D02*
X12414800Y-11832379D01*
X12414800Y-11832379D02*
X12414800Y-11784760D01*
X12414800Y-11784760D02*
X12424323Y-11746665D01*
X12424323Y-11746665D02*
X12433847Y-11727617D01*
X12433847Y-11727617D02*
X12443371Y-11718094D01*
X12443371Y-11718094D02*
X12462419Y-11708570D01*
X12614800Y-11908570D02*
X12614800Y-11775236D01*
X12614800Y-11794284D02*
X12624323Y-11784760D01*
X12624323Y-11784760D02*
X12643371Y-11775236D01*
X12643371Y-11775236D02*
X12671943Y-11775236D01*
X12671943Y-11775236D02*
X12690990Y-11784760D01*
X12690990Y-11784760D02*
X12700514Y-11803808D01*
X12700514Y-11803808D02*
X12700514Y-11908570D01*
X12700514Y-11803808D02*
X12710038Y-11784760D01*
X12710038Y-11784760D02*
X12729085Y-11775236D01*
X12729085Y-11775236D02*
X12757657Y-11775236D01*
X12757657Y-11775236D02*
X12776704Y-11784760D01*
X12776704Y-11784760D02*
X12786228Y-11803808D01*
X12786228Y-11803808D02*
X12786228Y-11908570D01*
X12881466Y-11908570D02*
X12881466Y-11775236D01*
X12881466Y-11794284D02*
X12890990Y-11784760D01*
X12890990Y-11784760D02*
X12910038Y-11775236D01*
X12910038Y-11775236D02*
X12938609Y-11775236D01*
X12938609Y-11775236D02*
X12957657Y-11784760D01*
X12957657Y-11784760D02*
X12967181Y-11803808D01*
X12967181Y-11803808D02*
X12967181Y-11908570D01*
X12967181Y-11803808D02*
X12976704Y-11784760D01*
X12976704Y-11784760D02*
X12995752Y-11775236D01*
X12995752Y-11775236D02*
X13024323Y-11775236D01*
X13024323Y-11775236D02*
X13043371Y-11784760D01*
X13043371Y-11784760D02*
X13052895Y-11803808D01*
X13052895Y-11803808D02*
X13052895Y-11908570D01*
X13443371Y-11699046D02*
X13271943Y-11956189D01*
X13700514Y-11708570D02*
X13719562Y-11708570D01*
X13719562Y-11708570D02*
X13738609Y-11718094D01*
X13738609Y-11718094D02*
X13748133Y-11727617D01*
X13748133Y-11727617D02*
X13757657Y-11746665D01*
X13757657Y-11746665D02*
X13767181Y-11784760D01*
X13767181Y-11784760D02*
X13767181Y-11832379D01*
X13767181Y-11832379D02*
X13757657Y-11870474D01*
X13757657Y-11870474D02*
X13748133Y-11889522D01*
X13748133Y-11889522D02*
X13738609Y-11899046D01*
X13738609Y-11899046D02*
X13719562Y-11908570D01*
X13719562Y-11908570D02*
X13700514Y-11908570D01*
X13700514Y-11908570D02*
X13681466Y-11899046D01*
X13681466Y-11899046D02*
X13671943Y-11889522D01*
X13671943Y-11889522D02*
X13662419Y-11870474D01*
X13662419Y-11870474D02*
X13652895Y-11832379D01*
X13652895Y-11832379D02*
X13652895Y-11784760D01*
X13652895Y-11784760D02*
X13662419Y-11746665D01*
X13662419Y-11746665D02*
X13671943Y-11727617D01*
X13671943Y-11727617D02*
X13681466Y-11718094D01*
X13681466Y-11718094D02*
X13700514Y-11708570D01*
X13852895Y-11889522D02*
X13862419Y-11899046D01*
X13862419Y-11899046D02*
X13852895Y-11908570D01*
X13852895Y-11908570D02*
X13843371Y-11899046D01*
X13843371Y-11899046D02*
X13852895Y-11889522D01*
X13852895Y-11889522D02*
X13852895Y-11908570D01*
X13986228Y-11708570D02*
X14005276Y-11708570D01*
X14005276Y-11708570D02*
X14024324Y-11718094D01*
X14024324Y-11718094D02*
X14033847Y-11727617D01*
X14033847Y-11727617D02*
X14043371Y-11746665D01*
X14043371Y-11746665D02*
X14052895Y-11784760D01*
X14052895Y-11784760D02*
X14052895Y-11832379D01*
X14052895Y-11832379D02*
X14043371Y-11870474D01*
X14043371Y-11870474D02*
X14033847Y-11889522D01*
X14033847Y-11889522D02*
X14024324Y-11899046D01*
X14024324Y-11899046D02*
X14005276Y-11908570D01*
X14005276Y-11908570D02*
X13986228Y-11908570D01*
X13986228Y-11908570D02*
X13967181Y-11899046D01*
X13967181Y-11899046D02*
X13957657Y-11889522D01*
X13957657Y-11889522D02*
X13948133Y-11870474D01*
X13948133Y-11870474D02*
X13938609Y-11832379D01*
X13938609Y-11832379D02*
X13938609Y-11784760D01*
X13938609Y-11784760D02*
X13948133Y-11746665D01*
X13948133Y-11746665D02*
X13957657Y-11727617D01*
X13957657Y-11727617D02*
X13967181Y-11718094D01*
X13967181Y-11718094D02*
X13986228Y-11708570D01*
X14119562Y-11708570D02*
X14243371Y-11708570D01*
X14243371Y-11708570D02*
X14176705Y-11784760D01*
X14176705Y-11784760D02*
X14205276Y-11784760D01*
X14205276Y-11784760D02*
X14224324Y-11794284D01*
X14224324Y-11794284D02*
X14233847Y-11803808D01*
X14233847Y-11803808D02*
X14243371Y-11822855D01*
X14243371Y-11822855D02*
X14243371Y-11870474D01*
X14243371Y-11870474D02*
X14233847Y-11889522D01*
X14233847Y-11889522D02*
X14224324Y-11899046D01*
X14224324Y-11899046D02*
X14205276Y-11908570D01*
X14205276Y-11908570D02*
X14148133Y-11908570D01*
X14148133Y-11908570D02*
X14129086Y-11899046D01*
X14129086Y-11899046D02*
X14119562Y-11889522D01*
X14338609Y-11908570D02*
X14376705Y-11908570D01*
X14376705Y-11908570D02*
X14395752Y-11899046D01*
X14395752Y-11899046D02*
X14405276Y-11889522D01*
X14405276Y-11889522D02*
X14424324Y-11860951D01*
X14424324Y-11860951D02*
X14433847Y-11822855D01*
X14433847Y-11822855D02*
X14433847Y-11746665D01*
X14433847Y-11746665D02*
X14424324Y-11727617D01*
X14424324Y-11727617D02*
X14414800Y-11718094D01*
X14414800Y-11718094D02*
X14395752Y-11708570D01*
X14395752Y-11708570D02*
X14357657Y-11708570D01*
X14357657Y-11708570D02*
X14338609Y-11718094D01*
X14338609Y-11718094D02*
X14329086Y-11727617D01*
X14329086Y-11727617D02*
X14319562Y-11746665D01*
X14319562Y-11746665D02*
X14319562Y-11794284D01*
X14319562Y-11794284D02*
X14329086Y-11813332D01*
X14329086Y-11813332D02*
X14338609Y-11822855D01*
X14338609Y-11822855D02*
X14357657Y-11832379D01*
X14357657Y-11832379D02*
X14395752Y-11832379D01*
X14395752Y-11832379D02*
X14414800Y-11822855D01*
X14414800Y-11822855D02*
X14424324Y-11813332D01*
X14424324Y-11813332D02*
X14433847Y-11794284D01*
X14605276Y-11775236D02*
X14605276Y-11908570D01*
X14557657Y-11699046D02*
X14510038Y-11841903D01*
X14510038Y-11841903D02*
X14633847Y-11841903D01*
X14700514Y-11708570D02*
X14700514Y-11746665D01*
X14776705Y-11708570D02*
X14776705Y-11746665D01*
X15071943Y-11984760D02*
X15062419Y-11975236D01*
X15062419Y-11975236D02*
X15043371Y-11946665D01*
X15043371Y-11946665D02*
X15033848Y-11927617D01*
X15033848Y-11927617D02*
X15024324Y-11899046D01*
X15024324Y-11899046D02*
X15014800Y-11851427D01*
X15014800Y-11851427D02*
X15014800Y-11813332D01*
X15014800Y-11813332D02*
X15024324Y-11765713D01*
X15024324Y-11765713D02*
X15033848Y-11737141D01*
X15033848Y-11737141D02*
X15043371Y-11718094D01*
X15043371Y-11718094D02*
X15062419Y-11689522D01*
X15062419Y-11689522D02*
X15071943Y-11679998D01*
X15138609Y-11727617D02*
X15148133Y-11718094D01*
X15148133Y-11718094D02*
X15167181Y-11708570D01*
X15167181Y-11708570D02*
X15214800Y-11708570D01*
X15214800Y-11708570D02*
X15233848Y-11718094D01*
X15233848Y-11718094D02*
X15243371Y-11727617D01*
X15243371Y-11727617D02*
X15252895Y-11746665D01*
X15252895Y-11746665D02*
X15252895Y-11765713D01*
X15252895Y-11765713D02*
X15243371Y-11794284D01*
X15243371Y-11794284D02*
X15129086Y-11908570D01*
X15129086Y-11908570D02*
X15252895Y-11908570D01*
X15490990Y-11908570D02*
X15490990Y-11708570D01*
X15576705Y-11908570D02*
X15576705Y-11803808D01*
X15576705Y-11803808D02*
X15567181Y-11784760D01*
X15567181Y-11784760D02*
X15548133Y-11775236D01*
X15548133Y-11775236D02*
X15519562Y-11775236D01*
X15519562Y-11775236D02*
X15500514Y-11784760D01*
X15500514Y-11784760D02*
X15490990Y-11794284D01*
X15700514Y-11908570D02*
X15681467Y-11899046D01*
X15681467Y-11899046D02*
X15671943Y-11889522D01*
X15671943Y-11889522D02*
X15662419Y-11870474D01*
X15662419Y-11870474D02*
X15662419Y-11813332D01*
X15662419Y-11813332D02*
X15671943Y-11794284D01*
X15671943Y-11794284D02*
X15681467Y-11784760D01*
X15681467Y-11784760D02*
X15700514Y-11775236D01*
X15700514Y-11775236D02*
X15729086Y-11775236D01*
X15729086Y-11775236D02*
X15748133Y-11784760D01*
X15748133Y-11784760D02*
X15757657Y-11794284D01*
X15757657Y-11794284D02*
X15767181Y-11813332D01*
X15767181Y-11813332D02*
X15767181Y-11870474D01*
X15767181Y-11870474D02*
X15757657Y-11889522D01*
X15757657Y-11889522D02*
X15748133Y-11899046D01*
X15748133Y-11899046D02*
X15729086Y-11908570D01*
X15729086Y-11908570D02*
X15700514Y-11908570D01*
X15881467Y-11908570D02*
X15862419Y-11899046D01*
X15862419Y-11899046D02*
X15852895Y-11879998D01*
X15852895Y-11879998D02*
X15852895Y-11708570D01*
X16033848Y-11899046D02*
X16014800Y-11908570D01*
X16014800Y-11908570D02*
X15976705Y-11908570D01*
X15976705Y-11908570D02*
X15957657Y-11899046D01*
X15957657Y-11899046D02*
X15948133Y-11879998D01*
X15948133Y-11879998D02*
X15948133Y-11803808D01*
X15948133Y-11803808D02*
X15957657Y-11784760D01*
X15957657Y-11784760D02*
X15976705Y-11775236D01*
X15976705Y-11775236D02*
X16014800Y-11775236D01*
X16014800Y-11775236D02*
X16033848Y-11784760D01*
X16033848Y-11784760D02*
X16043371Y-11803808D01*
X16043371Y-11803808D02*
X16043371Y-11822855D01*
X16043371Y-11822855D02*
X15948133Y-11841903D01*
X16119562Y-11899046D02*
X16138610Y-11908570D01*
X16138610Y-11908570D02*
X16176705Y-11908570D01*
X16176705Y-11908570D02*
X16195752Y-11899046D01*
X16195752Y-11899046D02*
X16205276Y-11879998D01*
X16205276Y-11879998D02*
X16205276Y-11870474D01*
X16205276Y-11870474D02*
X16195752Y-11851427D01*
X16195752Y-11851427D02*
X16176705Y-11841903D01*
X16176705Y-11841903D02*
X16148133Y-11841903D01*
X16148133Y-11841903D02*
X16129086Y-11832379D01*
X16129086Y-11832379D02*
X16119562Y-11813332D01*
X16119562Y-11813332D02*
X16119562Y-11803808D01*
X16119562Y-11803808D02*
X16129086Y-11784760D01*
X16129086Y-11784760D02*
X16148133Y-11775236D01*
X16148133Y-11775236D02*
X16176705Y-11775236D01*
X16176705Y-11775236D02*
X16195752Y-11784760D01*
X16271943Y-11984760D02*
X16281467Y-11975236D01*
X16281467Y-11975236D02*
X16300514Y-11946665D01*
X16300514Y-11946665D02*
X16310038Y-11927617D01*
X16310038Y-11927617D02*
X16319562Y-11899046D01*
X16319562Y-11899046D02*
X16329086Y-11851427D01*
X16329086Y-11851427D02*
X16329086Y-11813332D01*
X16329086Y-11813332D02*
X16319562Y-11765713D01*
X16319562Y-11765713D02*
X16310038Y-11737141D01*
X16310038Y-11737141D02*
X16300514Y-11718094D01*
X16300514Y-11718094D02*
X16281467Y-11689522D01*
X16281467Y-11689522D02*
X16271943Y-11679998D01*
D13*
X11480771Y-12119977D02*
X11480771Y-12042195D01*
X11402989Y-12042195D01*
X11402989Y-12119977D01*
X11480771Y-12119977D01*
D11*
X11862419Y-12172570D02*
X11748133Y-12172570D01*
X11805276Y-12172570D02*
X11805276Y-11972570D01*
X11805276Y-11972570D02*
X11786228Y-12001141D01*
X11786228Y-12001141D02*
X11767181Y-12020189D01*
X11767181Y-12020189D02*
X11748133Y-12029713D01*
X11948133Y-12153522D02*
X11957657Y-12163046D01*
X11957657Y-12163046D02*
X11948133Y-12172570D01*
X11948133Y-12172570D02*
X11938609Y-12163046D01*
X11938609Y-12163046D02*
X11948133Y-12153522D01*
X11948133Y-12153522D02*
X11948133Y-12172570D01*
X12148133Y-12172570D02*
X12033847Y-12172570D01*
X12090990Y-12172570D02*
X12090990Y-11972570D01*
X12090990Y-11972570D02*
X12071942Y-12001141D01*
X12071942Y-12001141D02*
X12052895Y-12020189D01*
X12052895Y-12020189D02*
X12033847Y-12029713D01*
X12271942Y-11972570D02*
X12290990Y-11972570D01*
X12290990Y-11972570D02*
X12310038Y-11982094D01*
X12310038Y-11982094D02*
X12319562Y-11991617D01*
X12319562Y-11991617D02*
X12329085Y-12010665D01*
X12329085Y-12010665D02*
X12338609Y-12048760D01*
X12338609Y-12048760D02*
X12338609Y-12096379D01*
X12338609Y-12096379D02*
X12329085Y-12134474D01*
X12329085Y-12134474D02*
X12319562Y-12153522D01*
X12319562Y-12153522D02*
X12310038Y-12163046D01*
X12310038Y-12163046D02*
X12290990Y-12172570D01*
X12290990Y-12172570D02*
X12271942Y-12172570D01*
X12271942Y-12172570D02*
X12252895Y-12163046D01*
X12252895Y-12163046D02*
X12243371Y-12153522D01*
X12243371Y-12153522D02*
X12233847Y-12134474D01*
X12233847Y-12134474D02*
X12224323Y-12096379D01*
X12224323Y-12096379D02*
X12224323Y-12048760D01*
X12224323Y-12048760D02*
X12233847Y-12010665D01*
X12233847Y-12010665D02*
X12243371Y-11991617D01*
X12243371Y-11991617D02*
X12252895Y-11982094D01*
X12252895Y-11982094D02*
X12271942Y-11972570D01*
X12462419Y-11972570D02*
X12481466Y-11972570D01*
X12481466Y-11972570D02*
X12500514Y-11982094D01*
X12500514Y-11982094D02*
X12510038Y-11991617D01*
X12510038Y-11991617D02*
X12519562Y-12010665D01*
X12519562Y-12010665D02*
X12529085Y-12048760D01*
X12529085Y-12048760D02*
X12529085Y-12096379D01*
X12529085Y-12096379D02*
X12519562Y-12134474D01*
X12519562Y-12134474D02*
X12510038Y-12153522D01*
X12510038Y-12153522D02*
X12500514Y-12163046D01*
X12500514Y-12163046D02*
X12481466Y-12172570D01*
X12481466Y-12172570D02*
X12462419Y-12172570D01*
X12462419Y-12172570D02*
X12443371Y-12163046D01*
X12443371Y-12163046D02*
X12433847Y-12153522D01*
X12433847Y-12153522D02*
X12424323Y-12134474D01*
X12424323Y-12134474D02*
X12414800Y-12096379D01*
X12414800Y-12096379D02*
X12414800Y-12048760D01*
X12414800Y-12048760D02*
X12424323Y-12010665D01*
X12424323Y-12010665D02*
X12433847Y-11991617D01*
X12433847Y-11991617D02*
X12443371Y-11982094D01*
X12443371Y-11982094D02*
X12462419Y-11972570D01*
X12614800Y-12172570D02*
X12614800Y-12039236D01*
X12614800Y-12058284D02*
X12624323Y-12048760D01*
X12624323Y-12048760D02*
X12643371Y-12039236D01*
X12643371Y-12039236D02*
X12671943Y-12039236D01*
X12671943Y-12039236D02*
X12690990Y-12048760D01*
X12690990Y-12048760D02*
X12700514Y-12067808D01*
X12700514Y-12067808D02*
X12700514Y-12172570D01*
X12700514Y-12067808D02*
X12710038Y-12048760D01*
X12710038Y-12048760D02*
X12729085Y-12039236D01*
X12729085Y-12039236D02*
X12757657Y-12039236D01*
X12757657Y-12039236D02*
X12776704Y-12048760D01*
X12776704Y-12048760D02*
X12786228Y-12067808D01*
X12786228Y-12067808D02*
X12786228Y-12172570D01*
X12881466Y-12172570D02*
X12881466Y-12039236D01*
X12881466Y-12058284D02*
X12890990Y-12048760D01*
X12890990Y-12048760D02*
X12910038Y-12039236D01*
X12910038Y-12039236D02*
X12938609Y-12039236D01*
X12938609Y-12039236D02*
X12957657Y-12048760D01*
X12957657Y-12048760D02*
X12967181Y-12067808D01*
X12967181Y-12067808D02*
X12967181Y-12172570D01*
X12967181Y-12067808D02*
X12976704Y-12048760D01*
X12976704Y-12048760D02*
X12995752Y-12039236D01*
X12995752Y-12039236D02*
X13024323Y-12039236D01*
X13024323Y-12039236D02*
X13043371Y-12048760D01*
X13043371Y-12048760D02*
X13052895Y-12067808D01*
X13052895Y-12067808D02*
X13052895Y-12172570D01*
X13443371Y-11963046D02*
X13271943Y-12220189D01*
X13700514Y-11972570D02*
X13719562Y-11972570D01*
X13719562Y-11972570D02*
X13738609Y-11982094D01*
X13738609Y-11982094D02*
X13748133Y-11991617D01*
X13748133Y-11991617D02*
X13757657Y-12010665D01*
X13757657Y-12010665D02*
X13767181Y-12048760D01*
X13767181Y-12048760D02*
X13767181Y-12096379D01*
X13767181Y-12096379D02*
X13757657Y-12134474D01*
X13757657Y-12134474D02*
X13748133Y-12153522D01*
X13748133Y-12153522D02*
X13738609Y-12163046D01*
X13738609Y-12163046D02*
X13719562Y-12172570D01*
X13719562Y-12172570D02*
X13700514Y-12172570D01*
X13700514Y-12172570D02*
X13681466Y-12163046D01*
X13681466Y-12163046D02*
X13671943Y-12153522D01*
X13671943Y-12153522D02*
X13662419Y-12134474D01*
X13662419Y-12134474D02*
X13652895Y-12096379D01*
X13652895Y-12096379D02*
X13652895Y-12048760D01*
X13652895Y-12048760D02*
X13662419Y-12010665D01*
X13662419Y-12010665D02*
X13671943Y-11991617D01*
X13671943Y-11991617D02*
X13681466Y-11982094D01*
X13681466Y-11982094D02*
X13700514Y-11972570D01*
X13852895Y-12153522D02*
X13862419Y-12163046D01*
X13862419Y-12163046D02*
X13852895Y-12172570D01*
X13852895Y-12172570D02*
X13843371Y-12163046D01*
X13843371Y-12163046D02*
X13852895Y-12153522D01*
X13852895Y-12153522D02*
X13852895Y-12172570D01*
X13986228Y-11972570D02*
X14005276Y-11972570D01*
X14005276Y-11972570D02*
X14024324Y-11982094D01*
X14024324Y-11982094D02*
X14033847Y-11991617D01*
X14033847Y-11991617D02*
X14043371Y-12010665D01*
X14043371Y-12010665D02*
X14052895Y-12048760D01*
X14052895Y-12048760D02*
X14052895Y-12096379D01*
X14052895Y-12096379D02*
X14043371Y-12134474D01*
X14043371Y-12134474D02*
X14033847Y-12153522D01*
X14033847Y-12153522D02*
X14024324Y-12163046D01*
X14024324Y-12163046D02*
X14005276Y-12172570D01*
X14005276Y-12172570D02*
X13986228Y-12172570D01*
X13986228Y-12172570D02*
X13967181Y-12163046D01*
X13967181Y-12163046D02*
X13957657Y-12153522D01*
X13957657Y-12153522D02*
X13948133Y-12134474D01*
X13948133Y-12134474D02*
X13938609Y-12096379D01*
X13938609Y-12096379D02*
X13938609Y-12048760D01*
X13938609Y-12048760D02*
X13948133Y-12010665D01*
X13948133Y-12010665D02*
X13957657Y-11991617D01*
X13957657Y-11991617D02*
X13967181Y-11982094D01*
X13967181Y-11982094D02*
X13986228Y-11972570D01*
X14224324Y-12039236D02*
X14224324Y-12172570D01*
X14176705Y-11963046D02*
X14129086Y-12105903D01*
X14129086Y-12105903D02*
X14252895Y-12105903D01*
X14310038Y-11972570D02*
X14433847Y-11972570D01*
X14433847Y-11972570D02*
X14367181Y-12048760D01*
X14367181Y-12048760D02*
X14395752Y-12048760D01*
X14395752Y-12048760D02*
X14414800Y-12058284D01*
X14414800Y-12058284D02*
X14424324Y-12067808D01*
X14424324Y-12067808D02*
X14433847Y-12086855D01*
X14433847Y-12086855D02*
X14433847Y-12134474D01*
X14433847Y-12134474D02*
X14424324Y-12153522D01*
X14424324Y-12153522D02*
X14414800Y-12163046D01*
X14414800Y-12163046D02*
X14395752Y-12172570D01*
X14395752Y-12172570D02*
X14338609Y-12172570D01*
X14338609Y-12172570D02*
X14319562Y-12163046D01*
X14319562Y-12163046D02*
X14310038Y-12153522D01*
X14500514Y-11972570D02*
X14624324Y-11972570D01*
X14624324Y-11972570D02*
X14557657Y-12048760D01*
X14557657Y-12048760D02*
X14586228Y-12048760D01*
X14586228Y-12048760D02*
X14605276Y-12058284D01*
X14605276Y-12058284D02*
X14614800Y-12067808D01*
X14614800Y-12067808D02*
X14624324Y-12086855D01*
X14624324Y-12086855D02*
X14624324Y-12134474D01*
X14624324Y-12134474D02*
X14614800Y-12153522D01*
X14614800Y-12153522D02*
X14605276Y-12163046D01*
X14605276Y-12163046D02*
X14586228Y-12172570D01*
X14586228Y-12172570D02*
X14529086Y-12172570D01*
X14529086Y-12172570D02*
X14510038Y-12163046D01*
X14510038Y-12163046D02*
X14500514Y-12153522D01*
X14700514Y-11972570D02*
X14700514Y-12010665D01*
X14776705Y-11972570D02*
X14776705Y-12010665D01*
X15071943Y-12248760D02*
X15062419Y-12239236D01*
X15062419Y-12239236D02*
X15043371Y-12210665D01*
X15043371Y-12210665D02*
X15033848Y-12191617D01*
X15033848Y-12191617D02*
X15024324Y-12163046D01*
X15024324Y-12163046D02*
X15014800Y-12115427D01*
X15014800Y-12115427D02*
X15014800Y-12077332D01*
X15014800Y-12077332D02*
X15024324Y-12029713D01*
X15024324Y-12029713D02*
X15033848Y-12001141D01*
X15033848Y-12001141D02*
X15043371Y-11982094D01*
X15043371Y-11982094D02*
X15062419Y-11953522D01*
X15062419Y-11953522D02*
X15071943Y-11943998D01*
X15252895Y-12172570D02*
X15138609Y-12172570D01*
X15195752Y-12172570D02*
X15195752Y-11972570D01*
X15195752Y-11972570D02*
X15176705Y-12001141D01*
X15176705Y-12001141D02*
X15157657Y-12020189D01*
X15157657Y-12020189D02*
X15138609Y-12029713D01*
X15443371Y-12172570D02*
X15329086Y-12172570D01*
X15386228Y-12172570D02*
X15386228Y-11972570D01*
X15386228Y-11972570D02*
X15367181Y-12001141D01*
X15367181Y-12001141D02*
X15348133Y-12020189D01*
X15348133Y-12020189D02*
X15329086Y-12029713D01*
X15681467Y-12172570D02*
X15681467Y-11972570D01*
X15767181Y-12172570D02*
X15767181Y-12067808D01*
X15767181Y-12067808D02*
X15757657Y-12048760D01*
X15757657Y-12048760D02*
X15738610Y-12039236D01*
X15738610Y-12039236D02*
X15710038Y-12039236D01*
X15710038Y-12039236D02*
X15690990Y-12048760D01*
X15690990Y-12048760D02*
X15681467Y-12058284D01*
X15890990Y-12172570D02*
X15871943Y-12163046D01*
X15871943Y-12163046D02*
X15862419Y-12153522D01*
X15862419Y-12153522D02*
X15852895Y-12134474D01*
X15852895Y-12134474D02*
X15852895Y-12077332D01*
X15852895Y-12077332D02*
X15862419Y-12058284D01*
X15862419Y-12058284D02*
X15871943Y-12048760D01*
X15871943Y-12048760D02*
X15890990Y-12039236D01*
X15890990Y-12039236D02*
X15919562Y-12039236D01*
X15919562Y-12039236D02*
X15938610Y-12048760D01*
X15938610Y-12048760D02*
X15948133Y-12058284D01*
X15948133Y-12058284D02*
X15957657Y-12077332D01*
X15957657Y-12077332D02*
X15957657Y-12134474D01*
X15957657Y-12134474D02*
X15948133Y-12153522D01*
X15948133Y-12153522D02*
X15938610Y-12163046D01*
X15938610Y-12163046D02*
X15919562Y-12172570D01*
X15919562Y-12172570D02*
X15890990Y-12172570D01*
X16071943Y-12172570D02*
X16052895Y-12163046D01*
X16052895Y-12163046D02*
X16043371Y-12143998D01*
X16043371Y-12143998D02*
X16043371Y-11972570D01*
X16224324Y-12163046D02*
X16205276Y-12172570D01*
X16205276Y-12172570D02*
X16167181Y-12172570D01*
X16167181Y-12172570D02*
X16148133Y-12163046D01*
X16148133Y-12163046D02*
X16138610Y-12143998D01*
X16138610Y-12143998D02*
X16138610Y-12067808D01*
X16138610Y-12067808D02*
X16148133Y-12048760D01*
X16148133Y-12048760D02*
X16167181Y-12039236D01*
X16167181Y-12039236D02*
X16205276Y-12039236D01*
X16205276Y-12039236D02*
X16224324Y-12048760D01*
X16224324Y-12048760D02*
X16233848Y-12067808D01*
X16233848Y-12067808D02*
X16233848Y-12086855D01*
X16233848Y-12086855D02*
X16138610Y-12105903D01*
X16310038Y-12163046D02*
X16329086Y-12172570D01*
X16329086Y-12172570D02*
X16367181Y-12172570D01*
X16367181Y-12172570D02*
X16386229Y-12163046D01*
X16386229Y-12163046D02*
X16395752Y-12143998D01*
X16395752Y-12143998D02*
X16395752Y-12134474D01*
X16395752Y-12134474D02*
X16386229Y-12115427D01*
X16386229Y-12115427D02*
X16367181Y-12105903D01*
X16367181Y-12105903D02*
X16338610Y-12105903D01*
X16338610Y-12105903D02*
X16319562Y-12096379D01*
X16319562Y-12096379D02*
X16310038Y-12077332D01*
X16310038Y-12077332D02*
X16310038Y-12067808D01*
X16310038Y-12067808D02*
X16319562Y-12048760D01*
X16319562Y-12048760D02*
X16338610Y-12039236D01*
X16338610Y-12039236D02*
X16367181Y-12039236D01*
X16367181Y-12039236D02*
X16386229Y-12048760D01*
X16462419Y-12248760D02*
X16471943Y-12239236D01*
X16471943Y-12239236D02*
X16490991Y-12210665D01*
X16490991Y-12210665D02*
X16500514Y-12191617D01*
X16500514Y-12191617D02*
X16510038Y-12163046D01*
X16510038Y-12163046D02*
X16519562Y-12115427D01*
X16519562Y-12115427D02*
X16519562Y-12077332D01*
X16519562Y-12077332D02*
X16510038Y-12029713D01*
X16510038Y-12029713D02*
X16500514Y-12001141D01*
X16500514Y-12001141D02*
X16490991Y-11982094D01*
X16490991Y-11982094D02*
X16471943Y-11953522D01*
X16471943Y-11953522D02*
X16462419Y-11943998D01*
D14*
X11436880Y-12405086D02*
X11496880Y-12345086D01*
X11436880Y-12285086D01*
X11376880Y-12345086D01*
X11436880Y-12405086D01*
D11*
X11862419Y-12436570D02*
X11748133Y-12436570D01*
X11805276Y-12436570D02*
X11805276Y-12236570D01*
X11805276Y-12236570D02*
X11786228Y-12265141D01*
X11786228Y-12265141D02*
X11767181Y-12284189D01*
X11767181Y-12284189D02*
X11748133Y-12293713D01*
X11948133Y-12417522D02*
X11957657Y-12427046D01*
X11957657Y-12427046D02*
X11948133Y-12436570D01*
X11948133Y-12436570D02*
X11938609Y-12427046D01*
X11938609Y-12427046D02*
X11948133Y-12417522D01*
X11948133Y-12417522D02*
X11948133Y-12436570D01*
X12033847Y-12255617D02*
X12043371Y-12246094D01*
X12043371Y-12246094D02*
X12062419Y-12236570D01*
X12062419Y-12236570D02*
X12110038Y-12236570D01*
X12110038Y-12236570D02*
X12129085Y-12246094D01*
X12129085Y-12246094D02*
X12138609Y-12255617D01*
X12138609Y-12255617D02*
X12148133Y-12274665D01*
X12148133Y-12274665D02*
X12148133Y-12293713D01*
X12148133Y-12293713D02*
X12138609Y-12322284D01*
X12138609Y-12322284D02*
X12024323Y-12436570D01*
X12024323Y-12436570D02*
X12148133Y-12436570D01*
X12271942Y-12236570D02*
X12290990Y-12236570D01*
X12290990Y-12236570D02*
X12310038Y-12246094D01*
X12310038Y-12246094D02*
X12319562Y-12255617D01*
X12319562Y-12255617D02*
X12329085Y-12274665D01*
X12329085Y-12274665D02*
X12338609Y-12312760D01*
X12338609Y-12312760D02*
X12338609Y-12360379D01*
X12338609Y-12360379D02*
X12329085Y-12398474D01*
X12329085Y-12398474D02*
X12319562Y-12417522D01*
X12319562Y-12417522D02*
X12310038Y-12427046D01*
X12310038Y-12427046D02*
X12290990Y-12436570D01*
X12290990Y-12436570D02*
X12271942Y-12436570D01*
X12271942Y-12436570D02*
X12252895Y-12427046D01*
X12252895Y-12427046D02*
X12243371Y-12417522D01*
X12243371Y-12417522D02*
X12233847Y-12398474D01*
X12233847Y-12398474D02*
X12224323Y-12360379D01*
X12224323Y-12360379D02*
X12224323Y-12312760D01*
X12224323Y-12312760D02*
X12233847Y-12274665D01*
X12233847Y-12274665D02*
X12243371Y-12255617D01*
X12243371Y-12255617D02*
X12252895Y-12246094D01*
X12252895Y-12246094D02*
X12271942Y-12236570D01*
X12462419Y-12236570D02*
X12481466Y-12236570D01*
X12481466Y-12236570D02*
X12500514Y-12246094D01*
X12500514Y-12246094D02*
X12510038Y-12255617D01*
X12510038Y-12255617D02*
X12519562Y-12274665D01*
X12519562Y-12274665D02*
X12529085Y-12312760D01*
X12529085Y-12312760D02*
X12529085Y-12360379D01*
X12529085Y-12360379D02*
X12519562Y-12398474D01*
X12519562Y-12398474D02*
X12510038Y-12417522D01*
X12510038Y-12417522D02*
X12500514Y-12427046D01*
X12500514Y-12427046D02*
X12481466Y-12436570D01*
X12481466Y-12436570D02*
X12462419Y-12436570D01*
X12462419Y-12436570D02*
X12443371Y-12427046D01*
X12443371Y-12427046D02*
X12433847Y-12417522D01*
X12433847Y-12417522D02*
X12424323Y-12398474D01*
X12424323Y-12398474D02*
X12414800Y-12360379D01*
X12414800Y-12360379D02*
X12414800Y-12312760D01*
X12414800Y-12312760D02*
X12424323Y-12274665D01*
X12424323Y-12274665D02*
X12433847Y-12255617D01*
X12433847Y-12255617D02*
X12443371Y-12246094D01*
X12443371Y-12246094D02*
X12462419Y-12236570D01*
X12614800Y-12436570D02*
X12614800Y-12303236D01*
X12614800Y-12322284D02*
X12624323Y-12312760D01*
X12624323Y-12312760D02*
X12643371Y-12303236D01*
X12643371Y-12303236D02*
X12671943Y-12303236D01*
X12671943Y-12303236D02*
X12690990Y-12312760D01*
X12690990Y-12312760D02*
X12700514Y-12331808D01*
X12700514Y-12331808D02*
X12700514Y-12436570D01*
X12700514Y-12331808D02*
X12710038Y-12312760D01*
X12710038Y-12312760D02*
X12729085Y-12303236D01*
X12729085Y-12303236D02*
X12757657Y-12303236D01*
X12757657Y-12303236D02*
X12776704Y-12312760D01*
X12776704Y-12312760D02*
X12786228Y-12331808D01*
X12786228Y-12331808D02*
X12786228Y-12436570D01*
X12881466Y-12436570D02*
X12881466Y-12303236D01*
X12881466Y-12322284D02*
X12890990Y-12312760D01*
X12890990Y-12312760D02*
X12910038Y-12303236D01*
X12910038Y-12303236D02*
X12938609Y-12303236D01*
X12938609Y-12303236D02*
X12957657Y-12312760D01*
X12957657Y-12312760D02*
X12967181Y-12331808D01*
X12967181Y-12331808D02*
X12967181Y-12436570D01*
X12967181Y-12331808D02*
X12976704Y-12312760D01*
X12976704Y-12312760D02*
X12995752Y-12303236D01*
X12995752Y-12303236D02*
X13024323Y-12303236D01*
X13024323Y-12303236D02*
X13043371Y-12312760D01*
X13043371Y-12312760D02*
X13052895Y-12331808D01*
X13052895Y-12331808D02*
X13052895Y-12436570D01*
X13443371Y-12227046D02*
X13271943Y-12484189D01*
X13700514Y-12236570D02*
X13719562Y-12236570D01*
X13719562Y-12236570D02*
X13738609Y-12246094D01*
X13738609Y-12246094D02*
X13748133Y-12255617D01*
X13748133Y-12255617D02*
X13757657Y-12274665D01*
X13757657Y-12274665D02*
X13767181Y-12312760D01*
X13767181Y-12312760D02*
X13767181Y-12360379D01*
X13767181Y-12360379D02*
X13757657Y-12398474D01*
X13757657Y-12398474D02*
X13748133Y-12417522D01*
X13748133Y-12417522D02*
X13738609Y-12427046D01*
X13738609Y-12427046D02*
X13719562Y-12436570D01*
X13719562Y-12436570D02*
X13700514Y-12436570D01*
X13700514Y-12436570D02*
X13681466Y-12427046D01*
X13681466Y-12427046D02*
X13671943Y-12417522D01*
X13671943Y-12417522D02*
X13662419Y-12398474D01*
X13662419Y-12398474D02*
X13652895Y-12360379D01*
X13652895Y-12360379D02*
X13652895Y-12312760D01*
X13652895Y-12312760D02*
X13662419Y-12274665D01*
X13662419Y-12274665D02*
X13671943Y-12255617D01*
X13671943Y-12255617D02*
X13681466Y-12246094D01*
X13681466Y-12246094D02*
X13700514Y-12236570D01*
X13852895Y-12417522D02*
X13862419Y-12427046D01*
X13862419Y-12427046D02*
X13852895Y-12436570D01*
X13852895Y-12436570D02*
X13843371Y-12427046D01*
X13843371Y-12427046D02*
X13852895Y-12417522D01*
X13852895Y-12417522D02*
X13852895Y-12436570D01*
X13986228Y-12236570D02*
X14005276Y-12236570D01*
X14005276Y-12236570D02*
X14024324Y-12246094D01*
X14024324Y-12246094D02*
X14033847Y-12255617D01*
X14033847Y-12255617D02*
X14043371Y-12274665D01*
X14043371Y-12274665D02*
X14052895Y-12312760D01*
X14052895Y-12312760D02*
X14052895Y-12360379D01*
X14052895Y-12360379D02*
X14043371Y-12398474D01*
X14043371Y-12398474D02*
X14033847Y-12417522D01*
X14033847Y-12417522D02*
X14024324Y-12427046D01*
X14024324Y-12427046D02*
X14005276Y-12436570D01*
X14005276Y-12436570D02*
X13986228Y-12436570D01*
X13986228Y-12436570D02*
X13967181Y-12427046D01*
X13967181Y-12427046D02*
X13957657Y-12417522D01*
X13957657Y-12417522D02*
X13948133Y-12398474D01*
X13948133Y-12398474D02*
X13938609Y-12360379D01*
X13938609Y-12360379D02*
X13938609Y-12312760D01*
X13938609Y-12312760D02*
X13948133Y-12274665D01*
X13948133Y-12274665D02*
X13957657Y-12255617D01*
X13957657Y-12255617D02*
X13967181Y-12246094D01*
X13967181Y-12246094D02*
X13986228Y-12236570D01*
X14224324Y-12303236D02*
X14224324Y-12436570D01*
X14176705Y-12227046D02*
X14129086Y-12369903D01*
X14129086Y-12369903D02*
X14252895Y-12369903D01*
X14310038Y-12236570D02*
X14443371Y-12236570D01*
X14443371Y-12236570D02*
X14357657Y-12436570D01*
X14510038Y-12255617D02*
X14519562Y-12246094D01*
X14519562Y-12246094D02*
X14538609Y-12236570D01*
X14538609Y-12236570D02*
X14586228Y-12236570D01*
X14586228Y-12236570D02*
X14605276Y-12246094D01*
X14605276Y-12246094D02*
X14614800Y-12255617D01*
X14614800Y-12255617D02*
X14624324Y-12274665D01*
X14624324Y-12274665D02*
X14624324Y-12293713D01*
X14624324Y-12293713D02*
X14614800Y-12322284D01*
X14614800Y-12322284D02*
X14500514Y-12436570D01*
X14500514Y-12436570D02*
X14624324Y-12436570D01*
X14700514Y-12236570D02*
X14700514Y-12274665D01*
X14776705Y-12236570D02*
X14776705Y-12274665D01*
X15071943Y-12512760D02*
X15062419Y-12503236D01*
X15062419Y-12503236D02*
X15043371Y-12474665D01*
X15043371Y-12474665D02*
X15033848Y-12455617D01*
X15033848Y-12455617D02*
X15024324Y-12427046D01*
X15024324Y-12427046D02*
X15014800Y-12379427D01*
X15014800Y-12379427D02*
X15014800Y-12341332D01*
X15014800Y-12341332D02*
X15024324Y-12293713D01*
X15024324Y-12293713D02*
X15033848Y-12265141D01*
X15033848Y-12265141D02*
X15043371Y-12246094D01*
X15043371Y-12246094D02*
X15062419Y-12217522D01*
X15062419Y-12217522D02*
X15071943Y-12207998D01*
X15138609Y-12255617D02*
X15148133Y-12246094D01*
X15148133Y-12246094D02*
X15167181Y-12236570D01*
X15167181Y-12236570D02*
X15214800Y-12236570D01*
X15214800Y-12236570D02*
X15233848Y-12246094D01*
X15233848Y-12246094D02*
X15243371Y-12255617D01*
X15243371Y-12255617D02*
X15252895Y-12274665D01*
X15252895Y-12274665D02*
X15252895Y-12293713D01*
X15252895Y-12293713D02*
X15243371Y-12322284D01*
X15243371Y-12322284D02*
X15129086Y-12436570D01*
X15129086Y-12436570D02*
X15252895Y-12436570D01*
X15490990Y-12436570D02*
X15490990Y-12236570D01*
X15576705Y-12436570D02*
X15576705Y-12331808D01*
X15576705Y-12331808D02*
X15567181Y-12312760D01*
X15567181Y-12312760D02*
X15548133Y-12303236D01*
X15548133Y-12303236D02*
X15519562Y-12303236D01*
X15519562Y-12303236D02*
X15500514Y-12312760D01*
X15500514Y-12312760D02*
X15490990Y-12322284D01*
X15700514Y-12436570D02*
X15681467Y-12427046D01*
X15681467Y-12427046D02*
X15671943Y-12417522D01*
X15671943Y-12417522D02*
X15662419Y-12398474D01*
X15662419Y-12398474D02*
X15662419Y-12341332D01*
X15662419Y-12341332D02*
X15671943Y-12322284D01*
X15671943Y-12322284D02*
X15681467Y-12312760D01*
X15681467Y-12312760D02*
X15700514Y-12303236D01*
X15700514Y-12303236D02*
X15729086Y-12303236D01*
X15729086Y-12303236D02*
X15748133Y-12312760D01*
X15748133Y-12312760D02*
X15757657Y-12322284D01*
X15757657Y-12322284D02*
X15767181Y-12341332D01*
X15767181Y-12341332D02*
X15767181Y-12398474D01*
X15767181Y-12398474D02*
X15757657Y-12417522D01*
X15757657Y-12417522D02*
X15748133Y-12427046D01*
X15748133Y-12427046D02*
X15729086Y-12436570D01*
X15729086Y-12436570D02*
X15700514Y-12436570D01*
X15881467Y-12436570D02*
X15862419Y-12427046D01*
X15862419Y-12427046D02*
X15852895Y-12407998D01*
X15852895Y-12407998D02*
X15852895Y-12236570D01*
X16033848Y-12427046D02*
X16014800Y-12436570D01*
X16014800Y-12436570D02*
X15976705Y-12436570D01*
X15976705Y-12436570D02*
X15957657Y-12427046D01*
X15957657Y-12427046D02*
X15948133Y-12407998D01*
X15948133Y-12407998D02*
X15948133Y-12331808D01*
X15948133Y-12331808D02*
X15957657Y-12312760D01*
X15957657Y-12312760D02*
X15976705Y-12303236D01*
X15976705Y-12303236D02*
X16014800Y-12303236D01*
X16014800Y-12303236D02*
X16033848Y-12312760D01*
X16033848Y-12312760D02*
X16043371Y-12331808D01*
X16043371Y-12331808D02*
X16043371Y-12350855D01*
X16043371Y-12350855D02*
X15948133Y-12369903D01*
X16119562Y-12427046D02*
X16138610Y-12436570D01*
X16138610Y-12436570D02*
X16176705Y-12436570D01*
X16176705Y-12436570D02*
X16195752Y-12427046D01*
X16195752Y-12427046D02*
X16205276Y-12407998D01*
X16205276Y-12407998D02*
X16205276Y-12398474D01*
X16205276Y-12398474D02*
X16195752Y-12379427D01*
X16195752Y-12379427D02*
X16176705Y-12369903D01*
X16176705Y-12369903D02*
X16148133Y-12369903D01*
X16148133Y-12369903D02*
X16129086Y-12360379D01*
X16129086Y-12360379D02*
X16119562Y-12341332D01*
X16119562Y-12341332D02*
X16119562Y-12331808D01*
X16119562Y-12331808D02*
X16129086Y-12312760D01*
X16129086Y-12312760D02*
X16148133Y-12303236D01*
X16148133Y-12303236D02*
X16176705Y-12303236D01*
X16176705Y-12303236D02*
X16195752Y-12312760D01*
X16271943Y-12512760D02*
X16281467Y-12503236D01*
X16281467Y-12503236D02*
X16300514Y-12474665D01*
X16300514Y-12474665D02*
X16310038Y-12455617D01*
X16310038Y-12455617D02*
X16319562Y-12427046D01*
X16319562Y-12427046D02*
X16329086Y-12379427D01*
X16329086Y-12379427D02*
X16329086Y-12341332D01*
X16329086Y-12341332D02*
X16319562Y-12293713D01*
X16319562Y-12293713D02*
X16310038Y-12265141D01*
X16310038Y-12265141D02*
X16300514Y-12246094D01*
X16300514Y-12246094D02*
X16281467Y-12217522D01*
X16281467Y-12217522D02*
X16271943Y-12207998D01*
D15*
X11366880Y-12544086D02*
X11496880Y-12674086D01*
X11496880Y-12544086D02*
X11366880Y-12674086D01*
X11496880Y-12609086D02*
G75*
G02*
X11366880Y-12609086I-65000J0D01*
G01*
X11366880Y-12609086D02*
G75*
G02*
X11496880Y-12609086I65000J0D01*
G01*
D11*
X11862419Y-12700570D02*
X11748133Y-12700570D01*
X11805276Y-12700570D02*
X11805276Y-12500570D01*
X11805276Y-12500570D02*
X11786228Y-12529141D01*
X11786228Y-12529141D02*
X11767181Y-12548189D01*
X11767181Y-12548189D02*
X11748133Y-12557713D01*
X11948133Y-12681522D02*
X11957657Y-12691046D01*
X11957657Y-12691046D02*
X11948133Y-12700570D01*
X11948133Y-12700570D02*
X11938609Y-12691046D01*
X11938609Y-12691046D02*
X11948133Y-12681522D01*
X11948133Y-12681522D02*
X11948133Y-12700570D01*
X12024323Y-12500570D02*
X12148133Y-12500570D01*
X12148133Y-12500570D02*
X12081466Y-12576760D01*
X12081466Y-12576760D02*
X12110038Y-12576760D01*
X12110038Y-12576760D02*
X12129085Y-12586284D01*
X12129085Y-12586284D02*
X12138609Y-12595808D01*
X12138609Y-12595808D02*
X12148133Y-12614855D01*
X12148133Y-12614855D02*
X12148133Y-12662474D01*
X12148133Y-12662474D02*
X12138609Y-12681522D01*
X12138609Y-12681522D02*
X12129085Y-12691046D01*
X12129085Y-12691046D02*
X12110038Y-12700570D01*
X12110038Y-12700570D02*
X12052895Y-12700570D01*
X12052895Y-12700570D02*
X12033847Y-12691046D01*
X12033847Y-12691046D02*
X12024323Y-12681522D01*
X12271942Y-12500570D02*
X12290990Y-12500570D01*
X12290990Y-12500570D02*
X12310038Y-12510094D01*
X12310038Y-12510094D02*
X12319562Y-12519617D01*
X12319562Y-12519617D02*
X12329085Y-12538665D01*
X12329085Y-12538665D02*
X12338609Y-12576760D01*
X12338609Y-12576760D02*
X12338609Y-12624379D01*
X12338609Y-12624379D02*
X12329085Y-12662474D01*
X12329085Y-12662474D02*
X12319562Y-12681522D01*
X12319562Y-12681522D02*
X12310038Y-12691046D01*
X12310038Y-12691046D02*
X12290990Y-12700570D01*
X12290990Y-12700570D02*
X12271942Y-12700570D01*
X12271942Y-12700570D02*
X12252895Y-12691046D01*
X12252895Y-12691046D02*
X12243371Y-12681522D01*
X12243371Y-12681522D02*
X12233847Y-12662474D01*
X12233847Y-12662474D02*
X12224323Y-12624379D01*
X12224323Y-12624379D02*
X12224323Y-12576760D01*
X12224323Y-12576760D02*
X12233847Y-12538665D01*
X12233847Y-12538665D02*
X12243371Y-12519617D01*
X12243371Y-12519617D02*
X12252895Y-12510094D01*
X12252895Y-12510094D02*
X12271942Y-12500570D01*
X12462419Y-12500570D02*
X12481466Y-12500570D01*
X12481466Y-12500570D02*
X12500514Y-12510094D01*
X12500514Y-12510094D02*
X12510038Y-12519617D01*
X12510038Y-12519617D02*
X12519562Y-12538665D01*
X12519562Y-12538665D02*
X12529085Y-12576760D01*
X12529085Y-12576760D02*
X12529085Y-12624379D01*
X12529085Y-12624379D02*
X12519562Y-12662474D01*
X12519562Y-12662474D02*
X12510038Y-12681522D01*
X12510038Y-12681522D02*
X12500514Y-12691046D01*
X12500514Y-12691046D02*
X12481466Y-12700570D01*
X12481466Y-12700570D02*
X12462419Y-12700570D01*
X12462419Y-12700570D02*
X12443371Y-12691046D01*
X12443371Y-12691046D02*
X12433847Y-12681522D01*
X12433847Y-12681522D02*
X12424323Y-12662474D01*
X12424323Y-12662474D02*
X12414800Y-12624379D01*
X12414800Y-12624379D02*
X12414800Y-12576760D01*
X12414800Y-12576760D02*
X12424323Y-12538665D01*
X12424323Y-12538665D02*
X12433847Y-12519617D01*
X12433847Y-12519617D02*
X12443371Y-12510094D01*
X12443371Y-12510094D02*
X12462419Y-12500570D01*
X12614800Y-12700570D02*
X12614800Y-12567236D01*
X12614800Y-12586284D02*
X12624323Y-12576760D01*
X12624323Y-12576760D02*
X12643371Y-12567236D01*
X12643371Y-12567236D02*
X12671943Y-12567236D01*
X12671943Y-12567236D02*
X12690990Y-12576760D01*
X12690990Y-12576760D02*
X12700514Y-12595808D01*
X12700514Y-12595808D02*
X12700514Y-12700570D01*
X12700514Y-12595808D02*
X12710038Y-12576760D01*
X12710038Y-12576760D02*
X12729085Y-12567236D01*
X12729085Y-12567236D02*
X12757657Y-12567236D01*
X12757657Y-12567236D02*
X12776704Y-12576760D01*
X12776704Y-12576760D02*
X12786228Y-12595808D01*
X12786228Y-12595808D02*
X12786228Y-12700570D01*
X12881466Y-12700570D02*
X12881466Y-12567236D01*
X12881466Y-12586284D02*
X12890990Y-12576760D01*
X12890990Y-12576760D02*
X12910038Y-12567236D01*
X12910038Y-12567236D02*
X12938609Y-12567236D01*
X12938609Y-12567236D02*
X12957657Y-12576760D01*
X12957657Y-12576760D02*
X12967181Y-12595808D01*
X12967181Y-12595808D02*
X12967181Y-12700570D01*
X12967181Y-12595808D02*
X12976704Y-12576760D01*
X12976704Y-12576760D02*
X12995752Y-12567236D01*
X12995752Y-12567236D02*
X13024323Y-12567236D01*
X13024323Y-12567236D02*
X13043371Y-12576760D01*
X13043371Y-12576760D02*
X13052895Y-12595808D01*
X13052895Y-12595808D02*
X13052895Y-12700570D01*
X13443371Y-12491046D02*
X13271943Y-12748189D01*
X13700514Y-12500570D02*
X13719562Y-12500570D01*
X13719562Y-12500570D02*
X13738609Y-12510094D01*
X13738609Y-12510094D02*
X13748133Y-12519617D01*
X13748133Y-12519617D02*
X13757657Y-12538665D01*
X13757657Y-12538665D02*
X13767181Y-12576760D01*
X13767181Y-12576760D02*
X13767181Y-12624379D01*
X13767181Y-12624379D02*
X13757657Y-12662474D01*
X13757657Y-12662474D02*
X13748133Y-12681522D01*
X13748133Y-12681522D02*
X13738609Y-12691046D01*
X13738609Y-12691046D02*
X13719562Y-12700570D01*
X13719562Y-12700570D02*
X13700514Y-12700570D01*
X13700514Y-12700570D02*
X13681466Y-12691046D01*
X13681466Y-12691046D02*
X13671943Y-12681522D01*
X13671943Y-12681522D02*
X13662419Y-12662474D01*
X13662419Y-12662474D02*
X13652895Y-12624379D01*
X13652895Y-12624379D02*
X13652895Y-12576760D01*
X13652895Y-12576760D02*
X13662419Y-12538665D01*
X13662419Y-12538665D02*
X13671943Y-12519617D01*
X13671943Y-12519617D02*
X13681466Y-12510094D01*
X13681466Y-12510094D02*
X13700514Y-12500570D01*
X13852895Y-12681522D02*
X13862419Y-12691046D01*
X13862419Y-12691046D02*
X13852895Y-12700570D01*
X13852895Y-12700570D02*
X13843371Y-12691046D01*
X13843371Y-12691046D02*
X13852895Y-12681522D01*
X13852895Y-12681522D02*
X13852895Y-12700570D01*
X13986228Y-12500570D02*
X14005276Y-12500570D01*
X14005276Y-12500570D02*
X14024324Y-12510094D01*
X14024324Y-12510094D02*
X14033847Y-12519617D01*
X14033847Y-12519617D02*
X14043371Y-12538665D01*
X14043371Y-12538665D02*
X14052895Y-12576760D01*
X14052895Y-12576760D02*
X14052895Y-12624379D01*
X14052895Y-12624379D02*
X14043371Y-12662474D01*
X14043371Y-12662474D02*
X14033847Y-12681522D01*
X14033847Y-12681522D02*
X14024324Y-12691046D01*
X14024324Y-12691046D02*
X14005276Y-12700570D01*
X14005276Y-12700570D02*
X13986228Y-12700570D01*
X13986228Y-12700570D02*
X13967181Y-12691046D01*
X13967181Y-12691046D02*
X13957657Y-12681522D01*
X13957657Y-12681522D02*
X13948133Y-12662474D01*
X13948133Y-12662474D02*
X13938609Y-12624379D01*
X13938609Y-12624379D02*
X13938609Y-12576760D01*
X13938609Y-12576760D02*
X13948133Y-12538665D01*
X13948133Y-12538665D02*
X13957657Y-12519617D01*
X13957657Y-12519617D02*
X13967181Y-12510094D01*
X13967181Y-12510094D02*
X13986228Y-12500570D01*
X14233847Y-12500570D02*
X14138609Y-12500570D01*
X14138609Y-12500570D02*
X14129086Y-12595808D01*
X14129086Y-12595808D02*
X14138609Y-12586284D01*
X14138609Y-12586284D02*
X14157657Y-12576760D01*
X14157657Y-12576760D02*
X14205276Y-12576760D01*
X14205276Y-12576760D02*
X14224324Y-12586284D01*
X14224324Y-12586284D02*
X14233847Y-12595808D01*
X14233847Y-12595808D02*
X14243371Y-12614855D01*
X14243371Y-12614855D02*
X14243371Y-12662474D01*
X14243371Y-12662474D02*
X14233847Y-12681522D01*
X14233847Y-12681522D02*
X14224324Y-12691046D01*
X14224324Y-12691046D02*
X14205276Y-12700570D01*
X14205276Y-12700570D02*
X14157657Y-12700570D01*
X14157657Y-12700570D02*
X14138609Y-12691046D01*
X14138609Y-12691046D02*
X14129086Y-12681522D01*
X14433847Y-12700570D02*
X14319562Y-12700570D01*
X14376705Y-12700570D02*
X14376705Y-12500570D01*
X14376705Y-12500570D02*
X14357657Y-12529141D01*
X14357657Y-12529141D02*
X14338609Y-12548189D01*
X14338609Y-12548189D02*
X14319562Y-12557713D01*
X14510038Y-12519617D02*
X14519562Y-12510094D01*
X14519562Y-12510094D02*
X14538609Y-12500570D01*
X14538609Y-12500570D02*
X14586228Y-12500570D01*
X14586228Y-12500570D02*
X14605276Y-12510094D01*
X14605276Y-12510094D02*
X14614800Y-12519617D01*
X14614800Y-12519617D02*
X14624324Y-12538665D01*
X14624324Y-12538665D02*
X14624324Y-12557713D01*
X14624324Y-12557713D02*
X14614800Y-12586284D01*
X14614800Y-12586284D02*
X14500514Y-12700570D01*
X14500514Y-12700570D02*
X14624324Y-12700570D01*
X14700514Y-12500570D02*
X14700514Y-12538665D01*
X14776705Y-12500570D02*
X14776705Y-12538665D01*
X15071943Y-12776760D02*
X15062419Y-12767236D01*
X15062419Y-12767236D02*
X15043371Y-12738665D01*
X15043371Y-12738665D02*
X15033848Y-12719617D01*
X15033848Y-12719617D02*
X15024324Y-12691046D01*
X15024324Y-12691046D02*
X15014800Y-12643427D01*
X15014800Y-12643427D02*
X15014800Y-12605332D01*
X15014800Y-12605332D02*
X15024324Y-12557713D01*
X15024324Y-12557713D02*
X15033848Y-12529141D01*
X15033848Y-12529141D02*
X15043371Y-12510094D01*
X15043371Y-12510094D02*
X15062419Y-12481522D01*
X15062419Y-12481522D02*
X15071943Y-12471998D01*
X15233848Y-12567236D02*
X15233848Y-12700570D01*
X15186228Y-12491046D02*
X15138609Y-12633903D01*
X15138609Y-12633903D02*
X15262419Y-12633903D01*
X15490990Y-12700570D02*
X15490990Y-12500570D01*
X15576705Y-12700570D02*
X15576705Y-12595808D01*
X15576705Y-12595808D02*
X15567181Y-12576760D01*
X15567181Y-12576760D02*
X15548133Y-12567236D01*
X15548133Y-12567236D02*
X15519562Y-12567236D01*
X15519562Y-12567236D02*
X15500514Y-12576760D01*
X15500514Y-12576760D02*
X15490990Y-12586284D01*
X15700514Y-12700570D02*
X15681467Y-12691046D01*
X15681467Y-12691046D02*
X15671943Y-12681522D01*
X15671943Y-12681522D02*
X15662419Y-12662474D01*
X15662419Y-12662474D02*
X15662419Y-12605332D01*
X15662419Y-12605332D02*
X15671943Y-12586284D01*
X15671943Y-12586284D02*
X15681467Y-12576760D01*
X15681467Y-12576760D02*
X15700514Y-12567236D01*
X15700514Y-12567236D02*
X15729086Y-12567236D01*
X15729086Y-12567236D02*
X15748133Y-12576760D01*
X15748133Y-12576760D02*
X15757657Y-12586284D01*
X15757657Y-12586284D02*
X15767181Y-12605332D01*
X15767181Y-12605332D02*
X15767181Y-12662474D01*
X15767181Y-12662474D02*
X15757657Y-12681522D01*
X15757657Y-12681522D02*
X15748133Y-12691046D01*
X15748133Y-12691046D02*
X15729086Y-12700570D01*
X15729086Y-12700570D02*
X15700514Y-12700570D01*
X15881467Y-12700570D02*
X15862419Y-12691046D01*
X15862419Y-12691046D02*
X15852895Y-12671998D01*
X15852895Y-12671998D02*
X15852895Y-12500570D01*
X16033848Y-12691046D02*
X16014800Y-12700570D01*
X16014800Y-12700570D02*
X15976705Y-12700570D01*
X15976705Y-12700570D02*
X15957657Y-12691046D01*
X15957657Y-12691046D02*
X15948133Y-12671998D01*
X15948133Y-12671998D02*
X15948133Y-12595808D01*
X15948133Y-12595808D02*
X15957657Y-12576760D01*
X15957657Y-12576760D02*
X15976705Y-12567236D01*
X15976705Y-12567236D02*
X16014800Y-12567236D01*
X16014800Y-12567236D02*
X16033848Y-12576760D01*
X16033848Y-12576760D02*
X16043371Y-12595808D01*
X16043371Y-12595808D02*
X16043371Y-12614855D01*
X16043371Y-12614855D02*
X15948133Y-12633903D01*
X16119562Y-12691046D02*
X16138610Y-12700570D01*
X16138610Y-12700570D02*
X16176705Y-12700570D01*
X16176705Y-12700570D02*
X16195752Y-12691046D01*
X16195752Y-12691046D02*
X16205276Y-12671998D01*
X16205276Y-12671998D02*
X16205276Y-12662474D01*
X16205276Y-12662474D02*
X16195752Y-12643427D01*
X16195752Y-12643427D02*
X16176705Y-12633903D01*
X16176705Y-12633903D02*
X16148133Y-12633903D01*
X16148133Y-12633903D02*
X16129086Y-12624379D01*
X16129086Y-12624379D02*
X16119562Y-12605332D01*
X16119562Y-12605332D02*
X16119562Y-12595808D01*
X16119562Y-12595808D02*
X16129086Y-12576760D01*
X16129086Y-12576760D02*
X16148133Y-12567236D01*
X16148133Y-12567236D02*
X16176705Y-12567236D01*
X16176705Y-12567236D02*
X16195752Y-12576760D01*
X16271943Y-12776760D02*
X16281467Y-12767236D01*
X16281467Y-12767236D02*
X16300514Y-12738665D01*
X16300514Y-12738665D02*
X16310038Y-12719617D01*
X16310038Y-12719617D02*
X16319562Y-12691046D01*
X16319562Y-12691046D02*
X16329086Y-12643427D01*
X16329086Y-12643427D02*
X16329086Y-12605332D01*
X16329086Y-12605332D02*
X16319562Y-12557713D01*
X16319562Y-12557713D02*
X16310038Y-12529141D01*
X16310038Y-12529141D02*
X16300514Y-12510094D01*
X16300514Y-12510094D02*
X16281467Y-12481522D01*
X16281467Y-12481522D02*
X16271943Y-12471998D01*
M02*
